<svg width="64" height="64" viewBox="0 0 64 64" fill="none" xmlns="http://www.w3.org/2000/svg">
<path d="M26.7612 32.3742C26.7612 24.7865 26.7423 22.8681 26.6862 22.8931C26.6423 22.912 26.4861 22.9681 26.3422 23.0304L26.0799 23.1365L26.061 23.5489C26.0488 23.8051 26.011 23.9674 25.9671 23.9863C25.9232 23.9985 25.8859 23.9674 25.8859 23.9113C25.8859 23.8551 25.8671 23.8112 25.8421 23.8112C25.742 23.8112 23.1356 24.9049 23.1356 24.9427C23.1356 24.9677 23.2106 24.9989 23.3106 25.0116C23.4418 25.0239 23.3168 25.0928 22.7671 25.3056C22.3731 25.4618 22.0796 25.5929 22.1108 25.5996C22.1419 25.6057 23.0483 25.8057 24.1231 26.0369L26.0794 26.4621L26.0605 27.2123L26.0416 27.9559L25.4792 28.1371C25.173 28.2371 24.5544 28.4244 24.1043 28.5622C23.6607 28.6934 23.3229 28.8062 23.354 28.8123C23.3913 28.8123 24.0103 28.9246 24.7289 29.0496L26.0416 29.2808V29.587C26.0416 29.781 26.0105 29.906 25.9666 29.9244C25.9227 29.9367 25.8854 29.9055 25.8854 29.8494C25.8854 29.7932 25.8732 29.7493 25.8543 29.7493C25.8421 29.7493 25.0479 29.6121 24.092 29.437L22.3547 29.1308L21.4172 29.412C20.4674 29.6932 20.2045 29.8121 20.5424 29.8121C20.8297 29.8121 20.6613 29.8933 20.03 30.0683L19.4298 30.2245L20.7986 30.4368C21.5488 30.5491 22.6487 30.718 23.23 30.8119L24.2926 30.9742L24.3115 30.7053C24.3303 30.4741 24.3487 30.4363 24.4738 30.4363C24.755 30.4363 25.7925 30.1801 25.8614 30.0923C26.0488 29.8484 26.0738 29.9984 26.0738 31.3111C26.0738 32.6237 26.0488 32.7799 25.8614 32.5298C25.8114 32.4609 25.1301 32.3486 23.1366 32.0924C21.6739 31.8985 19.6365 31.6362 18.6056 31.4989C17.5741 31.3616 15.6368 31.1115 14.293 30.9365C12.9553 30.7675 11.7804 30.6114 11.6865 30.5925C11.5426 30.5675 11.5115 30.5863 11.5115 30.6864C11.5115 30.7675 11.4803 30.7987 11.4176 30.7737C11.3487 30.7425 11.3236 30.6297 11.3236 30.3051V29.8739H10.9797H10.6357V35.3491V40.8304L11.0731 40.7932C11.4293 40.762 11.5104 40.7743 11.5104 40.8493C11.5104 40.9116 11.5916 40.9366 11.8105 40.9366C12.1356 40.9366 14.9044 40.7993 17.5731 40.6554C19.3293 40.5553 23.5918 40.3364 24.8856 40.2741C25.7604 40.2369 25.8854 40.2119 25.8854 40.093C25.8854 40.0429 25.9293 39.999 25.9793 39.999C26.0605 39.999 26.0733 40.143 26.0733 40.9055V41.8119H25.7793C25.6103 41.8119 24.8045 41.7807 23.9792 41.7496C21.2605 41.6373 14.0291 41.4434 11.3543 41.4056C9.91044 41.3867 8.54827 41.3495 8.3232 41.3306C7.92308 41.2933 7.92308 41.2867 8.16703 41.2433C8.30432 41.2183 8.73558 41.1744 9.12346 41.156L9.82368 41.106V35.7436C9.82368 31.4871 9.8048 30.3751 9.74866 30.3751C9.70477 30.3751 9.3863 30.3312 9.04231 30.2811C8.69832 30.2311 8.39874 30.1872 8.37373 30.1872C8.3426 30.1872 8.32371 29.7749 8.32371 29.2625V28.3438L10.405 27.3062C11.5426 26.731 15.7113 24.6314 19.661 22.6313C23.6174 20.6373 26.8858 19 26.9358 19C26.9858 19 30.0485 20.0126 33.7481 21.2563C37.4544 22.494 43.6921 24.5814 47.6169 25.894L54.7605 28.2815V29.1063C54.7605 29.8376 54.7482 29.931 54.6543 29.956C54.5481 29.9811 54.5481 29.9872 54.6543 29.9933C54.7232 29.9994 54.7605 30.0494 54.7605 30.1495C54.7605 30.2745 54.7232 30.2995 54.4981 30.3368C53.6234 30.4741 53.4483 30.518 53.4483 30.5991C53.4483 30.6491 53.4044 30.6864 53.3544 30.6864C53.2921 30.6864 53.2605 30.6241 53.2605 30.5052C53.2605 30.3429 53.2355 30.324 52.9481 30.2679L52.6358 30.2056L52.6481 35.5558L52.6669 40.906L53.0921 40.9248C53.4483 40.9371 53.4315 40.9248 53.4825 41.0483C53.4636 41.1423 53.5922 41.1688 54.3547 41.2372C54.836 41.2872 55.2734 41.3434 55.3234 41.3622C55.3734 41.3872 54.7548 41.4122 53.9485 41.4184C52.5235 41.4306 48.1859 41.4995 41.1985 41.6246C39.3234 41.6557 35.9361 41.7118 33.667 41.7496C31.3984 41.7807 28.917 41.8308 28.1545 41.8496L26.7607 41.8869V32.3742H26.7612ZM51.6488 35.9243C51.6426 33.1305 51.6237 30.8431 51.6176 30.8369C51.6115 30.8308 50.2677 31.0431 48.6366 31.3121C43.0052 32.2369 39.4739 32.8121 37.8867 33.0621C37.0119 33.1994 36.0494 33.3561 35.7493 33.4122L35.1991 33.5123V36.9374V40.3685L35.5303 40.3997C35.7054 40.4186 37.4304 40.4936 39.3555 40.562C43.0429 40.6993 44.9119 40.7682 47.9807 40.8993C49.0122 40.9432 50.2621 40.9866 50.7622 40.9932L51.6687 40.9994L51.6498 35.9243H51.6488ZM33.8676 40.243C33.8987 40.1368 33.9365 40.118 34.0799 40.1491L34.2611 40.1863V36.7174C34.2611 33.6736 34.2488 33.2484 34.1672 33.2484C34.1049 33.2484 34.0733 33.3173 34.0733 33.4674C34.0733 33.6424 34.0482 33.6863 33.9482 33.6863C33.8793 33.6863 33.8293 33.6491 33.8421 33.6113C33.8543 33.524 33.3547 33.4424 30.2608 33.03C29.3171 32.9049 28.4919 32.786 28.4357 32.7738C28.3296 32.7426 28.3235 32.9488 28.3235 36.43C28.3235 39.9051 28.3296 40.1236 28.4357 40.1302C28.4919 40.1302 29.6984 40.1863 31.1044 40.2425C32.5171 40.3048 33.7043 40.3614 33.7481 40.3675C33.7982 40.3675 33.8482 40.3175 33.8671 40.2425L33.8676 40.243ZM35.0424 32.4992C34.9985 32.2552 35.0052 32.2491 35.1797 32.2491C35.4298 32.2552 37.386 31.9179 37.386 31.8679C37.386 31.849 37.211 31.8056 36.9987 31.7678C36.7797 31.7306 36.3235 31.6489 35.98 31.5928L35.3548 31.4805L34.2799 31.6867C33.2301 31.8868 32.955 31.9929 33.4363 32.0057L33.6675 32.0118L33.3863 32.0741C33.2301 32.1052 32.98 32.118 32.8239 32.0991C32.6677 32.0868 32.4054 32.1052 32.2303 32.143C31.9241 32.2052 31.9363 32.2119 33.4491 32.4742C34.2927 32.6181 35.0052 32.7365 35.0302 32.7432C35.0613 32.7432 35.0674 32.637 35.0424 32.4992ZM39.9486 31.6367C39.9486 31.4177 39.9608 31.3927 40.1236 31.3927C40.2176 31.3927 40.9484 31.2738 41.7487 31.1304C42.5489 30.9931 43.2297 30.8742 43.2614 30.8742C43.2986 30.8742 43.3236 30.8492 43.3236 30.8119C43.3236 30.7808 43.2736 30.7497 43.2175 30.7497C43.1552 30.7497 42.6923 30.6624 42.186 30.5496L41.2613 30.3495L39.9986 30.5869C38.2925 30.9058 38.1363 30.937 38.1363 30.9992C38.1363 31.0304 38.2113 31.0681 38.3113 31.0804C38.4052 31.0993 38.2552 31.1054 37.9801 31.1054C37.705 31.0993 37.3115 31.1365 37.1053 31.1865L36.7302 31.2738L37.0426 31.33C37.2176 31.3611 37.9173 31.4922 38.6053 31.6239C39.2928 31.7551 39.8741 31.8679 39.9052 31.8679C39.9302 31.874 39.9491 31.7678 39.9491 31.6367H39.9486ZM31.5673 31.2243C32.1609 31.1054 32.6611 30.9992 32.6738 30.9804C32.6861 30.9681 31.9802 30.8364 31.105 30.693L29.505 30.424L28.9298 30.543C28.3546 30.6619 28.3546 30.6619 28.3362 30.8619C28.324 30.9742 28.324 31.062 28.3362 31.062C28.3801 31.0681 30.4236 31.4244 30.4486 31.431C30.4675 31.431 30.9672 31.3371 31.5673 31.2248V31.2243ZM21.8551 31.0681C21.8178 31.037 20.9236 30.8808 19.8677 30.7241C18.4489 30.5052 17.8987 30.4429 17.7742 30.4868L17.6052 30.5491L17.7614 30.5863C17.8487 30.6052 18.5367 30.7053 19.2925 30.8114C20.0489 30.9115 20.8364 31.0237 21.0426 31.0554C21.555 31.1304 21.924 31.1365 21.8551 31.0676V31.0681ZM46.0613 30.3307C46.2113 30.3368 49.6364 29.7243 49.9048 29.6432C49.9671 29.6309 50.011 29.6059 49.9987 29.5932C49.9865 29.5809 49.5113 29.4431 48.9423 29.287C47.9986 29.0307 47.8608 29.0057 47.3484 29.0307C47.0044 29.043 46.3547 29.1497 45.6673 29.3058C43.6671 29.756 42.5234 29.9994 42.405 30.0061C42.136 30.0122 42.6112 30.1433 44.1989 30.4935L45.8551 30.8558L45.8739 30.5935C45.8928 30.3562 45.9051 30.3312 46.0613 30.3312V30.3307ZM36.9675 30.1117C37.9862 29.9055 38.5425 29.7677 38.4675 29.7366C38.4052 29.7116 37.68 29.5493 36.8553 29.3742L35.3553 29.0552L33.8865 29.4054C33.0801 29.5993 32.3926 29.7805 32.3676 29.8055C32.3365 29.8366 32.5927 29.9055 32.93 29.9678C33.4174 30.0551 35.1802 30.3929 35.3236 30.4302C35.3425 30.4363 36.08 30.2929 36.9675 30.1112V30.1117ZM15.2928 30.124C15.4428 30.0678 15.4428 30.0617 13.7617 29.8116C13.0931 29.7116 12.3429 29.5993 12.0928 29.5554C11.7365 29.4993 11.6054 29.4993 11.4492 29.5615C11.343 29.6054 11.2741 29.6554 11.293 29.6738C11.3369 29.7238 14.5931 30.1673 14.9182 30.174C15.0555 30.174 15.2244 30.1551 15.2933 30.124H15.2928ZM17.5552 29.3365C17.6553 29.3737 19.8427 28.749 19.7927 28.699C19.7738 28.6801 18.799 28.5051 17.6303 28.305L15.499 27.9426L14.6303 28.2928C13.7617 28.6367 13.5677 28.749 13.8301 28.749C13.9673 28.749 13.9673 28.749 13.8489 28.8429C13.7867 28.893 13.555 28.993 13.3427 29.068C13.1237 29.1492 12.9614 29.2181 12.9675 29.2303C12.9798 29.2364 13.7612 29.3615 14.7048 29.4993C15.6485 29.6366 16.6422 29.7866 16.9173 29.8305L17.4174 29.9055L17.4363 29.6054C17.4552 29.3615 17.4736 29.3053 17.5552 29.3365ZM29.2926 29.5677C29.2488 29.2553 29.2488 29.2553 29.4299 29.2614C29.5238 29.2614 30.2424 29.1053 31.0238 28.9113C31.8113 28.7174 32.4926 28.5612 32.5427 28.5612C32.5927 28.5612 32.6366 28.5362 32.6366 28.4989C32.6366 28.4678 32.6177 28.4367 32.5927 28.4367C32.5615 28.4367 31.6301 28.2366 30.5114 27.9993C29.3927 27.762 28.4429 27.5619 28.4051 27.5619C28.3429 27.5619 28.324 27.7559 28.324 28.3183C28.324 29.0119 28.3362 29.0746 28.4429 29.1058C28.549 29.1308 28.5618 29.1747 28.5302 29.4309L28.499 29.731L28.893 29.7932C29.112 29.8305 29.3054 29.8621 29.3115 29.8683C29.3238 29.8683 29.3177 29.7371 29.2926 29.5682V29.5677ZM41.1051 29.4615C41.0678 29.1553 41.074 29.1114 41.1612 29.1425C41.2112 29.1614 41.9926 29.0114 42.8985 28.8052C45.1987 28.2866 45.2421 28.2739 45.136 28.23C45.0859 28.205 44.3735 28.0049 43.5548 27.7865C42.3238 27.4425 42.0421 27.3863 41.9048 27.4425C41.8109 27.4797 41.6425 27.4925 41.5297 27.4675C41.3358 27.4364 40.3548 27.6614 37.4672 28.4239L36.3296 28.7179L37.5606 28.9869C38.5231 29.1992 41.0045 29.7682 41.1296 29.8055C41.1418 29.8055 41.1296 29.6554 41.1046 29.4615H41.1051ZM35.1363 28.0866C35.1363 27.7992 35.1552 27.7426 35.2303 27.7742C35.3553 27.8181 39.5367 26.6744 39.4367 26.6177C39.3928 26.5989 38.8054 26.4304 38.1368 26.2554C37.4682 26.0742 36.5245 25.8119 36.0494 25.6741C35.3058 25.4679 35.1557 25.4367 35.0057 25.499C34.8995 25.5429 34.7556 25.5552 34.6244 25.524C34.5122 25.499 34.3932 25.4801 34.3555 25.4929C33.3179 25.7869 31.1305 26.4677 31.0304 26.5366C30.9554 26.5866 30.8243 26.6239 30.7492 26.6239C30.6681 26.6239 30.2429 26.7239 29.7994 26.8551L28.9931 27.0924L29.3304 27.1674C29.5177 27.2113 30.2052 27.3613 30.8554 27.4986C31.5117 27.6426 32.7055 27.9049 33.5118 28.0861C34.3182 28.2734 35.0179 28.4234 35.0618 28.43C35.1118 28.4362 35.1369 28.33 35.1369 28.0861L35.1363 28.0866ZM23.9802 27.4114C24.805 27.1552 25.4363 26.9301 25.3863 26.9112C25.3363 26.8923 24.3487 26.68 23.1989 26.436C22.049 26.1921 20.9987 25.9737 20.8736 25.9425C20.6613 25.8925 20.5113 25.9364 19.3425 26.411C18.6239 26.6984 17.9737 26.9673 17.8865 27.0046L17.7303 27.0796L17.8865 27.1296C17.9737 27.1546 18.774 27.3108 19.6676 27.467C20.5613 27.6232 21.4616 27.7921 21.6678 27.8421C21.874 27.886 22.1429 27.9171 22.2613 27.8982C22.3802 27.886 23.155 27.667 23.9802 27.4108V27.4114ZM46.9488 27.6553C46.8299 27.6114 46.6865 27.5742 46.6364 27.5742C46.5864 27.5742 46.6426 27.6114 46.7615 27.6553C46.8804 27.6992 47.0238 27.7365 47.0738 27.7365C47.1238 27.7365 47.0677 27.6992 46.9488 27.6553ZM45.9801 27.368C45.7739 27.2991 45.1554 27.1056 44.6052 26.9367C42.3427 26.2493 36.6113 24.4742 31.9241 23.0054L26.924 21.4426L26.1738 21.7927C25.7553 21.9867 24.6427 22.4991 23.699 22.9365C22.7554 23.3738 21.4866 23.9552 20.8864 24.2364C20.2862 24.5115 19.4987 24.8738 19.1363 25.0427C18.774 25.2117 18.0676 25.5429 17.5552 25.7802C17.0489 26.0114 16.6427 26.2176 16.6555 26.2304C16.6805 26.2493 20.8052 24.4181 24.5432 22.718C25.5057 22.2806 26.3994 21.8805 26.5305 21.8305C26.9368 21.6616 26.7867 21.6243 32.412 23.3366C36.0433 24.4431 37.1058 24.7677 41.1372 25.968C43.2874 26.6116 45.2998 27.2118 45.606 27.3118C45.9184 27.4119 46.2123 27.4869 46.2623 27.4869C46.3124 27.4869 46.1873 27.4307 45.9811 27.368H45.9801ZM16.3237 26.4054C16.4799 26.3243 16.5799 26.2554 16.5427 26.2554C16.5115 26.2554 16.3554 26.3243 16.1987 26.4054C16.0425 26.4866 15.9486 26.5555 15.9797 26.5555C16.017 26.5555 16.167 26.4866 16.3237 26.4054ZM30.6364 25.3117C31.6301 24.9866 32.4426 24.6993 32.4488 24.6804C32.4488 24.6615 32.1048 24.5553 31.6863 24.4364C30.936 24.2364 28.6486 23.5928 28.4362 23.5239C28.3301 23.4928 28.324 23.58 28.324 24.7738V26.0548L28.574 25.9798C28.7113 25.9359 29.6366 25.6358 30.6364 25.3112V25.3117Z" fill="black"/>
<path d="M26.0917 41.8302L25.8855 41.8051V37.1674C25.8855 34.6176 25.8793 31.8423 25.8666 30.9986L25.8543 29.4675L24.6978 29.2675C22.6166 28.9051 22.3792 28.8612 22.4043 28.8301C22.4165 28.8178 22.9478 28.655 23.5791 28.4677C24.2104 28.2804 24.9852 28.0426 25.2914 27.9492L25.8538 27.768L25.8727 27.2056L25.8916 26.6493L24.8101 26.412C24.2166 26.2808 23.279 26.0807 22.7289 25.9618C22.1787 25.8429 21.6601 25.7306 21.579 25.7117C21.335 25.6556 21.5167 25.5367 22.3292 25.2243L23.0478 24.9431L24.3855 25.2494C25.1169 25.4244 25.7604 25.5617 25.8043 25.5617C25.8732 25.5617 25.8916 25.3866 25.8855 24.6742C25.8793 24.1806 25.8793 23.5927 25.8855 23.3681V22.9619L26.3667 22.7429C26.6291 22.624 26.8669 22.5179 26.898 22.5117C26.923 22.4995 26.9481 26.8494 26.9481 32.1806V41.8746L26.6229 41.8623C26.4418 41.8623 26.1978 41.8434 26.0917 41.8312V41.8302ZM25.8605 28.2054C25.8104 28.1493 25.1562 28.3656 25.1562 28.3656C24.6203 28.4677 25.2853 28.505 25.4915 28.5366L25.8538 28.5928L25.8727 28.4177C25.885 28.3177 25.8788 28.2238 25.8605 28.2054Z" fill="#323231"/>
<path d="M52.4921 41.0868C52.4671 41.0618 52.4482 38.5432 52.4482 35.4871C52.4482 30.2247 52.4544 29.9307 52.5605 29.9618C52.6167 29.9807 52.8417 30.0241 53.0607 30.068L53.448 30.143L53.4603 35.3181C53.4664 38.168 53.4725 40.6306 53.4792 40.7995V41.1123H53.0107C52.7483 41.1185 52.5171 41.1123 52.4921 41.0873V41.0868Z" fill="#323231"/>
<path d="M10.4482 35.3802V29.6865H10.9045C11.1485 29.6865 11.3919 29.7115 11.4358 29.7365C11.4981 29.7804 11.517 30.918 11.5297 35.3863L11.542 40.9799L11.1046 40.9922C10.8673 40.9983 10.6172 41.0172 10.561 41.0361C10.4549 41.0672 10.4488 40.7671 10.4488 35.3797L10.4482 35.3802Z" fill="#323231"/>
<path d="M33.9042 40.2995C33.848 40.2122 33.8103 33.7494 33.8669 33.3432C33.8919 33.0992 33.9108 33.087 34.1731 33.0242L34.4482 32.9619V36.6682V40.3745H34.2043C34.067 40.3745 33.9353 40.3372 33.9042 40.2995Z" fill="#323231"/>
<path d="M33.4168 32.6802C32.4232 32.5113 31.4417 32.3612 31.2417 32.3362C30.7231 32.2739 30.8727 32.1739 31.7352 32.005C32.3854 31.8799 33.1979 31.8488 33.1979 31.955C33.1979 31.98 33.2852 31.9988 33.3918 31.9988C33.6669 31.9988 35.1541 32.2551 35.2169 32.3112C35.248 32.3362 35.2608 32.4985 35.248 32.6674L35.2292 32.9798L33.4168 32.6797V32.6802Z" fill="#323231"/>
<path d="M38.7602 31.8798C38.0916 31.7487 37.0979 31.5608 36.5539 31.4613C35.9664 31.3552 35.6163 31.2613 35.6791 31.2363C35.7414 31.2112 36.2793 31.1051 36.8729 30.9989C37.2266 30.9357 37.5073 30.8662 38.0605 30.9239C38.1355 31.0051 38.3478 31.074 38.7607 31.149C39.0858 31.2051 39.5232 31.2863 39.7294 31.3302L40.1045 31.4113L40.1234 31.7675C40.1356 32.0299 40.1234 32.1238 40.0611 32.1177C40.0172 32.1115 39.4298 32.0054 38.7612 31.8803L38.7602 31.8798Z" fill="#323231"/>
<path d="M21.5728 30.7745C18.3166 30.262 18.3978 30.2743 18.51 30.2309C18.804 30.112 20.3224 29.7624 20.4224 29.7874C20.4847 29.7997 21.4222 29.9563 22.5037 30.1248C23.5785 30.2937 24.466 30.4371 24.4788 30.4499C24.4849 30.4621 24.5099 30.631 24.5288 30.8311L24.5661 31.1873L24.3349 31.1812C24.2098 31.1751 22.9661 30.9939 21.5722 30.775L21.5728 30.7745Z" fill="#323231"/>
<path d="M44.8231 30.8613C44.2229 30.7301 42.9419 30.4361 41.9793 30.2177C38.5982 29.4425 37.2232 29.1362 36.2607 28.9367C35.7294 28.8244 35.2731 28.7244 35.2542 28.7116C35.2231 28.6927 31.9292 27.9614 29.4794 27.4306C28.2979 27.1744 28.3168 27.1805 28.3418 27.1055C28.3668 27.0305 30.2919 26.443 30.5293 26.4369C30.6232 26.4369 30.7666 26.3997 30.8416 26.3496C30.9166 26.2996 31.6419 26.0623 32.4477 25.8183C33.2541 25.581 34.0288 25.3432 34.1666 25.2932C34.3856 25.2182 34.4606 25.2243 34.748 25.3121C35.0042 25.3932 35.0603 25.431 34.998 25.481C34.9541 25.5183 34.2167 25.75 33.3541 25.9934C31.0289 26.662 30.9416 26.687 30.9789 26.7436C30.9911 26.7748 31.1162 26.8187 31.2412 26.8437C31.7286 26.9309 35.2287 27.7685 35.2787 27.8124C35.3037 27.8312 35.3288 28.0374 35.3288 28.2686C35.3349 28.556 35.3599 28.6871 35.4099 28.6871C35.491 28.6871 36.816 28.3559 39.6347 27.6307C41.2786 27.2055 41.3659 27.1872 41.6532 27.2617C41.8844 27.3178 41.9344 27.3489 41.8722 27.4117C41.8283 27.449 40.9785 27.6868 39.9848 27.9302C38.9911 28.1742 38.1598 28.3865 38.1475 28.4054C38.1036 28.4493 38.5037 28.5493 40.6973 29.0367C40.9535 29.0929 41.2036 29.1679 41.2475 29.199C41.2914 29.2363 41.3225 29.4113 41.3225 29.6303C41.3225 29.8365 41.3347 29.9993 41.3536 29.9993C41.4475 29.9993 43.191 29.6242 45.6101 29.0929C46.86 28.8117 47.1039 28.7805 47.3724 28.8489C47.7225 28.9489 47.4285 29.049 45.7601 29.3991C44.7915 29.6053 43.9912 29.7931 43.9728 29.8176C43.9606 29.8426 44.2791 29.9365 44.6792 30.0299C45.0854 30.1238 45.5606 30.23 45.729 30.2739L46.0414 30.3489L46.0602 30.7362C46.0725 31.0236 46.0602 31.1236 45.998 31.1175C45.9541 31.1114 45.4228 30.9986 44.8231 30.8613Z" fill="#323231"/>
<path d="M15.9481 29.9052C15.2418 29.7929 14.1108 29.624 13.4295 29.5301C12.0106 29.3239 12.0106 29.3239 12.9482 28.9677C13.2733 28.8426 13.4693 28.7482 13.5203 28.7227C13.5969 28.7227 13.6224 28.7226 13.7245 28.7227L13.9286 28.7482C13.9286 28.7482 17.4981 29.3239 17.5731 29.3673C17.667 29.4173 17.7043 29.7174 17.6481 29.9858C17.617 30.1609 17.567 30.1609 15.9481 29.9047V29.9052Z" fill="#323231"/>
<path d="M28.8734 30.0059L28.3232 29.912V29.518C28.3232 29.124 28.3232 29.124 28.4983 29.124C28.7856 29.124 29.4108 29.2613 29.4609 29.3363C29.5231 29.4236 29.5231 30.0488 29.467 30.0738C29.4358 30.0861 29.173 30.0549 28.8734 30.0049V30.0059Z" fill="#323231"/>
<path d="M54.6043 30.2555C54.5671 30.2305 53.5729 29.9181 52.3858 29.568C44.8543 27.3367 34.4545 24.2178 31.1045 23.1869C29.8296 22.7995 27.8295 22.1932 27.2543 22.0304L26.898 21.9304L26.0044 22.3305C25.5109 22.5556 23.7858 23.3303 22.1669 24.0617C19.6294 25.2054 16.1732 26.7431 12.1357 28.5304C11.5355 28.7994 10.5479 29.224 9.94825 29.4802C9.34806 29.7425 8.74838 30.0054 8.62334 30.0677C8.32324 30.2238 8.32324 30.2238 8.32324 29.9804C8.32324 29.8242 8.3605 29.7553 8.4983 29.6742C8.59221 29.618 10.2984 28.8305 12.2919 27.918C15.4046 26.4992 16.5105 25.9868 18.9169 24.8742C19.1231 24.7741 19.5482 24.5802 19.8545 24.4368C20.1668 24.2929 20.9232 23.9433 21.5417 23.6554C22.1603 23.3742 23.5853 22.7179 24.7106 22.1927C25.8355 21.6742 26.8291 21.249 26.9231 21.249C27.017 21.249 29.4856 21.9993 32.4105 22.9113C37.1855 24.4051 43.2793 26.2925 44.104 26.5425C44.2791 26.5926 45.4979 26.9677 46.8228 27.3739C50.4168 28.4804 51.7039 28.8739 53.3039 29.3491L54.76 29.7803V30.0493C54.76 30.3055 54.7324 30.3055 54.6038 30.2555H54.6043Z" fill="#F69B3C"/>
</svg>
