<svg width="64" height="64" viewBox="0 0 64 64" fill="none" xmlns="http://www.w3.org/2000/svg">
<path d="M24.7508 47.0872C25.3571 46.7999 31.9822 43.875 32.0194 43.875C32.0383 43.875 32.4257 44.0439 32.8881 44.244C33.3443 44.4441 34.9005 45.1315 36.3443 45.769C37.7881 46.4064 39.1503 47.0127 39.3753 47.1189L39.7816 47.3128H38.719H37.6564L34.9688 46.1252C33.4878 45.475 32.2312 44.9126 32.169 44.8753C32.0817 44.8253 31.775 44.9376 30.7001 45.4127C29.9565 45.744 28.6816 46.3064 27.8625 46.6626L26.3875 47.3128H25.3311L24.2812 47.3067L24.7498 47.0878L24.7508 47.0872Z" fill="white"/>
<path d="M6.62551 46.2812V46H16.0816L25.5315 46.0061L24.888 46.2812L24.2378 46.5624H15.4314H6.625V46.2812H6.62551Z" fill="white"/>
<path d="M39.2252 46.3062C38.919 46.1751 38.6566 46.05 38.6378 46.0311C38.6189 46.0122 42.8253 46 47.9877 46H57.3754V46.2812V46.5624L48.5817 46.5563H39.7815L39.2252 46.3062Z" fill="white"/>
<path d="M10.9375 41.7185V38.8748H11.4999C12.0562 38.8748 12.0623 38.8748 12.0623 39.0248C12.0623 39.3372 12.1185 39.3622 12.3374 39.156C12.8937 38.6375 13.8624 38.7125 14.4749 39.3372C14.9061 39.7684 15.075 40.2186 15.075 40.9372C15.075 41.8558 14.7188 42.5122 14.0313 42.8495C13.45 43.1307 12.6753 43.0557 12.269 42.6745L12.1251 42.5433V43.5497V44.5623H11.5316H10.938V41.7185H10.9375ZM13.4373 41.8625C13.7246 41.6624 13.8747 41.3501 13.8747 40.9499C13.8747 40.2997 13.5373 39.8751 13.0121 39.8751C12.4808 39.8751 12.1746 40.1941 12.0874 40.8249C12.0373 41.1939 12.2497 41.6935 12.5247 41.8747C12.7871 42.0436 13.1749 42.037 13.4373 41.8625Z" fill="white"/>
<path d="M16.8628 42.9755C16.1814 42.7754 15.6813 42.313 15.4628 41.6628C15.3255 41.2504 15.3628 40.394 15.544 39.9939C15.7252 39.5815 16.0814 39.2186 16.4877 39.0191C16.9689 38.7818 17.7437 38.769 18.2188 38.988C18.8563 39.2819 19.2064 39.8005 19.3253 40.6191C19.3625 40.8942 19.3753 41.1565 19.3564 41.2127C19.3192 41.2999 19.1441 41.3127 17.9376 41.3127C17.1812 41.3127 16.5627 41.3377 16.5627 41.3688C16.5627 41.3938 16.6249 41.5127 16.7066 41.6312C17.0256 42.1124 17.613 42.1813 18.2004 41.8185L18.5194 41.6184L18.8256 41.9185C18.9879 42.0808 19.1257 42.2375 19.1257 42.2686C19.1257 42.3748 18.7134 42.706 18.3883 42.856C17.9881 43.0433 17.2945 43.1 16.8633 42.9749L16.8628 42.9755ZM18.1877 40.4129C18.1877 40.2256 17.8937 39.9066 17.6564 39.8255C17.2313 39.6816 16.725 39.9444 16.5938 40.3629L16.5566 40.5002H17.3691C18.0126 40.5002 18.1877 40.4813 18.1877 40.4129Z" fill="white"/>
<path d="M21.2566 42.9691C20.8315 42.8502 20.5753 42.694 20.2818 42.3689C19.9506 41.9999 19.8133 41.6253 19.7383 40.8878C19.6132 39.7129 19.8256 38.6876 20.3135 38.069C20.6947 37.5878 21.126 37.4066 22.3136 37.2504C22.8449 37.1754 23.3262 37.1065 23.3884 37.0881C23.4885 37.057 23.5574 37.2504 23.6635 37.9256C23.7074 38.2196 23.7574 38.2007 22.5948 38.3441C21.57 38.4753 21.2071 38.6253 20.9826 39.0066C20.8953 39.1566 20.8014 39.3689 20.7764 39.469L20.7325 39.6563L20.9137 39.494C21.2076 39.225 21.5072 39.1066 21.9762 39.0755C22.6076 39.0382 22.9949 39.1755 23.4073 39.5879C23.8013 39.9819 23.9386 40.3443 23.9386 40.9756C23.9386 41.832 23.5696 42.4633 22.8571 42.8068C22.3697 43.0441 21.7573 43.1069 21.2571 42.9691H21.2566ZM22.3692 41.8315C22.8694 41.4625 22.8816 40.6066 22.3881 40.2626C22.113 40.0625 21.8068 40.0314 21.4883 40.1753C20.9632 40.4065 20.8009 41.0629 21.1321 41.6003C21.3761 41.9943 21.9885 42.1127 22.3697 41.8315H22.3692Z" fill="white"/>
<path d="M25.7563 42.9686C25.15 42.7997 24.7248 42.4312 24.4314 41.8187C24.2441 41.4375 24.2252 40.625 24.3941 40.1376C24.5503 39.7002 25.0254 39.1878 25.4506 38.9939C25.9191 38.7877 26.7066 38.7815 27.1695 38.9939C27.8381 39.2878 28.1943 39.8875 28.2382 40.7689L28.2632 41.3125H26.8821C25.8196 41.3125 25.5011 41.3313 25.5011 41.3936C25.5011 41.5559 25.745 41.856 25.9574 41.956C26.3447 42.1433 26.7449 42.0811 27.195 41.7749L27.4262 41.6187L27.7452 41.9499L28.0642 42.2811L27.7829 42.5435C27.3078 42.9808 26.4519 43.162 25.7578 42.9686H25.7563ZM27.0873 40.3622C27.0062 40.0871 26.8622 39.9437 26.5938 39.837C26.2248 39.6997 25.8502 39.8059 25.644 40.1182C25.3939 40.4872 25.4128 40.4994 26.3192 40.4994H27.1317L27.0878 40.3622H27.0873Z" fill="white"/>
<path d="M40.544 42.9748C40.1877 42.8748 39.9566 42.7186 39.7687 42.4374C39.3564 41.8311 39.6064 40.9497 40.2811 40.6251C40.6251 40.4562 41.2748 40.3939 41.6872 40.4939C41.8434 40.5251 41.9934 40.5312 42.0184 40.5062C42.0496 40.4751 42.0246 40.35 41.9745 40.225C41.7934 39.7937 41.1559 39.6937 40.5185 40.006C40.3684 40.0811 40.2311 40.125 40.2184 40.1122C40.1995 40.0999 40.1061 39.9183 40.0061 39.7182C39.8749 39.462 39.8371 39.3242 39.881 39.2747C40.0183 39.1124 40.7874 38.8623 41.2498 38.8312C42.1123 38.7689 42.7437 39.0751 43.0249 39.6876C43.1372 39.9376 43.1499 40.1311 43.1749 41.4565L43.1999 42.9376H42.6314C42.069 42.9376 42.0628 42.9376 42.0628 42.7814C42.0628 42.5875 42.044 42.5875 41.7939 42.7753C41.6066 42.9192 41.1625 43.0626 40.9375 43.0565C40.8875 43.0565 40.7063 43.0192 40.5435 42.9754L40.544 42.9748ZM41.8628 41.9061C42.2318 41.4999 42.0501 41.1875 41.4376 41.1875C40.9191 41.1875 40.5629 41.5565 40.7502 41.9061C40.8625 42.1123 41.0503 42.1873 41.3754 42.1623C41.6004 42.1435 41.6943 42.0934 41.8628 41.9061Z" fill="white"/>
<path d="M49.1502 42.9749C48.1315 42.7248 47.569 41.9062 47.6374 40.7625C47.6874 39.9438 48.0626 39.3498 48.7373 39.0185C49.0496 38.8624 49.1624 38.8435 49.6559 38.8496C50.3184 38.8557 50.6685 38.9808 51.0186 39.3431C51.3376 39.6744 51.506 40.0806 51.556 40.6242C51.6183 41.3805 51.7561 41.3116 50.1811 41.3116C49.2063 41.3116 48.8123 41.3305 48.8123 41.3805C48.8123 41.4244 48.8684 41.5428 48.9373 41.6617C49.2124 42.0991 49.9621 42.1803 50.4684 41.824L50.7374 41.6367L51.0625 41.9679L51.3815 42.2931L51.1875 42.4931C50.9313 42.7432 50.619 42.8994 50.2 42.9933C49.7937 43.0805 49.5625 43.0744 49.1502 42.9744V42.9749ZM50.4378 40.4374C50.4378 40.3001 50.2439 40 50.1188 39.9311C49.6814 39.6999 49.3063 39.756 49.0062 40.1C48.6689 40.4751 48.7061 40.5001 49.6248 40.5001C50.15 40.5001 50.4373 40.4751 50.4373 40.4379L50.4378 40.4374Z" fill="white"/>
<path d="M53.3191 42.969C52.8817 42.844 52.6255 42.6817 52.3193 42.3377C51.9881 41.9626 51.8442 41.5313 51.8508 40.9378C51.8508 40.3003 52.0009 39.8941 52.3821 39.4751C52.8134 38.9999 53.1824 38.8499 53.9071 38.8438C54.3945 38.8438 54.5134 38.8688 54.8135 39.0127C55.0074 39.1066 55.2447 39.2689 55.3448 39.375L55.526 39.5623L55.1636 39.9313L54.8012 40.3003L54.5389 40.113C54.3889 40.013 54.1577 39.913 54.0204 39.8941C53.314 39.8002 52.8077 40.5943 53.089 41.344C53.3513 42.0254 54.0638 42.1938 54.6017 41.7003L54.7956 41.5252L55.1769 41.8815L55.552 42.2377L55.2958 42.4878C54.8023 42.969 54.0148 43.163 53.3207 42.969H53.3191Z" fill="white"/>
<path d="M56.5505 42.9747C56.1632 42.8685 55.9692 42.7374 55.7692 42.4245C55.5441 42.0933 55.5252 41.537 55.7253 41.1558C56.0065 40.6122 56.7378 40.3494 57.5942 40.4744C58.0566 40.5494 58.1128 40.5117 58.0066 40.2305C57.8443 39.812 57.2441 39.7053 56.6005 39.9681C56.3944 40.0493 56.2132 40.1121 56.2004 40.0993C56.1882 40.0804 56.1004 39.9054 56.0004 39.693L55.8192 39.3179L56.0192 39.1929C56.4066 38.9556 56.8818 38.8428 57.4692 38.8428C58.1005 38.8428 58.4567 38.9678 58.7752 39.2863C59.1315 39.6425 59.1503 39.7676 59.1753 41.4237L59.2003 42.9364H58.6318C58.0694 42.9364 58.0633 42.9364 58.0633 42.7803C58.0633 42.5929 57.9944 42.5802 57.8443 42.7491C57.7254 42.8803 57.2007 43.0681 56.9757 43.0553C56.9006 43.0553 56.7133 43.0181 56.5505 42.9742V42.9747ZM57.657 42.0999C57.8943 41.9999 58.0821 41.6998 58.051 41.4497C58.026 41.2497 57.7509 41.1624 57.2946 41.2058C56.9573 41.2369 56.7822 41.3681 56.7195 41.637C56.6822 41.7743 56.7133 41.8432 56.8634 41.9994C57.0757 42.2117 57.3135 42.2433 57.657 42.0994V42.0999Z" fill="white"/>
<path d="M5.0315 42.8808C5.05038 42.8369 5.50002 42.1433 6.03131 41.343L6.99386 39.8803L6.02518 38.4242L5.05038 36.9682L5.78786 36.9493C6.19411 36.9432 6.55647 36.9432 6.59424 36.9615C6.6315 36.9738 6.90659 37.3928 7.21281 37.8991C7.51903 38.3992 7.77523 38.8116 7.78136 38.8116C7.7936 38.8116 8.06257 38.3931 8.38155 37.8741L8.95673 36.9365H9.7381C10.1632 36.9365 10.5006 36.9554 10.4883 36.9865C10.4761 37.0115 10.051 37.6618 9.53855 38.4242C8.98225 39.2679 8.62601 39.8619 8.63877 39.9242C8.65765 39.9804 9.07616 40.6494 9.57019 41.4053C10.0703 42.1617 10.495 42.818 10.5266 42.8614C10.5578 42.9175 10.4016 42.9364 9.79526 42.9364H9.01389L8.46372 42.0678C8.1575 41.5865 7.87628 41.1491 7.84515 41.0863C7.78901 40.999 7.67622 41.1363 7.15769 41.955L6.53912 42.9298L5.77051 42.9486C5.14531 42.9609 5.00802 42.9486 5.03303 42.8797L5.0315 42.8808Z" fill="white"/>
<path d="M29.5631 41.4375V39.9376H28.9695H28.376V39.4063V38.875L30.176 38.8872L31.97 38.9061L31.9889 39.4247L32.0077 39.9371H31.3764H30.7512V41.437V42.937H30.1577H29.5641V41.437L29.5631 41.4375Z" fill="white"/>
<path d="M34.1255 39.9379V36.938H34.7818H35.4382L35.4504 38.144L35.4693 39.3439L36.613 39.3628L37.7506 39.375V38.1563V36.9375H38.407H39.0633V39.9374V42.9374H38.407H37.7506V41.7186V40.4999H36.5942H35.4377V41.7186V42.9374H34.7813H34.125V39.9374L34.1255 39.9379Z" fill="white"/>
<path d="M43.7505 40.9068V38.8633L45.0504 38.8883C46.4881 38.9194 46.7627 38.9756 47.0067 39.3257C47.1567 39.5319 47.2256 39.9631 47.1628 40.2255C47.1378 40.3255 47.0189 40.4944 46.8939 40.6067C46.7749 40.7256 46.6815 40.8256 46.6938 40.8318C46.706 40.8379 46.8061 40.8879 46.9061 40.9507C47.3874 41.213 47.5247 41.9944 47.1623 42.4634C46.8433 42.8819 46.7561 42.9069 45.1749 42.9258L43.75 42.9447V40.9073L43.7505 40.9068ZM46.1258 41.9382C46.507 41.557 46.0196 41.2008 45.1882 41.263L44.907 41.2819L44.8881 41.582C44.8509 42.0572 44.8631 42.0633 45.4694 42.0633C45.9196 42.0633 46.0196 42.0444 46.1258 41.9382ZM46.0007 40.3755C46.1508 40.2255 46.1569 40.0693 46.038 39.9003C45.963 39.8003 45.869 39.7814 45.4255 39.7814H44.907L44.9193 40.1254C44.9254 40.3127 44.9315 40.4755 44.9315 40.4878C44.9376 40.4939 45.1504 40.5 45.4067 40.5C45.794 40.5 45.9002 40.475 46.0002 40.375L46.0007 40.3755Z" fill="white"/>
<path d="M27.2505 25.7501C27.2505 18.1625 27.2316 16.244 27.1755 16.2691C27.1316 16.2879 26.9754 16.3441 26.8315 16.4063L26.5691 16.5125L26.5503 16.9249C26.538 17.1811 26.5002 17.3434 26.4564 17.3623C26.4125 17.3745 26.3752 17.3434 26.3752 17.2872C26.3752 17.2311 26.3563 17.1872 26.3313 17.1872C26.2313 17.1872 23.6248 18.2809 23.6248 18.3187C23.6248 18.3437 23.6999 18.3748 23.7999 18.3876C23.9311 18.3998 23.806 18.4687 23.2564 18.6816C22.8623 18.8377 22.5689 18.9689 22.6 18.9755C22.6312 18.9817 23.5376 19.1817 24.6124 19.4129L26.5686 19.8381L26.5497 20.5883L26.5309 21.3319L25.9684 21.5131C25.6622 21.6131 25.0437 21.8004 24.5935 21.9382C24.15 22.0694 23.8121 22.1822 23.8433 22.1883C23.8805 22.1883 24.4996 22.3006 25.2182 22.4256L26.5309 22.6568V22.963C26.5309 23.157 26.4997 23.282 26.4558 23.3004C26.4119 23.3126 26.3747 23.2815 26.3747 23.2254C26.3747 23.1692 26.3624 23.1253 26.3436 23.1253C26.3313 23.1253 25.5372 22.988 24.5813 22.813L22.844 22.5068L21.9064 22.788C20.9566 23.0692 20.6938 23.1881 21.0317 23.1881C21.319 23.1881 21.1506 23.2692 20.5193 23.4443L19.9191 23.6005L21.2879 23.8128C22.0381 23.9251 23.1379 24.094 23.7193 24.1879L24.7818 24.3502L24.8007 24.0812C24.8196 23.85 24.838 23.8123 24.963 23.8123C25.2442 23.8123 26.2818 23.5561 26.3507 23.4683C26.538 23.2243 26.563 23.3744 26.563 24.687C26.563 25.9997 26.538 26.1559 26.3507 25.9058C26.3007 25.8369 25.6194 25.7246 23.6259 25.4684C22.1631 25.2745 20.1258 25.0121 19.0948 24.8749C18.0634 24.7376 16.126 24.4875 14.7822 24.3124C13.4446 24.1435 12.2697 23.9873 12.1758 23.9684C12.0319 23.9434 12.0007 23.9623 12.0007 24.0624C12.0007 24.1435 11.9696 24.1746 11.9068 24.1496C11.8379 24.1185 11.8129 24.0057 11.8129 23.6811V23.2499H11.4689H11.1249V28.7251V34.2064L11.5623 34.1692C11.9186 34.138 11.9997 34.1503 11.9997 34.2253C11.9997 34.2876 12.0808 34.3126 12.2998 34.3126C12.6249 34.3126 15.3936 34.1753 18.0623 34.0314C19.8185 33.9313 24.0811 33.7124 25.3749 33.6501C26.2497 33.6129 26.3747 33.5878 26.3747 33.4689C26.3747 33.4189 26.4186 33.375 26.4686 33.375C26.5497 33.375 26.5625 33.5189 26.5625 34.2814V35.1878H26.2685C26.0996 35.1878 25.2937 35.1567 24.4685 35.1256C21.7498 35.0133 14.5184 34.8194 11.8435 34.7816C10.3997 34.7627 9.03753 34.7255 8.81246 34.7066C8.41233 34.6693 8.41233 34.6627 8.65629 34.6193C8.79358 34.5943 9.22484 34.5504 9.61272 34.532L10.3129 34.482V29.1196C10.3129 24.8631 10.2941 23.751 10.2379 23.751C10.194 23.751 9.87555 23.7071 9.53157 23.6571C9.18758 23.6071 8.88799 23.5632 8.86299 23.5632C8.83185 23.5632 8.81297 23.1508 8.81297 22.6384V21.7198L10.8942 20.6822C12.0319 20.107 16.2005 18.0074 20.1503 16.0072C24.1066 14.0132 27.375 12.376 27.425 12.376C27.475 12.376 30.5378 13.3885 34.2374 14.6323C37.9437 15.8699 44.1814 17.9573 48.1061 19.27L55.2497 21.6575V22.4823C55.2497 23.2136 55.2375 23.307 55.1436 23.332C55.0374 23.357 55.0374 23.3632 55.1436 23.3693C55.2125 23.3754 55.2497 23.4254 55.2497 23.5255C55.2497 23.6505 55.2125 23.6755 54.9874 23.7128C54.1126 23.85 53.9376 23.8939 53.9376 23.9751C53.9376 24.0251 53.8937 24.0624 53.8437 24.0624C53.7814 24.0624 53.7497 24.0001 53.7497 23.8812C53.7497 23.7189 53.7247 23.7 53.4374 23.6439L53.1251 23.5816L53.1373 28.9318L53.1562 34.2819L53.5813 34.3008C53.9376 34.3131 53.9207 34.3008 53.9718 34.4243C53.9529 34.5182 54.0815 34.5448 54.844 34.6132C55.3252 34.6632 55.7626 34.7193 55.8126 34.7382C55.8627 34.7632 55.2441 34.7882 54.4377 34.7943C53.0128 34.8066 48.6752 34.8755 41.6877 35.0005C39.8127 35.0317 36.4253 35.0878 34.1563 35.1256C31.8877 35.1567 29.4063 35.2067 28.6438 35.2256L27.25 35.2629V25.7501H27.2505ZM52.138 29.3002C52.1319 26.5065 52.113 24.219 52.1069 24.2129C52.1008 24.2068 50.757 24.4191 49.1258 24.6881C43.4944 25.6129 39.9632 26.188 38.376 26.4381C37.5012 26.5754 36.5386 26.7321 36.2386 26.7882L35.6884 26.8883V30.3133V33.7445L36.0196 33.7757C36.1947 33.7945 37.9197 33.8696 39.8448 33.938C43.5322 34.0752 45.4012 34.1441 48.47 34.2753C49.5015 34.3192 50.7513 34.3626 51.2515 34.3692L52.1579 34.3753L52.139 29.3002H52.138ZM34.3568 33.619C34.388 33.5128 34.4257 33.4939 34.5691 33.5251L34.7503 33.5623V30.0934C34.7503 27.0495 34.7381 26.6244 34.6564 26.6244C34.5941 26.6244 34.5625 26.6933 34.5625 26.8433C34.5625 27.0184 34.5375 27.0623 34.4375 27.0623C34.3686 27.0623 34.3186 27.025 34.3313 26.9873C34.3436 26.9 33.8439 26.8183 30.7501 26.406C29.8064 26.2809 28.9811 26.162 28.925 26.1498C28.8188 26.1186 28.8127 26.3248 28.8127 29.806C28.8127 33.2811 28.8188 33.4995 28.925 33.5062C28.9811 33.5062 30.1876 33.5623 31.5937 33.6185C33.0064 33.6807 34.1935 33.7374 34.2374 33.7435C34.2874 33.7435 34.3374 33.6935 34.3563 33.6185L34.3568 33.619ZM35.5317 25.8752C35.4878 25.6312 35.4944 25.6251 35.669 25.6251C35.9191 25.6312 37.8753 25.2939 37.8753 25.2439C37.8753 25.225 37.7002 25.1816 37.4879 25.1438C37.269 25.1066 36.8127 25.0249 36.4692 24.9688L35.844 24.8565L34.7692 25.0627C33.7194 25.2627 33.4443 25.3689 33.9256 25.3817L34.1568 25.3878L33.8756 25.45C33.7194 25.4812 33.4693 25.4939 33.3131 25.475C33.157 25.4628 32.8946 25.4812 32.7196 25.5189C32.4134 25.5812 32.4256 25.5878 33.9383 25.8502C34.782 25.9941 35.4944 26.1125 35.5194 26.1191C35.5506 26.1191 35.5567 26.013 35.5317 25.8752ZM40.4379 25.0127C40.4379 24.7937 40.4501 24.7687 40.6129 24.7687C40.7068 24.7687 41.4377 24.6498 42.2379 24.5064C43.0382 24.3691 43.719 24.2502 43.7506 24.2502C43.7879 24.2502 43.8129 24.2252 43.8129 24.1879C43.8129 24.1568 43.7629 24.1256 43.7067 24.1256C43.6445 24.1256 43.1816 24.0384 42.6753 23.9256L41.7505 23.7255L40.4879 23.9628C38.7817 24.2818 38.6255 24.3129 38.6255 24.3752C38.6255 24.4063 38.7006 24.4441 38.8006 24.4564C38.8945 24.4752 38.7445 24.4814 38.4694 24.4814C38.1943 24.4752 37.8008 24.5125 37.5946 24.5625L37.2195 24.6498L37.5318 24.7059C37.7069 24.7371 38.4066 24.8682 39.0946 24.9999C39.782 25.1311 40.3633 25.2439 40.3945 25.2439C40.4195 25.25 40.4384 25.1438 40.4384 25.0127H40.4379ZM32.0566 24.6003C32.6502 24.4814 33.1503 24.3752 33.1631 24.3563C33.1753 24.3441 32.4695 24.2124 31.5942 24.069L29.9942 23.8L29.419 23.9189C28.8438 24.0379 28.8438 24.0379 28.8255 24.2379C28.8132 24.3502 28.8132 24.438 28.8255 24.438C28.8694 24.4441 30.9129 24.8003 30.9379 24.807C30.9568 24.807 31.4564 24.7131 32.0566 24.6008V24.6003ZM22.3443 24.4441C22.3071 24.413 21.4129 24.2568 20.357 24.1001C18.9381 23.8812 18.388 23.8189 18.2634 23.8628L18.0945 23.9251L18.2507 23.9623C18.3379 23.9812 19.0259 24.0812 19.7818 24.1874C20.5381 24.2874 21.3256 24.3997 21.5318 24.4314C22.0442 24.5064 22.4132 24.5125 22.3443 24.4436V24.4441ZM46.5505 23.7066C46.7006 23.7128 50.1256 23.1003 50.3941 23.0192C50.4564 23.0069 50.5002 22.9819 50.488 22.9691C50.4757 22.9569 50.0006 22.8191 49.4315 22.6629C48.4879 22.4067 48.3501 22.3817 47.8377 22.4067C47.4937 22.419 46.844 22.5256 46.1565 22.6818C44.1564 23.132 43.0127 23.3754 42.8942 23.382C42.6253 23.3882 43.1004 23.5193 44.6882 23.8694L46.3443 24.2318L46.3632 23.9695C46.3821 23.7321 46.3943 23.7071 46.5505 23.7071V23.7066ZM37.4568 23.4877C38.4755 23.2815 39.0318 23.1437 38.9568 23.1126C38.8945 23.0876 38.1693 22.9253 37.3445 22.7502L35.8445 22.4312L34.3757 22.7813C33.5693 22.9753 32.8819 23.1565 32.8569 23.1815C32.8257 23.2126 33.0819 23.2815 33.4193 23.3438C33.9067 23.431 35.6695 23.7689 35.8129 23.8062C35.8318 23.8123 36.5693 23.6689 37.4568 23.4872V23.4877ZM15.782 23.4999C15.9321 23.4438 15.9321 23.4377 14.2509 23.1876C13.5823 23.0876 12.8321 22.9753 12.582 22.9314C12.2258 22.8752 12.0946 22.8752 11.9385 22.9375C11.8323 22.9814 11.7634 23.0314 11.7823 23.0498C11.8262 23.0998 15.0823 23.5433 15.4074 23.5499C15.5447 23.5499 15.7136 23.5311 15.7825 23.4999H15.782ZM18.0445 22.7124C18.1445 22.7497 20.332 22.125 20.2819 22.075C20.2631 22.0561 19.2882 21.881 18.1195 21.681L15.9882 21.3186L15.1196 21.6687C14.2509 22.0127 14.057 22.125 14.3193 22.125C14.4566 22.125 14.4566 22.125 14.3382 22.2189C14.2759 22.2689 14.0442 22.369 13.8319 22.444C13.613 22.5251 13.4507 22.594 13.4568 22.6063C13.469 22.6124 14.2504 22.7374 15.1941 22.8752C16.1378 23.0125 17.1314 23.1626 17.4065 23.2065L17.9067 23.2815L17.9256 22.9814C17.9445 22.7374 17.9628 22.6813 18.0445 22.7124ZM29.7819 22.9436C29.738 22.6313 29.738 22.6313 29.9192 22.6374C30.0131 22.6374 30.7317 22.4812 31.5131 22.2873C32.3006 22.0934 32.9819 21.9372 33.0319 21.9372C33.0819 21.9372 33.1258 21.9122 33.1258 21.8749C33.1258 21.8438 33.1069 21.8127 33.0819 21.8127C33.0508 21.8127 32.1194 21.6126 31.0007 21.3753C29.8819 21.138 28.9321 20.9379 28.8944 20.9379C28.8321 20.9379 28.8132 21.1318 28.8132 21.6943C28.8132 22.3878 28.8255 22.4506 28.9321 22.4817C29.0383 22.5068 29.0511 22.5506 29.0194 22.8069L28.9883 23.1069L29.3823 23.1692C29.6012 23.2065 29.7947 23.2381 29.8008 23.2442C29.813 23.2442 29.8069 23.1131 29.7819 22.9441V22.9436ZM41.5943 22.8375C41.5571 22.5313 41.5632 22.4874 41.6505 22.5185C41.7005 22.5374 42.4819 22.3873 43.3878 22.1811C45.688 21.6626 45.7314 21.6499 45.6252 21.606C45.5752 21.581 44.8627 21.3809 44.0441 21.1625C42.8131 20.8185 42.5314 20.7623 42.3941 20.8185C42.3002 20.8557 42.1318 20.8685 42.019 20.8435C41.825 20.8123 40.8441 21.0374 37.9564 21.7999L36.8188 22.0939L38.0498 22.3628C39.0124 22.5751 41.4938 23.1442 41.6188 23.1815C41.6311 23.1815 41.6188 23.0314 41.5938 22.8375H41.5943ZM35.6256 21.4625C35.6256 21.1752 35.6445 21.1186 35.7195 21.1502C35.8445 21.1941 40.026 20.0504 39.926 19.9937C39.8821 19.9748 39.2946 19.8064 38.626 19.6314C37.9575 19.4502 37.0138 19.1878 36.5386 19.05C35.795 18.8439 35.645 18.8127 35.4949 18.875C35.3888 18.9189 35.2449 18.9311 35.1137 18.9C35.0014 18.875 34.8825 18.8561 34.8447 18.8689C33.8072 19.1628 31.6197 19.8437 31.5197 19.9126C31.4447 19.9626 31.3135 19.9998 31.2385 19.9998C31.1573 19.9998 30.7322 20.0999 30.2887 20.231L29.4823 20.4684L29.8197 20.5434C30.007 20.5873 30.6944 20.7373 31.3446 20.8746C32.001 21.0185 33.1947 21.2809 34.0011 21.462C34.8075 21.6493 35.5072 21.7994 35.5511 21.806C35.6011 21.8121 35.6261 21.706 35.6261 21.462L35.6256 21.4625ZM24.4695 20.7873C25.2942 20.5311 25.9256 20.3061 25.8756 20.2872C25.8255 20.2683 24.838 20.056 23.6881 19.812C22.5383 19.5681 21.4879 19.3496 21.3629 19.3185C21.1506 19.2685 21.0005 19.3124 19.8318 19.787C19.1132 20.0744 18.463 20.3433 18.3757 20.3806L18.2195 20.4556L18.3757 20.5056C18.463 20.5306 19.2632 20.6868 20.1569 20.843C21.0505 20.9991 21.9508 21.1681 22.157 21.2181C22.3632 21.262 22.6322 21.2931 22.7506 21.2742C22.8695 21.262 23.6442 21.043 24.4695 20.7868V20.7873ZM47.438 21.0313C47.3191 20.9874 47.1757 20.9501 47.1257 20.9501C47.0757 20.9501 47.1318 20.9874 47.2507 21.0313C47.3697 21.0752 47.5131 21.1124 47.5631 21.1124C47.6131 21.1124 47.557 21.0752 47.438 21.0313ZM46.4694 20.744C46.2632 20.6751 45.6446 20.4816 45.0944 20.3127C42.832 19.6252 37.1006 17.8502 32.4134 16.3813L27.4133 14.8186L26.663 15.1687C26.2445 15.3626 25.1319 15.8751 24.1883 16.3124C23.2446 16.7498 21.9758 17.3311 21.3757 17.6123C20.7755 17.8874 19.988 18.2498 19.6256 18.4187C19.2632 18.5877 18.5569 18.9189 18.0445 19.1562C17.5382 19.3874 17.132 19.5936 17.1447 19.6063C17.1697 19.6252 21.2945 17.794 25.0324 16.094C25.995 15.6566 26.8886 15.2565 27.0198 15.2065C27.426 15.0375 27.276 15.0003 32.9013 16.7126C36.5325 17.819 37.5951 18.1436 41.6265 19.344C43.7767 19.9876 45.789 20.5878 46.0953 20.6878C46.4076 20.7878 46.7016 20.8629 46.7516 20.8629C46.8016 20.8629 46.6766 20.8067 46.4704 20.744H46.4694ZM16.813 19.7814C16.9691 19.7003 17.0692 19.6314 17.0319 19.6314C17.0008 19.6314 16.8446 19.7003 16.6879 19.7814C16.5318 19.8625 16.4379 19.9314 16.469 19.9314C16.5062 19.9314 16.6563 19.8625 16.813 19.7814ZM31.1257 18.6877C32.1194 18.3626 32.9319 18.0752 32.938 18.0564C32.938 18.0375 32.594 17.9313 32.1755 17.8124C31.4253 17.6123 29.1378 16.9688 28.9255 16.8999C28.8194 16.8687 28.8132 16.956 28.8132 18.1498V19.4308L29.0633 19.3558C29.2006 19.3119 30.1259 19.0118 31.1257 18.6872V18.6877Z" fill="white"/>
<path d="M26.5809 35.2061L26.3747 35.1811V30.5434C26.3747 27.9936 26.3686 25.2182 26.3558 24.3746L26.3436 22.8435L25.1871 22.6434C23.1058 22.2811 22.8685 22.2372 22.8935 22.2061C22.9058 22.1938 23.4371 22.031 24.0684 21.8437C24.6997 21.6564 25.4744 21.4186 25.7807 21.3252L26.3431 21.144L26.362 20.5816L26.3808 20.0253L25.2994 19.7879C24.7058 19.6568 23.7683 19.4567 23.2181 19.3378C22.6679 19.2189 22.1494 19.1066 22.0683 19.0877C21.8243 19.0316 22.006 18.9127 22.8185 18.6003L23.5371 18.3191L24.8748 18.6253C25.6061 18.8004 26.2497 18.9377 26.2936 18.9377C26.3625 18.9377 26.3809 18.7626 26.3747 18.0501C26.3686 17.5566 26.3686 16.9687 26.3747 16.7441V16.3379L26.856 16.1189C27.1183 16 27.3562 15.8938 27.3873 15.8877C27.4123 15.8755 27.4373 20.2253 27.4373 25.5566V35.2505L27.1122 35.2383C26.931 35.2383 26.6871 35.2194 26.5809 35.2072V35.2061ZM26.3497 21.5814C26.2997 21.5252 25.6455 21.7416 25.6455 21.7416C25.1096 21.8437 25.7745 21.881 25.9807 21.9126L26.3431 21.9687L26.362 21.7937C26.3742 21.6937 26.3681 21.5997 26.3497 21.5814Z" fill="white"/>
<path d="M52.9814 34.4628C52.9564 34.4378 52.9375 31.9191 52.9375 28.8631C52.9375 23.6007 52.9436 23.3067 53.0498 23.3378C53.1059 23.3567 53.331 23.4001 53.5499 23.444L53.9373 23.519L53.9496 28.6941C53.9557 31.544 53.9618 34.0065 53.9684 34.1755V34.4883H53.4999C53.2376 34.4944 53.0064 34.4883 52.9814 34.4633V34.4628Z" fill="white"/>
<path d="M10.9375 28.7562V23.0625H11.3938C11.6377 23.0625 11.8812 23.0875 11.9251 23.1125C11.9873 23.1564 12.0062 24.294 12.019 28.7623L12.0312 34.3559L11.5938 34.3681C11.3565 34.3743 11.1064 34.3932 11.0503 34.412C10.9441 34.4432 10.938 34.1431 10.938 28.7556L10.9375 28.7562Z" fill="white"/>
<path d="M34.3934 33.6754C34.3373 33.5882 34.2995 27.1254 34.3562 26.7191C34.3812 26.4752 34.4001 26.4629 34.6624 26.4002L34.9375 26.3379V30.0442V33.7505H34.6935C34.5562 33.7505 34.4246 33.7132 34.3934 33.6754Z" fill="white"/>
<path d="M33.9061 26.0562C32.9124 25.8872 31.931 25.7372 31.7309 25.7122C31.2124 25.6499 31.3619 25.5499 32.2244 25.381C32.8746 25.2559 33.6872 25.2248 33.6872 25.3309C33.6872 25.3559 33.7744 25.3748 33.8811 25.3748C34.1562 25.3748 35.6434 25.631 35.7062 25.6872C35.7373 25.7122 35.7501 25.8745 35.7373 26.0434L35.7184 26.3557L33.9061 26.0557V26.0562Z" fill="white"/>
<path d="M39.2495 25.2558C38.5809 25.1246 37.5872 24.9368 37.0431 24.8373C36.4557 24.7311 36.1056 24.6372 36.1684 24.6122C36.2306 24.5872 36.7686 24.4811 37.3621 24.3749C37.7158 24.3117 37.9965 24.2422 38.5497 24.2999C38.6248 24.381 38.8371 24.4499 39.25 24.525C39.5751 24.5811 40.0125 24.6622 40.2186 24.7061L40.5938 24.7873L40.6126 25.1435C40.6249 25.4059 40.6126 25.4998 40.5504 25.4936C40.5065 25.4875 39.9191 25.3814 39.2505 25.2563L39.2495 25.2558Z" fill="white"/>
<path d="M22.062 24.1504C18.8059 23.638 18.887 23.6503 18.9993 23.6069C19.2933 23.488 20.8116 23.1384 20.9117 23.1634C20.9739 23.1756 21.9115 23.3323 22.9929 23.5007C24.0678 23.6697 24.9553 23.8131 24.968 23.8258C24.9742 23.8381 24.9992 24.007 25.0181 24.2071L25.0553 24.5633L24.8241 24.5572C24.6991 24.5511 23.4553 24.3699 22.0615 24.1509L22.062 24.1504Z" fill="white"/>
<path d="M45.3124 24.2373C44.7122 24.1061 43.4311 23.8121 42.4686 23.5937C39.0874 22.8184 37.7125 22.5122 36.7499 22.3127C36.2186 22.2004 35.7624 22.1004 35.7435 22.0876C35.7124 22.0687 32.4185 21.3374 29.9687 20.8066C28.7872 20.5504 28.8061 20.5565 28.8311 20.4815C28.8561 20.4064 30.7812 19.819 31.0185 19.8129C31.1124 19.8129 31.2558 19.7756 31.3309 19.7256C31.4059 19.6756 32.1311 19.4383 32.937 19.1943C33.7434 18.957 34.5181 18.7192 34.6559 18.6692C34.8748 18.5941 34.9499 18.6003 35.2372 18.688C35.4934 18.7692 35.5496 18.807 35.4873 18.857C35.4434 18.8942 34.7059 19.1259 33.8434 19.3694C31.5182 20.038 31.4309 20.063 31.4682 20.1196C31.4804 20.1508 31.6054 20.1946 31.7305 20.2197C32.2179 20.3069 35.718 21.1444 35.768 21.1883C35.793 21.2072 35.818 21.4134 35.818 21.6446C35.8241 21.9319 35.8491 22.0631 35.8992 22.0631C35.9803 22.0631 37.3052 21.7319 40.124 21.0066C41.7679 20.5815 41.8551 20.5631 42.1425 20.6376C42.3737 20.6938 42.4237 20.7249 42.3614 20.7877C42.3175 20.8249 41.4678 21.0628 40.4741 21.3062C39.4804 21.5502 38.649 21.7625 38.6368 21.7814C38.5929 21.8253 38.993 21.9253 41.1866 22.4127C41.4428 22.4688 41.6928 22.5439 41.7367 22.575C41.7806 22.6123 41.8118 22.7873 41.8118 23.0063C41.8118 23.2124 41.824 23.3753 41.8429 23.3753C41.9368 23.3753 43.6802 23.0001 46.0993 22.4688C47.3492 22.1876 47.5932 22.1565 47.8616 22.2249C48.2118 22.3249 47.9178 22.4249 46.2494 22.7751C45.2807 22.9812 44.4805 23.1691 44.4621 23.1936C44.4498 23.2186 44.7683 23.3125 45.1684 23.4059C45.5747 23.4998 46.0498 23.6059 46.2183 23.6498L46.5306 23.7249L46.5495 24.1122C46.5617 24.3996 46.5495 24.4996 46.4872 24.4935C46.4433 24.4873 45.912 24.3745 45.3124 24.2373Z" fill="white"/>
<path d="M16.4374 23.2812C15.731 23.1689 14.6001 23 13.9187 22.9061C12.4999 22.6999 12.4999 22.6999 13.4374 22.3436C13.7625 22.2186 13.9586 22.1242 14.0096 22.0987C14.0861 22.0986 14.1117 22.0986 14.2137 22.0987L14.4179 22.1242C14.4179 22.1242 17.9874 22.6999 18.0624 22.7433C18.1563 22.7933 18.1935 23.0934 18.1374 23.3618C18.1063 23.5369 18.0563 23.5369 16.4374 23.2807V23.2812Z" fill="white"/>
<path d="M29.3627 23.3819L28.8125 23.288V22.894C28.8125 22.5 28.8125 22.5 28.9876 22.5C29.2749 22.5 29.9001 22.6373 29.9501 22.7123C30.0124 22.7996 30.0124 23.4248 29.9562 23.4498C29.9251 23.462 29.6623 23.4309 29.3627 23.3809V23.3819Z" fill="white"/>
<path d="M55.0936 23.6314C55.0563 23.6064 54.0621 23.2941 52.875 22.944C45.3435 20.7127 34.9438 17.5938 31.5937 16.5629C30.3188 16.1755 28.3187 15.5692 27.7435 15.4064L27.3873 15.3063L26.4936 15.7065C26.0001 15.9315 24.2751 16.7063 22.6562 17.4376C20.1187 18.5814 16.6625 20.1191 12.6249 21.9064C12.0247 22.1754 11.0372 22.6 10.4375 22.8562C9.83732 23.1185 9.23764 23.3814 9.1126 23.4436C8.8125 23.5998 8.8125 23.5998 8.8125 23.3564C8.8125 23.2002 8.84976 23.1313 8.98756 23.0501C9.08146 22.994 10.7876 22.2065 12.7811 21.294C15.8938 19.8751 16.9998 19.3627 19.4062 18.2501C19.6124 18.1501 20.0375 17.9562 20.3437 17.8128C20.6561 17.6688 21.4124 17.3192 22.031 17.0314C22.6496 16.7502 24.0745 16.0938 25.1999 15.5687C26.3247 15.0501 27.3184 14.625 27.4123 14.625C27.5062 14.625 29.9749 15.3752 32.8998 16.2873C37.6748 17.7811 43.7685 19.6684 44.5933 19.9185C44.7684 19.9685 45.9871 20.3437 47.312 20.7499C50.906 21.8564 52.1932 22.2499 53.7932 22.725L55.2492 23.1563V23.4253C55.2492 23.6815 55.2217 23.6815 55.0931 23.6314H55.0936Z" fill="white"/>
<path d="M27.5188 47.6685C27.7127 47.5062 31.8753 45.625 32.0376 45.625C32.0876 45.625 32.8312 45.9373 33.6748 46.3186C34.5246 46.6998 35.6061 47.1811 36.0812 47.3934L36.9437 47.7808L35.9189 47.7997L34.9002 47.8119L33.6815 47.2745C33.0129 46.9805 32.3688 46.6932 32.2438 46.6432C32.0248 46.5559 32.0065 46.5559 31.5252 46.7805C30.6815 47.1678 30.5065 47.2429 30.2375 47.3618C30.0875 47.424 29.8063 47.5557 29.6062 47.643C29.2689 47.8053 29.2 47.8119 28.2935 47.8119L27.3438 47.8058L27.5188 47.6685Z" fill="white"/>
</svg>
