<svg width="870" height="612" viewBox="0 0 870 612" fill="none" xmlns="http://www.w3.org/2000/svg">
<g clip-path="url(#clip0_229_10)">
<path d="M321.293 33.5039C334.593 45.7683 346.832 58.6373 355 75C355 75.66 355 76.32 355 77C356.216 76.6926 356.216 76.6926 357.457 76.3789C364.656 74.6273 371.599 73.3695 379 73C379.738 72.9471 380.477 72.8943 381.238 72.8398C404.848 71.902 428.558 81.0001 445.875 96.875C447.963 98.8735 449.994 100.918 452 103C452.811 103.839 453.621 104.678 454.457 105.543C465.689 118.231 476 137.651 476 155C477.055 155.039 477.055 155.039 478.133 155.078C504.523 156.594 525.935 169.861 543.276 189.002C559.369 207.648 566.707 233.507 565.18 257.873C562.946 284.244 550.757 308.438 530.804 325.883C511.766 341.611 489.449 348.326 465.01 348.261C463.394 348.264 461.778 348.268 460.163 348.272C455.743 348.283 451.323 348.28 446.903 348.276C442.129 348.274 437.354 348.283 432.58 348.29C423.233 348.303 413.887 348.305 404.54 348.302C396.94 348.301 389.34 348.302 381.741 348.307C380.117 348.307 380.117 348.307 378.46 348.308C376.261 348.31 374.062 348.311 371.862 348.312C351.245 348.323 330.627 348.321 310.01 348.315C291.163 348.309 272.317 348.321 253.471 348.34C234.104 348.359 214.738 348.367 195.371 348.364C184.504 348.362 173.638 348.364 162.771 348.378C153.519 348.39 144.267 348.392 135.015 348.38C130.298 348.374 125.582 348.373 120.865 348.385C116.54 348.395 112.214 348.392 107.889 348.378C106.332 348.376 104.775 348.378 103.218 348.386C73.7496 348.528 49.3321 336.873 28.5075 316.57C6.44363 293.285 -0.857193 264.411 -0.132143 233.095C0.743303 212.542 10.5016 189.941 24.8591 175.211C27.1199 172.943 27.1199 172.943 29.3942 170.031C41.6139 155.815 61.8931 145.621 79.9997 142C81.3197 142 82.6397 142 83.9997 142C84.0255 141.005 84.0513 140.01 84.0778 138.984C85.5614 97.9708 103.856 63.8355 133.25 35.875C152.89 18.4916 177.485 8.07506 203 3C204.09 2.77312 205.181 2.54625 206.304 2.3125C246.285 -4.72568 290.502 6.96992 321.293 33.5039ZM134 65C116.095 86.58 104.559 113.674 105.05 142.059C105.061 142.772 105.072 143.484 105.082 144.219C105.11 145.624 105.152 147.028 105.212 148.431C105.314 152.85 104.733 155.504 102 159C98.5203 161.32 95.777 161.458 91.7497 161.812C71.0405 164.084 52.9281 173.818 39.5446 189.73C24.3417 208.85 19.1756 230.91 20.9997 255C23.3288 271.652 30.6211 287.631 41.9997 300C43.1057 301.243 43.1057 301.243 44.2341 302.512C54.8609 313.85 67.3203 320.384 81.9997 325C83.0764 325.349 84.1531 325.698 85.2625 326.058C91.8989 327.678 98.7965 327.282 105.584 327.267C107.18 327.271 108.776 327.276 110.372 327.281C114.747 327.293 119.121 327.293 123.496 327.291C128.219 327.29 132.942 327.301 137.665 327.311C146.915 327.327 156.165 327.333 165.415 327.334C172.937 327.335 180.46 327.339 187.982 327.346C209.325 327.363 230.668 327.372 252.01 327.371C253.736 327.371 253.736 327.371 255.496 327.371C257.223 327.37 257.223 327.37 258.986 327.37C277.637 327.37 296.288 327.389 314.939 327.417C334.104 327.446 353.269 327.459 372.435 327.458C383.189 327.457 393.943 327.462 404.697 327.484C413.856 327.502 423.015 327.507 432.174 327.493C436.842 327.487 441.51 327.486 446.178 327.504C450.462 327.52 454.746 327.517 459.029 327.499C460.569 327.496 462.109 327.5 463.649 327.511C486.319 327.665 506.231 320.32 522.758 304.332C537.659 288.564 544.805 268.907 544.218 247.297C542.892 227.303 534.658 208.83 520 195C505.16 182.213 489.371 176.837 470.127 175.916C460.782 175.305 460.782 175.305 457 171C456.025 168.077 455.697 165.405 455.405 162.352C453.341 141.25 444.999 124.13 428.812 110.164C413.184 98.1393 394.15 91.9824 374.429 94.5156C367.951 95.5147 361.953 96.8472 355.886 99.3686C352.444 100.521 349.609 100.361 346 100C341.655 97.7041 340.161 93.7704 338.187 89.5C332.3 77.335 325.333 67.6879 316 58C315.365 57.291 314.731 56.582 314.078 55.8516C293.636 33.6907 261.167 22.8428 231.772 21.5977C194.795 20.9547 158.161 37.0034 134 65Z" fill="#5A5C60"/>
<path d="M851 340C862.755 349.994 868.771 362.286 870.379 377.613C870.872 391.922 865.972 404.467 856.687 415.188C852.786 419.354 848.813 422.93 844 426C843.116 426.567 843.116 426.567 842.215 427.145C828.443 434.952 811.479 433.429 796.255 433.388C793.661 433.392 791.066 433.398 788.471 433.404C782.185 433.418 775.899 433.415 769.614 433.406C764.506 433.399 759.398 433.398 754.29 433.402C753.561 433.402 752.831 433.403 752.08 433.403C750.598 433.404 749.116 433.405 747.634 433.406C733.776 433.414 719.919 433.405 706.061 433.389C694.174 433.375 682.288 433.377 670.401 433.391C656.576 433.407 642.751 433.414 628.926 433.404C627.452 433.403 625.979 433.403 624.505 433.402C623.418 433.401 623.418 433.401 622.308 433.4C617.203 433.398 612.098 433.402 606.992 433.409C600.128 433.418 593.264 433.412 586.399 433.394C583.878 433.39 581.356 433.392 578.835 433.398C575.399 433.406 571.965 433.396 568.529 433.381C567.526 433.388 566.523 433.394 565.49 433.401C556.935 433.329 556.935 433.329 553 430C550.543 426.315 550.299 423.28 551 419C552.793 416.19 554.019 414.491 557 413C558.434 412.904 559.872 412.87 561.31 412.867C562.22 412.863 563.131 412.859 564.069 412.854C565.076 412.855 566.082 412.855 567.12 412.855C568.184 412.852 569.249 412.848 570.345 412.845C573.937 412.834 577.528 412.83 581.119 412.827C583.684 412.82 586.25 412.814 588.815 412.806C594.352 412.792 599.89 412.78 605.427 412.77C613.444 412.756 621.461 412.735 629.478 412.712C642.499 412.674 655.519 412.639 668.54 412.607C669.32 412.605 670.099 412.604 670.903 412.602C681.956 412.575 693.008 412.551 704.061 412.528C705.227 412.526 705.227 412.526 706.417 412.523C707.581 412.521 707.581 412.521 708.77 412.519C721.731 412.492 734.692 412.457 747.654 412.417C755.646 412.392 763.638 412.374 771.63 412.364C777.763 412.355 783.896 412.337 790.028 412.314C792.54 412.307 795.051 412.303 797.562 412.302C800.996 412.301 804.43 412.288 807.864 412.272C808.853 412.275 809.842 412.277 810.861 412.28C822.455 412.195 832.558 410.379 841.25 402.313C847.577 395.65 850.433 387.466 850.277 378.305C849.324 370.388 845.725 362.567 840 357C832.35 351.406 825.138 348.604 815.687 348.625C814.935 348.627 814.182 348.628 813.407 348.63C807.508 348.76 803.041 349.831 798 353C796.969 353.536 795.937 354.073 794.875 354.625C791.323 357.559 789.16 360.883 786.711 364.758C784.897 367.135 783.807 368.048 781 369C776.729 369.325 773.773 368.657 770.5 365.875C768.513 362.067 768.3 360.272 769 356C774.632 343.421 785.029 334.872 797.746 329.934C816.602 323.993 835.458 327.718 851 340Z" fill="#5D5E62"/>
<path d="M566.24 478.859C567.533 478.855 567.533 478.855 568.853 478.85C571.76 478.842 574.667 478.84 577.574 478.839C579.652 478.834 581.729 478.829 583.807 478.824C589.467 478.81 595.126 478.804 600.786 478.8C604.324 478.797 607.861 478.793 611.399 478.788C622.471 478.774 633.543 478.765 644.616 478.761C657.387 478.756 670.159 478.739 682.931 478.71C692.806 478.688 702.68 478.678 712.555 478.677C718.45 478.676 724.345 478.67 730.24 478.652C735.795 478.636 741.349 478.633 746.903 478.642C748.934 478.643 750.966 478.639 752.997 478.629C781.566 478.497 781.566 478.497 793 488C793.626 488.514 794.251 489.028 794.895 489.558C801.747 495.784 806.614 504.264 807.239 513.539C807.57 525.728 805.367 534.72 797 544C789.608 551.747 781.275 556.535 770.417 557.145C767.465 557.17 764.514 557.185 761.563 557.187C760.539 557.2 759.515 557.212 758.459 557.224C746.599 557.247 746.599 557.247 741.688 553C739.648 550.583 739.055 549.4 738.625 546.25C739.143 541.763 740.697 540.022 744 537C750.838 535.451 757.857 536.024 764.819 536.303C772.399 536.444 777.677 534.973 783.375 529.875C786.728 523.943 787.66 518.25 785.938 511.625C784.432 507.44 782.986 505.214 779 503C773.084 500.422 768.401 499.566 761.986 499.621C761.113 499.617 760.24 499.612 759.34 499.608C756.433 499.596 753.526 499.606 750.619 499.615C748.527 499.611 746.436 499.605 744.344 499.599C739.85 499.587 735.355 499.585 730.861 499.589C723.755 499.596 716.65 499.58 709.545 499.561C693.184 499.52 676.824 499.508 660.464 499.497C645.459 499.487 630.454 499.47 615.45 499.429C608.384 499.411 601.319 499.407 594.254 499.414C589.864 499.416 585.473 499.405 581.083 499.391C579.045 499.387 577.008 499.388 574.97 499.394C572.191 499.403 569.413 499.393 566.634 499.378C565.825 499.385 565.017 499.392 564.183 499.399C559.613 499.353 556.609 498.879 553 496C550.554 492.331 550.161 489.264 551 485C555.734 479.145 559.087 478.852 566.24 478.859Z" fill="#5E6064"/>
<path d="M655.604 262.823C656.78 262.81 657.956 262.797 659.168 262.784C660.448 262.777 661.728 262.769 663.047 262.762C664.365 262.753 665.683 262.745 667.041 262.737C669.842 262.722 672.643 262.712 675.444 262.705C678.994 262.694 682.544 262.659 686.094 262.619C688.851 262.593 691.609 262.585 694.366 262.581C696.299 262.574 698.232 262.548 700.165 262.521C716.441 262.56 730.63 267.584 742.438 278.937C752.136 289.272 756.679 300.713 756.47 315.043C755.844 328.95 749.86 339.955 739.871 349.41C726.367 360.884 711.362 363.312 694.075 363.274C692.844 363.28 691.613 363.285 690.345 363.29C687.009 363.301 683.672 363.304 680.336 363.301C677.54 363.3 674.744 363.305 671.948 363.31C665.353 363.321 658.759 363.322 652.164 363.316C645.375 363.309 638.585 363.322 631.796 363.343C625.945 363.361 620.095 363.367 614.244 363.363C610.758 363.362 607.273 363.364 603.787 363.378C599.908 363.393 596.029 363.384 592.149 363.372C591.002 363.38 589.855 363.387 588.673 363.395C583.066 363.358 578.783 363.289 574 360C571.78 357.262 571.071 355.486 570.562 352C571.131 348.1 572.069 346.638 575 344C581.678 341.79 587.96 341.739 594.949 341.805C596.124 341.807 597.299 341.81 598.509 341.813C601.051 341.821 603.593 341.833 606.134 341.85C610.162 341.875 614.189 341.888 618.217 341.898C627.495 341.922 636.773 341.966 646.051 342.01C654.555 342.051 663.059 342.087 671.562 342.107C676.199 342.118 680.835 342.145 685.471 342.175C687.912 342.182 690.352 342.189 692.792 342.195C694.431 342.211 694.431 342.211 696.102 342.226C707.24 342.228 718.46 340.851 727.078 333.14C734.002 325.635 735.581 319.567 735.355 309.449C734.632 302.433 731.714 297.177 727 292C723.912 289.952 723.912 289.952 720.5 288.25C719.376 287.657 718.252 287.064 717.094 286.453C712.622 284.352 709.145 283.873 704.209 283.842C703.044 283.832 701.88 283.822 700.68 283.811C699.425 283.804 698.171 283.796 696.879 283.789C694.905 283.768 692.931 283.747 690.957 283.725C686.093 283.672 681.229 283.628 676.365 283.598C673.634 283.582 670.903 283.557 668.172 283.524C665.601 283.493 663.03 283.473 660.459 283.467C659.291 283.45 658.123 283.433 656.92 283.416C655.895 283.408 654.87 283.4 653.814 283.392C649.72 282.821 647.079 281.079 644.188 278.187C642.537 275.147 642.453 273.42 643 270C646.447 264.497 649.257 262.883 655.604 262.823Z" fill="#5B5D61"/>
<path d="M176.031 439.457C178.589 441.461 180.83 443.582 183 446C183.99 447.052 183.99 447.052 185 448.125C192.067 458.284 194.663 469.433 192.539 481.652C189.501 492.965 182.805 502.747 172.688 508.75C161.484 514.503 151.156 515.439 139.024 512.101C127.979 508.078 120.067 500.806 115.125 490.25C110.889 480.43 110.16 468.332 113.5 458.062C118.392 446.729 127.222 439.161 138.043 433.762C150.752 428.815 165.249 431.768 176.031 439.457ZM135.625 460.437C132.102 465.993 131.123 471.53 132 478C134.097 484.648 137.924 488.568 143.86 492.109C148.633 494.095 154.373 493.75 159.285 492.348C164.341 490.078 167.926 486.584 171 482C172.92 476.241 173.13 469.321 171.164 463.543C168.331 458.57 164.433 454.898 159 453C149.032 451.48 142.573 453.307 135.625 460.437Z" fill="#5A5C60"/>
<path d="M425.461 455.578C434.588 462.31 441.255 470.639 443.684 481.883C445.174 491.856 443.715 502.221 438.25 510.813C437.199 512.233 436.116 513.63 435 515C434.497 515.627 433.995 516.253 433.477 516.899C427.116 524.004 417.785 528.571 408.312 529.274C396.169 529.682 387.207 527.843 377.625 519.813C369.344 511.784 364.071 501.771 363.625 490.125C364.139 477.018 368.927 467.578 378.375 458.625C391.407 447.598 411.097 446.367 425.461 455.578ZM387.625 478.188C384.858 482.977 383.536 487.942 384.375 493.473C386.33 500.125 389.839 503.95 395.875 507.313C401.187 509.76 405.637 509.61 411.125 507.75C416.72 505.385 419.825 502.915 422.375 497.313C424.203 492.268 424.538 488.16 423 483C420.144 477.5 415.975 472.992 410 471C400.217 469.986 394.757 471.619 387.625 478.188Z" fill="#5B5D61"/>
<path d="M300.286 536.328C310.999 542.926 318.348 552.22 321.528 564.445C323.384 574.479 321.678 584.361 316.715 593.32C310.24 602.519 301.199 609.825 290 612C275.735 612.934 266.144 610.341 255.059 601.441C248.014 595.096 243.844 585.41 243 576C242.859 561.967 247.193 552.462 256.586 542.281C268.136 531.239 286.163 529.431 300.286 536.328ZM269.911 557.914C264.588 563.901 263.528 567.527 263.59 575.59C264.222 580.845 266.344 584.251 270 588C274.511 591.207 279.52 592.149 285 592C290.613 590.873 294.361 588.471 298 584C301.109 579.005 302.772 573.725 301.563 567.887C299.667 562.168 296.474 558.872 291.688 555.25C284.229 551.781 276.106 552.24 269.911 557.914Z" fill="#5B5D60"/>
<path d="M303.207 404.321C312.828 411.053 319.683 420.418 322 432C323.348 444.023 319.841 455.272 312.332 464.742C311 466 312 465 310 467C308.901 468.082 309.5 467.5 309 468C299.828 475.622 288.855 479.034 277 478C265.469 475.83 255.64 469.709 249 460C242.987 448.244 241.397 437.825 244.906 425.055C248.691 414.485 255.735 406.602 265.781 401.621C278.26 396.807 291.699 397.436 303.207 404.321ZM267.062 425.813C263.633 431.113 262.43 435.83 263.461 442.016C264.996 447.666 268.1 451.773 273 455C277.457 457.476 282.024 457.672 287 457C293.186 454.986 296.721 451.769 300.082 446.211C302.318 440.826 301.622 434.098 300 428.625C296.447 423.962 291.883 420.063 286 419C278.802 418.295 272.007 420.372 267.062 425.813Z" fill="#5A5C5F"/>
<path d="M577.617 544.86C579.038 544.851 579.038 544.851 580.489 544.842C582.046 544.841 582.046 544.841 583.634 544.839C584.729 544.834 585.823 544.829 586.951 544.824C590.579 544.809 594.207 544.802 597.836 544.797C600.353 544.791 602.87 544.785 605.387 544.78C609.993 544.771 614.599 544.764 619.205 544.761C625.98 544.757 632.755 544.739 639.531 544.71C645.402 544.686 651.274 544.678 657.146 544.677C659.642 544.673 662.139 544.665 664.636 544.652C668.126 544.635 671.616 544.637 675.107 544.644C676.658 544.63 676.658 544.63 678.24 544.616C687.109 544.668 687.109 544.668 691 548C693.448 551.673 693.832 554.733 693 559C690.465 562.22 688.887 563.704 685 565C683.491 565.095 681.978 565.135 680.465 565.141C679.536 565.146 678.607 565.152 677.649 565.158C676.122 565.16 676.122 565.16 674.565 565.161C672.955 565.169 672.955 565.169 671.312 565.176C667.754 565.191 664.195 565.198 660.637 565.203C658.167 565.209 655.697 565.215 653.227 565.22C648.044 565.231 642.861 565.237 637.679 565.24C631.037 565.246 624.396 565.27 617.755 565.298C612.651 565.317 607.548 565.322 602.444 565.324C599.996 565.327 597.548 565.335 595.099 565.348C591.674 565.365 588.248 565.363 584.823 565.357C583.305 565.37 583.305 565.37 581.757 565.384C576.441 565.353 572.544 565.09 568 562C565.541 558.311 565.307 555.284 566 551C569.13 545.927 571.844 544.88 577.617 544.86Z" fill="#5F6266"/>
</g>
<defs>
<clipPath id="clip0_229_10">
<rect width="870" height="612" fill="white"/>
</clipPath>
</defs>
</svg>
