<svg width="603" height="601" viewBox="0 0 603 601" fill="none" xmlns="http://www.w3.org/2000/svg">
<g clip-path="url(#clip0_229_133)">
<path d="M465.493 45.8387C466.811 45.8291 468.13 45.8194 469.488 45.8095C470.926 45.8047 472.363 45.8004 473.8 45.7967C475.28 45.7909 476.76 45.7852 478.239 45.7794C481.34 45.7689 484.441 45.763 487.542 45.7596C491.503 45.7541 495.464 45.7301 499.425 45.7016C502.481 45.6829 505.538 45.6778 508.595 45.6762C510.054 45.6732 511.514 45.6652 512.974 45.652C523.751 45.5616 530.927 46.1111 539 53.9998C542.694 59.589 542.659 65.2145 542.984 71.7068C543.059 72.9878 543.133 74.2688 543.21 75.5886C543.387 78.6177 543.553 81.6472 543.714 84.6771C544.032 90.6519 544.373 96.6253 544.712 102.599C545.503 116.575 546.265 130.552 547.024 144.53C547.251 148.718 547.479 152.906 547.707 157.093C549.921 197.74 552.102 238.388 554.238 279.038C554.436 282.801 554.635 286.563 554.835 290.326C555.147 296.217 555.456 302.107 555.762 307.998C555.874 310.144 555.987 312.29 556.101 314.435C557.201 335.158 557.201 335.158 557 344C558.143 343.922 558.143 343.922 559.31 343.843C565.115 343.507 569.428 343.758 574.146 347.348C578.426 351.163 581.203 355.711 581.615 361.482C581.636 363.143 581.629 364.805 581.601 366.466C581.605 367.387 581.609 368.309 581.614 369.258C581.622 372.33 581.595 375.399 581.567 378.47C581.566 380.679 581.567 382.887 581.569 385.095C581.571 391.078 581.541 397.06 581.507 403.043C581.475 409.3 581.472 415.556 581.466 421.813C581.453 432.311 581.421 442.809 581.377 453.306C581.331 464.116 581.295 474.926 581.274 485.736C581.273 486.403 581.272 487.07 581.27 487.757C581.264 491.104 581.257 494.45 581.251 497.796C581.199 525.531 581.111 553.265 581 581C582.556 580.963 582.556 580.963 584.145 580.925C585.515 580.905 586.886 580.886 588.257 580.867C588.94 580.849 589.623 580.831 590.327 580.813C594.073 580.774 596.859 580.78 599.875 583.125C602.268 586.363 603.082 587.977 603 592C601.814 595.359 600.75 597.382 597.993 599.652C593.714 601.579 589.874 601.412 585.231 601.377C584.235 601.382 583.24 601.386 582.215 601.391C578.859 601.402 575.503 601.391 572.147 601.381C569.725 601.384 567.303 601.389 564.881 601.395C559.605 601.405 554.328 601.405 549.051 601.398C541.205 601.386 533.359 601.392 525.512 601.401C511.5 601.417 497.488 601.416 483.476 601.407C471.213 601.4 458.951 601.398 446.689 601.401C445.47 601.402 445.47 601.402 444.226 601.402C440.927 601.403 437.628 601.404 434.329 601.405C403.37 601.414 372.41 601.406 341.451 601.39C313.932 601.375 286.414 601.377 258.896 601.391C227.993 601.407 197.091 601.413 166.189 601.404C162.896 601.403 159.603 601.402 156.31 601.401C155.499 601.401 154.688 601.401 153.853 601.401C141.597 601.397 129.341 601.401 117.085 601.409C103.153 601.417 89.2203 601.415 75.2878 601.399C67.4859 601.39 59.6841 601.39 51.8822 601.401C46.0657 601.408 40.2493 601.4 34.4329 601.386C32.0729 601.382 29.713 601.384 27.353 601.391C24.1579 601.401 20.9633 601.391 17.7682 601.377C16.841 601.384 15.9138 601.391 14.9585 601.399C10.1602 601.356 6.86582 601.169 2.99953 598C0.463991 594.401 -0.106597 592.769 0.499534 588.375C2.22969 584.482 3.394 583.224 6.99953 581C9.7936 580.535 12.4898 580.619 15.312 580.75C16.0526 580.768 16.7932 580.786 17.5562 580.805C19.3712 580.851 21.1855 580.923 22.9995 581C22.9986 580.009 22.9977 579.018 22.9967 577.997C22.9742 553.495 22.9579 528.994 22.9477 504.492C22.9426 492.642 22.9357 480.792 22.9241 468.941C22.8946 437.961 22.902 406.98 22.9995 376C23.0024 375.03 23.0054 374.06 23.0084 373.061C23.0432 361.682 23.1022 350.304 23.2123 338.926C23.2413 335.891 23.2616 332.856 23.2738 329.821C23.2909 325.731 23.3395 321.642 23.3924 317.553C23.3934 316.381 23.3944 315.209 23.3955 314.002C23.5434 305.815 24.883 300.189 30.6792 294.258C34.4837 291.412 38.7504 289.663 43.1245 287.875C44.0436 287.491 44.9626 287.107 45.9094 286.711C57.4508 281.923 69.0938 277.386 80.7448 272.873C83.1916 271.925 85.6381 270.976 88.0845 270.027C100.196 265.33 112.314 260.65 124.438 255.985C126.098 255.347 127.757 254.708 129.416 254.069C133.636 252.444 137.857 250.823 142.081 249.21C143.883 248.52 145.685 247.827 147.486 247.135C148.551 246.729 149.617 246.324 150.714 245.906C151.623 245.559 152.532 245.211 153.468 244.853C160.183 242.589 166.793 242.781 173.812 242.75C175.538 242.719 175.538 242.719 177.298 242.687C184.69 242.653 190.972 242.859 197.023 247.578C197.469 248.13 197.915 248.681 198.375 249.25C198.836 249.791 199.297 250.333 199.773 250.89C203.641 257.543 203.216 264.344 203.062 271.812C203.028 273.881 202.998 275.95 202.972 278.019C202.954 278.928 202.936 279.836 202.918 280.772C202.847 283.04 202.847 283.04 204 285C204.662 284.711 205.325 284.422 206.008 284.124C222.326 277.013 238.676 269.979 255.05 262.998C257.071 262.137 259.091 261.274 261.111 260.411C271.413 256.01 281.73 251.654 292.117 247.457C292.941 247.121 293.764 246.785 294.613 246.439C302.944 243.102 311.691 241.166 320.437 244.187C323.846 246.599 326.133 249.267 328 253C328.09 254.573 328.117 256.149 328.113 257.725C328.113 258.706 328.113 259.687 328.113 260.697C328.108 261.759 328.103 262.82 328.097 263.914C328.095 265.541 328.095 265.541 328.093 267.201C328.087 270.676 328.075 274.15 328.062 277.625C328.057 279.976 328.052 282.328 328.048 284.679C328.037 290.453 328.021 296.226 328 302C328.704 301.991 329.408 301.982 330.134 301.973C336.812 301.892 343.49 301.832 350.168 301.793C353.601 301.772 357.033 301.744 360.465 301.698C364.422 301.646 368.378 301.627 372.335 301.609C373.553 301.589 374.77 301.568 376.024 301.547C383.281 301.545 389.684 302.152 396 306C401.537 311.667 403.136 316.223 403.097 324.078C403.094 325.238 403.091 326.398 403.087 327.594C403.079 328.8 403.071 330.007 403.062 331.25C403.058 332.472 403.053 333.694 403.048 334.953C403.037 337.969 403.019 340.984 403 344C414.88 343.505 414.88 343.505 427 343C428.445 323.741 429.635 304.479 430.654 285.194C430.853 281.422 431.056 277.65 431.258 273.878C431.602 267.458 431.944 261.038 432.284 254.618C432.771 245.445 433.262 236.272 433.754 227.099C435.326 197.735 436.889 168.37 438.388 139.002C438.563 135.583 438.738 132.163 438.914 128.743C439.026 126.576 439.137 124.409 439.248 122.241C439.302 121.204 439.355 120.168 439.41 119.099C439.716 113.129 440.016 107.159 440.311 101.188C440.492 97.5646 440.677 93.9412 440.864 90.3178C440.947 88.6897 441.028 87.0614 441.106 85.433C442.457 57.2448 442.457 57.2448 450 49.9998C455.03 46.2868 459.344 45.8748 465.493 45.8387ZM462 66.9998C461.808 68.6954 461.683 70.3984 461.583 72.1018C461.483 73.7662 461.483 73.7662 461.38 75.4642C461.311 76.6954 461.241 77.9266 461.17 79.1951C461.093 80.4866 461.017 81.7781 460.939 83.1088C460.728 86.691 460.523 90.2736 460.32 93.8563C460.19 96.1335 460.059 98.4107 459.927 100.688C457.84 136.767 456.009 172.86 454.191 208.954C453.514 222.396 452.834 235.838 452.151 249.28C451.986 252.531 451.821 255.781 451.657 259.032C450.842 275.14 450.005 291.247 449.051 307.347C448.977 308.596 448.903 309.845 448.827 311.131C448.486 316.87 448.138 322.607 447.778 328.344C447.658 330.308 447.539 332.271 447.42 334.234C447.361 335.122 447.303 336.009 447.243 336.924C447.122 338.947 447.054 340.973 447 343C448.833 344.833 451.396 344.12 453.835 344.124C454.673 344.121 455.511 344.117 456.375 344.113C457.692 344.114 457.692 344.114 459.035 344.114C461.952 344.113 464.868 344.105 467.785 344.097C469.801 344.096 471.817 344.094 473.834 344.093C479.152 344.089 484.47 344.079 489.789 344.068C495.211 344.058 500.634 344.054 506.056 344.049C516.704 344.038 527.352 344.021 538 344C537.963 343.319 537.926 342.637 537.889 341.935C536.835 322.328 535.781 302.72 534.728 283.112C534.451 277.967 534.175 272.821 533.898 267.675C530.149 197.89 530.149 197.89 528.425 165.371C528.368 164.282 528.31 163.193 528.25 162.071C527.296 144.065 527.296 144.065 526.831 135.239C526.271 124.607 525.706 113.976 525.127 103.345C524.995 100.907 524.863 98.4692 524.731 96.0315C524.512 91.976 524.287 87.9209 524.058 83.866C523.973 82.3513 523.889 80.8365 523.808 79.3216C523.696 77.2592 523.579 75.1973 523.46 73.1353C523.395 71.9695 523.33 70.8037 523.263 69.6026C523.284 67.0736 523.284 67.0736 522 65.9998C520.164 65.9007 518.324 65.8718 516.486 65.8704C514.719 65.8657 514.719 65.8657 512.916 65.8608C511.634 65.8629 510.352 65.8649 509.031 65.867C507.725 65.866 506.419 65.8651 505.074 65.8641C502.306 65.8626 499.539 65.8648 496.772 65.8694C493.217 65.8751 489.662 65.8718 486.108 65.8658C482.728 65.8614 479.348 65.8645 475.968 65.867C474.686 65.865 473.404 65.8629 472.083 65.8608C470.905 65.864 469.727 65.8671 468.513 65.8704C467.47 65.8712 466.427 65.872 465.353 65.8728C463.042 65.7347 463.042 65.7347 462 66.9998ZM138.75 271.5C136.608 272.371 134.465 273.239 132.321 274.103C127.97 275.861 123.627 277.636 119.289 279.426C110.823 282.907 102.288 286.208 93.7492 289.508C89.5825 291.121 85.422 292.75 81.2613 294.379C75.9678 296.449 70.6734 298.517 65.3771 300.581C62.7008 301.624 60.0253 302.669 57.35 303.715C55.5518 304.417 53.7526 305.117 51.9534 305.816C50.9064 306.226 49.8595 306.636 48.7808 307.058C47.8739 307.412 46.9671 307.766 46.0327 308.13C44.0434 308.832 44.0434 308.832 42.9995 310C42.9029 311.449 42.8758 312.903 42.8765 314.355C42.8745 315.301 42.8725 316.248 42.8704 317.223C42.8734 318.274 42.8763 319.325 42.8793 320.408C42.8784 321.513 42.8776 322.618 42.8767 323.756C42.875 327.501 42.8806 331.246 42.886 334.99C42.8869 337.704 42.8862 340.417 42.8856 343.131C42.8851 349.684 42.8897 356.238 42.8961 362.791C42.9033 370.367 42.9041 377.943 42.9049 385.519C42.9102 405.534 42.9241 425.548 42.937 445.562C42.9577 490.257 42.9783 534.951 42.9995 581C155.2 581 267.4 581 383 581C383 495.53 383 410.06 383 322C360.89 321.67 338.78 321.34 316 321C311 317 311 317 310 315C309.881 313.336 309.822 311.667 309.794 309.999C309.774 308.958 309.754 307.917 309.734 306.845C309.709 305.154 309.709 305.154 309.683 303.429C309.662 302.278 309.642 301.127 309.62 299.94C309.555 296.252 309.496 292.563 309.437 288.875C309.394 286.379 309.35 283.883 309.306 281.387C309.199 275.258 309.097 269.129 309 263C303.426 264.601 298.006 266.263 292.691 268.609C290.979 269.359 290.979 269.359 289.232 270.124C288.636 270.388 288.04 270.652 287.426 270.924C284.829 272.075 282.226 273.212 279.623 274.35C278.236 274.957 276.849 275.565 275.462 276.173C267.368 279.722 259.248 283.208 251.125 286.687C250.385 287.004 249.645 287.321 248.883 287.648C236.779 292.832 224.654 297.964 212.475 302.971C210.112 303.953 207.762 304.96 205.414 305.976C204.067 306.547 202.721 307.117 201.375 307.687C200.269 308.166 199.162 308.644 198.023 309.137C194.55 310.128 192.458 309.964 189 309C186.742 307.109 185.313 305.627 184 303C183.842 300.012 183.741 297.044 183.683 294.054C183.662 293.169 183.642 292.284 183.62 291.373C183.555 288.54 183.496 285.707 183.437 282.875C183.394 280.957 183.35 279.039 183.306 277.121C183.199 272.414 183.098 267.707 183 263C166.318 261.68 154.03 265.052 138.75 271.5ZM403 364C403 435.61 403 507.22 403 581C455.14 581 507.28 581 561 581C561 509.39 561 437.78 561 364C508.86 364 456.72 364 403 364Z" fill="#565658"/>
<path d="M109.817 399.823C110.869 399.813 110.869 399.813 111.942 399.803C114.267 399.783 116.593 399.772 118.918 399.762C120.11 399.756 120.11 399.756 121.327 399.749C125.536 399.728 129.746 399.714 133.956 399.705C138.296 399.694 142.635 399.659 146.975 399.62C150.318 399.593 153.661 399.585 157.005 399.582C158.604 399.577 160.203 399.565 161.802 399.546C164.047 399.522 166.291 399.523 168.536 399.53C169.811 399.524 171.087 399.518 172.401 399.512C177.57 400.213 181.416 402.151 184.875 406.187C187.851 413.626 187.148 422.415 187.133 430.305C187.134 431.464 187.135 432.624 187.136 433.819C187.137 436.261 187.135 438.704 187.131 441.146C187.125 444.856 187.131 448.567 187.137 452.277C187.136 454.661 187.135 457.046 187.133 459.43C187.135 460.526 187.137 461.622 187.139 462.751C187.077 483.523 187.077 483.523 182 489C175.196 494.471 167.304 493.563 158.996 493.496C157.429 493.496 155.861 493.498 154.294 493.5C151.018 493.502 147.743 493.489 144.467 493.467C140.279 493.438 136.091 493.441 131.902 493.454C128.669 493.461 125.435 493.453 122.202 493.44C120.658 493.436 119.114 493.435 117.57 493.439C115.409 493.442 113.249 493.426 111.088 493.404C109.861 493.399 108.634 493.393 107.37 493.388C103.001 492.885 99.6203 491.478 96.3558 488.5C92.5452 483.606 91.8739 480.536 91.8392 474.421C91.8342 473.757 91.8292 473.093 91.8241 472.409C91.8095 470.214 91.8027 468.019 91.7972 465.824C91.7914 464.296 91.7857 462.768 91.7799 461.239C91.7694 458.034 91.7636 454.829 91.7601 451.623C91.7546 447.524 91.7306 443.426 91.7021 439.327C91.6834 436.169 91.6783 433.011 91.6767 429.853C91.6737 428.342 91.6657 426.832 91.6525 425.321C91.6354 423.203 91.6374 421.086 91.6439 418.967C91.6402 417.764 91.6366 416.561 91.6328 415.321C92.1152 410.962 93.5275 407.578 96.5355 404.355C101.462 400.588 103.615 399.871 109.817 399.823ZM111 420C111 437.49 111 454.98 111 473C129.48 473 147.96 473 167 473C167 455.51 167 438.02 167 420C148.52 420 130.04 420 111 420Z" fill="#565557"/>
<path d="M258.855 399.823C259.895 399.813 259.895 399.813 260.955 399.803C263.248 399.783 265.54 399.772 267.832 399.762C269.008 399.756 269.008 399.756 270.208 399.749C274.359 399.728 278.509 399.714 282.659 399.705C286.939 399.694 291.22 399.659 295.5 399.62C298.797 399.593 302.094 399.585 305.391 399.582C306.968 399.577 308.546 399.565 310.124 399.546C312.335 399.522 314.546 399.523 316.757 399.53C318.014 399.524 319.271 399.518 320.566 399.512C325.815 400.258 328.867 402.713 332.313 406.625C335.095 410.541 335.143 412.807 335.193 417.618C335.205 418.638 335.205 418.638 335.218 419.678C335.243 421.934 335.259 424.189 335.274 426.445C335.279 427.217 335.284 427.988 335.29 428.783C335.317 432.871 335.336 436.958 335.35 441.046C335.364 444.421 335.392 447.796 335.432 451.172C335.482 455.253 335.507 459.333 335.514 463.414C335.52 464.965 335.535 466.516 335.56 468.066C335.771 482.574 335.771 482.574 331.759 488.528C326.983 492.525 321.834 493.377 315.783 493.404C315.099 493.411 314.415 493.418 313.711 493.425C311.473 493.443 309.235 493.439 306.996 493.434C305.429 493.438 303.861 493.443 302.294 493.449C299.018 493.458 295.743 493.456 292.467 493.446C288.279 493.434 284.091 493.455 279.902 493.484C276.669 493.502 273.435 493.502 270.202 493.496C268.658 493.496 267.114 493.502 265.57 493.515C263.409 493.53 261.249 493.519 259.088 493.502C257.861 493.501 256.634 493.501 255.37 493.501C250.172 492.728 247.104 490.253 243.688 486.375C240.893 482.442 240.866 480.183 240.839 475.351C240.834 474.667 240.829 473.984 240.824 473.28C240.809 471.015 240.803 468.75 240.797 466.484C240.791 464.91 240.786 463.335 240.78 461.761C240.769 458.455 240.764 455.15 240.76 451.844C240.755 447.616 240.731 443.389 240.702 439.161C240.683 435.906 240.678 432.651 240.677 429.396C240.674 427.838 240.666 426.28 240.653 424.722C240.635 422.537 240.637 420.352 240.644 418.167C240.64 416.925 240.637 415.683 240.633 414.403C241.177 409.362 242.79 406.119 246.5 402.687C250.668 399.875 253.929 399.862 258.855 399.823ZM260 420C260 437.49 260 454.98 260 473C278.48 473 296.96 473 316 473C316 455.51 316 438.02 316 420C297.52 420 279.04 420 260 420Z" fill="#565557"/>
<path d="M468.882 425.504C470.581 425.502 470.581 425.502 472.314 425.5C474.699 425.501 477.084 425.513 479.469 425.534C483.119 425.563 486.767 425.554 490.417 425.541C492.739 425.548 495.06 425.556 497.382 425.567C499.016 425.562 499.016 425.562 500.684 425.558C510.101 425.675 510.101 425.675 513.999 429C517.664 433.174 519.117 435.489 519.176 440.997C519.195 442.56 519.195 442.56 519.215 444.154C519.222 445.284 519.23 446.414 519.237 447.578C519.245 448.738 519.254 449.897 519.262 451.091C519.276 453.55 519.286 456.008 519.294 458.466C519.312 462.221 519.355 465.976 519.4 469.731C519.41 472.117 519.418 474.504 519.425 476.891C519.442 478.013 519.46 479.135 519.478 480.291C519.461 486.516 519.207 490.283 514.999 495C511.258 498.288 508.108 499.121 503.196 499.177C502.221 499.19 501.246 499.203 500.241 499.216C498.662 499.227 498.662 499.227 497.05 499.239C495.963 499.247 494.877 499.255 493.757 499.263C491.455 499.277 489.152 499.288 486.85 499.295C483.343 499.313 479.836 499.356 476.329 499.401C474.09 499.411 471.851 499.419 469.612 499.426C468.569 499.444 467.526 499.461 466.452 499.479C460.268 499.461 454.905 499.087 449.999 495C445.34 489.336 445.411 482.805 445.468 475.781C445.464 474.724 445.46 473.667 445.456 472.578C445.454 470.352 445.461 468.127 445.478 465.901C445.499 462.51 445.478 459.122 445.452 455.731C445.455 453.56 445.46 451.39 445.468 449.219C445.456 447.711 445.456 447.711 445.443 446.172C445.524 440.034 446.128 434.952 449.999 430C455.857 425.191 461.524 425.428 468.882 425.504ZM465.999 446C465.999 456.89 465.999 467.78 465.999 479C477.219 479 488.439 479 499.999 479C499.999 468.11 499.999 457.22 499.999 446C488.779 446 477.559 446 465.999 446Z" fill="#58585A"/>
</g>
<defs>
<clipPath id="clip0_229_133">
<rect width="603" height="601" fill="white"/>
</clipPath>
</defs>
</svg>
