<svg width="688" height="537" viewBox="0 0 688 537" fill="none" xmlns="http://www.w3.org/2000/svg">
<g clip-path="url(#clip0_229_48)">
<path d="M278.399 1.64353C281.791 3.25661 285.044 5.02728 288.313 6.87498C290.182 7.8961 292.056 8.90809 293.93 9.91938C295.259 10.6363 296.585 11.356 297.911 12.0784C303.232 14.9648 308.629 17.671 314.067 20.3281C315.293 20.9289 315.293 20.9289 316.543 21.5418C319.786 23.1299 323.029 24.7165 326.281 26.2843C328.549 27.3792 330.808 28.4889 333.067 29.6015C333.742 29.9219 334.417 30.2422 335.112 30.5723C340.567 33.2839 343.898 36.6009 345.954 42.3476C348.733 51.0284 348.733 51.0284 354.876 57.125C356.35 57.6 357.83 58.0554 359.313 58.5C361.052 59.311 362.791 60.1225 364.526 60.9409C370.441 63.7278 373.83 64.7965 380.313 63.5C383.56 62.3137 383.56 62.3137 386.771 60.7773C387.966 60.2391 389.162 59.701 390.394 59.1465C392.259 58.2956 394.122 57.4392 395.981 56.572C404.88 52.4413 411.845 49.291 421.431 52.5647C425.013 54.0341 428.512 55.6395 432.001 57.3125C433.278 57.914 434.556 58.5146 435.834 59.1142C437.779 60.0273 439.722 60.9424 441.661 61.8662C445.714 63.7888 449.803 65.5465 453.97 67.2148C467.87 72.948 474.316 78.6899 480.313 92.5C480.973 93.49 481.633 94.48 482.313 95.5C488.749 93.5806 494.651 91.0268 500.556 87.8376C505.762 85.2236 510.546 84.5328 516.313 85.5C520.264 86.9246 523.88 88.8064 527.563 90.8125C528.517 91.312 529.471 91.8115 530.454 92.3261C532.289 93.2883 534.119 94.2613 535.942 95.2466C537.787 96.2219 539.682 97.105 541.591 97.9492C545.3 100.062 547.804 102.834 550.626 106C551.192 106.622 551.758 107.244 552.342 107.885C556.389 112.369 560.273 116.97 564.021 121.707C564.777 122.629 565.534 123.55 566.313 124.5C566.872 125.22 567.43 125.939 568.005 126.681C572.856 132.618 577.015 135.296 584.251 137.625C586.383 138.369 588.514 139.114 590.646 139.859C592.443 140.473 592.443 140.473 594.277 141.1C598.858 142.675 603.404 144.343 607.95 146.016C608.799 146.328 609.648 146.639 610.522 146.961C613.161 147.932 615.8 148.903 618.438 149.875C632.298 154.991 632.298 154.991 646.237 159.886C649.019 160.836 651.794 161.804 654.57 162.773C656.441 163.417 658.322 164.033 660.203 164.648C667.563 167.225 671.432 169.723 675.313 176.5C676.102 177.677 676.892 178.853 677.685 180.027C684.788 191.75 684.788 191.75 683.435 197.426C680.86 202.189 676.545 205.266 672.313 208.5C670.908 209.579 670.908 209.579 669.474 210.68C667.489 212.177 665.495 213.662 663.493 215.137C660.179 217.6 656.928 220.128 653.688 222.687C648.272 226.965 642.83 231.209 637.376 235.437C631.135 240.277 624.958 245.185 618.817 250.15C613.663 254.286 608.356 258.195 602.971 262.024C599.627 264.289 599.627 264.289 597.313 267.5C597.97 267.59 598.626 267.68 599.302 267.773C603.271 268.731 606.815 270.412 610.501 272.125C612.293 272.944 614.086 273.762 615.88 274.578C616.888 275.038 617.896 275.497 618.935 275.971C624.854 278.65 630.796 281.279 636.74 283.904C638.207 284.552 639.673 285.201 641.14 285.85C648.772 289.232 656.414 292.574 664.142 295.734C665.337 296.226 666.532 296.718 667.764 297.225C669.986 298.133 672.213 299.03 674.445 299.912C680.543 302.406 684.273 304.42 687.313 310.5C687.756 313.715 687.921 316.95 688.126 320.187C688.203 321.074 688.279 321.96 688.358 322.873C688.74 329.092 688.08 332.478 684.313 337.5C681.931 339.66 681.931 339.66 679.188 341.562C678.131 342.319 677.074 343.076 675.985 343.855C675.402 344.271 674.819 344.687 674.218 345.115C670.556 347.778 667.005 350.586 663.438 353.375C662.664 353.979 661.889 354.583 661.09 355.205C655.931 359.228 650.785 363.268 645.644 367.314C632.555 377.609 619.387 387.805 606.153 397.914C600.295 402.395 594.497 406.938 588.751 411.562C583.445 415.83 578.065 419.97 572.599 424.031C562.469 431.599 552.577 439.494 542.642 447.316C537.112 451.667 531.554 455.983 525.996 460.3C520.744 464.381 515.51 468.484 510.286 472.602C506.528 475.559 502.74 478.474 498.938 481.375C493.963 485.176 489.096 489.097 484.251 493.062C478.747 497.567 473.154 501.899 467.435 506.129C462.977 509.515 458.66 513.067 454.33 516.613C448.992 520.975 443.567 525.204 438.083 529.379C435.31 531.42 435.31 531.42 433.013 533.715C429.099 536.303 425.986 536.916 421.313 536.5C416.697 535.165 412.386 533.266 408.001 531.312C406.712 530.756 405.422 530.202 404.132 529.649C401.474 528.508 398.822 527.355 396.174 526.192C391.533 524.154 386.872 522.165 382.21 520.175C378.779 518.708 375.351 517.233 371.923 515.758C363.176 512.003 354.401 508.314 345.626 504.625C321.488 494.475 297.36 484.307 273.354 473.849C272.21 473.351 271.066 472.853 269.888 472.34C268.247 471.624 268.247 471.624 266.573 470.894C262.329 469.079 258.046 467.367 253.75 465.678C251.349 464.517 249.965 463.573 248.313 461.5C247.03 457.65 247.247 454.553 247.313 450.5C246.459 450.227 245.605 449.953 244.724 449.672C241.321 448.502 238.049 447.17 234.743 445.75C234.14 445.491 233.536 445.232 232.914 444.966C231.648 444.422 230.383 443.878 229.118 443.332C227.188 442.5 225.257 441.671 223.325 440.844C213.73 436.72 213.73 436.72 211.072 435.312C208.513 434.13 206.976 434.721 204.313 435.5C203.55 435.851 202.787 436.201 202.001 436.562C192.944 439.722 185.276 435.367 177.063 431.75C175.684 431.155 174.303 430.561 172.922 429.969C170.091 428.752 167.264 427.528 164.439 426.296C159.456 424.123 154.457 421.988 149.458 419.853C145.992 418.371 142.53 416.883 139.067 415.395C132.536 412.59 125.989 409.823 119.438 407.062C109.508 402.875 99.6166 398.602 89.7349 394.302C79.488 389.846 69.199 385.498 58.8862 381.196C47.7007 376.528 36.5674 371.747 25.458 366.9C24.303 366.397 23.148 365.894 21.958 365.375C20.8524 364.892 19.7468 364.409 18.6077 363.911C14.3296 362.078 10.0104 360.353 5.67871 358.651C3.31348 357.5 3.31348 357.5 1.00098 354.75C0.105341 350.516 -0.176068 346.618 1.31348 342.5C5.16454 337.937 9.95839 334.798 14.876 331.5C15.7073 330.937 16.5387 330.373 17.3953 329.793C24.168 325.224 31.0076 320.758 37.8711 316.326C44.4017 312.109 50.8757 307.812 57.3157 303.457C59.3039 302.12 61.3057 300.807 63.3135 299.5C63.8851 299.11 64.4567 298.72 65.0457 298.318C69.8481 295.249 74.2145 294.678 79.751 294.25C80.5779 294.173 81.4048 294.095 82.2568 294.016C84.2744 293.829 86.2938 293.662 88.3135 293.5C88.8085 294.985 88.8085 294.985 89.3135 296.5C88.6535 297.49 87.9935 298.48 87.3135 299.5L86.3133 301L85.3133 302.5C82.8133 305 81.1183 306.419 77.876 308.562C77.3234 308.932 76.7708 309.301 76.2014 309.681C74.2507 310.974 72.2846 312.239 70.3135 313.5C69.4978 314.022 68.6822 314.544 67.8418 315.082C62.3513 318.585 56.8362 322.048 51.3135 325.5C56.6983 327.794 62.0836 330.087 67.4695 332.379C69.2935 333.155 71.1174 333.932 72.9412 334.709C77.3513 336.588 81.7634 338.462 86.1802 340.325C89.5465 341.745 92.9006 343.19 96.2476 344.656C97.7707 345.311 99.294 345.966 100.817 346.621C101.849 347.083 101.849 347.083 102.901 347.554C106.786 349.205 109.302 350 113.313 348.5C115.9 347.101 115.9 347.101 118.489 345.289C119.475 344.626 120.46 343.964 121.475 343.281C122.515 342.569 123.555 341.858 124.626 341.125C125.696 340.402 126.766 339.679 127.868 338.934C131.023 336.799 134.17 334.652 137.313 332.5C138.571 331.64 138.571 331.64 139.854 330.764C144.348 327.688 148.832 324.596 153.313 321.5C155.101 320.265 156.892 319.035 158.688 317.812C159.356 317.355 160.024 316.897 160.712 316.426C162.313 315.5 162.313 315.5 164.313 315.5C164.313 314.84 164.313 314.18 164.313 313.5C163.635 313.341 162.957 313.183 162.259 313.02C155.701 311.375 148.821 309.574 143.313 305.5C141.23 301.766 141.246 298.704 141.313 294.5C140.264 294.276 139.214 294.053 138.132 293.823C125.928 291.188 113.869 288.113 101.813 284.875C100.837 284.614 99.8608 284.353 98.8549 284.084C84.6544 280.284 70.5108 276.326 56.4341 272.091C49.3964 269.976 42.3481 267.947 35.2471 266.055C33.7552 265.653 32.2635 265.251 30.7717 264.848C27.9559 264.089 25.1354 263.354 22.3103 262.63C20.4286 262.123 20.4286 262.123 18.5088 261.605C17.4055 261.318 16.3022 261.031 15.1655 260.735C11.7113 259.239 10.3429 257.637 8.31348 254.5C7.23309 250.539 6.95911 248.383 8.49707 244.551C10.4534 241.265 12.3128 239.471 15.3135 237.125C16.7888 235.967 16.7888 235.967 18.2939 234.785C22.9186 231.285 27.5879 227.862 32.3135 224.5C33.5819 223.593 34.8501 222.685 36.1182 221.777C39.5138 219.348 42.9128 216.923 46.3135 214.5C43.5003 211.687 40.1269 210.967 36.4189 209.785C35.6346 209.529 34.8502 209.272 34.0421 209.008C30.6848 207.911 27.3231 206.828 23.9617 205.743C21.5083 204.95 19.0573 204.149 16.6064 203.348C15.8511 203.107 15.0957 202.866 14.3174 202.618C4.58911 199.435 4.58909 199.435 1.50098 194.75C-0.362765 189.649 -0.417303 185.622 1.79395 180.668C4.42209 175.615 8.33932 173.162 13.0635 170.187C14.789 169.055 16.5142 167.922 18.2393 166.789C19.5282 165.956 19.5282 165.956 20.8433 165.106C24.3567 162.822 27.8052 160.448 31.251 158.062C31.8852 157.627 32.5194 157.191 33.1729 156.742C38.6614 152.968 44.1121 149.14 49.5635 145.312C55.6831 141.016 61.8371 136.793 68.0791 132.676C73.3324 129.142 78.5012 125.487 83.6819 121.848C89.5874 117.701 95.5203 113.598 101.476 109.524C104.68 107.327 107.868 105.114 111.028 102.855C124.633 93.13 138.586 83.9317 152.521 74.6894C165.931 65.7925 179.307 56.8457 192.626 47.8125C204.806 39.5522 216.992 31.3009 229.189 23.0662C231.086 21.7854 232.982 20.504 234.878 19.2221C239.217 16.2881 243.561 13.3619 247.921 10.458C250.522 8.72223 253.083 6.95738 255.597 5.09666C263.073 -0.234033 269.606 -1.61506 278.399 1.64353ZM260.688 19.75C255.209 23.535 249.694 27.2622 244.146 30.9453C233.606 37.9568 223.116 45.0402 212.626 52.125C201.13 59.8885 189.631 67.6455 178.079 75.3257C175.026 77.3562 171.977 79.3914 168.927 81.4258C164.319 84.498 159.71 87.5675 155.099 90.6345C152.276 92.5121 149.454 94.3906 146.632 96.2693C145.203 97.2205 143.773 98.1714 142.343 99.1218C132.001 105.997 121.769 112.996 111.688 120.25C105.181 124.916 98.5917 129.456 91.9854 133.98C89.0821 135.969 86.1924 137.976 83.3135 140C79.2699 142.84 75.2011 145.642 71.126 148.437C63.4819 153.681 55.8762 158.978 48.2751 164.283C43.2007 167.819 38.1095 171.326 32.9854 174.789C31.971 175.475 30.9567 176.161 29.9116 176.868C27.9622 178.184 26.0101 179.496 24.0552 180.804C23.1839 181.392 22.3127 181.98 21.415 182.586C20.26 183.36 20.26 183.36 19.0815 184.15C17.1831 185.395 17.1831 185.395 16.3135 187.5C17.6554 187.863 17.6554 187.863 19.0244 188.234C20.2336 188.57 21.4427 188.905 22.6885 189.25C23.8718 189.575 25.0552 189.9 26.2744 190.234C29.2293 191.107 32.0386 192.179 34.8838 193.359C38.9604 195.031 43.0641 196.384 47.2822 197.656C71.5661 205.122 71.5661 205.122 78.1455 215.227C78.5309 215.977 78.9164 216.727 79.3135 217.5C83.5157 216.061 86.5238 213.995 90.001 211.25C90.5492 210.82 91.0973 210.391 91.6621 209.948C92.8782 208.995 94.0925 208.039 95.3052 207.082C98.2638 204.752 101.24 202.445 104.215 200.136C106.463 198.391 108.709 196.643 110.954 194.895C112.028 194.059 112.028 194.059 113.123 193.207C114.613 192.045 116.103 190.883 117.592 189.719C122.353 186.004 127.155 182.353 132.001 178.75C137.243 174.837 142.433 170.87 147.563 166.812C153.734 161.933 160.002 157.197 166.313 152.5C174.377 146.479 182.422 140.438 190.386 134.285C196.631 129.469 202.95 124.754 209.265 120.032C212.617 117.525 215.965 115.012 219.313 112.5C220.302 111.759 220.302 111.759 221.311 111.003C224.658 108.493 228.005 105.981 231.349 103.465C238.976 97.7291 246.636 92.0411 254.341 86.4101C257.194 84.3235 260.039 82.2253 262.88 80.1211C271.171 73.9823 279.498 67.9098 287.945 61.9865C294.092 57.6731 300.179 53.2803 306.251 48.863C310.218 45.9844 314.214 43.1857 318.313 40.5C315.642 38.4099 312.987 36.6971 309.976 35.1399C308.704 34.4795 308.704 34.4795 307.407 33.8058C306.499 33.3401 305.592 32.8744 304.657 32.3945C303.718 31.9104 302.779 31.4264 301.811 30.9276C299.828 29.9078 297.845 28.8901 295.86 27.8742C292.82 26.316 289.788 24.7452 286.755 23.1738C284.827 22.1841 282.899 21.1951 280.97 20.207C280.062 19.7352 279.155 19.2634 278.22 18.7773C276.949 18.1311 276.949 18.1311 275.651 17.4719C274.537 16.8992 274.537 16.8992 273.4 16.315C268.019 14.2132 264.924 16.7684 260.688 19.75ZM330.501 49.5H328.501L317.001 60C317.001 60 306.722 67.9076 300.282 72.1709C296.668 74.6106 293.153 77.1866 289.626 79.75C288.08 80.8698 286.535 81.9896 284.989 83.1094C284.215 83.6707 283.441 84.2321 282.644 84.8105C279.616 87.0055 276.584 89.1951 273.552 91.384C272.057 92.4629 270.563 93.5422 269.069 94.6218C265.297 97.3475 261.523 100.07 257.743 102.785C249.907 108.42 242.118 114.107 234.411 119.919C229.346 123.737 224.241 127.499 219.126 131.25C208.754 138.868 198.53 146.676 188.313 154.5C186.811 155.649 185.308 156.797 183.806 157.945C180.333 160.599 176.862 163.254 173.392 165.91C171.241 167.555 169.09 169.2 166.938 170.844C162.729 174.061 158.521 177.28 154.313 180.5C153.726 180.95 153.138 181.399 152.533 181.863C144.668 187.885 136.86 193.978 129.08 200.109C126.16 202.409 123.236 204.704 120.313 207C119.165 207.902 118.017 208.805 116.868 209.707C111.017 214.305 105.165 218.902 99.3135 223.5C101.636 225.823 103.092 226.204 106.22 227.129C107.256 227.437 108.293 227.745 109.361 228.063C110.501 228.393 111.64 228.723 112.813 229.062C114.002 229.411 115.19 229.76 116.414 230.119C126.815 233.137 137.278 235.898 147.756 238.635C162.264 242.429 176.578 246.721 190.868 251.266C191.754 251.547 192.641 251.828 193.554 252.118C195.222 252.65 196.89 253.184 198.555 253.723C202.357 255.03 202.357 255.03 206.313 255.5C206.579 256.041 206.845 256.583 207.118 257.141C208.504 259.875 209.966 262.561 211.438 265.25C211.977 266.235 212.516 267.22 213.071 268.234C213.481 268.982 213.891 269.73 214.313 270.5C218.246 268.911 220.644 266.337 223.563 263.312C227.318 259.474 231.137 255.797 235.22 252.309C237.794 250.085 240.302 247.794 242.813 245.5C246.577 242.067 250.375 238.684 254.22 235.344C256.778 233.091 259.295 230.797 261.813 228.5C265.604 225.044 269.424 221.632 273.298 218.27C275.6 216.249 277.861 214.187 280.126 212.125C283.524 209.053 286.989 206.116 290.563 203.25C294.939 199.717 299.046 195.988 303.126 192.125C308.814 186.756 314.75 181.878 320.946 177.113C324.138 174.656 327.232 172.095 330.313 169.5C341.626 160.011 353.389 151.08 365.144 142.149C366.602 141.041 368.059 139.931 369.515 138.819C371.653 137.188 373.795 135.562 375.938 133.937C376.577 133.449 377.216 132.961 377.874 132.457C381.864 129.446 385.925 126.897 390.313 124.5C387.677 129.888 383.355 133.454 379.001 137.437C371.487 144.295 371.487 144.295 364.313 151.5L363.001 153L362.001 154C360.001 156 359.001 157 356.485 159.168C355.767 159.897 355.049 160.626 354.31 161.377C353.198 162.521 353.198 162.521 352.063 163.687C347.216 168.651 342.332 173.448 337.068 177.97C334.876 179.881 332.838 181.913 330.813 184C327.452 187.407 323.976 190.575 320.345 193.687C318.077 195.711 315.948 197.837 313.813 200C310.459 203.394 307.013 206.593 303.396 209.703C294.121 217.707 285.177 226.102 276.165 234.398C267.534 242.337 267.534 242.337 263.376 245.937C258.139 250.48 253.087 255.225 248.002 259.936C245.298 262.441 242.589 264.941 239.876 267.437C238.949 268.292 238.022 269.147 237.067 270.027C234.206 272.597 231.282 275.056 228.313 277.5C230.008 280.89 233.892 281.655 237.251 283.062C238.719 283.689 240.186 284.315 241.653 284.941C242.861 285.456 244.069 285.97 245.313 286.5C245.973 286.83 246.633 287.16 247.313 287.5C247.126 289.375 247.126 289.375 246.313 291.5C241.006 294.753 234.035 295.084 228.091 293.809C208.629 288.004 208.629 288.004 203.497 279.484C202.328 277.319 201.161 275.152 199.997 272.984C199.441 272.165 198.886 271.345 198.313 270.5C194.064 270.5 191.596 272.814 188.251 275.187C187.211 275.913 187.211 275.913 186.151 276.654C179.743 281.147 173.401 285.734 167.079 290.346C166.354 290.874 165.63 291.402 164.884 291.945C164.242 292.415 163.6 292.884 162.939 293.368C161.313 294.5 161.313 294.5 159.313 295.5C159.313 296.16 159.313 296.82 159.313 297.5C162.459 298.605 165.605 299.709 168.751 300.812C169.629 301.121 170.508 301.43 171.413 301.748C173.181 302.368 174.951 302.983 176.723 303.592C178.403 304.181 180.075 304.794 181.736 305.435C188.115 307.814 192.744 307.707 199.067 304.977C200.342 304.369 201.611 303.752 202.876 303.125C203.51 302.821 204.143 302.517 204.796 302.203C207.704 300.802 210.534 299.374 213.341 297.773C221.022 294.483 227.725 297.798 235.063 300.562C237.118 301.332 239.175 302.095 241.235 302.848C242.139 303.188 243.042 303.528 243.973 303.879L246.001 302.5L247.313 301.5C246.813 298.187 246.813 298.187 247.313 294.5C250.01 291.741 252.359 290.04 255.688 288.156C258.658 286.282 261.058 284.143 263.626 281.75C266.857 278.761 270.094 275.799 273.438 272.937C276.358 270.406 279.097 267.749 281.813 265C285.103 261.672 288.48 258.547 292.028 255.5C294.944 252.948 297.784 250.321 300.626 247.687C310.103 238.912 319.615 230.185 329.462 221.824C336.044 216.228 342.51 210.544 348.833 204.656C352.287 201.44 355.788 198.295 359.356 195.207C361.699 193.164 364.006 191.083 366.313 189C369.938 185.729 373.592 182.498 377.274 179.293C379.516 177.322 381.727 175.318 383.938 173.312C387.963 169.677 392.058 166.138 396.188 162.625C400.713 158.776 405.15 154.856 409.501 150.812C414.135 146.519 418.934 142.515 423.853 138.555C426.631 136.235 429.147 133.755 431.665 131.16C435.196 127.604 439.067 124.419 442.875 121.166C444.646 119.653 446.417 118.139 448.188 116.625C449.091 115.853 449.091 115.853 450.012 115.066C458.864 107.503 458.864 107.503 467.313 99.5C464.186 91.183 461.032 85.9381 452.868 82.1601C450.001 80.8894 447.103 79.7189 444.188 78.5625C442.739 77.9538 441.291 77.3412 439.845 76.7246C437.021 75.5241 434.187 74.3535 431.344 73.1997C428.698 72.1109 426.127 70.9425 423.572 69.6557C422.438 69.0874 421.303 68.5191 420.134 67.9336C419.149 67.4172 418.164 66.9009 417.15 66.3689C413.421 65.2265 411.854 65.9521 408.313 67.5C407.211 67.9687 406.109 68.4374 404.974 68.9204C403.786 69.4545 402.599 69.9887 401.376 70.539C400.056 71.1255 398.736 71.7114 397.415 72.2969C395.359 73.2113 393.305 74.129 391.254 75.0556C389.257 75.9561 387.255 76.8423 385.251 77.7265C384.064 78.2584 382.877 78.7903 381.653 79.3384C375.357 81.5283 371.003 80.3274 365.052 77.7617C364.379 77.4803 363.707 77.1988 363.014 76.9089C361.601 76.3146 360.19 75.715 358.781 75.1106C356.627 74.1881 354.466 73.2853 352.304 72.3847C350.928 71.8032 349.552 71.2206 348.177 70.6367C347.533 70.3678 346.889 70.0989 346.226 69.8219C341.773 67.8952 339.143 66.4341 337.216 61.9414C336.897 60.9913 336.579 60.0413 336.251 59.0625C334.686 54.0917 334.686 54.0917 332.313 49.5H330.501ZM502.259 103.027C501.149 103.572 500.039 104.117 498.896 104.678C496.599 105.847 494.302 107.016 492.005 108.186C485.377 111.438 480.72 113.263 473.313 112.5C472.88 111.541 472.88 111.541 472.438 110.562C471.485 108.348 471.485 108.348 469.313 107.5C468.962 108.034 468.61 108.567 468.247 109.117C464.902 114.165 461.47 119.132 457.927 124.043C456.219 126.508 456.219 126.508 454.962 129.461C453.046 132.993 450.62 135.344 447.626 137.937C447.086 138.418 446.547 138.898 445.991 139.393C444.439 140.77 442.877 142.136 441.313 143.5C440.629 144.108 439.944 144.717 439.239 145.344C436.223 148.013 433.163 150.629 430.099 153.242C428.899 154.265 427.7 155.289 426.501 156.312C425.895 156.83 425.289 157.347 424.664 157.88C420.923 161.085 417.252 164.352 413.626 167.687C410.076 170.951 406.45 174.047 402.688 177.062C398.308 180.595 394.346 184.362 390.419 188.387C387.879 190.936 385.206 193.278 382.478 195.621C379.884 197.873 377.35 200.184 374.813 202.5C371.023 205.956 367.203 209.368 363.329 212.73C361.027 214.751 358.766 216.813 356.501 218.875C353.06 221.985 349.55 224.965 345.938 227.875C340.794 232.037 335.935 236.448 331.083 240.941C326.554 245.126 321.939 249.184 317.157 253.078C316.606 253.53 316.054 253.982 315.485 254.447C314.386 255.345 313.282 256.238 312.173 257.125C310.849 258.206 309.576 259.349 308.313 260.5C308.313 261.16 308.313 261.82 308.313 262.5C307.719 262.773 307.124 263.045 306.511 263.326C304.373 264.468 302.897 265.623 301.149 267.285C300.303 268.081 300.303 268.081 299.438 268.893C298.861 269.444 298.283 269.995 297.688 270.562C291.553 276.38 291.553 276.38 289.313 277.5C290.442 280.886 290.889 281.15 293.794 282.926C294.534 283.385 295.275 283.845 296.038 284.318C296.851 284.811 297.663 285.304 298.501 285.812C300.247 286.893 301.994 287.973 303.739 289.055C304.655 289.619 305.571 290.183 306.515 290.765C311.102 293.609 315.642 296.528 320.188 299.437C328.293 304.607 336.444 309.697 344.625 314.744C350.416 318.318 356.185 321.926 361.938 325.562C362.705 326.044 363.471 326.525 364.26 327.02C368.394 329.623 372.487 332.273 376.548 334.988C377.408 335.555 378.268 336.121 379.155 336.705C380.808 337.795 382.452 338.899 384.085 340.02C388.244 342.932 388.244 342.932 393.079 343.008C393.816 342.51 394.554 342.013 395.313 341.5C396.022 341.046 396.731 340.592 397.462 340.125C399.038 338.975 400.611 337.819 402.182 336.661C404.404 335.128 406.507 333.804 408.854 332.511C419.84 326.251 424.024 319.306 428.563 307.75C429.188 306.255 429.817 304.761 430.45 303.27C431.605 300.54 432.732 297.802 433.834 295.052C436.25 289.252 438.089 285.227 443.126 281.375C444.102 280.609 445.078 279.844 446.083 279.055C446.606 278.646 447.129 278.237 447.667 277.815C450.618 275.457 453.459 272.972 456.313 270.5C463.089 264.661 469.996 258.997 476.946 253.367C482.749 248.647 488.453 243.826 494.119 238.944C498.54 235.143 503.029 231.437 507.556 227.762C510.567 225.292 513.536 222.775 516.501 220.25C523.409 214.374 530.452 208.67 537.502 202.968C539.946 200.987 542.381 198.995 544.813 197C545.68 196.294 546.546 195.587 547.438 194.859C549.595 193.09 551.738 191.308 553.876 189.516C567.449 178.214 581.815 168.007 597.313 159.5C594.776 156.963 592.574 156.427 589.169 155.293C587.935 154.871 586.7 154.449 585.429 154.014C583.469 153.349 581.508 152.69 579.544 152.04C577.644 151.408 575.75 150.757 573.856 150.105C572.722 149.725 571.588 149.345 570.42 148.954C566.891 147.302 564.897 145.39 562.313 142.5C561.81 141.946 561.306 141.392 560.787 140.822C560.368 140.331 559.949 139.841 559.517 139.336C559.037 138.776 558.558 138.217 558.064 137.641C557.569 137.058 557.074 136.475 556.563 135.875C556.042 135.264 555.52 134.653 554.983 134.023C551.046 129.396 547.175 124.719 543.349 120C542.677 119.175 542.005 118.35 541.313 117.5C540.619 116.516 539.924 115.533 539.208 114.52C535.689 110.316 530.836 108.415 525.938 106.187C525.018 105.746 524.098 105.304 523.149 104.85C515.717 101.383 510 99.0765 502.259 103.027ZM601.728 162.855C599.147 165.498 596.642 168.077 594.376 171C591.984 173.9 589.307 176.178 586.454 178.613C584.315 180.499 582.312 182.466 580.313 184.5C576.477 188.38 572.452 191.948 568.313 195.5C567.162 196.503 566.011 197.507 564.86 198.512C558.34 204.199 551.779 209.811 545.056 215.258C541.943 217.803 538.876 220.396 535.813 223C530.96 227.124 526.055 231.177 521.114 235.195C518.046 237.72 515.023 240.295 512.001 242.875C507.543 246.676 503.004 250.346 498.376 253.937C492.896 258.193 487.598 262.62 482.353 267.16C478.882 270.162 475.378 273.109 471.813 276C467.45 279.546 463.15 283.159 458.876 286.812C458.284 287.316 457.693 287.821 457.083 288.34C456.521 288.822 455.959 289.304 455.38 289.801C454.884 290.225 454.389 290.65 453.878 291.087C453.362 291.553 452.845 292.02 452.313 292.5C451.662 293.076 451.011 293.651 450.34 294.245C447.867 296.997 446.366 299.961 444.825 303.285C444.518 303.941 444.21 304.598 443.894 305.274C443.249 306.661 442.61 308.05 441.975 309.442C441.01 311.543 440.009 313.625 439.007 315.709C435.317 323.603 433.225 329.789 435.313 338.5C435.676 340.202 435.676 340.202 436.046 341.938C436.88 345.666 437.802 349.362 438.751 353.062C439.064 354.332 439.376 355.601 439.698 356.908C440.954 363.259 440.954 363.259 444.313 368.5C444.885 367.966 445.456 367.433 446.044 366.883C451.207 362.138 456.481 357.745 462.074 353.512C466.543 350.12 470.908 346.614 475.251 343.062C480.796 338.531 486.385 334.066 492.031 329.66C496.444 326.206 500.79 322.675 505.126 319.125C511.327 314.055 517.638 309.153 524.019 304.312C529.391 300.228 534.673 296.043 539.929 291.811C544.401 288.215 548.924 284.695 553.482 281.209C557.345 278.252 561.18 275.261 565.001 272.25C571.192 267.372 577.41 262.53 583.636 257.697C587.684 254.552 591.721 251.395 595.742 248.216C601.126 243.961 606.562 239.79 612.063 235.687C621.719 228.487 631.199 221.066 640.685 213.645C649.459 206.782 658.226 199.946 667.313 193.5C665.891 188.523 664.276 183.236 659.564 180.475C657.397 179.565 655.221 178.797 652.989 178.062C652.17 177.774 651.35 177.486 650.505 177.19C647.885 176.274 645.256 175.386 642.626 174.5C640.909 173.905 639.192 173.309 637.476 172.711C634.088 171.533 630.696 170.367 627.3 169.211C623.966 168.073 620.641 166.912 617.323 165.727C616.538 165.446 615.753 165.166 614.944 164.877C613.462 164.346 611.98 163.813 610.5 163.277C605.908 161.213 605.908 161.213 601.728 162.855ZM58.7432 222.922C57.6565 223.71 57.6565 223.71 56.5479 224.514C55.7693 225.087 54.9907 225.66 54.1885 226.25C53.3918 226.831 52.5952 227.412 51.7744 228.011C46.2653 232.04 40.7812 236.103 35.3135 240.187C34.6378 240.692 33.9622 241.196 33.2661 241.716C30.8248 243.551 28.4761 245.337 26.3135 247.5C37.5425 251.435 48.8965 254.908 60.3135 258.25C61.0407 258.463 61.7679 258.676 62.5171 258.896C69.9098 261.061 77.3062 263.212 84.7092 265.342C87.5064 266.147 90.3023 266.957 93.0977 267.769C94.4888 268.172 95.8803 268.574 97.2721 268.975C105.672 271.4 113.963 274.027 122.208 276.937C123.029 277.224 123.851 277.511 124.697 277.807C128.688 279.201 132.665 280.621 136.627 282.093C138.068 282.602 139.509 283.11 140.95 283.617C141.594 283.869 142.237 284.12 142.9 284.379C145.516 285.271 147.578 285.772 150.217 284.795C152.359 283.629 152.359 283.629 155.313 281.5C156.851 280.471 156.851 280.471 158.419 279.422C159.436 278.705 160.453 277.988 161.501 277.25C167.708 272.901 173.991 268.681 180.313 264.5C177.84 262.027 176.018 261.661 172.66 260.696C171.462 260.35 170.264 260.003 169.03 259.646C167.7 259.269 166.37 258.892 165.04 258.516C163.651 258.118 162.262 257.719 160.873 257.321C150.961 254.487 141.018 251.762 131.068 249.062C128.707 248.421 126.347 247.778 123.986 247.136C122.404 246.705 120.822 246.274 119.239 245.844C118.065 245.524 118.065 245.524 116.867 245.198C112.83 244.1 108.791 243.008 104.75 241.928C100.742 240.856 96.7384 239.767 92.7379 238.668C91.2365 238.258 89.7334 237.855 88.2287 237.457C86.1474 236.907 84.0728 236.337 81.9985 235.761C80.2368 235.285 80.2368 235.285 78.4395 234.8C72.4689 232.317 69.2421 227.208 65.6455 222.074C65.2059 221.555 64.7664 221.035 64.3135 220.5C61.6956 220.5 60.8495 221.385 58.7432 222.922ZM578.384 279.352C577.385 280.258 576.405 281.184 575.438 282.125C574.308 283.152 573.174 284.176 572.036 285.195C571.137 286.008 571.137 286.008 570.22 286.837C566.904 289.729 563.39 292.354 559.876 295C558.42 296.104 556.964 297.208 555.509 298.312C554.801 298.849 554.094 299.385 553.365 299.937C545.953 305.582 538.665 311.382 531.456 317.285C524.86 322.687 518.169 327.903 511.318 332.978C505.813 337.077 500.48 341.364 495.173 345.715C490.368 349.653 485.507 353.509 480.609 357.33C476.062 360.886 471.591 364.53 467.126 368.187C461.009 373.193 454.787 377.96 448.313 382.5C452.533 383.752 456.274 383.172 460.563 382.562C461.309 382.463 462.054 382.363 462.821 382.26C464.653 382.013 466.483 381.757 468.313 381.5C465.173 385.441 462.123 388.698 458.126 391.812C456.836 392.828 456.836 392.828 455.521 393.863C451.619 396.757 449.191 396.853 444.313 396.5C441.462 395.579 438.82 394.305 436.126 393C434.541 392.272 432.955 391.547 431.368 390.824C430.545 390.446 429.723 390.067 428.875 389.677C424.519 387.675 420.155 385.706 415.751 383.812C414.943 383.437 414.135 383.062 413.303 382.676C409.068 380.888 406.248 380.122 401.79 381.531C400.283 382.152 398.79 382.809 397.313 383.5C396.193 384 396.193 384 395.049 384.51C392.002 385.896 388.981 387.33 385.976 388.803C380.131 391.526 375.365 392.802 369.084 390.783C366.684 389.824 364.346 388.776 362.001 387.687C349.575 381.464 349.575 381.464 336.313 381.5C333.637 383.051 331.139 384.824 328.626 386.625C327.554 387.378 327.554 387.378 326.46 388.146C324.406 389.591 322.359 391.045 320.313 392.5C318.648 393.668 316.981 394.835 315.313 396C314.544 396.541 313.774 397.083 312.981 397.641C310.887 399.1 308.786 400.546 306.677 401.984C299.916 406.598 293.21 411.261 286.626 416.125C284.787 417.477 282.948 418.829 281.108 420.18C279.913 421.059 278.719 421.94 277.526 422.824C265.794 431.473 265.794 431.473 258.313 432.5C258.518 433.19 258.723 433.879 258.935 434.59C259.204 435.53 259.473 436.469 259.751 437.437C260.018 438.354 260.285 439.271 260.56 440.215C261.313 443.5 261.313 443.5 261.296 445.716C261.31 448.232 261.448 450.13 262.313 452.5C265.211 454.887 268.444 456.074 271.938 457.375C272.829 457.738 273.72 458.102 274.638 458.477C276.382 459.186 278.134 459.877 279.893 460.55C282.047 461.396 284.119 462.334 286.212 463.32C289.503 464.572 290.156 464.623 293.313 463.5C295.576 461.886 297.724 460.251 299.876 458.5C300.489 458.01 301.103 457.519 301.735 457.014C306.56 453.145 311.345 449.225 316.106 445.277C319.813 442.292 322.135 440.987 326.979 441.129C331.729 441.883 335.825 444.26 340.063 446.437C342.296 447.546 344.529 448.653 346.763 449.758C347.358 450.055 347.953 450.352 348.567 450.658C356.278 454.499 364.08 458.148 371.876 461.812C374.94 463.253 378.004 464.695 381.067 466.137C382.21 466.674 382.21 466.674 383.375 467.222C388.027 469.413 392.668 471.626 397.302 473.856C400.264 475.281 403.231 476.697 406.198 478.112C407.599 478.783 408.998 479.458 410.395 480.137C412.321 481.073 414.254 481.995 416.188 482.914C417.824 483.702 417.824 483.702 419.493 484.506C422.463 485.553 423.489 485.772 426.313 484.5C428.126 483.332 428.126 483.332 429.853 481.84C430.839 481.026 430.839 481.026 431.846 480.196C432.537 479.616 433.227 479.035 433.938 478.437C435.381 477.244 436.824 476.052 438.267 474.859C438.963 474.28 439.66 473.7 440.378 473.103C442.792 471.103 445.236 469.14 447.688 467.187C448.464 466.569 449.241 465.95 450.04 465.312C450.79 464.714 451.541 464.116 452.313 463.5C453.084 462.881 453.855 462.262 454.649 461.625C458.81 458.285 462.987 454.968 467.19 451.681C472.969 447.159 478.694 442.58 484.376 437.937C490.186 433.193 496.072 428.576 502.036 424.027C505.673 421.24 509.243 418.372 512.813 415.5C517.934 411.381 523.103 407.343 528.329 403.359C532.726 399.989 537.025 396.506 541.313 393C547.625 387.842 554.024 382.832 560.504 377.887C564.101 375.13 567.675 372.345 571.251 369.562C572.02 368.964 572.789 368.366 573.582 367.749C578.25 364.113 582.911 360.469 587.563 356.812C588.13 356.368 588.696 355.923 589.28 355.464C592.053 353.283 594.823 351.097 597.587 348.902C616.63 333.809 635.373 320.09 657.313 309.5C654.081 307.345 650.739 305.822 647.2 304.262C646.486 303.944 645.772 303.627 645.036 303.3C642.693 302.259 640.347 301.223 638.001 300.187C636.803 299.658 636.803 299.658 635.58 299.117C631.451 297.291 627.32 295.469 623.188 293.649C619.329 291.949 615.473 290.239 611.619 288.526C608.891 287.315 606.16 286.112 603.428 284.911C602.154 284.35 600.881 283.786 599.61 283.219C597.841 282.43 596.068 281.654 594.294 280.879C593.303 280.441 592.312 280.004 591.291 279.553C584.661 277.192 584.661 277.192 578.384 279.352ZM272.563 294.687C261.33 305.025 265.756 304.857 257.501 308.044C261.825 310.927 260.71 308.985 265.756 308.044C268.369 307.335 270.931 306.536 273.501 305.687C274.815 305.277 274.815 305.277 276.155 304.857C280.274 303.555 284.334 302.189 288.313 300.5C288.313 301.49 288.313 302.48 288.313 303.5C286.259 305.445 286.259 305.445 283.438 307.625C278.543 311.488 273.895 315.524 269.31 319.75C266.068 322.592 263.786 322.74 259.494 322.681C256.059 322.396 252.948 321.318 249.743 320.129C249.058 319.887 248.374 319.645 247.668 319.396C245.504 318.63 243.346 317.847 241.188 317.062C239.023 316.284 236.856 315.509 234.687 314.739C233.345 314.262 232.005 313.78 230.667 313.29C223.6 310.628 223.6 310.628 216.357 311.504C215.343 312.018 214.33 312.533 213.286 313.062C212.164 313.612 211.042 314.161 209.886 314.727C207.549 315.907 205.213 317.09 202.878 318.273C201.755 318.823 200.631 319.372 199.474 319.937C198.459 320.452 197.445 320.966 196.4 321.496C191.919 322.954 188.263 322.232 183.911 320.598C179.411 320.428 176.304 323.401 172.751 325.937C171.129 327.059 169.506 328.18 167.884 329.301C167.098 329.852 166.312 330.403 165.502 330.971C162.739 332.901 159.937 334.767 157.126 336.625C156.197 337.245 155.267 337.865 154.31 338.504C152.074 339.993 149.837 341.48 147.599 342.965C140.438 347.719 133.321 352.52 126.313 357.5C129.263 359.466 132.106 360.843 135.333 362.301C135.935 362.573 136.537 362.846 137.157 363.126C139.145 364.025 141.135 364.919 143.126 365.812C143.814 366.122 144.502 366.432 145.211 366.751C158.938 372.931 172.739 378.935 186.566 384.887C192.881 387.605 199.192 390.332 205.501 393.062C206.119 393.33 206.736 393.597 207.373 393.872C217.675 398.33 227.942 402.864 238.185 407.455C241.224 408.814 244.268 410.158 247.313 411.5C248.401 411.991 249.489 412.482 250.609 412.988C251.674 413.456 252.74 413.924 253.837 414.406C254.793 414.832 255.748 415.258 256.733 415.697C259.566 416.579 260.613 416.629 263.313 415.5C265.391 414.294 265.391 414.294 267.481 412.762C268.283 412.195 269.085 411.629 269.911 411.045C270.766 410.432 271.62 409.819 272.501 409.187C273.393 408.555 274.285 407.923 275.204 407.271C277.037 405.972 278.868 404.669 280.698 403.365C284.394 400.73 288.104 398.115 291.813 395.5C293.194 394.525 294.574 393.549 295.954 392.574C301.666 388.542 307.388 384.524 313.125 380.529C316.849 377.934 320.563 375.332 324.224 372.648C324.807 372.227 325.39 371.806 325.99 371.372C327.496 370.281 328.993 369.178 330.489 368.074C334.661 365.749 337.982 364.914 342.706 366.101C345.467 367.027 348.167 368.057 350.876 369.125C351.859 369.484 352.842 369.844 353.855 370.214C358.059 371.763 362.132 373.296 366.021 375.535C370.669 377.96 373.918 379.239 379.106 377.638C384.505 375.468 389.634 372.895 394.774 370.18C400.222 367.412 404.503 365.387 410.677 367.19C413.238 368.174 415.706 369.271 418.188 370.437C419.872 371.199 421.557 371.958 423.243 372.715C424.345 373.227 424.345 373.227 425.469 373.75C427.29 374.626 427.29 374.626 429.313 374.5C428.27 366.84 426.654 359.378 424.813 351.875C424.6 350.986 424.386 350.097 424.166 349.181C423.852 347.927 423.852 347.927 423.532 346.648C423.346 345.897 423.16 345.146 422.968 344.373C422.392 342.289 422.392 342.289 420.313 340.5C419.647 340.996 418.981 341.493 418.294 342.004C398.871 356.32 398.871 356.32 391.313 358.5C385.746 357.36 381.612 355.119 376.938 352.062C376.249 351.621 375.559 351.18 374.848 350.726C372.664 349.326 370.488 347.914 368.313 346.5C366.93 345.605 365.545 344.711 364.161 343.816C362.063 342.46 359.966 341.102 357.871 339.742C351.865 335.843 345.817 332.012 339.758 328.196C333.535 324.276 327.328 320.329 321.126 316.375C314.072 311.879 307.004 307.407 299.896 302.998C296.68 300.998 293.488 298.969 290.325 296.887C289.36 296.254 289.36 296.254 288.376 295.609C287.16 294.808 285.947 294.003 284.739 293.19C279.099 289.483 277.311 290.169 272.563 294.687ZM654.313 317.5C653.276 318.673 652.256 319.861 651.251 321.062C642.443 331.364 631.815 339.905 621.098 348.119C618.03 350.493 615.02 352.939 612.001 355.375C606.585 359.731 601.097 363.982 595.563 368.187C589.964 372.443 584.458 376.78 579.04 381.266C573.541 385.772 567.914 390.12 562.313 394.5C551.684 402.821 541.116 411.216 530.603 419.684C525.614 423.695 520.565 427.619 515.481 431.508C511.213 434.783 507.006 438.129 502.813 441.5C498.14 445.255 493.445 448.976 488.688 452.625C488.16 453.03 487.631 453.436 487.087 453.854C484.421 455.896 481.748 457.929 479.071 459.957C473.528 464.17 468.102 468.47 462.813 473C455.44 479.316 447.766 485.201 439.97 490.984C439.429 491.386 438.888 491.788 438.331 492.203C436.848 493.303 435.36 494.398 433.872 495.492C431.493 497.359 430.358 498.813 428.274 501C428.592 501.552 428.174 502.432 428.501 503C429.667 505.613 429.714 507.906 429.938 510.75C430.051 512.088 430.051 512.088 430.165 513.453C430.214 514.129 430.263 514.804 430.313 515.5C433.155 514.18 435.476 512.702 437.888 510.707C438.55 510.163 439.213 509.619 439.896 509.058C440.591 508.482 441.285 507.906 442.001 507.312C443.45 506.123 444.899 504.934 446.349 503.746C447.04 503.179 447.731 502.611 448.443 502.027C451.255 499.732 454.117 497.507 456.993 495.293C460.032 492.944 463.047 490.565 466.063 488.187C470.579 484.631 475.119 481.112 479.688 477.625C484.664 473.824 489.531 469.903 494.376 465.937C499.932 461.392 505.56 457.007 511.329 452.734C516.475 448.881 521.505 444.88 526.549 440.894C529.384 438.654 532.223 436.42 535.063 434.187C535.631 433.742 536.198 433.296 536.782 432.836C542.382 428.438 548.006 424.069 553.63 419.701C558.307 416.066 562.973 412.416 567.626 408.75C572.437 404.962 577.274 401.211 582.132 397.484C596.344 386.575 596.344 386.575 610.376 375.437C617.574 369.645 624.964 364.097 632.313 358.5C645.474 348.516 645.474 348.516 658.465 338.312C661.071 336.223 663.651 334.276 666.438 332.426C669.129 330.583 671.299 329.066 673.313 326.5C673.827 322.599 673.328 319.281 672.313 315.5C670.857 314.829 669.398 314.163 667.938 313.5C667.126 313.129 666.314 312.757 665.478 312.375C660.386 310.316 657.863 314.104 654.313 317.5ZM31.1064 337.809C30.3556 338.308 29.6047 338.808 28.8311 339.322C28.0621 339.855 27.2932 340.388 26.501 340.937C25.7127 341.467 24.9245 341.996 24.1123 342.541C22.17 343.848 20.238 345.167 18.3135 346.5C21.1053 348.739 23.7548 350.266 27.0557 351.637C28.0204 352.041 28.9852 352.445 29.9792 352.862C31.0383 353.299 32.0973 353.737 33.1885 354.187C35.531 355.167 37.8734 356.146 40.2158 357.125C41.5138 357.665 42.8118 358.206 44.1099 358.746C48.6841 360.652 53.2511 362.575 57.8174 364.5C58.6371 364.846 59.4568 365.191 60.3014 365.547C61.9647 366.248 63.628 366.949 65.2913 367.651C69.2134 369.304 73.1365 370.955 77.0596 372.605C77.8161 372.924 78.5727 373.242 79.3522 373.57C83.3208 375.241 87.2897 376.91 91.259 378.579C100.144 382.315 109.02 386.069 117.876 389.875C119.629 390.627 121.383 391.379 123.136 392.131C128.226 394.315 133.315 396.501 138.404 398.687C143.014 400.667 147.624 402.646 152.234 404.625C154.049 405.404 155.865 406.184 157.68 406.964C162.744 409.141 167.813 411.307 172.886 413.461C175.326 414.505 177.757 415.569 180.187 416.634C181.715 417.292 183.242 417.949 184.771 418.605C185.461 418.914 186.152 419.223 186.864 419.541C190.752 421.192 193.277 421.929 197.313 420.5C199.663 419.247 201.881 417.977 204.126 416.562C205.022 416.022 205.022 416.022 205.937 415.471C207.435 414.541 208.88 413.526 210.313 412.5C210.313 411.84 210.313 411.18 210.313 410.5C195.665 403.949 180.964 397.522 166.26 391.098C162.968 389.66 159.677 388.221 156.386 386.781C155.41 386.354 155.41 386.354 154.415 385.918C153.092 385.339 151.769 384.759 150.447 384.18C146.192 382.318 141.932 380.466 137.671 378.618C134.694 377.326 131.719 376.027 128.745 374.728C127.227 374.066 125.708 373.407 124.187 372.75C121.949 371.783 119.715 370.806 117.481 369.828C116.803 369.537 116.125 369.247 115.427 368.947C109.42 366.297 109.42 366.297 107.313 363.5C106.818 362.015 106.818 362.015 106.313 360.5C105.138 360.624 103.962 360.747 102.751 360.875C98.2837 360.855 94.9419 359.759 90.8252 358.059C89.8666 357.665 89.8666 357.665 88.8887 357.263C78.4736 352.956 68.1465 348.43 57.811 343.936C55.0298 342.728 52.2461 341.526 49.4619 340.324C48.6161 339.954 47.7702 339.585 46.8988 339.204C38.9583 335.36 38.9583 335.36 31.1064 337.809ZM216.313 414.5C216.313 416.81 216.313 419.12 216.313 421.5C217.768 422.227 217.768 422.227 219.251 422.969C220.212 423.449 220.212 423.449 221.192 423.939C222.618 424.652 224.044 425.364 225.47 426.076C229.276 427.976 233.077 429.885 236.868 431.812C237.955 432.363 237.955 432.363 239.063 432.924C240.464 433.633 241.862 434.345 243.259 435.061C246.617 436.886 246.617 436.886 250.313 437.5C250.651 436.063 250.983 434.626 251.313 433.187C251.592 431.987 251.592 431.987 251.876 430.762C252.408 428.393 252.408 428.393 252.313 425.5C251.323 425.48 251.323 425.48 250.312 425.459C242.547 425.06 236.726 422.87 229.813 419.437C227.889 418.504 225.962 417.576 224.032 416.652C223.196 416.24 222.36 415.827 221.499 415.402C219.245 414.309 219.245 414.309 216.313 414.5ZM325.313 455.5C323.249 457.226 321.187 458.956 319.126 460.687C318.548 461.17 317.97 461.653 317.374 462.15C313.845 465.121 310.527 468.19 307.313 471.5C314.95 475.416 322.638 479.024 330.563 482.312C332.846 483.269 335.129 484.226 337.411 485.184C338.024 485.44 338.637 485.697 339.269 485.961C347.001 489.201 354.711 492.493 362.423 495.777C375.34 501.277 388.262 506.762 401.204 512.202C402.562 512.773 403.92 513.344 405.277 513.916C407.131 514.697 408.986 515.476 410.841 516.254C411.88 516.69 412.919 517.127 413.989 517.576C416.051 518.562 416.051 518.562 417.313 518.5C417.313 511.9 417.313 505.3 417.313 498.5C406.541 493.006 395.649 487.844 384.665 482.786C376.1 478.832 367.605 474.746 359.13 470.604C348.01 465.171 336.884 459.919 325.313 455.5Z" fill="#565655"/>
</g>
<defs>
<clipPath id="clip0_229_48">
<rect width="688" height="537" fill="white"/>
</clipPath>
</defs>
</svg>
