<svg width="466" height="612" viewBox="0 0 466 612" fill="none" xmlns="http://www.w3.org/2000/svg">
<g clip-path="url(#clip0_229_111)">
<path d="M187.94 -0.388032C189.007 -0.393289 190.075 -0.398545 191.175 -0.403962C194.687 -0.417112 198.199 -0.40844 201.712 -0.398285C204.165 -0.400308 206.618 -0.403221 209.071 -0.406983C214.207 -0.4114 219.343 -0.404997 224.479 -0.390961C231.045 -0.373888 237.61 -0.383703 244.176 -0.401679C249.241 -0.412549 254.306 -0.409055 259.371 -0.401295C261.791 -0.399301 264.211 -0.401724 266.631 -0.408734C270.022 -0.4164 273.412 -0.404671 276.803 -0.388032C277.792 -0.394104 278.782 -0.400177 279.801 -0.406434C292.029 -0.295934 301.031 3.58634 310.008 11.8478C318.084 20.3602 321.206 30.2941 321.063 41.8127C321.059 42.5055 321.054 43.1984 321.049 43.9123C321.038 45.6083 321.02 47.3042 321.001 49.0002C321.912 48.9886 322.823 48.9769 323.762 48.965C331.367 48.912 338.908 49.0664 346.501 49.5002C354.786 49.9574 363.04 50.0478 371.337 50.009C377.558 49.9819 383.78 49.9845 390.001 50.0002C391.046 50.0028 391.046 50.0028 392.113 50.0055C430.887 50.1501 430.887 50.1501 447.001 64.0002C448 64.8509 448 64.8509 449.02 65.7189C457.86 73.8842 464.566 86.7562 465.204 98.8538C465.245 100.435 465.281 102.017 465.312 103.599C465.343 104.89 465.343 104.89 465.375 106.207C465.44 109.048 465.498 111.89 465.555 114.731C465.576 115.714 465.597 116.697 465.619 117.71C466.035 137.348 466.146 156.979 466.131 176.621C466.129 181.313 466.133 186.005 466.135 190.697C466.14 199.816 466.139 208.936 466.136 218.056C466.134 225.483 466.133 232.91 466.134 240.337C466.135 241.406 466.135 242.474 466.135 243.575C466.135 245.748 466.136 247.92 466.136 250.093C466.139 270.321 466.136 290.55 466.13 310.779C466.126 328.043 466.126 345.308 466.131 362.573C466.136 382.754 466.138 402.935 466.135 423.116C466.135 425.278 466.135 427.439 466.134 429.6C466.134 430.662 466.134 431.725 466.134 432.82C466.133 440.22 466.135 447.621 466.137 455.021C466.14 464.065 466.139 473.108 466.134 482.152C466.131 486.744 466.13 491.336 466.133 495.928C466.145 513.217 466.09 530.506 465.728 547.792C465.697 549.375 465.67 550.958 465.647 552.54C465.384 570.179 462.104 583.848 449.563 596.938C439.313 606.488 427.239 612.114 413.057 612.132C411.259 612.137 411.259 612.137 409.424 612.143C407.455 612.142 407.455 612.142 405.445 612.141C404.033 612.143 402.621 612.146 401.209 612.15C397.329 612.158 393.449 612.159 389.569 612.16C385.384 612.162 381.199 612.17 377.014 612.176C367.863 612.19 358.712 612.196 349.561 612.2C343.847 612.203 338.132 612.207 332.417 612.212C316.593 612.224 300.768 612.234 284.943 612.238C283.424 612.238 283.424 612.238 281.874 612.238C280.859 612.239 279.844 612.239 278.798 612.239C276.741 612.239 274.684 612.24 272.627 612.24C271.097 612.241 271.097 612.241 269.535 612.241C253.004 612.245 236.473 612.262 219.942 612.286C202.967 612.309 185.992 612.322 169.016 612.323C159.487 612.324 149.957 612.33 140.427 612.348C132.312 612.363 124.197 612.368 116.082 612.36C111.943 612.356 107.804 612.357 103.665 612.371C99.872 612.384 96.0791 612.383 92.2859 612.371C90.2725 612.368 88.259 612.38 86.2455 612.392C75.4084 612.333 65.9728 610.881 58.0006 603C57.2886 601.785 56.6004 600.556 55.9381 599.313C54.1339 596.546 53.1825 596.049 49.9225 595.172C48.0214 594.862 46.1201 594.552 44.2165 594.257C30.1302 591.874 18.5542 584.018 10.2038 572.527C3.8086 562.539 0.841279 552.135 0.866425 540.326C0.864072 539.569 0.861722 538.812 0.859299 538.032C0.852637 535.494 0.853059 532.955 0.85347 530.416C0.85017 528.579 0.846446 526.741 0.842331 524.904C0.832322 519.852 0.828597 514.8 0.825943 509.748C0.822037 504.299 0.812455 498.851 0.803726 493.403C0.783971 480.244 0.773898 467.085 0.764999 453.926C0.760615 447.727 0.755253 441.528 0.750015 435.329C0.733004 414.716 0.718501 394.104 0.711258 373.492C0.709348 368.144 0.707432 362.796 0.705475 357.447C0.705115 356.451 0.70511 356.451 0.704743 355.434C0.696854 333.906 0.673433 312.377 0.640915 290.849C0.606575 268.072 0.586909 245.296 0.583618 222.519C0.581455 210.11 0.572725 197.7 0.54715 185.291C0.525416 174.721 0.517404 164.151 0.527115 153.581C0.531652 148.192 0.529816 142.803 0.510361 137.413C0.492673 132.471 0.493776 127.529 0.509262 122.586C0.51163 120.807 0.507348 119.027 0.495422 117.248C0.377548 98.4851 3.43759 81.2262 16.817 67.0627C26.4641 57.9506 39.0758 51.8756 52.422 51.8266C53.1752 51.8199 53.9284 51.8132 54.7044 51.8063C56.3397 51.7923 57.975 51.7804 59.6103 51.7704C62.1996 51.7539 64.7887 51.7307 67.3779 51.7055C74.7395 51.6347 82.1012 51.5746 89.463 51.5233C93.9664 51.4915 98.4696 51.4502 102.973 51.4031C104.688 51.3871 106.403 51.3748 108.118 51.3662C110.519 51.3541 112.92 51.3299 115.32 51.3031C116.027 51.3025 116.734 51.302 117.462 51.3013C121.43 51.2428 124.404 50.6581 128.001 49.0002C130.221 48.7731 130.221 48.7731 132.426 48.8048C133.222 48.8113 134.018 48.8177 134.839 48.8244C136.063 48.8495 136.063 48.8495 137.313 48.8752C138.149 48.8842 138.985 48.8932 139.846 48.9025C141.898 48.9259 143.949 48.9618 146.001 49.0002C145.914 47.2599 145.914 47.2599 145.825 45.4845C145.367 32.4306 147.306 22.3743 155.919 12.0353C165.073 3.08709 175.449 -0.464383 187.94 -0.388032ZM170.126 25.7502C169.571 26.3844 169.017 27.0186 168.446 27.672C163.806 35.1464 164.629 43.8825 164.522 52.3712C164.496 53.4064 164.469 54.4415 164.442 55.508C164.422 56.9101 164.422 56.9101 164.401 58.3405C163.917 61.5582 162.957 63.4091 161.001 66.0002C158.065 68.0137 155.53 68.2857 152.016 68.4142C151.082 68.4529 150.147 68.4916 149.184 68.5314C147.732 68.5778 147.732 68.5778 146.251 68.6252C145.267 68.6638 144.284 68.7025 143.27 68.7423C140.847 68.8364 138.424 68.9221 136.001 69.0002C135.926 74.4445 135.872 79.8885 135.836 85.3332C135.821 87.1838 135.8 89.0344 135.774 90.8849C135.738 93.551 135.721 96.2167 135.708 98.883C135.692 99.7051 135.677 100.527 135.661 101.374C135.659 106.342 136.271 109.685 139.001 114C145.851 120.665 153.403 120.286 162.411 120.243C163.661 120.245 164.911 120.247 166.199 120.249C169.627 120.252 173.054 120.246 176.482 120.236C180.109 120.227 183.735 120.229 187.362 120.229C193.484 120.228 199.605 120.22 205.727 120.206C211.939 120.192 218.151 120.185 224.363 120.185C264.044 120.241 264.044 120.241 303.719 119.724C305.207 119.692 306.696 119.665 308.185 119.643C310.143 119.612 312.101 119.559 314.059 119.505C315.624 119.468 315.624 119.468 317.221 119.43C323.327 118.486 326.527 114.729 330.001 110C331.33 105.905 331.126 101.777 331.098 97.5158C331.097 96.7002 331.095 95.8846 331.094 95.0443C331.088 92.4462 331.076 89.8482 331.063 87.2502C331.058 85.4858 331.054 83.7215 331.049 81.9572C331.038 77.6381 331.021 73.3192 331.001 69.0002C328.2 68.0665 326.41 67.8655 323.508 67.8244C322.638 67.8005 321.768 67.7767 320.872 67.7521C319.049 67.7093 317.226 67.678 315.403 67.6584C311.162 67.5237 308.623 67.3762 304.93 65.1447C301.831 61.6998 301.874 58.7561 301.825 54.3009C301.801 53.1736 301.777 52.0464 301.753 50.8849C301.71 48.5231 301.679 46.1611 301.659 43.799C301.474 36.2422 300.864 30.3633 295.66 24.4862C289.379 18.6791 282.02 18.7037 273.97 18.7255C272.987 18.7204 272.004 18.7153 270.991 18.71C267.756 18.6962 264.521 18.6971 261.286 18.6994C259.028 18.6955 256.77 18.6911 254.513 18.6864C249.786 18.6789 245.06 18.6792 240.333 18.6845C234.286 18.6903 228.239 18.6733 222.192 18.6501C217.532 18.6354 212.871 18.6345 208.21 18.6376C205.981 18.6371 203.752 18.6319 201.523 18.6218C198.402 18.6095 195.282 18.6163 192.161 18.6278C191.247 18.6202 190.333 18.6126 189.391 18.6047C182.026 18.6648 175.11 19.7885 170.126 25.7502ZM350.001 70.0002C349.986 71.1292 349.971 72.2583 349.956 73.4215C349.898 77.6525 349.821 81.8829 349.738 86.1134C349.705 87.9366 349.677 89.7598 349.654 91.5832C349.462 106.509 348.854 117.698 338.149 128.945C330.151 136.561 320.717 138.119 309.924 138.134C309.235 138.136 308.546 138.138 307.836 138.141C305.54 138.147 303.245 138.146 300.949 138.145C299.297 138.148 297.646 138.152 295.995 138.156C291.517 138.164 287.04 138.167 282.563 138.167C279.763 138.168 276.963 138.17 274.163 138.173C264.388 138.182 254.613 138.186 244.838 138.185C235.738 138.185 226.638 138.195 217.538 138.211C209.715 138.224 201.893 138.23 194.07 138.229C189.402 138.229 184.735 138.232 180.067 138.242C175.675 138.252 171.283 138.252 166.891 138.245C165.284 138.244 163.676 138.246 162.069 138.252C147.902 138.302 137.067 137.149 126.11 127.301C118.715 119.289 116.91 109.998 116.684 99.4181C116.663 98.6039 116.643 97.7898 116.621 96.9509C116.556 94.3632 116.497 91.7755 116.438 89.1877C116.395 87.4279 116.351 85.6681 116.307 83.9084C116.201 79.6057 116.099 75.303 116.001 71.0002C107.698 70.9303 99.3963 70.8772 91.0939 70.8447C87.2378 70.8291 83.382 70.808 79.526 70.7738C75.7977 70.741 72.0697 70.7233 68.3412 70.7155C66.926 70.71 65.5108 70.6993 64.0957 70.683C50.8284 70.5362 40.1319 72.2855 30.2467 81.6642C23.1862 89.4149 20.8431 97.2267 20.8692 107.584C20.8672 108.343 20.8651 109.102 20.863 109.885C20.8573 112.437 20.8588 114.989 20.8602 117.542C20.8576 119.387 20.8546 121.232 20.8512 123.077C20.8431 128.155 20.8413 133.232 20.8406 138.309C20.8387 143.782 20.8312 149.256 20.8245 154.729C20.8109 166.7 20.8048 178.671 20.8004 190.642C20.7977 198.116 20.7935 205.589 20.789 213.063C20.7768 233.751 20.7664 254.44 20.7631 275.129C20.7629 276.466 20.7626 277.804 20.7624 279.142C20.7622 280.482 20.762 281.823 20.7617 283.164C20.7613 285.854 20.7609 288.544 20.7604 291.234C20.7603 291.901 20.7602 292.568 20.7601 293.255C20.7564 314.881 20.7405 336.506 20.7172 358.132C20.6926 381 20.6789 403.868 20.6777 426.736C20.6768 439.2 20.671 451.664 20.6529 464.128C20.6375 474.741 20.6324 485.354 20.6406 495.967C20.6445 501.382 20.6436 506.796 20.6296 512.211C20.6168 517.17 20.618 522.129 20.6302 527.088C20.6321 528.88 20.629 530.672 20.6203 532.464C20.5627 545.124 20.7954 556.359 30.0006 566C35.5313 570.957 41.3823 575 49.0006 575C49.0003 574.173 48.9999 573.346 48.9995 572.494C48.977 523.307 48.9599 474.121 48.9496 424.934C48.9483 419.007 48.947 413.08 48.9457 407.153C48.9454 405.974 48.9452 404.794 48.9449 403.578C48.9406 384.562 48.9327 365.545 48.9235 346.528C48.9141 326.965 48.9086 307.402 48.9066 287.839C48.9052 275.801 48.9009 263.763 48.8927 251.725C48.8874 243.431 48.8859 235.138 48.8871 226.845C48.8878 222.084 48.8869 217.324 48.8814 212.564C48.8697 201.572 48.899 190.582 48.983 179.59C49.0015 176.87 49.0129 174.149 49.0237 171.429C49.0449 166.761 49.094 162.094 49.1619 157.427C49.1839 155.657 49.1976 153.888 49.2024 152.118C49.2109 149.676 49.2504 147.236 49.2976 144.794C49.2933 144.076 49.289 143.357 49.2846 142.617C49.3965 138.731 49.9185 137.102 52.3976 134.041C55.0006 132 55.0006 132 57.3522 131.555C58.1024 131.661 58.8527 131.766 59.6256 131.875C60.381 131.955 61.1364 132.035 61.9147 132.117C64.9689 133.41 65.5813 135.029 67.0006 138C67.2821 140.599 67.4035 142.954 67.377 145.548C67.3813 146.304 67.3855 147.059 67.3899 147.837C67.4005 150.377 67.3898 152.916 67.3792 155.455C67.3825 157.291 67.3871 159.126 67.3929 160.962C67.4051 166.013 67.3987 171.063 67.3894 176.114C67.3826 181.559 67.3931 187.003 67.4017 192.448C67.4143 201.884 67.4162 211.321 67.4113 220.758C67.4045 234.408 67.417 248.058 67.4348 261.709C67.4635 283.863 67.481 306.018 67.4894 328.172C67.4897 328.835 67.4899 329.498 67.4902 330.181C67.494 340.267 67.4974 350.352 67.5006 360.438C67.5041 371.191 67.5078 381.944 67.5119 392.698C67.5121 393.36 67.5124 394.023 67.5126 394.705C67.5213 417.443 67.5417 440.181 67.5714 462.919C67.5886 476.539 67.5951 490.158 67.5881 503.777C67.5839 513.105 67.5902 522.434 67.6048 531.762C67.6129 537.148 67.616 542.534 67.606 547.92C67.597 552.848 67.6016 557.776 67.6172 562.703C67.6204 564.489 67.6185 566.274 67.6111 568.059C67.6017 570.482 67.6107 572.904 67.6243 575.326C67.6171 576.023 67.61 576.72 67.6026 577.437C67.6547 582.007 68.6414 585.101 71.0006 589C75.2513 593.109 80.1386 593.124 85.8114 593.134C86.9803 593.139 88.1491 593.143 89.3534 593.148C90.6335 593.148 91.9135 593.147 93.2323 593.147C94.6092 593.151 95.9861 593.154 97.3629 593.158C101.146 593.168 104.929 593.172 108.712 593.175C112.793 593.179 116.874 593.188 120.954 593.197C130.809 593.217 140.664 593.227 150.519 593.236C155.163 593.24 159.806 593.245 164.45 593.251C179.891 593.268 195.332 593.282 210.773 593.289C214.779 593.291 218.785 593.293 222.791 593.295C223.787 593.296 224.782 593.296 225.808 593.297C241.93 593.305 258.052 593.33 274.173 593.363C290.734 593.396 307.294 593.414 323.855 593.417C333.149 593.419 342.444 593.428 351.738 593.454C359.655 593.475 367.572 593.483 375.49 593.474C379.526 593.469 383.561 593.471 387.598 593.49C391.3 593.508 395.002 593.507 398.705 593.492C400.663 593.488 402.62 593.504 404.578 593.521C415.77 593.44 426.382 591.454 435.067 583.981C446.078 572.702 446.44 560.236 446.382 545.37C446.385 543.455 446.39 541.541 446.396 539.626C446.408 534.375 446.402 529.125 446.393 523.874C446.386 518.207 446.397 512.541 446.405 506.874C446.418 495.777 446.415 484.679 446.407 473.582C446.4 464.562 446.399 455.543 446.402 446.523C446.403 445.24 446.403 443.956 446.403 442.633C446.404 440.026 446.405 437.418 446.406 434.81C446.415 411.053 446.406 387.295 446.39 363.538C446.376 341.86 446.377 320.181 446.392 298.502C446.408 274.137 446.414 249.772 446.405 225.406C446.404 222.808 446.403 220.209 446.402 217.611C446.401 215.693 446.401 215.693 446.401 213.737C446.398 204.729 446.402 195.721 446.41 186.713C446.418 175.734 446.416 164.756 446.4 153.777C446.392 148.176 446.389 142.574 446.399 136.973C446.408 131.844 446.403 126.715 446.387 121.587C446.383 119.733 446.385 117.879 446.392 116.025C446.44 102.881 445.893 91.4197 437.001 81.0002C431.856 76.0939 426.776 73.0673 420.001 71.0002C419.399 70.8143 418.797 70.6284 418.177 70.4369C415.253 69.8501 412.471 69.8809 409.488 69.8866C408.844 69.8865 408.199 69.8863 407.535 69.8862C405.414 69.8869 403.294 69.8946 401.173 69.9025C399.698 69.9044 398.224 69.9058 396.75 69.9068C392.877 69.9106 389.004 69.9204 385.131 69.9315C381.176 69.9417 377.221 69.9463 373.266 69.9513C365.511 69.962 357.756 69.9791 350.001 70.0002Z" fill="#4C5258"/>
<path d="M259.188 238.385C260.639 238.381 262.09 238.376 263.54 238.368C267.47 238.354 271.399 238.371 275.329 238.394C279.446 238.414 283.562 238.408 287.678 238.406C294.589 238.406 301.5 238.426 308.41 238.458C316.397 238.495 324.383 238.504 332.37 238.497C340.059 238.49 347.748 238.501 355.436 238.521C358.706 238.529 361.976 238.532 365.246 238.53C369.096 238.529 372.946 238.543 376.797 238.569C378.209 238.576 379.621 238.578 381.033 238.575C382.962 238.571 384.891 238.588 386.82 238.606C388.439 238.611 388.439 238.611 390.09 238.617C394.05 239.138 396.841 240.578 399.375 243.688C400.32 247.182 400.319 250.606 399 254C395.282 257.603 392.923 258.501 387.782 258.515C385.905 258.534 385.905 258.534 383.989 258.553C382.609 258.547 381.23 258.54 379.85 258.533C378.391 258.541 376.932 258.549 375.473 258.56C371.516 258.582 367.56 258.579 363.603 258.57C360.298 258.565 356.993 258.572 353.688 258.58C345.889 258.597 338.091 258.593 330.293 258.576C322.252 258.56 314.212 258.575 306.171 258.608C299.263 258.634 292.355 258.642 285.447 258.633C281.323 258.628 277.2 258.63 273.076 258.651C269.197 258.669 265.319 258.663 261.441 258.639C260.02 258.634 258.598 258.637 257.177 258.65C245.107 258.749 245.107 258.749 241.157 255.603C238.962 252.954 238.178 251.89 238.25 248.5C238.235 247.768 238.219 247.036 238.203 246.281C241.463 236.949 251.031 238.302 259.188 238.385Z" fill="#50555B"/>
<path d="M259.188 478.385C260.639 478.381 262.09 478.376 263.54 478.368C267.47 478.354 271.399 478.371 275.329 478.394C279.446 478.414 283.562 478.408 287.678 478.406C294.589 478.406 301.5 478.426 308.41 478.458C316.397 478.495 324.383 478.504 332.37 478.497C340.059 478.49 347.748 478.501 355.436 478.521C358.706 478.529 361.976 478.532 365.246 478.53C369.096 478.529 372.946 478.543 376.797 478.569C378.209 478.576 379.621 478.578 381.033 478.575C382.962 478.571 384.891 478.588 386.82 478.606C388.439 478.611 388.439 478.611 390.09 478.617C394.074 479.141 396.879 480.574 399.375 483.75C400.306 487.103 399.78 489.639 399 493C397.174 496.154 396.514 496.829 393 498C391.022 498.102 389.041 498.144 387.061 498.154C385.82 498.163 384.579 498.171 383.301 498.18C381.924 498.184 380.546 498.189 379.169 498.193C377.72 498.201 376.271 498.209 374.822 498.218C370.063 498.244 365.303 498.259 360.543 498.273C358.904 498.279 357.265 498.284 355.626 498.29C348.809 498.311 341.991 498.33 335.174 498.341C325.405 498.357 315.637 498.391 305.869 498.448C298.999 498.486 292.129 498.506 285.259 498.511C281.157 498.515 277.054 498.527 272.952 498.559C269.091 498.589 265.232 498.596 261.371 498.584C259.956 498.584 258.541 498.592 257.126 498.61C245.109 498.751 245.109 498.751 241.161 495.606C238.963 492.955 238.178 491.893 238.25 488.5C238.235 487.768 238.219 487.036 238.203 486.281C241.463 476.949 251.031 478.302 259.188 478.385Z" fill="#4F555A"/>
<path d="M251.9 358.853C253.133 358.846 254.365 358.839 255.635 358.831C257.003 358.828 258.371 358.826 259.739 358.823C261.178 358.817 262.617 358.81 264.056 358.803C268.783 358.782 273.51 358.772 278.238 358.762C279.865 358.758 281.493 358.754 283.121 358.75C290.768 358.73 298.415 358.716 306.062 358.708C314.888 358.698 323.714 358.672 332.54 358.631C339.363 358.601 346.186 358.586 353.009 358.583C357.084 358.581 361.158 358.572 365.233 358.547C369.067 358.523 372.901 358.519 376.735 358.529C378.14 358.53 379.545 358.524 380.95 358.51C394.21 358.388 394.21 358.388 398.999 363C400.226 365.649 400.252 368.107 399.999 371C398.802 373.9 397.902 375.419 395.265 377.116C392.378 378.243 390.034 378.258 386.933 378.268C385.69 378.276 384.446 378.285 383.165 378.293C381.79 378.293 380.414 378.292 379.039 378.291C377.588 378.297 376.138 378.303 374.687 378.311C370.749 378.329 366.811 378.333 362.873 378.335C359.585 378.337 356.297 378.344 353.009 378.351C345.253 378.367 337.496 378.372 329.74 378.371C321.738 378.37 313.737 378.391 305.736 378.422C298.865 378.448 291.995 378.459 285.124 378.458C281.021 378.457 276.918 378.463 272.815 378.484C268.956 378.504 265.098 378.504 261.239 378.489C259.824 378.487 258.408 378.492 256.993 378.504C255.06 378.519 253.126 378.508 251.192 378.495C250.111 378.496 249.029 378.497 247.915 378.498C244.292 377.879 242.621 376.524 239.999 374C238.449 370.9 238.709 368.421 238.999 365C242.532 359.397 245.56 358.878 251.9 358.853Z" fill="#4F555A"/>
<path d="M202.999 213C205.864 215.571 206.854 217.143 207.499 220.937C206.46 227.302 201.666 231.584 197.187 235.875C193.919 239.028 190.782 242.209 187.831 245.664C182.554 251.772 176.712 257.344 170.97 263.009C169.467 264.493 167.967 265.98 166.468 267.469C165.989 267.945 165.509 268.421 165.015 268.912C161.645 272.287 158.473 275.78 155.425 279.447C153.194 281.877 151.145 283.063 147.999 284C142.023 283.22 138.186 279.007 133.999 275C133.399 274.427 132.798 273.855 132.179 273.265C128.453 269.623 124.953 265.809 121.581 261.836C120.286 260.332 118.903 258.903 117.499 257.5C115.6 254.335 115.65 252.44 116.331 248.871C117.47 245.681 119.045 244.541 121.999 243C125.312 242.312 125.312 242.312 128.999 243C132.017 244.987 134.465 247.437 136.999 250C137.827 250.814 138.655 251.629 139.507 252.469C141.689 254.629 143.851 256.806 145.999 259C150.359 257.386 152.983 253.991 155.999 250.625C162.799 243.175 169.886 236.046 177.07 228.967C180.652 225.421 184.166 221.893 187.41 218.031C192.028 212.625 196.065 210.945 202.999 213Z" fill="#4C5258"/>
<path d="M201 452C203.7 453.8 205.542 455.084 207 458C207.55 461.44 207.767 463.909 205.701 466.847C205.129 467.472 204.558 468.098 203.969 468.742C203.333 469.439 202.696 470.137 202.041 470.855C198.102 474.994 194.04 479 189.961 483C186.705 486.218 183.551 489.46 180.566 492.934C176.591 497.549 172.279 501.794 167.938 506.062C161.546 512.335 161.546 512.335 155.566 518.996C152.675 522.381 152.145 522.817 147.875 523.5C143.824 522.977 143.217 522.675 140.379 520.082C139.335 519.129 139.335 519.129 138.27 518.157C134.137 514.229 130.084 510.228 126.062 506.187C125.201 505.33 124.339 504.472 123.451 503.588C122.224 502.359 122.224 502.359 120.973 501.105C120.233 500.364 119.493 499.623 118.731 498.86C116.532 496.497 116.047 495.419 115.688 492.187C116.072 488.269 117.293 486.787 120 484C123.26 482.37 125.378 482.533 129 483C132.03 484.965 134.467 487.439 137 490C137.828 490.815 138.655 491.629 139.508 492.469C141.689 494.63 143.851 496.807 146 499C149.194 497.621 150.994 496.119 153.188 493.437C157.907 487.863 163.124 482.828 168.328 477.711C172.55 473.532 176.59 469.277 180.463 464.772C182.457 462.473 184.545 460.286 186.688 458.125C187.776 457.015 187.776 457.015 188.887 455.883C192.759 452.433 195.794 451.363 201 452Z" fill="#4B5156"/>
<path d="M202 333C205.478 335.571 206.79 337.075 207.75 341.312C206.661 346.667 203.816 349.23 200 353C198.638 354.364 197.277 355.727 195.915 357.091C194.567 358.434 193.205 359.764 191.844 361.094C189.693 363.238 187.698 365.478 185.719 367.781C180.993 373.239 175.817 378.23 170.672 383.289C166.437 387.48 162.372 391.737 158.508 396.273C155.183 400.08 152.666 402.766 147.438 403.5C141.059 402.572 138.333 399.382 134.375 394.664C130.47 390.284 126.253 386.214 122.067 382.104C121.429 381.474 120.79 380.844 120.133 380.195C119.554 379.628 118.976 379.061 118.379 378.477C116.384 376.34 116.014 375.127 115.688 372.187C116.09 368.081 116.857 366.683 120 364C123.12 362.78 125.688 362.463 129 363C132.174 364.853 134.493 367.337 137 370C138.665 371.647 140.332 373.293 142 374.937C143.336 376.289 144.67 377.642 146 379C148.976 377.664 151.04 376.208 153.312 373.875C154.111 373.067 154.111 373.067 154.926 372.242C156.731 370.291 158.466 368.303 160.199 366.289C164.766 361.046 169.726 356.225 174.684 351.355C178.809 347.275 182.743 343.114 186.499 338.689C191.158 333.446 195.052 331.055 202 333Z" fill="#4C5258"/>
</g>
<defs>
<clipPath id="clip0_229_111">
<rect width="466" height="612" fill="white"/>
</clipPath>
</defs>
</svg>
