<svg width="48" height="48" viewBox="0 0 48 48" fill="none" xmlns="http://www.w3.org/2000/svg">
<g clip-path="url(#clip0_4507_2)">
<path d="M36.0153 0H11.9847C5.36573 0 0 5.36573 0 11.9847V36.0153C0 42.6343 5.36573 48 11.9847 48H36.0153C42.6343 48 48 42.6343 48 36.0153V11.9847C48 5.36573 42.6343 0 36.0153 0Z" fill="url(#paint0_linear_4507_2)"/>
<path d="M36.0153 0H11.9847C5.36573 0 0 5.36573 0 11.9847V36.0153C0 42.6343 5.36573 48 11.9847 48H36.0153C42.6343 48 48 42.6343 48 36.0153V11.9847C48 5.36573 42.6343 0 36.0153 0Z" fill="url(#paint1_radial_4507_2)"/>
<path fill-rule="evenodd" clip-rule="evenodd" d="M24.3942 42.1597C20.7938 42.1597 19.1207 41.6341 16.2124 39.5317C14.3728 41.8969 8.54748 43.7453 8.29341 40.5829C8.29341 38.209 7.76781 36.203 7.17213 34.013C6.4626 31.315 5.65668 28.3103 5.65668 23.9566C5.65668 13.5586 14.1889 5.73599 24.2978 5.73599C34.4155 5.73599 42.3433 13.944 42.3433 24.053C42.3772 34.0056 34.3467 42.1066 24.3942 42.1597ZM24.5431 14.7237C19.62 14.4696 15.7831 17.8773 14.9334 23.2208C14.2326 27.6446 15.4766 33.0319 16.5365 33.3122C17.0446 33.4349 18.3235 32.4012 19.1207 31.6041C20.4388 32.5147 21.9738 33.0616 23.5708 33.1896C28.6719 33.435 33.0306 29.5515 33.3731 24.456C33.5725 19.3497 29.6449 15.0247 24.5431 14.7324V14.7237Z" fill="white"/>
</g>
<defs>
<linearGradient id="paint0_linear_4507_2" x1="5.65666" y1="36.5057" x2="48" y2="24" gradientUnits="userSpaceOnUse">
<stop stop-color="#44CCFF"/>
<stop offset="0.662" stop-color="#5533EE"/>
<stop offset="1" stop-color="#9933DD"/>
</linearGradient>
<radialGradient id="paint1_radial_4507_2" cx="0" cy="0" r="1" gradientUnits="userSpaceOnUse" gradientTransform="translate(-1.14196 -21.0809) rotate(51.356) scale(58.2488 24)">
<stop stop-color="#0000FF"/>
<stop offset="1" stop-opacity="0"/>
</radialGradient>
<clipPath id="clip0_4507_2">
<rect width="48" height="48" fill="white"/>
</clipPath>
</defs>
</svg>
