<svg width="691" height="448" viewBox="0 0 691 448" fill="none" xmlns="http://www.w3.org/2000/svg">
<g clip-path="url(#clip0_273_698)">
<path d="M204 0C297.39 0 390.78 0 487 0C486.875 114.312 486.875 114.312 486.82 150.458C486.813 161.115 486.813 161.115 486.809 171.771C486.808 176.532 486.8 181.293 486.789 186.053C486.775 192.117 486.771 198.181 486.774 204.244C486.774 206.475 486.77 208.706 486.762 210.937C486.752 213.94 486.754 216.943 486.76 219.946C486.751 221.269 486.751 221.269 486.742 222.618C486.756 227.605 486.756 227.605 489 232C491.759 232.338 494.305 232.489 497.071 232.512C497.867 232.53 498.663 232.548 499.483 232.566C502.031 232.62 504.578 232.654 507.125 232.688C508.851 232.721 510.576 232.755 512.301 232.791C516.534 232.876 520.767 232.943 525 233C524.966 232.169 524.931 231.337 524.895 230.48C524.868 229.394 524.841 228.307 524.813 227.188C524.778 226.109 524.743 225.03 524.707 223.918C525 221 525 221 526.343 219.132C528.794 217.458 530.763 217.709 533.688 217.812C535.179 217.853 535.179 217.853 536.7 217.895C537.459 217.929 538.218 217.964 539 218C539.155 216.577 539.155 216.577 539.313 215.125C540 212 540 212 543 210C543.218 207.219 543.252 204.661 543.153 201.887C543.124 200.23 543.096 198.573 543.069 196.916C543.007 194.302 542.938 191.689 542.863 189.075C542.797 186.554 542.755 184.033 542.715 181.512C542.685 180.734 542.655 179.957 542.624 179.156C542.573 175.397 542.822 173.277 544.878 170.081C548.542 166.488 551.151 164.831 556.313 164.812C557.53 164.874 558.747 164.936 560 165C559.954 164.12 559.907 163.239 559.86 162.332C559.824 161.171 559.787 160.009 559.75 158.812C559.704 157.664 559.657 156.515 559.61 155.332C560.081 151.314 561.144 149.812 564 147C567.607 144.592 571.24 144.694 575.434 144.699C576.506 144.693 576.506 144.693 577.6 144.686C579.109 144.681 580.618 144.68 582.127 144.684C584.427 144.687 586.726 144.664 589.026 144.639C590.495 144.636 591.964 144.636 593.434 144.637C594.117 144.628 594.801 144.618 595.505 144.609C601.133 144.663 604.105 146.412 608.313 149.938C610.961 154.744 610.309 159.629 610 165C611.176 164.897 612.352 164.794 613.563 164.688C617.848 164.68 620.189 165.98 623.555 168.516C627.36 172.424 627.283 176.548 627.231 181.758C627.23 182.874 627.23 182.874 627.229 184.013C627.226 185.582 627.219 187.15 627.206 188.718C627.188 191.123 627.186 193.528 627.186 195.934C627.181 197.458 627.175 198.983 627.168 200.508C627.167 201.229 627.166 201.949 627.165 202.692C627.116 207.768 627.116 207.768 626 210C626.66 210.392 627.32 210.784 628 211.188C628.66 211.786 629.32 212.384 630 213C630.125 215.613 630.125 215.613 630 218C630.843 217.977 631.686 217.954 632.555 217.93C633.651 217.912 634.746 217.894 635.875 217.875C636.966 217.852 638.056 217.829 639.18 217.805C642 218 642 218 644 220C644.196 223.039 644.196 223.039 644.125 226.625C644.107 227.814 644.089 229.002 644.071 230.227C644.036 231.599 644.036 231.599 644 233C645.252 232.979 646.503 232.958 647.792 232.937C652.436 232.864 657.08 232.818 661.725 232.78C663.735 232.76 665.745 232.733 667.754 232.698C670.644 232.65 673.532 232.627 676.422 232.609C677.769 232.578 677.769 232.578 679.144 232.547C685.392 232.545 685.392 232.545 688.536 234.899C691.417 239.033 691.195 242.652 691.239 247.551C691.247 248.402 691.255 249.253 691.263 250.129C691.277 251.933 691.288 253.736 691.295 255.539C691.313 258.291 691.357 261.043 691.401 263.795C691.411 265.547 691.419 267.299 691.426 269.051C691.444 269.872 691.461 270.693 691.479 271.539C691.464 275.559 691.306 277.518 689.099 280.997C685.85 284.098 684.025 284.123 679.633 284.114C678.512 284.113 677.391 284.113 676.236 284.113C675.021 284.108 673.806 284.103 672.555 284.098C670.695 284.096 670.695 284.096 668.797 284.093C665.499 284.089 662.201 284.08 658.904 284.069C655.539 284.058 652.174 284.054 648.809 284.049C642.206 284.038 635.603 284.021 629 284C629.024 284.987 629.047 285.975 629.071 286.992C629.089 288.274 629.107 289.555 629.125 290.875C629.149 292.151 629.172 293.427 629.196 294.742C629 298 629 298 627 300C623.961 300.414 623.961 300.414 620.375 300.625C619.187 300.7 617.998 300.775 616.774 300.852C615.859 300.901 614.943 300.95 614 301C614.003 301.954 614.003 301.954 614.006 302.928C614.05 318.401 614.083 333.874 614.104 349.347C614.114 356.83 614.128 364.313 614.151 371.795C614.171 378.316 614.184 384.837 614.188 391.358C614.191 394.811 614.197 398.265 614.212 401.719C614.228 405.571 614.228 409.424 614.227 413.277C614.235 414.425 614.242 415.574 614.249 416.758C614.246 417.805 614.244 418.853 614.241 419.932C614.244 421.299 614.244 421.299 614.246 422.694C614 425 614 425 612 428C612.267 430.01 612.616 432.009 613 434C613.271 437.02 613.366 440.032 613.438 443.062C613.506 444.247 613.506 444.247 613.576 445.455C613.591 446.224 613.606 446.993 613.621 447.785C613.659 448.82 613.659 448.82 613.697 449.875C612.537 453.411 610.198 455.335 607 457C603.645 457.696 600.383 457.678 596.965 457.629C596.009 457.631 595.053 457.634 594.067 457.636C592.053 457.635 590.038 457.622 588.023 457.597C584.944 457.563 581.867 457.576 578.787 457.596C576.826 457.589 574.864 457.579 572.903 457.566C571.985 457.571 571.067 457.576 570.121 457.581C565.898 457.504 563.595 457.372 559.944 455.09C556.518 451.407 556.865 448.831 556.875 443.875C556.876 443.198 556.876 442.521 556.877 441.823C556.902 438.247 557.07 434.783 557.625 431.25C558.372 427.857 558.372 427.857 556 425C555.754 422.694 555.754 422.694 555.76 419.932C555.756 418.361 555.756 418.36 555.751 416.758C555.759 415.609 555.766 414.46 555.773 413.277C555.773 412.067 555.773 410.857 555.772 409.61C555.773 406.292 555.784 402.975 555.797 399.657C555.81 396.189 555.811 392.722 555.814 389.255C555.82 382.689 555.836 376.123 555.856 369.556C555.879 362.081 555.89 354.606 555.9 347.131C555.921 331.754 555.956 316.377 556 301C555.001 300.939 554.002 300.879 552.973 300.816C551.037 300.691 551.037 300.691 549.063 300.562C547.775 300.481 546.487 300.4 545.16 300.316C542 300 542 300 541 299C541 294.05 541 289.1 541 284C411.97 284 282.94 284 150 284C150 288.95 150 293.9 150 299C149 300 149 300 145.84 300.098C143.908 300.08 143.908 300.08 141.938 300.062C140.647 300.053 139.357 300.044 138.028 300.035C136.529 300.018 136.529 300.018 135 300C135.002 300.646 135.004 301.291 135.006 301.957C135.05 317.664 135.083 333.371 135.104 349.078C135.114 356.674 135.128 364.269 135.151 371.865C135.171 378.485 135.184 385.105 135.188 391.725C135.191 395.231 135.197 398.737 135.212 402.242C135.228 406.155 135.228 410.067 135.227 413.979C135.235 415.143 135.242 416.307 135.249 417.506C135.246 418.572 135.244 419.638 135.241 420.736C135.243 421.661 135.244 422.586 135.246 423.54C134.985 426.149 134.161 427.687 133 430C133.472 431.585 133.952 433.169 134.473 434.738C135.813 440.485 136.249 447.4 133.668 452.773C132 455 132 455 129 457C127.003 457.261 127.003 457.261 124.7 457.275C123.835 457.284 122.971 457.294 122.08 457.304C121.149 457.303 120.218 457.302 119.258 457.301C117.817 457.307 117.817 457.307 116.347 457.314C114.315 457.32 112.282 457.32 110.25 457.316C107.144 457.313 104.039 457.336 100.934 457.361C98.9586 457.364 96.9834 457.364 95.0081 457.363C94.0809 457.372 93.1537 457.382 92.1983 457.391C87.3671 457.357 83.8396 457.29 80.0003 454C76.6808 445.938 77.9043 438.537 79.7581 430.32C79.838 429.555 79.918 428.789 80.0003 428C79.3403 427.34 78.6803 426.68 78.0003 426C77.7542 423.786 77.7542 423.786 77.7598 420.976C77.757 419.913 77.7543 418.85 77.7515 417.755C77.7623 415.999 77.7623 415.999 77.7733 414.207C77.773 412.977 77.7727 411.748 77.7724 410.482C77.7735 407.106 77.7836 403.73 77.7975 400.354C77.81 396.828 77.8112 393.302 77.8136 389.776C77.8198 383.096 77.8362 376.417 77.8563 369.738C77.8786 362.134 77.8896 354.531 77.8997 346.928C77.9206 331.285 77.9558 315.643 78.0003 300C77.0129 300.023 76.0255 300.046 75.0081 300.07C73.7268 300.088 72.4455 300.106 71.1253 300.125C69.8491 300.148 68.573 300.171 67.2581 300.195C64.0003 300 64.0003 300 62.0003 298C61.805 294.742 61.805 294.742 61.8753 290.875C61.8934 289.594 61.9114 288.312 61.93 286.992C61.9532 286.005 61.9764 285.017 62.0003 284C61.3098 284.009 60.6194 284.018 59.908 284.027C52.7218 284.115 45.5358 284.176 38.3492 284.22C35.667 284.238 32.9853 284.265 30.3033 284.302C26.4483 284.35 22.5938 284.373 18.7386 284.391C17.5395 284.411 16.3403 284.432 15.1049 284.453C6.77565 284.455 6.77565 284.455 2.76666 282.101C-0.589046 278.11 -0.177099 274.455 -0.20282 269.449C-0.20852 268.598 -0.21422 267.747 -0.220093 266.871C-0.229548 265.067 -0.236079 263.264 -0.239929 261.461C-0.24962 258.709 -0.280632 255.957 -0.312195 253.205C-0.318726 251.453 -0.323976 249.701 -0.32782 247.949C-0.340167 247.128 -0.352513 246.307 -0.365234 245.461C-0.347234 240.819 -0.0190175 237.77 3.00031 234C6.43635 232.282 10.3847 232.88 14.1644 232.902C15.0716 232.904 15.9788 232.905 16.9135 232.907C19.8175 232.912 22.7214 232.925 25.6253 232.938C27.5914 232.943 29.5576 232.947 31.5237 232.951C36.3493 232.962 41.1748 232.979 46.0003 233C45.9481 231.879 45.9481 231.879 45.8948 230.734C45.8678 229.75 45.8407 228.765 45.8128 227.75C45.778 226.775 45.7432 225.801 45.7073 224.797C46.0437 221.586 46.7399 220.271 49.0003 218C51.6995 217.609 51.6995 217.609 54.6878 217.75C55.6817 217.786 56.6755 217.822 57.6995 217.859C58.4588 217.906 59.218 217.952 60.0003 218C60.1228 217.223 60.2452 216.445 60.3714 215.645C61.1435 212.398 62.5227 211.158 65.0003 209C64.6703 208.34 64.3403 207.68 64.0003 207C63.7411 202.506 63.7292 198.008 63.7051 193.507C63.688 191.272 63.6441 189.039 63.5999 186.805C63.5898 185.375 63.5813 183.945 63.5745 182.516C63.5599 181.219 63.5454 179.923 63.5303 178.587C64.2438 173.142 66.6394 170.119 70.8128 166.688C74.2953 164.844 77.0949 164.312 81.0003 164C80.9655 163.336 80.9307 162.672 80.8948 161.988C80.6188 152.985 80.6188 152.985 84.0003 149C89.9358 143.639 97.2792 144.814 104.845 144.815C106.927 144.813 109.01 144.794 111.092 144.775C113.071 144.772 113.071 144.772 115.09 144.77C116.295 144.765 117.501 144.761 118.742 144.757C122.732 145.055 125.647 145.888 128.75 148.438C131.409 151.761 131.106 155.125 131.063 159.188C131.054 160.274 131.045 161.361 131.035 162.48C131.018 163.728 131.018 163.728 131 165C132.197 164.917 133.393 164.835 134.625 164.75C139.907 164.75 142.933 166.982 146.659 170.619C148.625 174.109 148.293 177.458 148.153 181.344C148.124 182.999 148.096 184.654 148.069 186.309C148.006 188.909 147.938 191.51 147.863 194.11C147.797 196.625 147.755 199.14 147.715 201.656C147.685 202.432 147.655 203.209 147.624 204.008C147.574 207.636 147.556 209.5 150.018 212.271C150.999 213.127 150.999 213.127 152 214C152 215.32 152 216.64 152 218C152.843 217.977 153.686 217.954 154.555 217.93C155.651 217.912 156.746 217.894 157.875 217.875C158.966 217.852 160.056 217.829 161.18 217.805C164 218 164 218 166 220C166.196 223.039 166.196 223.039 166.125 226.625C166.107 227.814 166.089 229.002 166.071 230.227C166.047 231.142 166.024 232.057 166 233C170.948 232.882 175.896 232.758 180.844 232.628C182.528 232.584 184.212 232.543 185.896 232.503C188.314 232.445 190.731 232.381 193.149 232.316C194.282 232.291 194.282 232.291 195.437 232.266C199.348 232.224 199.348 232.224 203 231C203.33 154.77 203.66 78.54 204 0Z" fill="#171717"/>
<path d="M214 0C300.79 0 387.58 0 477 0C477 77.22 477 154.44 477 234C390.21 234 303.42 234 214 234C214 156.78 214 79.56 214 0Z" fill="#FCFCFC"/>
<path d="M9 242C231.09 242 453.18 242 682 242C682 252.89 682 263.78 682 275C459.91 275 237.82 275 9 275C9 264.11 9 253.22 9 242Z" fill="#FAFAFA"/>
<path d="M564 351C577.86 351 591.72 351 606 351C606 374.76 606 398.52 606 423C597 423 597 423 595 422C594.546 419.415 594.237 416.921 594 414.312C593.918 413.5 593.836 412.688 593.752 411.852C593.219 406.286 592.851 400.715 592.535 395.133C592.496 394.457 592.456 393.782 592.415 393.086C592.216 389.685 592.031 386.285 591.873 382.882C591.803 381.631 591.733 380.379 591.66 379.09C591.605 377.964 591.549 376.839 591.492 375.679C591.33 374.795 591.167 373.911 591 373C587.53 370.687 586.075 370.66 582 371C581.01 371.66 580.02 372.32 579 373C578.475 375.822 578.154 378.462 577.938 381.312C577.861 382.169 577.784 383.025 577.705 383.907C577.222 389.514 576.858 395.126 576.504 400.742C576.42 402.057 576.335 403.371 576.248 404.725C576.084 407.354 575.929 409.983 575.785 412.613C575.712 413.817 575.638 415.021 575.562 416.262C575.502 417.344 575.441 418.427 575.379 419.542C575.191 420.759 575.191 420.759 575 422C573 423 573 423 564 423C564 399.24 564 375.48 564 351Z" fill="#F0EFF0"/>
<path d="M86 351C99.53 351 113.06 351 127 351C127 374.76 127 398.52 127 423C124.03 423 121.06 423 118 423C115.099 420.099 115.557 416.999 115.402 413.098C115.363 412.305 115.324 411.513 115.284 410.697C115.159 408.152 115.048 405.608 114.938 403.062C114.675 397.406 114.404 391.749 114.109 386.094C114.011 384.205 113.917 382.315 113.825 380.425C113.76 379.438 113.695 378.451 113.629 377.434C113.555 376.195 113.555 376.195 113.479 374.931C113.131 372.601 113.131 372.601 110 371C106.458 370.667 106.458 370.667 103 371C99.9376 374.062 100.433 377.787 100.184 381.918C100.092 383.254 100.092 383.254 99.9976 384.617C99.8022 387.473 99.6193 390.33 99.4375 393.188C99.2498 396.027 99.0595 398.866 98.8667 401.705C98.7474 403.472 98.6315 405.239 98.5194 407.007C97.6412 420.359 97.6412 420.359 95 423C92.03 423 89.06 423 86 423C86 399.24 86 375.48 86 351Z" fill="#F5F4F5"/>
<path d="M564 300C577.86 300 591.72 300 606 300C606 314.19 606 328.38 606 343C592.14 343 578.28 343 564 343C564 328.81 564 314.62 564 300Z" fill="#F4F4F4"/>
<path d="M86 300C99.53 300 113.06 300 127 300C127 314.19 127 328.38 127 343C113.47 343 99.94 343 86 343C86 328.81 86 314.62 86 300Z" fill="#F8F8F8"/>
<path d="M601 176C602 177 602 177 602.114 179.775C602.108 180.985 602.103 182.195 602.098 183.441C602.095 184.746 602.091 186.051 602.088 187.396C602.08 188.785 602.071 190.174 602.063 191.562C602.058 192.955 602.053 194.347 602.049 195.74C602.037 199.16 602.021 202.58 602 206C598.028 208.202 595.106 209.381 590.559 209.398C589.065 209.404 589.065 209.404 587.541 209.41C586.517 209.398 585.493 209.387 584.438 209.375C583.41 209.386 582.382 209.398 581.322 209.41C580.328 209.406 579.333 209.402 578.309 209.398C577.41 209.395 576.51 209.391 575.584 209.388C572.301 208.895 570.522 208.183 568 206C567.433 202.905 567.433 202.905 567.512 199.144C567.523 198.152 567.523 198.152 567.533 197.139C567.561 195.029 567.624 192.922 567.688 190.812C567.713 189.381 567.736 187.949 567.756 186.517C567.811 183.011 567.897 179.505 568 176C578.727 171.479 590.262 171.29 601 176Z" fill="#F7F7F7"/>
<path d="M100.461 172.602C101.263 172.598 102.065 172.594 102.891 172.59C103.71 172.601 104.53 172.613 105.375 172.625C106.187 172.613 106.999 172.602 107.836 172.59C113.53 172.617 117.779 173.731 123 176C123.124 180.217 123.214 184.434 123.275 188.653C123.3 190.087 123.334 191.522 123.377 192.956C123.438 195.019 123.466 197.081 123.488 199.145C123.514 200.386 123.541 201.627 123.568 202.906C123 206 123 206 120.788 207.906C117.931 209.027 115.963 209.374 112.91 209.363C111.961 209.363 111.011 209.362 110.033 209.361C108.563 209.337 108.563 209.337 107.062 209.312C106.086 209.316 105.11 209.319 104.104 209.322C98.6609 209.282 95.3655 208.789 90 207C90 196.77 90 186.54 90 176C96.7618 172.619 96.7618 172.619 100.461 172.602Z" fill="#F9F9F9"/>
<path d="M584 376C584.99 376 585.98 376 587 376C587.029 376.592 587.057 377.185 587.087 377.795C587.389 383.961 587.718 390.125 588.062 396.288C588.187 398.589 588.305 400.889 588.417 403.19C588.578 406.498 588.763 409.803 588.953 413.109C588.998 414.139 589.043 415.168 589.089 416.228C589.368 421.805 589.368 421.805 591.918 426.629C594.233 428.153 596.027 428.769 598.75 429.25C599.549 429.4 600.348 429.549 601.172 429.703C601.775 429.801 602.378 429.899 603 430C605.338 436.575 605 440.351 605 448C592.13 448 579.26 448 566 448C566 433 566 433 567 430C570.4 428.997 573.709 428.216 577.199 427.633C577.793 427.424 578.388 427.215 579 427C579.911 424.268 580.204 422.306 580.373 419.469C580.43 418.554 580.487 417.64 580.545 416.698C580.602 415.714 580.66 414.729 580.719 413.715C580.782 412.703 580.844 411.691 580.909 410.648C581.178 406.312 581.438 401.976 581.698 397.639C581.889 394.477 582.085 391.315 582.281 388.152C582.339 387.166 582.396 386.179 582.455 385.163C582.512 384.252 582.568 383.341 582.627 382.402C582.675 381.598 582.723 380.795 582.773 379.967C583 378 583 378 584 376Z" fill="#F3F3F3"/>
<path d="M105 376C105.99 376 106.98 376 108 376C109.302 379.907 109.307 383.717 109.465 387.797C109.543 389.578 109.622 391.359 109.701 393.141C109.821 395.943 109.937 398.745 110.05 401.547C110.16 404.256 110.28 406.964 110.402 409.672C110.448 410.916 110.448 410.916 110.494 412.185C110.722 417.093 111.321 421.366 113 426C116.645 429.124 120.306 429.54 125 430C125.916 436.185 126 441.617 126 448C113.13 448 100.26 448 87 448C87 433.692 87 433.692 89 430C91.5119 428.903 93.9067 428.256 96.5898 427.703C99.4409 426.871 100.27 426.409 102 424C102.389 421.354 102.604 418.912 102.695 416.254C102.733 415.488 102.771 414.721 102.81 413.932C102.928 411.476 103.027 409.019 103.125 406.562C103.234 404.144 103.347 401.727 103.46 399.309C103.533 397.74 103.605 396.17 103.674 394.601C103.957 388.386 104.41 382.194 105 376Z" fill="#F6F6F6"/>
<path d="M54 225C88.65 225 123.3 225 159 225C159 227.97 159 230.94 159 234C124.35 234 89.7 234 54 234C54 231.03 54 228.06 54 225Z" fill="#E4E4E4"/>
<path d="M534.747 224.877C535.896 224.879 535.896 224.879 537.068 224.88C537.945 224.879 538.821 224.877 539.724 224.876C541.178 224.881 541.178 224.881 542.66 224.887C543.675 224.887 544.689 224.887 545.735 224.886C549.106 224.887 552.477 224.895 555.848 224.903C558.178 224.905 560.508 224.906 562.838 224.907C568.985 224.911 575.132 224.921 581.279 224.932C587.546 224.942 593.813 224.947 600.08 224.952C612.387 224.962 624.693 224.979 637 225C637 227.97 637 230.94 637 234C602.35 234 567.7 234 532 234C532 225.071 532 225.071 534.747 224.877Z" fill="#E4E4E4"/>
<path d="M70 282C94.09 282 118.18 282 143 282C143 285.63 143 289.26 143 293C118.91 293 94.82 293 70 293C70 289.37 70 285.74 70 282Z" fill="#E8E9E9"/>
<path d="M548 283C572.09 283 596.18 283 621 283C621 286.3 621 289.6 621 293C596.91 293 572.82 293 548 293C548 289.7 548 286.4 548 283Z" fill="#F3F3F3"/>
<path d="M617 173C620.192 177.788 619.372 183.28 619.371 188.879C619.375 190.993 619.411 193.105 619.449 195.219C619.455 196.563 619.459 197.906 619.461 199.25C619.469 200.472 619.477 201.694 619.486 202.953C619 206 619 206 617.131 207.903C614.513 209.251 612.91 209.373 610 209C609.01 208.34 608.02 207.68 607 207C606.612 203.975 606.612 203.975 606.602 200.129C606.599 199.451 606.596 198.773 606.593 198.074C606.591 196.639 606.596 195.204 606.609 193.769C606.625 191.574 606.609 189.381 606.59 187.186C606.592 185.792 606.596 184.398 606.602 183.004C606.607 181.099 606.607 181.099 606.612 179.155C607 176 607 176 608.302 174.086C611.169 172.253 613.717 172.642 617 173Z" fill="#EFEFEF"/>
<path d="M560 173C561.663 174.086 561.663 174.086 563 176C563.388 179.154 563.388 179.154 563.398 183.004C563.403 184.022 563.403 184.022 563.407 185.062C563.409 186.495 563.404 187.928 563.391 189.361C563.375 191.558 563.391 193.754 563.41 195.951C563.408 197.344 563.404 198.736 563.398 200.129C563.395 201.398 563.392 202.667 563.388 203.975C563.26 204.973 563.132 205.971 563 207C559.531 209.313 558.078 209.425 554 209C552.337 207.902 552.337 207.902 551 206C550.612 202.953 550.612 202.953 550.602 199.25C550.599 198.595 550.596 197.941 550.593 197.266C550.591 195.885 550.596 194.503 550.609 193.121C550.625 191.007 550.609 188.895 550.59 186.781C550.592 185.437 550.596 184.094 550.602 182.75C550.605 181.528 550.608 180.306 550.612 179.047C551 176 551 176 552.337 174.101C554.945 172.374 556.961 172.62 560 173Z" fill="#E9E9E9"/>
<path d="M81 173C82.6274 174.085 82.6274 174.085 84 176C84.3882 179.154 84.3882 179.154 84.3984 183.004C84.4027 184.022 84.4027 184.022 84.4071 185.062C84.4092 186.495 84.4037 187.928 84.3911 189.361C84.375 191.558 84.391 193.754 84.4102 195.951C84.4082 197.344 84.4043 198.736 84.3984 200.129C84.3951 201.398 84.3917 202.667 84.3882 203.975C84.2601 204.973 84.132 205.971 84 207C80.7424 209.172 79.7756 209.46 76 209C73.873 207.902 73.873 207.902 72 206C71.4824 202.953 71.4824 202.953 71.4688 199.25C71.4649 198.595 71.4611 197.941 71.4572 197.266C71.4544 195.885 71.4618 194.503 71.4785 193.121C71.4999 191.006 71.4787 188.895 71.4531 186.781C71.4558 185.437 71.4609 184.094 71.4688 182.75C71.4733 181.528 71.4778 180.306 71.4824 179.047C72 176 72 176 73.873 174.101C76.5105 172.735 78.0682 172.549 81 173Z" fill="#EEEDEE"/>
<path d="M131 173C137.461 173.462 137.461 173.462 140 176C140.399 180.257 140.329 184.529 140.316 188.803C140.312 190.926 140.336 193.047 140.361 195.17C140.364 196.518 140.364 197.867 140.363 199.215C140.366 200.443 140.369 201.672 140.372 202.937C140 206 140 206 138.669 207.905C136.094 209.595 133.993 209.318 131 209C128.095 206.096 128.741 203.932 128.734 199.875C128.732 199.172 128.73 198.47 128.728 197.746C128.727 196.259 128.731 194.773 128.739 193.287C128.75 191.009 128.739 188.731 128.726 186.453C128.728 185.01 128.73 183.568 128.734 182.125C128.737 180.808 128.739 179.49 128.741 178.133C129 175 129 175 131 173Z" fill="#F6F5F6"/>
<path d="M572.051 153.887C573.4 153.887 574.749 153.893 576.098 153.903C577.161 153.905 577.161 153.905 578.246 153.907C580.518 153.912 582.79 153.925 585.062 153.938C586.6 153.943 588.137 153.947 589.674 153.951C593.449 153.962 597.225 153.98 601 154C601 157.63 601 161.26 601 165C590.11 165 579.22 165 568 165C568 154.037 568 154.037 572.051 153.887Z" fill="#F5F5F5"/>
<path d="M90 154C94.539 153.975 99.0779 153.957 103.617 153.945C105.162 153.94 106.707 153.933 108.253 153.925C110.469 153.912 112.686 153.907 114.902 153.902C115.597 153.897 116.292 153.892 117.008 153.887C118.672 153.887 120.337 153.938 122 154C124.603 156.603 123 161.318 123 165C112.11 165 101.22 165 90 165C90 161.37 90 157.74 90 154Z" fill="#F6F6F6"/>
</g>
<defs>
<clipPath id="clip0_273_698">
<rect width="691" height="448" fill="white"/>
</clipPath>
</defs>
</svg>
