<svg width="698" height="669" viewBox="0 0 698 669" fill="none" xmlns="http://www.w3.org/2000/svg">
<g clip-path="url(#clip0_270_157)">
<path d="M124.417 0.725761C126.06 0.717906 126.06 0.717906 127.736 0.709892C131.378 0.694985 135.019 0.694189 138.661 0.693519C141.283 0.685892 143.906 0.677463 146.528 0.668296C153.631 0.645552 160.735 0.637538 167.838 0.63247C172.279 0.629202 176.721 0.622674 181.162 0.615469C193.478 0.595921 205.795 0.579505 218.111 0.576592C218.897 0.576405 219.684 0.576217 220.494 0.576024C222.088 0.575657 223.682 0.575294 225.276 0.574933C226.463 0.574658 226.463 0.574658 227.673 0.574379C228.465 0.574198 229.258 0.574018 230.074 0.573832C242.914 0.570288 255.754 0.543249 268.594 0.505881C281.802 0.467751 295.01 0.448434 308.218 0.448133C315.624 0.447549 323.03 0.439138 330.436 0.410135C337.4 0.382984 344.364 0.381755 351.329 0.397791C353.88 0.399604 356.431 0.392924 358.982 0.376972C387.958 0.206853 387.958 0.206854 400.153 11.871C403.095 15.2613 406.001 19.3537 406.001 23.9999C407.202 23.9685 407.202 23.9685 408.428 23.9364C412.098 23.8527 415.768 23.8011 419.438 23.7499C420.698 23.7164 421.958 23.6829 423.257 23.6484C431.985 23.5572 438.492 24.3364 445.376 29.9296C446.18 30.8925 446.18 30.8925 447.001 31.8749C447.836 32.8301 447.836 32.8301 448.688 33.8046C450.302 36.5032 450.55 38.912 451.001 41.9999C452.31 41.9842 453.62 41.9685 454.969 41.9523C459.905 41.8973 464.84 41.8633 469.775 41.8351C471.897 41.8202 474.019 41.7998 476.14 41.7736C496.504 41.5284 516.969 42.0079 532.794 56.6601C537.767 62.0509 540.23 67.6418 540.001 74.9999C541.135 74.9535 542.269 74.9071 543.438 74.8593C559.015 74.4067 559.015 74.4067 565.001 78.9999C565.915 79.6187 565.915 79.6187 566.848 80.2499C571.983 84.087 574.945 88.9622 577.001 94.9999C577.356 97.8255 577.265 100.143 577.001 103C578.884 102.759 578.884 102.759 580.805 102.513C586.252 101.91 591.657 101.821 597.134 101.797C598.17 101.791 599.206 101.785 600.273 101.78C602.45 101.77 604.626 101.764 606.803 101.76C610.123 101.75 613.443 101.719 616.762 101.687C618.886 101.681 621.01 101.676 623.134 101.672C624.119 101.659 625.105 101.647 626.12 101.634C634.898 101.663 640.607 103.918 647.001 110C647.001 110.66 647.001 111.32 647.001 112C648.686 111.929 648.686 111.929 650.406 111.857C654.623 111.693 658.84 111.59 663.059 111.506C664.876 111.461 666.693 111.399 668.508 111.321C685.499 110.606 685.499 110.606 692.762 116.223C695.379 118.632 696.781 120.025 697.565 123.5C696.505 128.193 692.712 130.578 688.882 133.127C681.878 137.015 673.435 135.957 665.688 135.687C663.13 135.615 660.574 135.557 658.015 135.535C656.436 135.52 654.857 135.476 653.28 135.399C648.874 135.341 646.614 135.945 643.277 138.905C642.763 139.435 642.249 139.964 641.719 140.509C637.896 143.826 634.027 144.248 629.109 144.227C627.948 144.227 626.787 144.227 625.591 144.227C624.348 144.216 623.105 144.206 621.825 144.195C619.905 144.191 619.905 144.191 617.945 144.187C614.554 144.179 611.162 144.159 607.771 144.137C604.305 144.117 600.84 144.108 597.374 144.098C590.583 144.076 583.792 144.042 577.001 144C577.025 145.081 577.05 146.163 577.075 147.277C576.954 153.329 574.584 157.99 570.594 162.516C565.611 167.157 559.956 171.15 552.989 171.098C552.232 171.094 551.474 171.091 550.694 171.088C549.908 171.079 549.123 171.071 548.313 171.062C547.516 171.058 546.719 171.053 545.897 171.049C543.932 171.037 541.966 171.019 540.001 171C539.869 172.072 539.738 173.145 539.602 174.25C538.171 183.172 533.21 188.891 526.262 194.371C514.07 202.751 498.778 205.349 484.294 205.133C482.306 205.134 480.318 205.136 478.331 205.141C475.245 205.139 472.161 205.125 469.075 205.079C466.064 205.04 463.055 205.051 460.044 205.07C458.665 205.032 458.665 205.032 457.259 204.992C452.226 205.047 452.226 205.047 448.173 207.757C446.582 209.861 446.582 209.861 445.314 212.045C442.897 215.644 439.272 217.255 435.197 218.591C432.266 219.136 429.466 219.111 426.485 219.098C425.235 219.094 423.984 219.091 422.696 219.088C421.394 219.079 420.092 219.071 418.751 219.062C416.775 219.056 416.775 219.056 414.759 219.049C411.506 219.037 408.253 219.02 405.001 219C404.807 220.161 404.807 220.161 404.61 221.346C403.088 227.974 396.041 233.529 390.688 237.375C379.974 243.987 368.312 245.17 356.032 245.098C354.651 245.095 354.651 245.095 353.241 245.093C350.328 245.088 347.414 245.075 344.501 245.062C342.514 245.057 340.527 245.053 338.54 245.049C333.693 245.038 328.847 245.021 324.001 245C323.947 245.741 323.893 246.482 323.838 247.246C323.323 254.306 322.795 261.365 322.252 268.422C321.974 272.049 321.7 275.676 321.439 279.304C317.922 327.944 317.922 327.944 301.188 343.812C296.786 347.486 291.664 350.219 285.782 349.867C282.998 349.72 281.552 349.795 279.001 351C276.454 353.884 274.473 357.137 272.538 360.452C269.645 365.385 267.238 368.139 261.489 369.668C257.505 371.801 256.161 375.364 254.188 379.312C253.757 380.156 253.327 381 252.883 381.869C248.179 391.303 244.418 401.038 241.001 411C240.722 411.805 240.444 412.61 240.157 413.439C233.675 432.551 228.678 453.846 228.938 474.125C228.947 475.056 228.956 475.986 228.966 476.945C228.977 477.623 228.989 478.301 229.001 479C234.19 479.991 239.372 480.93 244.61 481.625C257.881 483.428 268.369 485.943 277.001 497C278.133 499.063 279.211 501.158 280.235 503.277C280.758 504.351 281.281 505.425 281.82 506.531C282.21 507.346 282.599 508.16 283.001 509C283.846 508.995 284.69 508.989 285.561 508.984C340.455 508.689 340.455 508.689 357.255 524.062C370.112 537.334 372.439 554.998 372.688 572.625C372.719 574.225 372.749 575.825 372.781 577.425C372.859 581.712 372.914 585.998 372.965 590.285C373.002 593.066 373.049 595.847 373.099 598.628C373.183 603.355 373.243 608.081 373.285 612.808C373.304 614.624 373.329 616.44 373.36 618.256C373.587 631.998 372.903 644.436 363.001 655C358.226 659.824 353.316 663.467 347.001 666C345.836 666.512 345.836 666.512 344.648 667.034C339.298 668.451 334.103 668.285 328.591 668.274C327.329 668.279 326.066 668.285 324.765 668.29C321.267 668.304 317.77 668.306 314.272 668.305C310.497 668.307 306.722 668.32 302.946 668.332C294.694 668.354 286.442 668.362 278.19 668.367C273.034 668.371 267.878 668.377 262.722 668.384C248.439 668.404 234.156 668.42 219.873 668.423C218.502 668.423 218.502 668.424 217.104 668.424C215.252 668.424 213.399 668.425 211.547 668.425C210.168 668.425 210.168 668.425 208.761 668.425C207.38 668.426 207.38 668.426 205.971 668.426C191.062 668.43 176.152 668.457 161.242 668.494C145.923 668.532 130.605 668.551 115.286 668.552C106.69 668.552 98.0933 668.561 89.4969 668.59C82.1755 668.614 74.8544 668.621 67.5331 668.606C63.8008 668.599 60.069 668.6 56.3368 668.623C52.2816 668.647 48.2275 668.633 44.1722 668.615C43.0051 668.628 41.8379 668.641 40.6354 668.655C28.8444 668.535 18.4376 664.34 10.0008 656C2.75698 647.485 -0.501445 639.045 -0.327373 627.91C-0.325998 627.06 -0.324623 626.21 -0.323207 625.334C-0.314216 622.577 -0.282742 619.82 -0.249248 617.062C-0.235274 615.142 -0.222017 613.221 -0.209453 611.3C-0.171791 606.455 -0.111093 601.611 -0.0395918 596.766C-0.00131189 594.141 0.0317877 591.517 0.0637407 588.892C0.113539 585.034 0.181811 581.177 0.267232 577.32C0.29735 575.924 0.323782 574.529 0.346089 573.133C0.661449 554.931 4.05051 537.496 17.0008 524C27.7739 513.663 40.8286 508.927 55.6934 508.984C56.5009 508.986 57.3084 508.988 58.1404 508.991C58.7543 508.994 59.3682 508.997 60.0008 509C60.1808 507.208 60.1808 507.208 60.3645 505.38C67.5444 434.478 81.7055 366.06 102.898 298.007C105.036 291.075 106.747 284.153 108.001 277C108.131 276.297 108.261 275.595 108.395 274.871C109.939 265.009 109.092 254.862 108.001 245C107.443 244.91 106.886 244.82 106.311 244.728C94.186 242.728 83.1422 240.279 72.0008 235C71.0417 234.549 70.0826 234.098 69.0945 233.633C44.3476 221.046 26.4521 197.978 17.6883 171.937C6.1911 136.304 8.67133 97.5904 25.2686 63.9338C29.6272 55.5827 34.9853 48.2226 41.0008 40.9999C41.5563 40.3038 42.1119 39.6077 42.6843 38.8905C46.3517 34.3982 50.5247 30.6722 55.0008 26.9999C55.9379 26.2136 56.875 25.4273 57.8406 24.6171C76.4954 9.34259 100.31 0.667689 124.417 0.725761Z" fill="#FCFCFC"/>
<path d="M124.417 0.725761C126.06 0.717906 126.06 0.717906 127.736 0.709892C131.378 0.694985 135.019 0.694189 138.661 0.693519C141.283 0.685892 143.906 0.677463 146.528 0.668296C153.631 0.645552 160.735 0.637538 167.838 0.63247C172.279 0.629202 176.721 0.622674 181.162 0.615469C193.478 0.595921 205.795 0.579505 218.111 0.576592C218.897 0.576405 219.684 0.576217 220.494 0.576024C222.088 0.575657 223.682 0.575294 225.276 0.574933C226.463 0.574658 226.463 0.574658 227.673 0.574379C228.465 0.574198 229.258 0.574018 230.074 0.573832C242.914 0.570288 255.754 0.543249 268.594 0.505881C281.802 0.467751 295.01 0.448434 308.218 0.448133C315.624 0.447549 323.03 0.439138 330.436 0.410135C337.4 0.382984 344.364 0.381755 351.329 0.397791C353.88 0.399604 356.431 0.392924 358.982 0.376972C387.958 0.206853 387.958 0.206854 400.153 11.871C403.095 15.2613 406.001 19.3537 406.001 23.9999C407.202 23.9685 407.202 23.9685 408.428 23.9364C412.098 23.8527 415.768 23.8011 419.438 23.7499C420.698 23.7164 421.958 23.6829 423.257 23.6484C431.985 23.5572 438.492 24.3364 445.376 29.9296C446.18 30.8925 446.18 30.8925 447.001 31.8749C447.836 32.8301 447.836 32.8301 448.688 33.8046C450.302 36.5032 450.55 38.912 451.001 41.9999C452.31 41.9842 453.62 41.9685 454.969 41.9523C459.905 41.8973 464.84 41.8633 469.775 41.8351C471.897 41.8202 474.019 41.7998 476.14 41.7736C496.504 41.5284 516.969 42.0079 532.794 56.6601C537.767 62.0509 540.23 67.6418 540.001 74.9999C541.135 74.9535 542.269 74.9071 543.438 74.8593C559.015 74.4067 559.015 74.4067 565.001 78.9999C565.915 79.6187 565.915 79.6187 566.848 80.2499C571.983 84.087 574.945 88.9622 577.001 94.9999C577.356 97.8255 577.265 100.143 577.001 103C578.884 102.759 578.884 102.759 580.805 102.513C586.252 101.91 591.657 101.821 597.134 101.797C598.17 101.791 599.206 101.785 600.273 101.78C602.45 101.77 604.626 101.764 606.803 101.76C610.123 101.75 613.443 101.719 616.762 101.687C618.886 101.681 621.01 101.676 623.134 101.672C624.119 101.659 625.105 101.647 626.12 101.634C634.898 101.663 640.607 103.918 647.001 110C647.001 110.66 647.001 111.32 647.001 112C648.686 111.929 648.686 111.929 650.406 111.857C654.623 111.693 658.84 111.59 663.059 111.506C664.876 111.461 666.693 111.399 668.508 111.321C685.499 110.606 685.499 110.606 692.762 116.223C695.379 118.632 696.781 120.025 697.565 123.5C696.505 128.193 692.712 130.578 688.882 133.127C681.878 137.015 673.435 135.957 665.688 135.687C663.13 135.615 660.574 135.557 658.015 135.535C656.436 135.52 654.857 135.476 653.28 135.399C648.874 135.341 646.614 135.945 643.277 138.905C642.763 139.435 642.249 139.964 641.719 140.509C637.896 143.826 634.027 144.248 629.109 144.227C627.948 144.227 626.787 144.227 625.591 144.227C624.348 144.216 623.105 144.206 621.825 144.195C619.905 144.191 619.905 144.191 617.945 144.187C614.554 144.179 611.162 144.159 607.771 144.137C604.305 144.117 600.84 144.108 597.374 144.098C590.583 144.076 583.792 144.042 577.001 144C577.025 145.081 577.05 146.163 577.075 147.277C576.954 153.329 574.584 157.99 570.594 162.516C565.611 167.157 559.956 171.15 552.989 171.098C552.232 171.094 551.474 171.091 550.694 171.088C549.908 171.079 549.123 171.071 548.313 171.062C547.516 171.058 546.719 171.053 545.897 171.049C543.932 171.037 541.966 171.019 540.001 171C539.869 172.072 539.738 173.145 539.602 174.25C538.171 183.172 533.21 188.891 526.262 194.371C514.07 202.751 498.778 205.349 484.294 205.133C482.306 205.134 480.318 205.136 478.331 205.141C475.245 205.139 472.161 205.125 469.075 205.079C466.064 205.04 463.055 205.051 460.044 205.07C458.665 205.032 458.665 205.032 457.259 204.992C452.226 205.047 452.226 205.047 448.173 207.757C446.582 209.861 446.582 209.861 445.314 212.045C442.897 215.644 439.272 217.255 435.197 218.591C432.266 219.136 429.466 219.111 426.485 219.098C425.235 219.094 423.984 219.091 422.696 219.088C421.394 219.079 420.092 219.071 418.751 219.062C416.775 219.056 416.775 219.056 414.759 219.049C411.506 219.037 408.253 219.02 405.001 219C404.807 220.161 404.807 220.161 404.61 221.346C403.088 227.974 396.041 233.529 390.688 237.375C379.974 243.987 368.312 245.17 356.032 245.098C354.651 245.095 354.651 245.095 353.241 245.093C350.328 245.088 347.414 245.075 344.501 245.062C342.514 245.057 340.527 245.053 338.54 245.049C333.693 245.038 328.847 245.021 324.001 245C323.947 245.741 323.893 246.482 323.838 247.246C323.323 254.306 322.795 261.365 322.252 268.422C321.974 272.049 321.7 275.676 321.439 279.304C317.922 327.944 317.922 327.944 301.188 343.812C296.786 347.486 291.664 350.219 285.782 349.867C282.998 349.72 281.552 349.795 279.001 351C276.454 353.884 274.473 357.137 272.538 360.452C269.645 365.385 267.238 368.139 261.489 369.668C257.505 371.801 256.161 375.364 254.188 379.312C253.757 380.156 253.327 381 252.883 381.869C248.179 391.303 244.418 401.038 241.001 411C240.722 411.805 240.444 412.61 240.157 413.439C233.675 432.551 228.678 453.846 228.938 474.125C228.947 475.056 228.956 475.986 228.966 476.945C228.977 477.623 228.989 478.301 229.001 479C234.19 479.991 239.372 480.93 244.61 481.625C257.881 483.428 268.369 485.943 277.001 497C278.133 499.063 279.211 501.158 280.235 503.277C280.758 504.351 281.281 505.425 281.82 506.531C282.21 507.346 282.599 508.16 283.001 509C283.846 508.995 284.69 508.989 285.561 508.984C340.455 508.689 340.455 508.689 357.255 524.062C370.112 537.334 372.439 554.998 372.688 572.625C372.719 574.225 372.749 575.825 372.781 577.425C372.859 581.712 372.914 585.998 372.965 590.285C373.002 593.066 373.049 595.847 373.099 598.628C373.183 603.355 373.243 608.081 373.285 612.808C373.304 614.624 373.329 616.44 373.36 618.256C373.587 631.998 372.903 644.436 363.001 655C358.226 659.824 353.316 663.467 347.001 666C345.836 666.512 345.836 666.512 344.648 667.034C339.298 668.451 334.103 668.285 328.591 668.274C327.329 668.279 326.066 668.285 324.765 668.29C321.267 668.304 317.77 668.306 314.272 668.305C310.497 668.307 306.722 668.32 302.946 668.332C294.694 668.354 286.442 668.362 278.19 668.367C273.034 668.371 267.878 668.377 262.722 668.384C248.439 668.404 234.156 668.42 219.873 668.423C218.502 668.423 218.502 668.424 217.104 668.424C215.252 668.424 213.399 668.425 211.547 668.425C210.168 668.425 210.168 668.425 208.761 668.425C207.38 668.426 207.38 668.426 205.971 668.426C191.062 668.43 176.152 668.457 161.242 668.494C145.923 668.532 130.605 668.551 115.286 668.552C106.69 668.552 98.0933 668.561 89.4969 668.59C82.1755 668.614 74.8544 668.621 67.5331 668.606C63.8008 668.599 60.069 668.6 56.3368 668.623C52.2816 668.647 48.2275 668.633 44.1722 668.615C43.0051 668.628 41.8379 668.641 40.6354 668.655C28.8444 668.535 18.4376 664.34 10.0008 656C2.75698 647.485 -0.501445 639.045 -0.327373 627.91C-0.325998 627.06 -0.324623 626.21 -0.323207 625.334C-0.314216 622.577 -0.282742 619.82 -0.249248 617.062C-0.235274 615.142 -0.222017 613.221 -0.209453 611.3C-0.171791 606.455 -0.111093 601.611 -0.0395918 596.766C-0.00131189 594.141 0.0317877 591.517 0.0637407 588.892C0.113539 585.034 0.181811 581.177 0.267232 577.32C0.29735 575.924 0.323782 574.529 0.346089 573.133C0.661449 554.931 4.05051 537.496 17.0008 524C27.7739 513.663 40.8286 508.927 55.6934 508.984C56.5009 508.986 57.3084 508.988 58.1404 508.991C58.7543 508.994 59.3682 508.997 60.0008 509C60.1808 507.208 60.1808 507.208 60.3645 505.38C67.5444 434.478 81.7055 366.06 102.898 298.007C105.036 291.075 106.747 284.153 108.001 277C108.131 276.297 108.261 275.595 108.395 274.871C109.939 265.009 109.092 254.862 108.001 245C107.443 244.91 106.886 244.82 106.311 244.728C94.186 242.728 83.1422 240.279 72.0008 235C71.0417 234.549 70.0826 234.098 69.0945 233.633C44.3476 221.046 26.4521 197.978 17.6883 171.937C6.1911 136.304 8.67133 97.5904 25.2686 63.9338C29.6272 55.5827 34.9853 48.2226 41.0008 40.9999C41.5563 40.3038 42.1119 39.6077 42.6843 38.8905C46.3517 34.3982 50.5247 30.6722 55.0008 26.9999C55.9379 26.2136 56.875 25.4273 57.8406 24.6171C76.4954 9.34259 100.31 0.667689 124.417 0.725761ZM47.3054 47.0976C25.6725 74.3404 16.4114 109.314 20.3186 143.806C23.5454 166.435 32.3571 189.104 48.0008 206C48.7471 206.838 49.4935 207.676 50.2625 208.539C60.6997 219.684 73.2511 227.038 87.7508 231.562C88.3901 231.771 89.0295 231.979 89.6883 232.193C100.336 235.536 110.636 236.29 121.759 236.309C123.156 236.32 124.554 236.332 125.951 236.346C131.828 236.4 137.705 236.432 143.582 236.456C147.2 236.472 150.818 236.502 154.436 236.541C156.459 236.558 158.482 236.559 160.505 236.559C170.217 236.663 178.254 237.769 186.001 244C193.204 251.37 195.408 256.103 195.366 266.423C195.208 273.227 194.2 279.306 189.61 284.605C188.126 285.937 188.126 285.937 185.001 288C184.222 288.523 183.444 289.047 182.641 289.586C177.074 291.748 171.549 291.575 165.626 291.687C164.413 291.722 163.2 291.756 161.95 291.791C158.967 291.873 155.984 291.942 153.001 292C153.001 289.69 153.001 287.38 153.001 285C153.991 284.978 153.991 284.978 155.001 284.956C158.022 284.881 161.043 284.784 164.063 284.687C165.102 284.665 166.14 284.642 167.21 284.619C176.805 284.284 176.805 284.284 184.743 279.281C185.304 278.399 185.304 278.399 185.876 277.5C186.265 276.912 186.654 276.324 187.055 275.719C189.497 271.279 189.445 266.924 189.001 262C187.137 255.994 183.734 250.172 178.161 246.93C173.637 244.959 169.702 243.875 164.795 243.886C163.734 243.886 162.673 243.887 161.58 243.887C159.864 243.894 159.864 243.894 158.114 243.902C156.356 243.904 156.356 243.904 154.562 243.907C150.812 243.912 147.063 243.925 143.313 243.937C140.774 243.942 138.234 243.947 135.694 243.951C129.463 243.962 123.232 243.979 117.001 244C117.027 244.859 117.053 245.719 117.08 246.604C117.514 263.075 117.644 278.445 112.797 294.358C111.919 297.27 111.116 300.197 110.321 303.133C108.198 310.922 106.024 318.693 103.648 326.41C99.6989 339.278 96.3019 352.234 93.1258 365.312C92.8685 366.366 92.6113 367.419 92.3462 368.504C88.7899 383.097 85.4428 397.721 82.4383 412.437C82.2804 413.208 82.1226 413.979 81.96 414.773C78.6776 430.907 75.9933 447.101 73.9383 463.437C73.8543 464.1 73.7703 464.762 73.6837 465.445C72.6602 473.52 71.6506 481.597 70.7508 489.687C70.6708 490.373 70.5908 491.059 70.5083 491.765C69.8584 497.924 70.0008 503.694 70.0008 510C136.991 510 203.981 510 273.001 510C271.696 503.474 268.573 499.384 263.005 495.668C256.942 492.513 250.759 491.043 244.024 490.141C242.941 489.994 241.859 489.847 240.743 489.695C238.492 489.398 236.24 489.116 233.985 488.851C224.791 487.557 224.791 487.557 221.727 484.672C216.59 476.754 220.389 462.853 221.626 454.125C221.804 452.864 221.982 451.603 222.166 450.304C226.003 424.596 233.293 394.41 248.235 372.66C250.185 370.254 250.185 370.254 250.001 368C245.269 367.876 240.537 367.785 235.804 367.725C234.196 367.7 232.588 367.666 230.98 367.623C228.661 367.562 226.344 367.534 224.024 367.512C222.955 367.473 222.955 367.473 221.864 367.433C217.972 367.431 215.556 367.984 212.582 370.403C210.318 372.681 209.038 374.134 207.876 377.062C207.564 377.838 207.252 378.614 206.93 379.414C205.546 383.264 204.258 387.142 203.001 391.035C202.1 393.706 201.092 396.278 200.001 398.875C195.865 409.061 193.547 419.61 191.712 430.406C191.052 433.738 190.153 436.809 189.001 440C187.021 440 185.041 440 183.001 440C183.444 422.412 189.402 402.148 196.969 386.281C198.297 383.344 199.384 380.336 200.501 377.312C203.137 370.457 205.094 365.526 211.828 361.82C216.141 360.192 220.614 360.628 225.157 360.777C227.335 360.797 229.514 360.814 231.692 360.83C235.103 360.876 238.512 360.938 241.922 361.037C254.702 362.012 254.702 362.012 266.055 357.594C267.903 354.732 269.061 352.263 270.001 349C270.331 348.01 270.661 347.02 271.001 346C270.542 345.683 270.083 345.366 269.61 345.039C264.09 340.841 261.964 336.57 260.001 330C259.775 329.286 259.55 328.572 259.317 327.836C252.857 302.617 260.418 270.184 273.251 248.125C276.381 242.849 280.36 239.367 286.001 237C292.244 236.141 298.429 236.233 304.72 236.301C306.546 236.297 308.372 236.29 310.199 236.281C314.989 236.262 319.779 236.276 324.57 236.299C332.235 236.334 339.901 236.328 347.566 236.303C350.23 236.301 352.893 236.318 355.557 236.338C363.53 236.359 370.585 236.293 378.001 233C378.955 232.589 379.909 232.177 380.891 231.754C389.013 227.652 394.855 223.879 398.001 215C398.75 208.888 398.696 202.813 398.664 196.664C398.672 194.803 398.683 192.943 398.695 191.083C398.722 186.05 398.717 181.017 398.705 175.984C398.698 171.777 398.707 167.57 398.715 163.362C398.735 153.436 398.73 143.51 398.708 133.584C398.685 123.352 398.703 113.122 398.741 102.891C398.772 94.0948 398.78 85.2989 398.769 76.5029C398.762 71.2544 398.764 66.0063 398.788 60.7579C398.809 55.8238 398.801 50.8905 398.771 45.9564C398.765 44.1489 398.768 42.3413 398.783 40.5338C399.189 28.5422 399.189 28.5422 393.567 18.3845C392.792 17.6991 392.792 17.6991 392.001 16.9999C391.289 16.2775 391.289 16.2775 390.563 15.5405C383.796 9.16883 376.135 8.55779 367.347 8.61224C365.773 8.60416 365.773 8.60416 364.167 8.59592C360.661 8.58165 357.156 8.58874 353.65 8.59586C351.132 8.59016 348.613 8.58319 346.094 8.57507C339.967 8.55898 333.839 8.55703 327.712 8.56228C322.723 8.56633 317.733 8.56487 312.744 8.55953C312.033 8.55878 311.321 8.55803 310.588 8.55726C309.142 8.55573 307.695 8.55419 306.249 8.55265C292.692 8.53893 279.135 8.54435 265.577 8.55583C253.218 8.56574 240.859 8.55287 228.5 8.5289C215.777 8.50441 203.054 8.49492 190.331 8.50155C183.201 8.50502 176.072 8.50294 168.942 8.4853C162.224 8.46889 155.506 8.47391 148.788 8.49261C146.337 8.49626 143.887 8.49327 141.437 8.48272C103.869 8.33345 72.5237 18.2826 47.3054 47.0976Z" fill="#333333"/>
<path d="M331.676 581.903C332.612 581.904 333.548 581.905 334.513 581.907C337.446 581.912 340.379 581.925 343.313 581.938C345.325 581.943 347.338 581.947 349.35 581.951C354.233 581.962 359.117 581.979 364 582C364.102 589.062 364.172 596.123 364.22 603.185C364.24 605.584 364.267 607.982 364.302 610.381C364.351 613.844 364.373 617.306 364.391 620.77C364.412 621.828 364.432 622.887 364.453 623.978C364.457 634.693 361.449 644.121 354 652C345.748 659.766 335.275 660.445 324.451 660.388C322.608 660.396 322.608 660.396 320.726 660.404C317.34 660.416 313.954 660.414 310.568 660.407C306.906 660.402 303.244 660.415 299.582 660.425C292.418 660.442 285.254 660.443 278.09 660.438C272.264 660.434 266.438 660.435 260.612 660.441C259.781 660.441 258.951 660.442 258.095 660.443C256.408 660.444 254.72 660.446 253.033 660.447C237.223 660.461 221.413 660.456 205.603 660.444C191.156 660.434 176.709 660.447 162.261 660.471C147.408 660.496 132.555 660.505 117.702 660.499C109.37 660.495 101.039 660.497 92.7074 660.515C85.6149 660.53 78.5225 660.53 71.4301 660.513C67.8153 660.504 64.2009 660.502 60.5862 660.517C56.6583 660.534 52.731 660.519 48.8032 660.501C47.1091 660.516 47.1091 660.516 45.3807 660.53C34.4725 660.43 24.9022 658.024 16.9104 650.293C12.2478 644.696 8.87811 637.793 8.87088 630.453C8.86773 629.535 8.86458 628.618 8.86133 627.673C8.86335 626.685 8.86538 625.697 8.86746 624.68C8.86651 623.665 8.86555 622.651 8.86456 621.606C8.86388 619.462 8.86573 617.319 8.8699 615.175C8.87526 611.881 8.86995 608.587 8.86356 605.293C8.86422 603.214 8.8655 601.134 8.86746 599.055C8.86544 598.063 8.86341 597.072 8.86133 596.05C8.86606 594.683 8.86606 594.683 8.87088 593.289C8.87168 592.483 8.87247 591.677 8.87329 590.847C9.00027 589 9.00027 589 10.0003 588C11.9223 587.881 13.8487 587.833 15.7742 587.811C17.6575 587.786 17.6575 587.786 19.5788 587.76C20.9838 587.746 22.3887 587.733 23.7937 587.719C25.2639 587.701 26.7342 587.683 28.2043 587.664C31.3822 587.625 34.5601 587.589 37.738 587.555C42.7852 587.501 47.8323 587.439 52.8794 587.377C62.7169 587.257 72.5544 587.144 82.392 587.031C94.833 586.889 107.274 586.744 119.715 586.592C123.898 586.541 128.081 586.491 132.264 586.446C147.407 586.281 162.533 586.112 177.661 585.367C188.645 584.839 199.635 584.71 210.629 584.555C214.583 584.499 218.537 584.439 222.491 584.377C232.292 584.226 242.093 584.081 251.894 583.938C259.559 583.825 267.225 583.711 274.891 583.592C279.432 583.521 283.974 583.456 288.517 583.393C290.908 583.356 293.299 583.319 295.69 583.281C296.748 583.268 297.806 583.254 298.896 583.24C305.311 583.134 311.667 582.771 318.06 582.22C322.6 581.88 327.125 581.876 331.676 581.903Z" fill="#FBFBFB"/>
<path d="M60.1629 517.86C61.2914 517.857 62.4199 517.854 63.5826 517.851C67.3664 517.842 71.15 517.841 74.9338 517.839C77.6458 517.835 80.3579 517.83 83.07 517.824C90.4399 517.811 97.8099 517.805 105.18 517.8C109.785 517.797 114.39 517.793 118.995 517.789C131.754 517.776 144.512 517.766 157.271 517.763C158.087 517.763 158.903 517.762 159.744 517.762C160.562 517.762 161.38 517.762 162.223 517.761C163.88 517.761 165.538 517.761 167.195 517.76C168.017 517.76 168.839 517.76 169.686 517.759C183.003 517.755 196.319 517.738 209.636 517.715C223.319 517.691 237.003 517.679 250.686 517.677C258.364 517.676 266.042 517.671 273.721 517.653C280.259 517.637 286.798 517.632 293.337 517.64C296.67 517.644 300.003 517.642 303.336 517.629C306.958 517.617 310.579 517.622 314.201 517.633C315.764 517.621 315.764 517.621 317.358 517.608C329.588 517.69 340.303 520.912 349.449 529.227C359.862 540.071 363.17 552.111 363.042 566.86C363.039 567.549 363.036 568.239 363.033 568.949C363.025 570.633 363.013 572.317 362.999 574C345.708 574.47 328.416 574.928 311.124 575.375C310.464 575.392 309.803 575.41 309.122 575.427C262.653 576.629 216.185 577.529 169.706 578.238C163.427 578.334 157.149 578.431 150.871 578.528C149.649 578.547 148.428 578.565 147.17 578.585C118.911 579.024 90.6564 579.643 62.4021 580.326C58.1169 580.43 53.8316 580.532 49.5463 580.633C48.3568 580.661 48.3568 580.661 47.1432 580.69C34.7606 580.978 22.3857 581.111 9.99943 581C9.91134 577.188 9.85867 573.376 9.81193 569.563C9.78679 568.494 9.76165 567.424 9.73576 566.323C9.67384 559.574 10.4636 554.241 12.9994 548C13.2804 547.104 13.5615 546.209 13.851 545.285C17.4772 534.865 25.3852 527.167 34.9994 522C43.2847 518.146 51.1972 517.852 60.1629 517.86Z" fill="#FBFBFC"/>
<path d="M451 51C513.793 51 513.793 51 525.73 62.6953C531.407 68.9252 532.299 74.1922 532.291 82.4209C532.297 83.363 532.304 84.3051 532.311 85.2758C532.33 88.3871 532.334 91.4981 532.336 94.6094C532.342 96.7779 532.349 98.9463 532.356 101.115C532.368 105.661 532.372 110.207 532.371 114.753C532.37 120.565 532.398 126.376 532.432 132.187C532.454 136.667 532.458 141.147 532.457 145.627C532.46 147.769 532.469 149.91 532.484 152.052C532.504 155.056 532.498 158.058 532.486 161.062C532.497 161.938 532.508 162.814 532.52 163.717C532.441 171.498 530.147 177.8 525 183.688C505.395 201.781 474.415 196 451 196C451 148.15 451 100.3 451 51Z" fill="#FCFCFC"/>
<path d="M266.015 96.6779C267.18 96.6586 268.345 96.6394 269.546 96.6196C271.416 96.6069 271.416 96.6069 273.325 96.5939C274.622 96.5825 275.919 96.5711 277.255 96.5593C279.998 96.5384 282.741 96.5266 285.483 96.5197C288.969 96.5087 292.453 96.4607 295.939 96.4037C299.296 96.3571 302.654 96.3535 306.012 96.3439C307.249 96.3192 308.486 96.2945 309.76 96.269C319.487 96.3185 326.303 99.0116 333.719 105.309C334.601 106.363 334.601 106.363 335.5 107.438C336.109 108.138 336.717 108.838 337.344 109.559C341.61 115.847 342.467 121.082 342.469 128.52C342.48 129.868 342.48 129.868 342.492 131.243C342.503 133.136 342.506 135.03 342.501 136.923C342.5 139.794 342.542 142.663 342.586 145.533C342.664 157.401 341.845 165.726 333.688 174.875C324.915 182.963 314.741 184.311 303.258 184.301C302.135 184.305 301.012 184.309 299.855 184.314C297.487 184.32 295.118 184.32 292.75 184.316C289.144 184.313 285.539 184.336 281.934 184.361C279.625 184.364 277.317 184.364 275.008 184.363C273.405 184.377 273.405 184.377 271.769 184.391C261.72 184.33 253.339 182.266 245.996 175.024C239.17 167.707 235.361 161.379 235.469 151.258C235.465 150.45 235.461 149.641 235.457 148.808C235.455 147.109 235.462 145.41 235.479 143.711C235.5 141.138 235.479 138.569 235.453 135.996C235.432 124.007 236.593 114.795 245.141 105.754C251.362 99.8858 257.266 96.7951 266.015 96.6779Z" fill="#FBFBFB"/>
<path d="M406 33C435.903 33 435.903 33 441.343 38.27C443.393 41.6481 443.503 43.7412 443.508 47.6798C443.514 48.338 443.52 48.9962 443.527 49.6743C443.543 51.8725 443.53 54.0695 443.518 56.2676C443.523 57.8464 443.53 59.4252 443.539 61.004C443.557 65.2871 443.55 69.5698 443.537 73.8529C443.527 78.3362 443.537 82.8195 443.543 87.3029C443.55 94.8317 443.541 102.36 443.521 109.889C443.5 118.592 443.507 127.295 443.529 135.998C443.547 143.471 443.55 150.945 443.539 158.419C443.533 162.882 443.532 167.345 443.545 171.808C443.557 176.004 443.549 180.199 443.526 184.395C443.52 185.935 443.522 187.474 443.531 189.014C443.542 191.116 443.528 193.218 443.508 195.32C443.506 196.496 443.505 197.673 443.503 198.884C442.884 202.719 441.736 204.277 439 207C434 210 434 210 406 210C406 151.59 406 93.18 406 33Z" fill="#F9F9F9"/>
<path d="M294.884 243.902C296.05 243.905 297.217 243.909 298.419 243.912C299.642 243.92 300.865 243.929 302.126 243.937C303.357 243.942 304.588 243.946 305.856 243.951C308.904 243.963 311.953 243.979 315.001 244C314.571 255.27 313.959 266.464 312.727 277.678C312.215 282.452 311.878 287.189 311.709 291.987C311.126 307.825 307.782 324.753 296.481 336.664C291.635 341.038 286.929 341.554 280.618 341.34C275.993 340.739 273.456 338.838 270.602 335.234C261.881 322.429 263.893 304.899 266.489 290.408C269.441 275.486 273.159 257.239 284.751 246.437C288.443 244.078 290.491 243.881 294.884 243.902Z" fill="#FAFAFA"/>
<path d="M266.015 96.6779C267.18 96.6586 268.345 96.6394 269.546 96.6196C271.416 96.6069 271.416 96.6069 273.325 96.5939C274.622 96.5825 275.919 96.5711 277.255 96.5593C279.998 96.5384 282.741 96.5266 285.483 96.5197C288.969 96.5087 292.453 96.4607 295.939 96.4037C299.296 96.3571 302.654 96.3535 306.012 96.3439C307.249 96.3192 308.486 96.2945 309.76 96.269C319.487 96.3185 326.303 99.0116 333.719 105.309C334.601 106.363 334.601 106.363 335.5 107.438C336.109 108.138 336.717 108.838 337.344 109.559C341.61 115.847 342.467 121.082 342.469 128.52C342.48 129.868 342.48 129.868 342.492 131.243C342.503 133.136 342.506 135.03 342.501 136.923C342.5 139.794 342.542 142.663 342.586 145.533C342.664 157.401 341.845 165.726 333.688 174.875C324.915 182.963 314.741 184.311 303.258 184.301C302.135 184.305 301.012 184.309 299.855 184.314C297.487 184.32 295.118 184.32 292.75 184.316C289.144 184.313 285.539 184.336 281.934 184.361C279.625 184.364 277.317 184.364 275.008 184.363C273.405 184.377 273.405 184.377 271.769 184.391C261.72 184.33 253.339 182.266 245.996 175.024C239.17 167.707 235.361 161.379 235.469 151.258C235.465 150.45 235.461 149.641 235.457 148.808C235.455 147.109 235.462 145.41 235.479 143.711C235.5 141.138 235.479 138.569 235.453 135.996C235.432 124.007 236.593 114.795 245.141 105.754C251.362 99.8858 257.266 96.7951 266.015 96.6779ZM248.746 113.449C248.315 114.188 247.883 114.927 247.438 115.688C246.983 116.434 246.528 117.18 246.059 117.949C242.987 123.9 243.701 130.664 243.65 137.203C243.634 138.764 243.607 140.324 243.568 141.884C243.344 151.066 243.256 159.294 249 167C252.865 171.032 256.935 174.685 262.667 175.274C264.19 175.29 264.19 175.29 265.743 175.307C266.899 175.323 268.054 175.338 269.244 175.355C270.489 175.36 271.733 175.366 273.016 175.371C274.943 175.385 274.943 175.385 276.91 175.399C279.63 175.415 282.35 175.423 285.07 175.426C288.538 175.431 292.005 175.469 295.473 175.514C298.799 175.552 302.126 175.553 305.453 175.559C307.308 175.588 307.308 175.588 309.201 175.618C317.381 175.575 322.666 174.337 328.513 168.486C333.478 162.841 334.33 158.575 334.407 151.176C334.424 149.885 334.424 149.885 334.441 148.567C334.46 146.746 334.473 144.924 334.481 143.103C334.5 140.339 334.562 137.578 334.625 134.815C334.958 122.86 334.958 122.86 329.594 112.493C324.243 107.482 318.774 104.783 311.451 104.678C309.818 104.649 309.818 104.649 308.152 104.62C306.401 104.607 306.401 104.607 304.614 104.594C303.401 104.582 302.189 104.571 300.94 104.559C298.376 104.54 295.811 104.527 293.247 104.52C289.344 104.5 285.443 104.438 281.541 104.375C279.045 104.362 276.548 104.352 274.051 104.344C272.893 104.319 271.736 104.294 270.543 104.269C261.556 104.318 254.919 106.742 248.746 113.449Z" fill="#343434"/>
<path d="M540 84C557.61 84 557.61 84 564.812 90.5625C567.991 94.1038 568.132 96.7977 568.193 101.386C568.217 103.038 568.217 103.038 568.242 104.724C568.286 109.757 568.327 114.79 568.35 119.823C568.367 122.477 568.394 125.132 568.432 127.786C568.487 131.614 568.509 135.441 568.523 139.27C568.546 140.454 568.569 141.639 568.592 142.859C568.569 152.045 568.569 152.045 565.643 155.647C556.717 163.593 554.033 162 540 162C540 136.26 540 110.52 540 84Z" fill="#FAFAFA"/>
<path d="M576 111C583.476 110.91 590.951 110.836 598.428 110.793C601.9 110.772 605.371 110.744 608.843 110.698C612.836 110.646 616.83 110.627 620.824 110.609C622.689 110.578 622.689 110.578 624.59 110.547C625.751 110.547 626.912 110.546 628.108 110.546C629.637 110.533 629.637 110.533 631.197 110.519C634.794 111.136 636.457 112.419 639 115C639.515 117.91 639.704 120.109 639.625 123C639.644 123.712 639.664 124.423 639.684 125.156C639.65 128.789 639.41 130.584 636.827 133.206C633.576 135.269 631.921 135.487 628.108 135.454C626.947 135.454 625.787 135.454 624.59 135.453C623.348 135.433 622.105 135.412 620.824 135.391C619.544 135.385 618.264 135.379 616.945 135.374C613.553 135.358 610.162 135.319 606.77 135.275C603.304 135.234 599.839 135.216 596.373 135.195C589.582 135.151 582.791 135.082 576 135C576 127.08 576 119.16 576 111Z" fill="#F7F7F7"/>
<path d="M122 32.9998C123 33.9998 123 33.9998 123.375 36.3748C123.189 37.6742 123.189 37.6742 123 38.9998C119.533 41.4686 115.94 42.8134 111.937 44.1873C94.7116 50.7246 81.4164 63.4353 71.9998 78.9998C71.6063 79.6313 71.2129 80.2628 70.8074 80.9134C57.0228 103.353 56.4206 129.732 60.7576 155.219C60.8376 156.136 60.9175 157.054 60.9998 158C58.9998 160 58.9998 160 56.3748 160.125C55.5911 160.084 54.8073 160.042 53.9998 160C45.47 136.848 48.2457 108.78 57.8983 86.449C59.7214 82.504 61.7943 78.7418 63.9998 74.9998C64.5928 73.9596 65.1858 72.9193 65.7967 71.8475C76.3622 54.6672 94.4994 39.1068 114.101 33.3865C116.765 32.844 119.292 32.8795 122 32.9998Z" fill="#2F2F2F"/>
<path d="M60.4062 604.336C61.6097 604.329 61.6097 604.329 62.8375 604.322C64.5286 604.318 66.2197 604.328 67.9106 604.349C70.4927 604.375 73.0704 604.349 75.6523 604.317C77.2995 604.32 78.9466 604.327 80.5938 604.336C81.3616 604.326 82.1294 604.316 82.9205 604.306C86.9641 604.394 88.7948 604.836 91.9861 607.399C94.644 610.832 94.6636 612.662 94.4336 616.844C93.7929 620.031 92.334 621.804 90 624C85.2244 626.388 78.0497 625.355 72.7429 625.405C71.0445 625.427 69.3461 625.461 67.6482 625.508C65.1959 625.575 62.746 625.602 60.293 625.621C59.5376 625.649 58.7822 625.677 58.004 625.706C55.081 625.694 52.7264 625.587 50.398 623.706C47.8534 620.752 46.3046 618.371 46.375 614.438C46.3621 613.715 46.3492 612.992 46.3359 612.246C48.4157 605.212 53.9123 604.251 60.4062 604.336Z" fill="#EEEEEE"/>
<path d="M58.0004 86C58.6604 86.99 59.3204 87.98 60.0004 89C59.3404 89 58.6804 89 58.0004 89C58.0004 89.99 58.0004 90.98 58.0004 92C58.6604 92.33 59.3204 92.66 60.0004 93C59.0104 93.495 59.0104 93.495 58.0004 94C59.3204 94.66 60.6404 95.32 62.0004 96C61.5332 100.75 60.9494 105.359 59.977 110.031C58.8282 116.275 58.6986 122.353 58.7504 128.688C58.7528 129.819 58.7552 130.951 58.7577 132.117C58.8303 139.952 59.4447 147.5 60.7582 155.219C60.8381 156.137 60.9181 157.054 61.0004 158C59.0004 160 59.0004 160 56.3754 160.125C55.5916 160.084 54.8079 160.043 54.0004 160C45.423 136.718 48.369 108.489 58.0004 86Z" fill="#333434"/>
<path d="M40.9991 96C45.5546 96.5556 45.5546 96.5556 46.9991 98C46.6787 101.908 46.2572 105.718 45.4835 109.562C42.7436 123.34 43.0213 137.333 46.4405 150.934C47.0074 154.046 46.91 155.995 45.9991 159C44.9991 160 44.9991 160 42.4366 160.062C41.6322 160.042 40.8278 160.021 39.9991 160C38.9991 157 37.9991 154 36.9991 151C36.6585 150.087 36.3178 149.174 35.9669 148.234C34.2995 142.662 34.6174 137.028 34.6241 131.25C34.6242 129.96 34.6244 128.67 34.6246 127.341C34.9246 102.075 34.9246 102.075 40.9991 96Z" fill="#343434"/>
<path d="M60.4062 604.336C61.6097 604.329 61.6097 604.329 62.8375 604.322C64.5286 604.318 66.2197 604.328 67.9106 604.349C70.4927 604.375 73.0704 604.349 75.6523 604.317C77.2995 604.32 78.9466 604.327 80.5938 604.336C81.3616 604.326 82.1294 604.316 82.9205 604.306C86.9641 604.394 88.7948 604.836 91.9861 607.399C94.644 610.832 94.6636 612.662 94.4336 616.844C93.7929 620.031 92.334 621.804 90 624C85.2244 626.388 78.0497 625.355 72.7429 625.405C71.0445 625.427 69.3461 625.461 67.6482 625.508C65.1959 625.575 62.746 625.602 60.293 625.621C59.5376 625.649 58.7822 625.677 58.004 625.706C55.081 625.694 52.7264 625.587 50.398 623.706C47.8534 620.752 46.3046 618.371 46.375 614.438C46.3621 613.715 46.3492 612.992 46.3359 612.246C48.4157 605.212 53.9123 604.251 60.4062 604.336ZM51.5645 609.846C49.7751 611.973 49.7751 611.973 49.5 615C50.1278 618.767 50.9747 619.708 54 622C56.6326 622.399 58.8401 622.563 61.4688 622.532C62.1861 622.535 62.9034 622.539 63.6425 622.543C65.1554 622.546 66.6683 622.539 68.1812 622.522C70.4929 622.5 72.8016 622.522 75.1133 622.547C76.5859 622.545 78.0586 622.54 79.5312 622.532C80.2199 622.54 80.9085 622.548 81.618 622.556C84.9675 622.491 86.7355 622.201 89.4355 620.155C91.2249 618.028 91.2249 618.028 91.5 615C90.8722 611.234 90.0253 610.293 87 608C84.3674 607.602 82.1599 607.438 79.5312 607.469C78.8139 607.465 78.0966 607.461 77.3575 607.458C75.8446 607.455 74.3317 607.462 72.8188 607.479C70.5071 607.5 68.1984 607.479 65.8867 607.454C64.4141 607.456 62.9414 607.461 61.4688 607.469C60.7801 607.461 60.0915 607.453 59.382 607.445C56.0325 607.51 54.2645 607.8 51.5645 609.846Z" fill="#2D2C2B"/>
<path d="M647 120C652.072 119.901 657.143 119.829 662.216 119.78C663.942 119.76 665.667 119.733 667.393 119.698C669.873 119.65 672.352 119.627 674.832 119.61C675.604 119.589 676.376 119.568 677.171 119.547C679.355 119.546 679.355 119.546 683 120C685.01 122.025 685.01 122.025 686 124C684 126 684 126 680.376 126.227C678.821 126.227 677.266 126.216 675.711 126.195C674.483 126.191 674.483 126.191 673.231 126.187C670.612 126.176 667.994 126.151 665.375 126.125C663.602 126.115 661.828 126.106 660.055 126.098C655.703 126.076 651.352 126.041 647 126C647 124.02 647 122.04 647 120Z" fill="#E5E6E6"/>
<path d="M289.438 126.812C292 127 292 127 294 129C294.451 132.459 294.324 135.952 294.312 139.438C294.329 140.405 294.345 141.372 294.361 142.369C294.362 143.762 294.362 143.762 294.363 145.184C294.368 146.461 294.368 146.461 294.372 147.763C293.922 150.47 293.191 151.39 291 153C288.863 152.749 287.541 152.541 286 151C285.901 149.304 285.869 147.605 285.867 145.906C285.865 144.361 285.865 144.361 285.863 142.785C285.867 141.701 285.871 140.617 285.875 139.5C285.871 138.416 285.867 137.332 285.863 136.215C285.865 135.185 285.866 134.155 285.867 133.094C285.868 132.142 285.869 131.19 285.871 130.209C286.054 127.085 286.308 127.053 289.438 126.812Z" fill="#343333"/>
</g>
<defs>
<clipPath id="clip0_270_157">
<rect width="698" height="669" fill="white"/>
</clipPath>
</defs>
</svg>
