<svg width="1153" height="701" viewBox="0 0 1153 701" fill="none" xmlns="http://www.w3.org/2000/svg">
<g clip-path="url(#clip0_273_724)">
<path d="M963.801 193.293C974.557 198.047 983.348 205.876 987.771 216.926C989.938 223.353 991.4 229.871 992.812 236.5C994.38 243.749 995.972 250.984 997.758 258.183C998.039 259.319 998.32 260.455 998.61 261.625C999.152 263.795 999.701 265.963 1000.26 268.129C1000.5 269.106 1000.75 270.083 1001 271.09C1001.21 271.944 1001.43 272.799 1001.66 273.679C1002.04 276.269 1002.11 277.621 1001 280C998.833 281.549 998.833 281.549 995.953 283.031C994.891 283.588 993.83 284.145 992.736 284.719C991.586 285.306 990.435 285.894 989.25 286.5C987.454 287.438 985.661 288.382 983.868 289.326C982.655 289.965 981.442 290.602 980.228 291.238C974.876 294.045 969.611 296.985 964.375 300C963.541 300.479 962.707 300.958 961.848 301.452C954.076 305.934 946.334 310.469 938.589 315C932.471 318.575 926.325 322.09 920.135 325.539C914.231 328.842 908.398 332.265 902.562 335.687C894.075 340.663 885.534 345.528 876.938 350.312C869.918 354.222 862.933 358.155 856.071 362.335C850.155 365.932 844.172 369.414 838.192 372.903C825.193 380.49 812.299 388.236 799.449 396.074C793.902 399.457 788.331 402.798 782.75 406.125C774.223 411.215 765.799 416.463 757.394 421.75C755.511 422.934 753.625 424.113 751.737 425.288C749.884 426.447 748.041 427.623 746.208 428.813C745.327 429.372 744.447 429.932 743.539 430.508C742.76 431.012 741.981 431.516 741.178 432.035C739 433 739 433 736.81 432.754C732.525 430.968 730.822 425.983 729 422C725.68 412.96 723.35 403.576 721.108 394.222C716.342 374.366 710.033 359.357 692 348C687.466 345.751 682.918 344.162 678 343C678 342.34 678 341.68 678 341C679.91 339.688 681.807 338.526 683.812 337.375C685.189 336.568 686.565 335.76 687.941 334.953C688.73 334.493 689.52 334.034 690.333 333.56C693.343 331.799 696.342 330.018 699.34 328.234C717.541 317.406 735.848 306.775 754.246 296.285C758.347 293.946 762.442 291.598 766.535 289.246C779.785 281.639 793.091 274.151 806.483 266.796C813.958 262.69 821.399 258.529 828.812 254.312C837.654 249.287 846.569 244.411 855.522 239.588C860.963 236.655 866.378 233.684 871.75 230.625C892.213 219.016 913.143 208.179 934.1 197.492C935.861 196.586 937.613 195.664 939.349 194.713C947.033 190.572 955.601 190.165 963.801 193.293Z" fill="#333333"/>
<path d="M709.842 455.26C712.323 456.11 714.393 457.234 716.656 458.562C717.582 459.103 718.507 459.643 719.46 460.2C720.464 460.794 721.467 461.388 722.5 462C724.084 462.931 724.084 462.931 725.7 463.881C746.462 476.131 766.979 488.795 787.49 501.46C789.984 502.99 792.489 504.499 795 506C793.474 509.607 791.339 511.897 788.57 514.641C787.651 515.556 786.733 516.471 785.787 517.414C784.781 518.406 783.775 519.398 782.77 520.39C781.735 521.419 780.701 522.448 779.667 523.477C776.943 526.187 774.214 528.892 771.483 531.595C767.13 535.906 762.782 540.223 758.439 544.544C756.931 546.042 755.419 547.536 753.908 549.03C749.283 553.622 744.808 558.255 740.569 563.205C738.063 566.072 735.369 568.736 732.656 571.406C731.797 572.259 731.797 572.259 730.921 573.13C728.511 575.524 726.095 577.912 723.679 580.3C714.841 589.033 714.841 589.033 706.521 598.256C703.841 601.328 700.912 604.149 698 607C692.666 612.278 687.341 617.563 682.817 623.571C678.736 628.747 674.148 631.683 668.438 634.875C666.463 636.01 664.489 637.145 662.516 638.281C661.463 638.88 660.411 639.48 659.326 640.097C654.038 643.122 648.786 646.208 643.532 649.292C641.675 650.382 639.817 651.47 637.959 652.558C630.069 657.179 622.21 661.849 614.375 666.562C605.909 671.655 597.438 676.74 588.947 681.79C587.741 682.508 586.537 683.226 585.333 683.946C583.664 684.943 581.992 685.936 580.32 686.929C578.886 687.784 578.886 687.784 577.422 688.655C571.475 691.956 564.917 691.861 558.371 690.422C552.336 688.344 548.655 685.056 544.348 680.437C534.763 670.485 523.158 663.392 510.938 657.187C501.498 652.334 492.202 647.288 483 642C491.175 633.738 499.963 626.295 509 619C514.882 614.222 520.724 609.405 526.5 604.5C531.266 600.452 536.073 596.46 540.922 592.511C544.792 589.354 548.646 586.177 552.5 583C558.018 578.452 563.544 573.914 569.082 569.39C572.061 566.95 575.033 564.501 578.004 562.05C584.969 556.306 591.955 550.59 598.968 544.904C605.369 539.71 611.73 534.467 618.09 529.222C623.929 524.408 629.785 519.614 635.656 514.84C640.646 510.774 645.594 506.666 650.5 502.5C655.269 498.45 660.079 494.456 664.93 490.504C673.991 483.114 683.03 475.699 691.938 468.125C692.976 467.247 694.015 466.369 695.055 465.492C697.006 463.841 698.949 462.179 700.883 460.508C701.767 459.762 702.651 459.017 703.562 458.25C704.327 457.595 705.091 456.94 705.879 456.265C708 455 708 455 709.842 455.26Z" fill="#333333"/>
<path d="M644 374C656.963 375.127 667.407 381.774 676.078 391.168C681.7 399.452 684.081 408.426 686.063 418.125C688.026 427.64 690.018 436.698 696.125 444.5C696.623 445.15 697.12 445.799 697.633 446.469C698.942 448.125 698.942 448.125 701 449C701 449.66 701 450.32 701 451C699.27 452.559 699.27 452.559 696.813 454.438C692.648 457.685 688.579 461.011 684.563 464.438C679.769 468.515 674.934 472.534 670.055 476.508C666.319 479.556 662.596 482.621 658.875 485.688C658.151 486.284 657.427 486.881 656.681 487.495C655.194 488.72 653.708 489.945 652.222 491.169C648.649 494.114 645.074 497.057 641.5 500C640.083 501.167 638.667 502.333 637.25 503.5C634.417 505.833 631.583 508.167 628.75 510.5C628.049 511.078 627.347 511.655 626.624 512.251C625.21 513.415 623.796 514.579 622.382 515.743C618.799 518.693 615.219 521.646 611.645 524.605C605.094 530.025 598.527 535.409 591.813 540.625C586.393 544.836 581.163 549.233 575.975 553.724C571.859 557.283 567.666 560.721 563.399 564.098C559.45 567.229 555.56 570.431 551.667 573.631C550.466 574.617 549.265 575.603 548.064 576.588C540.77 582.571 533.487 588.561 526.313 594.688C521.902 598.454 517.396 602.07 512.813 605.625C507.797 609.516 503.038 613.587 498.36 617.883C495.186 620.731 491.878 623.378 488.516 626C486.762 627.394 485.045 628.836 483.36 630.312C482.498 631.055 481.637 631.798 480.75 632.562C479.982 633.244 479.214 633.926 478.422 634.629C475.151 636.481 473.613 635.86 470 635C467.31 633.776 467.31 633.776 464.578 632.227C463.561 631.654 462.544 631.082 461.496 630.493C460.425 629.877 459.354 629.26 458.25 628.625C457.143 627.994 456.036 627.363 454.895 626.712C451.59 624.82 448.294 622.911 445 621C444.083 620.474 443.166 619.948 442.221 619.407C423.844 608.842 413.151 597.553 407.438 576.812C405.442 569.168 405.442 569.168 407 565C408.899 563.078 408.899 563.078 411.375 561.25C412.289 560.556 413.203 559.863 414.145 559.148C415.087 558.439 416.029 557.73 417 557C418.695 555.634 420.383 554.259 422.063 552.875C422.97 552.131 423.878 551.387 424.813 550.621C427.253 548.616 429.689 546.607 432.125 544.598C438.835 539.063 445.544 533.531 452.352 528.117C460.452 521.642 468.477 515.071 476.5 508.5C496.15 492.415 496.15 492.415 504.938 485.562C511.033 480.808 517.003 475.911 522.96 470.985C528.264 466.601 533.613 462.281 539 458C540.149 457.08 541.297 456.159 542.445 455.238C548.585 450.314 554.738 445.411 560.938 440.562C566.693 436.06 572.367 431.465 578.028 426.845C582.42 423.266 586.85 419.74 591.313 416.25C592.452 415.353 593.591 414.456 594.731 413.559C596.863 411.881 599.011 410.235 601.176 408.598C602.149 407.844 603.122 407.089 604.125 406.312C604.973 405.669 605.822 405.026 606.695 404.363C609.701 401.281 611.279 397.909 613 394C614.29 393.951 615.581 393.902 616.91 393.852C618.628 393.776 620.345 393.701 622.063 393.625C622.91 393.594 623.758 393.563 624.631 393.531C633.385 393.298 633.385 393.298 640.863 389.297C642.348 386.298 642.757 383.563 643.188 380.25C643.346 379.08 643.505 377.909 643.668 376.703C643.778 375.811 643.887 374.919 644 374Z" fill="#333333"/>
<path d="M331.989 227.166C334.183 228.076 336.147 229.117 338.184 230.344C339.014 230.839 339.844 231.335 340.699 231.846C342.055 232.664 342.055 232.664 343.438 233.5C345.425 234.688 347.414 235.875 349.402 237.062C350.999 238.018 350.999 238.018 352.628 238.992C357.951 242.161 363.298 245.288 368.645 248.415C386.485 258.85 404.299 269.33 422 280C420.71 283.869 418.423 285.061 415.188 287.25C413.902 288.143 412.618 289.039 411.336 289.937C410.289 290.67 410.289 290.67 409.222 291.418C405.195 294.285 401.258 297.272 397.312 300.25C389.865 305.86 382.381 311.418 374.867 316.938C369.866 320.615 364.893 324.326 359.938 328.062C354.401 332.233 348.814 336.326 343.188 340.375C330.14 349.767 317.201 359.288 304.438 369.062C296.537 375.111 288.538 380.998 280.453 386.797C268.336 395.492 256.397 404.432 244.479 413.396C238.866 417.613 233.224 421.786 227.562 425.937C219.639 431.748 211.814 437.68 204.028 443.671C191.912 452.965 191.912 452.965 187.688 453.125C176.414 449.686 168.7 440.621 162.188 431.25C153.377 418.587 142.361 404.903 126.52 401.461C120.482 400.67 114.404 400.6 108.322 400.394C107.328 400.357 106.333 400.32 105.309 400.281C104.409 400.251 103.51 400.221 102.584 400.189C99.9854 399.999 97.5408 399.565 95 399C96.5117 394.833 99.4709 392.949 103 390.562C104.277 389.675 105.553 388.787 106.828 387.898C107.846 387.194 107.846 387.194 108.885 386.475C112.54 383.926 116.142 381.303 119.75 378.687C121.286 377.576 122.823 376.466 124.359 375.355C125.127 374.8 125.895 374.245 126.686 373.673C130.456 370.947 134.228 368.224 138 365.5C139.5 364.417 141 363.333 142.5 362.25C181.5 334.083 220.5 305.917 259.5 277.75C260.243 277.214 260.985 276.677 261.75 276.125C263.249 275.042 264.749 273.959 266.248 272.877C270.012 270.159 273.775 267.439 277.535 264.715C285.513 258.937 293.52 253.206 301.577 247.539C307.016 243.708 312.421 239.833 317.812 235.937C318.572 235.389 319.331 234.84 320.113 234.275C324.142 231.391 324.142 231.391 327.983 228.268C330 227 330 227 331.989 227.166Z" fill="#333333"/>
<path d="M260 143C275.121 145.326 290.974 155.239 300.219 167.152C306.263 176.816 309.099 186.778 311.961 197.744C313.872 204.794 316.083 210.83 320 217C320.598 218.011 321.196 219.021 321.812 220.062C322.204 220.702 322.596 221.341 323 222C315.368 227.999 307.604 233.756 299.653 239.325C294.401 243.004 289.191 246.736 284 250.5C278.134 254.752 272.24 258.96 266.312 263.125C260.401 267.281 254.544 271.503 248.727 275.79C241.621 281.025 234.458 286.182 227.298 291.343C223.531 294.06 219.765 296.78 216 299.5C214.5 300.583 213 301.667 211.5 302.75C210.386 303.554 210.386 303.554 209.25 304.375C207 306 204.75 307.625 202.5 309.25C201.386 310.055 201.386 310.055 200.249 310.876C198.752 311.957 197.256 313.038 195.759 314.118C191.958 316.863 188.158 319.608 184.359 322.355C177.027 327.657 169.686 332.947 162.318 338.199C155.294 343.21 148.306 348.271 141.314 353.327C138.291 355.513 135.266 357.697 132.241 359.882C130.745 360.962 129.25 362.042 127.755 363.122C123.983 365.848 120.209 368.57 116.43 371.285C115.299 372.099 115.299 372.099 114.145 372.929C112.644 374.009 111.142 375.088 109.638 376.165C105.863 378.88 102.145 381.646 98.4883 384.52C97.7646 385.083 97.041 385.646 96.2954 386.226C94.9242 387.299 93.5625 388.384 92.2124 389.483C87.7547 392.956 87.7547 392.956 84.5703 393.141C80.6918 391.419 77.231 389.199 73.6875 386.875C71.981 385.777 70.2739 384.679 68.5664 383.582C67.6629 382.999 66.7595 382.416 65.8286 381.815C60.9545 378.688 56.0389 375.627 51.125 372.562C50.1211 371.935 49.1171 371.308 48.0828 370.662C39.5799 365.353 31.0588 360.074 22.5312 354.805C18.3454 352.217 14.1702 349.613 10 347C10.0541 344.315 10.4523 342.562 12.354 340.61C14.297 339.048 16.2863 337.578 18.3125 336.125C19.0701 335.564 19.8278 335.003 20.6084 334.425C22.2325 333.223 23.8608 332.027 25.4927 330.835C28.7758 328.432 32.0281 325.989 35.2803 323.544C36.9423 322.295 38.6057 321.047 40.2705 319.802C46.3966 315.217 52.4848 310.585 58.5625 305.938C66.0221 300.235 73.5436 294.627 81.1174 289.078C86.2926 285.279 91.4123 281.415 96.5 277.5C103.14 272.39 109.862 267.401 116.622 262.45C122.742 257.956 128.785 253.368 134.812 248.75C141.005 244.007 147.232 239.349 153.615 234.866C159.014 231.048 164.252 227.023 169.5 223C175.825 218.152 182.176 213.377 188.692 208.79C193.787 205.189 198.768 201.443 203.75 197.688C212.334 191.22 221.006 184.889 229.738 178.624C233.705 175.776 237.665 172.919 241.625 170.062C242.347 169.543 243.069 169.023 243.813 168.488C245.197 167.49 246.575 166.486 247.948 165.474C249.353 164.464 250.789 163.496 252.247 162.565C257.092 159.344 257.092 159.344 259.219 154.133C259.349 152.8 259.443 151.463 259.5 150.125C259.589 149.092 259.589 149.092 259.68 148.039C259.819 146.362 259.914 144.681 260 143Z" fill="#333333"/>
<path d="M468 282C480.39 286.652 488.328 295.253 494 307C495.628 311.327 496.922 315.751 498.229 320.184C500.622 327.855 504.123 334.421 510 340C508.853 343.441 508.072 343.949 505.203 346.004C504.416 346.574 503.629 347.145 502.819 347.732C501.971 348.336 501.123 348.94 500.25 349.562C498.493 350.835 496.736 352.108 494.98 353.383C494.121 354.004 493.262 354.626 492.376 355.267C489.397 357.44 486.476 359.675 483.562 361.938C478.167 366.12 472.717 370.224 467.25 374.312C460.89 379.07 454.552 383.853 448.25 388.688C442.299 393.253 436.316 397.773 430.309 402.264C423.673 407.231 417.086 412.26 410.497 417.288C405.106 421.4 399.697 425.485 394.266 429.543C388.812 433.633 383.406 437.785 377.987 441.921C372.616 446.017 367.227 450.086 361.812 454.125C355.378 458.928 349.037 463.845 342.71 468.79C337.848 472.583 332.945 476.315 328 480C319.945 486.004 312.026 492.177 304.107 498.359C299.092 502.265 294.051 506.14 289 510C288.327 510.605 287.654 511.209 286.961 511.832C285 513 285 513 282.578 512.906C270.415 508.631 261.122 496.511 253.305 486.828C241.378 472.192 227.114 458.407 207.562 456.375C206.042 456.244 204.522 456.116 203 456C203 455.34 203 454.68 203 454C205.233 452.164 207.477 450.448 209.812 448.75C210.53 448.22 211.248 447.69 211.988 447.144C214.32 445.423 216.66 443.711 219 442C222.064 439.752 225.126 437.501 228.188 435.25C228.973 434.674 229.758 434.098 230.566 433.504C236.702 428.989 242.765 424.382 248.812 419.75C255.06 414.967 261.338 410.254 267.766 405.717C275.112 400.528 282.322 395.152 289.553 389.806C291.932 388.05 294.315 386.301 296.699 384.555C305.136 378.37 313.507 372.11 321.812 365.75C328.058 360.969 334.334 356.257 340.76 351.721C352.321 343.554 363.64 335.043 374.95 326.533C380.813 322.126 386.721 317.78 392.633 313.437C399.452 308.421 406.224 303.344 412.976 298.237C414.521 297.072 416.071 295.914 417.625 294.762C419.308 293.514 420.977 292.247 422.636 290.968C423.508 290.317 424.379 289.667 425.277 288.996C426.062 288.399 426.847 287.801 427.656 287.185C430.619 285.687 431.886 285.997 435 287C437.333 288 439.667 289 442 290C444.779 290.691 444.779 290.691 447 291C447 291.66 447 292.32 447 293C449.399 292.967 451.79 292.899 454.188 292.812C454.861 292.807 455.535 292.801 456.229 292.795C460.121 292.624 461.878 292.099 464.938 289.625C467.049 286.938 467.712 285.364 468 282Z" fill="#333333"/>
<path d="M797 101C814.366 110.923 819.908 126.413 825.301 144.809C825.996 147.981 826.132 150.765 826 154C823.766 155.219 821.531 156.438 819.297 157.656C817.32 158.735 815.342 159.814 813.365 160.893C808.396 163.605 803.425 166.313 798.449 169.012C786.187 175.667 774.017 182.472 761.887 189.363C759.022 190.988 756.152 192.605 753.281 194.219C742.575 200.242 731.927 206.353 721.328 212.561C713.621 217.069 705.881 221.515 698.125 225.938C679.013 236.837 659.932 247.79 641 259C639.977 259.605 638.955 260.21 637.901 260.833C618.412 272.353 618.412 272.353 599 284C598.036 284.583 597.072 285.166 596.079 285.767C579.845 295.592 563.656 305.49 547.51 315.461C545.016 316.99 542.511 318.499 540 320C534.591 312.304 532.255 304.117 529.57 295.174C525.283 281.553 518.438 270.546 505.902 263.18C501.036 260.683 496.214 258.659 491 257C493.834 253.948 496.616 251.869 500.234 249.82C501.789 248.933 501.789 248.933 503.375 248.027C504.489 247.4 505.603 246.772 506.75 246.125C508.518 245.119 510.285 244.111 512.052 243.103C513.259 242.414 514.467 241.726 515.676 241.039C521.502 237.724 527.282 234.333 533.062 230.938C543.255 224.971 553.539 219.179 563.855 213.43C569.71 210.167 575.544 206.869 581.375 203.563C593.061 196.945 604.801 190.427 616.547 183.916C619.991 182.005 623.431 180.089 626.871 178.172C638.481 171.703 650.116 165.286 661.815 158.977C670.223 154.438 678.584 149.813 686.942 145.181C697.814 139.161 708.76 133.288 719.752 127.491C726.373 123.987 732.879 120.347 739.331 116.543C742.757 114.563 746.251 112.782 749.812 111.063C756.022 108.016 762.142 104.834 768.216 101.526C777.386 96.5625 787.548 96.4197 797 101Z" fill="#333333"/>
<path d="M517 346C521.667 346.404 525.166 348.664 529.062 351.062C530.581 351.976 532.101 352.887 533.621 353.797C534.468 354.304 535.315 354.811 536.187 355.334C541.629 358.557 547.13 361.681 552.625 364.812C553.222 365.153 553.819 365.493 554.434 365.844C558.04 367.901 561.648 369.955 565.256 372.007C566.954 372.974 568.651 373.941 570.348 374.909C573.438 376.671 576.531 378.43 579.625 380.188C580.529 380.704 581.434 381.22 582.366 381.751C592.372 387.547 592.372 387.547 603 392C602.766 395.265 601.883 396.105 599.402 398.34C598.255 399.215 597.099 400.08 595.938 400.938C594.659 401.91 593.382 402.884 592.105 403.859C591.434 404.369 590.763 404.879 590.072 405.404C586.576 408.097 583.165 410.894 579.75 413.688C578.393 414.793 577.037 415.899 575.68 417.004C575.045 417.521 574.411 418.038 573.757 418.571C568.823 422.585 563.853 426.553 558.844 430.473C551.051 436.57 543.341 442.76 535.672 449.012C532.025 451.984 528.351 454.923 524.672 457.855C521.183 460.656 517.718 463.486 514.25 466.312C509.146 470.472 504.008 474.58 498.812 478.625C493.703 482.605 488.743 486.73 483.826 490.944C479.594 494.548 475.23 497.944 470.802 501.303C466.113 504.875 461.603 508.64 457.094 512.438C453.81 515.181 450.44 517.81 447.062 520.438C441.805 524.531 436.684 528.755 431.618 533.081C427.631 536.482 423.573 539.777 419.469 543.035C416.757 545.194 414.063 547.373 411.375 549.562C410.461 550.302 409.547 551.042 408.605 551.805C405.558 554.372 402.723 557.12 399.949 559.98C398 561 398 561 395.176 560.418C383.927 555.396 374.702 547.454 365.561 539.376C348.555 524.377 332.35 517.225 309.688 517.75C308.157 517.77 306.626 517.788 305.096 517.805C301.397 517.848 297.698 517.917 294 518C294 517.34 294 516.68 294 516C295.862 514.416 297.726 512.951 299.688 511.5C300.896 510.589 302.104 509.677 303.312 508.766C303.931 508.302 304.55 507.839 305.188 507.361C307.871 505.346 310.529 503.298 313.188 501.25C313.716 500.844 314.244 500.438 314.788 500.02C318.623 497.07 322.442 494.099 326.258 491.124C340.427 480.075 354.716 469.186 369.114 458.437C374.124 454.685 379.068 450.853 384 447C391.614 441.053 399.308 435.223 407.054 429.45C417.492 421.671 427.873 413.821 438.221 405.923C444.09 401.447 449.982 397.003 455.894 392.585C462.462 387.668 468.982 382.688 475.504 377.711C479.989 374.289 484.481 370.877 489 367.5C494.754 363.199 500.471 358.851 506.188 354.5C507.134 353.78 508.081 353.06 509.057 352.318C509.939 351.646 510.821 350.974 511.73 350.281C512.529 349.673 513.327 349.066 514.149 348.439C515.91 347.132 515.91 347.132 517 346Z" fill="#333333"/>
<path d="M1006.11 287.146C1008.3 288.135 1010.14 289.305 1012.1 290.691C1017.05 294.086 1022.19 297.022 1027.44 299.937C1029.47 301.078 1031.51 302.22 1033.54 303.363C1035.13 304.252 1035.13 304.252 1036.74 305.159C1042.26 308.278 1047.76 311.45 1053.25 314.625C1054.33 315.25 1055.41 315.875 1056.53 316.519C1059.69 318.345 1062.84 320.172 1066 322C1067.96 323.131 1069.91 324.263 1071.87 325.394C1076.25 327.928 1080.62 330.463 1085 333C1082.78 335.424 1080.6 336.921 1077.7 338.461C1076.84 338.925 1075.97 339.39 1075.08 339.869C1074.15 340.366 1073.21 340.863 1072.25 341.375C1070.24 342.457 1068.23 343.54 1066.22 344.625C1065.19 345.183 1064.16 345.741 1063.09 346.316C1058.26 348.949 1053.47 351.658 1048.69 354.375C1046.76 355.469 1044.83 356.563 1042.9 357.656C1041.93 358.205 1040.97 358.754 1039.97 359.32C1026.19 367.119 1012.35 374.814 998.5 382.5C994 384.999 989.5 387.499 985 390C983.884 390.62 982.769 391.239 981.619 391.878C966.056 400.511 966.056 400.511 950.723 409.542C936.589 418.129 922.206 426.311 907.875 434.562C889.461 445.169 871.194 456.021 853 467C851.517 467.893 851.517 467.893 850.005 468.805C846.897 470.679 843.792 472.557 840.688 474.437C839.727 475.017 838.766 475.596 837.776 476.193C836.864 476.747 835.951 477.3 835.012 477.871C834.147 478.395 833.283 478.92 832.392 479.46C830.192 480.877 828.188 482.405 826.145 484.035C823 486 823 486 820.551 485.594C819.709 485.068 818.867 484.542 818 484C816.786 483.322 815.571 482.645 814.355 481.969C812.964 481.15 811.574 480.327 810.188 479.5C809.442 479.058 808.696 478.617 807.928 478.162C802.189 474.748 796.518 471.231 790.866 467.673C786.586 464.981 782.279 462.342 777.938 459.75C777.061 459.225 777.061 459.225 776.167 458.689C773.155 456.883 770.14 455.083 767.119 453.292C763.949 451.411 760.787 449.519 757.625 447.625C756.595 447.017 755.565 446.41 754.504 445.784C753.546 445.208 752.588 444.632 751.602 444.039C750.739 443.525 749.876 443.012 748.987 442.483C747 441 747 441 746 438C751.947 434.313 757.897 430.63 763.848 426.95C765.91 425.675 767.971 424.398 770.031 423.12C786.933 412.637 803.982 402.421 821.105 392.303C824.803 390.117 828.498 387.925 832.191 385.73C851.962 373.986 871.8 362.369 891.781 350.985C901.097 345.678 910.366 340.294 919.616 334.871C926.159 331.046 932.757 327.34 939.401 323.695C945.983 320.06 952.422 316.2 958.839 312.285C963.824 309.254 968.878 306.404 974.012 303.633C977.312 301.829 980.577 299.967 983.84 298.098C985.608 297.092 987.377 296.087 989.146 295.084C990.355 294.394 991.562 293.701 992.767 293.004C994.535 291.982 996.311 290.976 998.09 289.973C999.13 289.377 1000.17 288.782 1001.24 288.168C1004 287 1004 287 1006.11 287.146Z" fill="#333333"/>
<path d="M633.312 12.4376C644.185 17.5575 652.938 27.8005 657 39.0001C658.189 42.8905 659.23 46.8125 660.25 50.7501C660.531 51.7904 660.812 52.8306 661.102 53.9024C661.362 54.8989 661.622 55.8953 661.891 56.922C662.128 57.8253 662.366 58.7286 662.61 59.6593C663 62.0001 663 62.0001 662 65.0001C660.4 65.752 658.79 66.4874 657.145 67.1334C652.964 68.8227 648.968 70.9208 644.938 72.9376C643.974 73.4192 643.011 73.9008 642.019 74.3971C634.41 78.2308 626.924 82.2626 619.465 86.3768C612.53 90.1925 605.532 93.8693 598.5 97.5001C588.804 102.511 579.2 107.666 569.633 112.918C563.588 116.234 557.513 119.491 551.438 122.75C541.429 128.125 531.469 133.582 521.53 139.084C513.253 143.665 504.953 148.201 496.625 152.688C486.961 157.9 477.389 163.262 467.844 168.688C462.814 171.545 457.766 174.367 452.713 177.182C441.454 183.457 430.286 189.873 419.168 196.395C414.765 198.975 410.35 201.532 405.926 204.074C405.04 204.583 405.04 204.583 404.137 205.103C401.276 206.747 398.415 208.389 395.551 210.027C394.006 210.915 394.006 210.915 392.43 211.82C391.472 212.369 390.513 212.917 389.526 213.482C387.426 214.744 385.516 216.074 383.57 217.555C381 219 381 219 378.52 218.473C377.688 217.987 376.857 217.501 376 217C374.49 216.194 374.49 216.194 372.949 215.371C359.144 207.187 352.138 197.762 348.086 182.152C347.505 179.75 346.934 177.345 346.375 174.938C345.802 172.53 345.226 170.122 344.648 167.715C344.376 166.579 344.104 165.443 343.823 164.273C342.698 159.801 341.392 155.396 340 151C340.73 150.616 340.73 150.616 341.474 150.225C343.796 149.004 346.117 147.784 348.438 146.563C349.298 146.11 350.158 145.658 351.044 145.192C355.196 143.008 359.345 140.82 363.484 138.613C372.916 133.587 382.424 128.746 392 124C408.705 115.718 408.705 115.718 425.25 107.125C432.744 103.149 440.287 99.2711 447.863 95.4527C449.107 94.8245 450.351 94.1942 451.593 93.5617C453.346 92.6705 455.102 91.7883 456.859 90.9063C458.383 90.1377 458.383 90.1377 459.937 89.3536C463.269 87.8812 466.481 86.9243 470 86.0001C470 85.3401 470 84.6801 470 84.0001C471.052 83.4769 472.103 82.9537 473.187 82.4146C499.135 69.5409 499.135 69.5409 524.823 56.1612C529.101 53.8794 533.395 51.6282 537.688 49.3751C538.483 48.9555 539.278 48.5359 540.098 48.1036C548.006 43.9509 556.004 39.9794 564 36.0001C565.482 35.2622 566.964 34.5242 568.446 33.7862C569.191 33.415 569.936 33.0438 570.704 32.6614C573.761 31.1386 576.817 29.6148 579.874 28.0907C581.421 27.3195 582.969 26.5489 584.517 25.7791C586.819 24.6347 589.118 23.4877 591.418 22.3399C592.156 21.9728 592.894 21.6057 593.655 21.2274C597.058 19.5238 600.426 17.7863 603.736 15.9076C613.796 10.2118 621.95 8.62643 633.312 12.4376Z" fill="#333333"/>
<path d="M831 163C831.629 164.027 832.258 165.055 832.906 166.113C836.707 171.663 842.682 174.138 848.5 177.188C849.715 177.84 850.929 178.494 852.141 179.151C854.59 180.475 857.043 181.793 859.498 183.107C864.484 185.802 869.402 188.608 874.312 191.438C875.99 192.4 877.667 193.362 879.344 194.324C880.125 194.773 880.906 195.222 881.711 195.685C885.241 197.713 888.777 199.731 892.312 201.75C894.208 202.833 896.104 203.917 898 205C895.681 207.567 893.315 209.066 890.266 210.68C889.311 211.189 888.357 211.699 887.374 212.224C886.343 212.769 885.312 213.314 884.25 213.875C876.008 218.283 867.812 222.753 859.688 227.375C851.358 232.108 843.003 236.792 834.625 241.438C823.805 247.438 813.002 253.467 802.211 259.52C797.97 261.898 793.724 264.27 789.477 266.637C779.72 272.077 769.984 277.538 760.382 283.248C754.535 286.715 748.615 290.047 742.688 293.375C734.585 297.93 726.571 302.604 718.619 307.416C712.222 311.283 705.776 315.06 699.312 318.813C690.737 323.798 682.196 328.838 673.688 333.938C672.681 334.54 671.674 335.142 670.636 335.763C652.858 345.327 652.858 345.327 639.688 359.938C638 363 638 363 636.157 363.668C622.728 365.736 611.95 364.475 600.378 357.434C597.627 355.775 594.835 354.198 592.035 352.621C585.314 348.819 578.653 344.92 572 341C570.872 340.34 569.744 339.679 568.582 338.999C565.338 337.096 562.105 335.176 558.875 333.25C557.381 332.374 557.381 332.374 555.857 331.48C554.501 330.662 554.501 330.662 553.117 329.828C552.319 329.353 551.521 328.877 550.699 328.388C550.138 327.93 549.578 327.472 549 327C549 326.01 549 325.02 549 324C550.427 322.748 550.427 322.748 552.453 321.504C553.208 321.034 553.962 320.564 554.74 320.079C555.568 319.579 556.397 319.078 557.25 318.563C558.1 318.038 558.951 317.513 559.827 316.972C562.543 315.301 565.27 313.648 568 312C569.313 311.206 569.313 311.206 570.653 310.396C574.905 307.83 579.164 305.278 583.43 302.734C587.14 300.52 590.826 298.274 594.5 296C609.135 286.964 623.956 278.244 638.802 269.563C645.961 265.376 653.104 261.163 660.23 256.921C673.89 248.791 687.655 240.859 701.475 233.004C706.776 229.991 712.071 226.967 717.366 223.943C718.538 223.273 719.711 222.603 720.883 221.934C728.214 217.749 735.531 213.54 742.835 209.307C756.535 201.372 770.34 193.64 784.203 185.992C786.716 184.605 789.229 183.215 791.741 181.825C794.952 180.049 798.163 178.274 801.375 176.5C801.968 176.172 802.56 175.845 803.171 175.507C805.996 173.946 808.824 172.389 811.655 170.84C813.991 169.555 816.315 168.257 818.634 166.941C819.81 166.284 820.987 165.626 822.164 164.969C823.213 164.375 824.262 163.782 825.342 163.17C828 162 828 162 831 163Z" fill="#333333"/>
<path d="M666.004 72.2074C668.37 73.1466 669.622 74.3105 671.43 76.0975C676.734 80.905 682.853 84.0726 689.125 87.4374C690.343 88.101 691.561 88.7658 692.778 89.4317C695.141 90.724 697.506 92.0117 699.873 93.2967C710.114 98.8748 720.111 104.823 730 111C727.947 113.216 726.05 114.663 723.359 116.023C722.267 116.584 722.267 116.584 721.153 117.157C720.36 117.559 719.567 117.961 718.75 118.375C711.467 122.134 704.301 126.053 697.188 130.125C688.21 135.251 679.135 140.164 670 145C660.028 150.28 650.144 155.68 640.344 161.275C633.572 165.135 626.74 168.871 619.875 172.562C611.346 177.152 602.899 181.863 594.505 186.696C589.094 189.81 583.656 192.865 578.188 195.875C570.077 200.349 562.079 205.008 554.088 209.691C547.646 213.464 541.18 217.189 534.688 220.875C523.141 227.441 511.733 234.238 500.318 241.029C497.106 242.937 493.89 244.837 490.672 246.734C489.681 247.318 488.69 247.902 487.67 248.504C485.831 249.587 483.992 250.67 482.153 251.752C473.071 256.696 473.071 256.696 465 263C463.082 263.301 463.082 263.301 460.812 263.312C460.076 263.329 459.34 263.346 458.582 263.363C451.746 262.401 445.629 258.215 439.75 254.812C438.856 254.298 437.962 253.784 437.041 253.255C427.089 247.512 417.214 241.638 407.34 235.762C401.247 232.138 395.129 228.561 389 225C390.257 221.23 391.296 220.993 394.723 219.137C395.724 218.587 396.725 218.037 397.756 217.471C398.847 216.882 399.938 216.294 401.062 215.687C403.367 214.422 405.67 213.155 407.973 211.887C408.561 211.563 409.15 211.24 409.756 210.907C415.566 207.708 421.286 204.365 427 201C437.209 195.007 447.51 189.194 457.852 183.433C462.786 180.684 467.702 177.902 472.611 175.108C482.77 169.329 493.015 163.735 503.322 158.224C510.314 154.475 517.238 150.625 524.125 146.687C534.716 140.641 545.468 134.922 556.249 129.225C563.821 125.223 571.37 121.188 578.875 117.062C588.974 111.514 599.161 106.137 609.353 100.762C619.017 95.6644 628.65 90.5215 638.178 85.1715C641.735 83.1851 645.212 81.5089 649 79.9999C650.217 79.3541 651.426 78.6924 652.629 78.0194C653.272 77.6604 653.914 77.3014 654.576 76.9315C655.908 76.1809 657.237 75.423 658.561 74.6581C663.461 71.9441 663.461 71.9441 666.004 72.2074Z" fill="#333333"/>
<path d="M1128.19 339.355C1134.67 343.943 1140.08 349.536 1143 357C1143.35 360.469 1143.28 363.893 1143.19 367.375C1143.17 368.302 1143.16 369.229 1143.15 370.183C1143.11 372.456 1143.06 374.728 1143 377C1142.3 377.356 1141.61 377.712 1140.89 378.079C1125.66 385.867 1110.63 393.888 1095.79 402.4C1091.12 405.076 1086.44 407.726 1081.75 410.375C1080.81 410.908 1079.87 411.442 1078.89 411.991C1071.56 416.138 1064.19 420.229 1056.81 424.312C1044.57 431.095 1032.41 438.013 1020.27 444.979C1016.2 447.317 1012.11 449.645 1008.03 451.969C985.82 464.61 963.74 477.454 941.922 490.764C931.095 497.368 920.166 503.783 909.194 510.143C903.81 513.273 898.441 516.429 893.07 519.583C889.412 521.729 885.752 523.873 882.092 526.016C879.36 527.616 876.629 529.218 873.899 530.823C871.206 532.407 868.51 533.985 865.812 535.562C865.035 536.021 864.257 536.481 863.456 536.954C858.228 540 858.228 540 856 540C855.914 538.695 855.827 537.391 855.738 536.047C854.621 521.349 852.461 509.297 841 499C838.356 497.031 835.686 495.181 832.906 493.41C832.277 492.945 831.648 492.479 831 492C831 491.34 831 490.68 831 490C832.534 488.862 832.534 488.862 834.707 487.601C835.913 486.892 835.913 486.892 837.144 486.168C838.024 485.659 838.905 485.15 839.812 484.625C841.669 483.533 843.525 482.439 845.379 481.344C846.796 480.506 846.796 480.506 848.243 479.652C852.297 477.223 856.272 474.677 860.25 472.125C873.364 463.765 886.883 456.095 900.359 448.34C902.51 447.101 904.662 445.863 906.812 444.625C907.886 444.007 908.959 443.39 910.065 442.753C918.018 438.168 925.923 433.506 933.812 428.812C945.137 422.079 956.533 415.488 968 409C969.844 407.954 971.688 406.909 973.531 405.863C993.268 394.681 1013.07 383.614 1032.91 372.61C1039.47 368.967 1046.03 365.305 1052.57 361.627C1064.79 354.76 1077.08 348.037 1089.43 341.402C1092.65 339.644 1095.85 337.823 1099.03 335.983C1108.63 331.197 1119.52 333.994 1128.19 339.355Z" fill="#333333"/>
<path d="M686 355C697.075 361.03 704.967 370.063 709 382C709.873 385.332 710.67 388.662 711.411 392.024C713.327 400.707 715.772 409.226 718.326 417.741C718.886 419.619 719.425 421.504 719.957 423.391C724.765 438.76 737.28 445.887 750.312 453.625C752.07 454.675 753.828 455.724 755.586 456.774C756.479 457.306 757.372 457.838 758.292 458.386C762.678 461.001 767.058 463.625 771.438 466.25C772.588 466.938 772.588 466.938 773.761 467.639C779.388 471.01 784.975 474.443 790.558 477.886C794.032 480.024 797.518 482.141 801.008 484.254C801.593 484.609 802.178 484.963 802.781 485.328C805.16 486.769 807.54 488.209 809.921 489.648C840.059 507.868 840.059 507.868 846 523C847.211 528.109 847.117 533.157 847.062 538.375C847.058 539.207 847.053 540.038 847.049 540.895C847.037 542.93 847.019 544.965 847 547C844.711 548.339 842.419 549.671 840.125 551C839.149 551.573 839.149 551.573 838.152 552.157C833.227 555 833.227 555 831 555C830.902 553.756 830.804 552.512 830.703 551.231C829.051 532.131 823.865 517.875 809 505C800.452 498.339 791.052 492.936 781.746 487.418C775.896 483.948 770.081 480.423 764.27 476.889C762.495 475.81 760.72 474.731 758.945 473.653C753.397 470.282 747.85 466.909 742.305 463.534C739.804 462.013 737.303 460.492 734.802 458.971C733.063 457.914 731.325 456.855 729.588 455.796C723.293 451.969 716.963 448.22 710.559 444.578C702.152 439.394 698.768 432.707 696.293 423.32C695.683 420.595 695.116 417.863 694.562 415.125C690.951 398.411 685.205 384.376 671 374C663.731 369.907 656.065 367.076 648 365C649.485 361.439 651.485 359.4 654.375 356.875C655.146 356.192 655.917 355.509 656.711 354.805C665.587 347.807 676.297 350.966 686 355Z" fill="#333333"/>
<path d="M308.926 129.832C327.259 142.688 333.631 158.34 338.438 179.5C342.495 197.001 347.88 210.905 363.688 220.875C365.407 221.859 367.128 222.841 368.861 223.802C372.39 225.778 375.869 227.838 379.357 229.884C382.479 231.712 385.606 233.53 388.734 235.347C394.57 238.743 400.381 242.179 406.188 245.625C414.392 250.491 422.646 255.261 430.95 259.955C431.758 260.413 432.566 260.872 433.398 261.344C434.176 261.784 434.954 262.225 435.755 262.679C437.934 263.961 440.027 265.333 442.133 266.73C445.896 269.11 449.121 270.012 453.5 270.812C454.727 271.046 455.954 271.279 457.219 271.519C458.137 271.678 459.054 271.836 460 272C459.86 273.646 459.713 275.292 459.562 276.937C459.481 277.854 459.4 278.77 459.316 279.715C459 282 459 282 458 283C455.848 283.019 455.848 283.019 453.062 282.812C452.167 282.757 451.271 282.701 450.348 282.644C441.082 280.86 433.099 275.987 425.062 271.25C423.935 270.592 422.807 269.935 421.646 269.257C418.091 267.182 414.544 265.093 411 263C409.888 262.343 408.776 261.687 407.63 261.011C402.057 257.717 396.49 254.413 390.926 251.105C384.981 247.575 379.019 244.076 373.05 240.587C370.613 239.163 368.179 237.735 365.747 236.303C364.546 235.596 363.345 234.89 362.145 234.183C361.554 233.836 360.963 233.488 360.355 233.13C356.783 231.033 353.197 228.965 349.596 226.92C346.743 225.294 343.905 223.644 341.062 222C339.517 221.138 339.517 221.138 337.941 220.259C328.235 214.591 323.981 207.713 321 197.062C320.497 195.394 319.993 193.726 319.488 192.058C318.752 189.568 318.022 187.076 317.298 184.582C311.905 166.214 303.621 153.398 286.436 143.735C279.852 140.171 273.152 137.26 266 135C266 134.34 266 133.68 266 133C268.221 131.382 270.428 129.896 272.75 128.437C273.701 127.819 273.701 127.819 274.672 127.189C286.371 119.743 297.66 122.777 308.926 129.832Z" fill="#333333"/>
<path d="M490 266C502.162 269.504 511.878 278.155 518.145 288.976C520.528 293.895 521.901 299.072 523.375 304.312C528.078 320.889 534.78 330.094 549.812 338.5C550.853 339.094 551.893 339.688 552.965 340.299C555.173 341.56 557.383 342.816 559.596 344.068C564.135 346.644 568.648 349.262 573.163 351.88C577.475 354.377 581.796 356.859 586.117 359.34C588.709 360.832 591.295 362.334 593.879 363.84C595.273 364.644 596.668 365.447 598.062 366.25C598.65 366.596 599.238 366.943 599.844 367.3C608.041 371.979 615.206 373.455 624.562 373.187C625.476 373.174 626.389 373.16 627.33 373.146C629.554 373.111 631.777 373.058 634 373C633.67 376.3 633.34 379.6 633 383C628.202 384.199 623.798 384.261 618.875 384.312C617.525 384.356 617.525 384.356 616.148 384.4C604.054 384.513 594.671 378.393 584.375 372.625C583.087 371.909 581.798 371.192 580.51 370.476C571.632 365.53 562.819 360.475 554.068 355.305C548.597 352.075 543.091 348.925 537.531 345.851C535.622 344.788 533.714 343.724 531.805 342.66C530.58 341.981 529.351 341.307 528.12 340.64C514.9 333.471 509.316 326.527 504.859 312.379C502.413 304.646 499.743 297.67 495 291C494.55 290.367 494.1 289.734 493.637 289.082C487.795 281.627 479.472 276.922 471 273C474.951 264.186 481.054 265.01 490 266Z" fill="#333333"/>
</g>
<defs>
<clipPath id="clip0_273_724">
<rect width="1153" height="701" fill="white"/>
</clipPath>
</defs>
</svg>
