<svg width="1151" height="699" viewBox="0 0 1151 699" fill="none" xmlns="http://www.w3.org/2000/svg">
<g clip-path="url(#clip0_314_7)">
<rect width="1151" height="699" fill="white"/>
<path fill-rule="evenodd" clip-rule="evenodd" d="M611.606 1.18296C609.131 1.85496 602.831 4.69296 597.606 7.49096C592.381 10.289 572.806 20.3429 554.106 29.8339C535.406 39.3249 515.156 49.675 509.106 52.833C482.652 66.645 457.709 79.426 412.473 102.352C385.871 115.834 357.708 130.117 349.888 134.092L335.67 141.319L329.242 134.276C316.889 120.741 301.729 112.862 288.106 112.897C279.167 112.92 275.343 114.331 265.017 121.417C252.926 129.715 252.767 129.943 250.938 141.67L249.359 151.79L237.733 159.983C222.24 170.901 184.755 198.727 85.4579 273.022C9.43094 329.906 2.67593 335.195 1.13493 339.047C-0.631065 343.459 -0.319064 348.028 1.95194 351.015C3.86594 353.532 82.8249 402.542 88.8819 404.973C92.9049 406.587 97.4709 407.237 108.744 407.801C122.101 408.47 123.939 408.796 129.744 411.528C138.492 415.645 144.76 421.643 154.32 435.045C163.042 447.275 167.637 452.003 174.986 456.31C183.032 461.025 189.268 462.829 200.694 463.748C210.179 464.51 212.678 465.114 219.238 468.23C227.298 472.057 232.579 476.932 255.106 501.336C265.036 512.094 273.506 518.616 283.394 523.119C287.572 525.022 290.485 525.328 309.106 525.825C329.291 526.364 330.335 526.492 336.004 529.119C343.391 532.542 347.99 535.845 363.736 549.037C375.472 558.868 385.887 565.822 393.24 568.733C396.119 569.872 396.597 570.764 399.099 579.65C404.268 598.004 410.492 608.196 421.384 616.143C427.204 620.389 464.597 641.567 494.106 657.331C518.999 670.628 524.96 674.575 536.989 685.719C548.002 695.921 552.531 698.112 563.723 698.647C573.951 699.136 577.507 698.179 587.106 692.356C590.956 690.021 605.806 681.225 620.106 672.81C634.406 664.395 654.112 652.771 663.897 646.979L681.687 636.448L698.393 618.887C723.239 592.77 742.841 572.578 774.481 540.513L802.913 511.698L808.31 517.013C817.915 526.47 821.523 537.575 821.588 557.877C821.598 560.929 822.146 563.967 822.806 564.627C824.709 566.53 829.324 566.029 833.376 563.481C835.427 562.191 842.956 557.763 850.106 553.641C881.746 535.403 923.669 510.998 954.606 492.811C1014.73 457.463 1089.23 415.104 1132.11 391.884C1141.46 386.821 1149.7 381.924 1150.42 381.002C1151.38 379.765 1151.65 375.921 1151.42 366.298C1151.12 353.898 1150.95 352.949 1147.82 346.613C1143.84 338.526 1137.04 332.096 1127.75 327.637C1119.53 323.693 1107.04 322.611 1099.61 325.199L1095.11 326.765L1082.11 319.416C1036.81 293.813 1015.82 281.397 1013.84 279.03C1011.1 275.756 1010.88 274.968 1003.48 242.327C998.753 221.451 996.817 214.75 993.66 208.327C987.063 194.904 975.163 185.422 960.94 182.258C948.974 179.596 944.878 180.543 925.097 190.543L908.089 199.142L883.597 185.336C841.93 161.846 840.803 161.133 838.645 156.903C837.581 154.817 834.387 145.285 831.547 135.719C828.707 126.153 825.332 116.252 824.048 113.717C821.004 107.704 812.833 98.823 806.763 94.928C798.35 89.529 791.353 87.6619 780.865 88.0149L771.623 88.327L755.865 96.4629C742.15 103.543 739.847 104.44 738.106 103.377C737.006 102.705 723.506 95.0319 708.106 86.3249C692.706 77.6189 678.626 69.115 676.818 67.428C674.161 64.95 672.855 62.146 670.023 52.844C668.095 46.509 665.569 38.255 664.411 34.499C657.157 10.978 632.602 -4.51404 611.606 1.18296ZM632.14 12.013C638.749 14.542 646.998 21.6299 651.432 28.5889C653.984 32.5949 663.426 61.555 662.411 62.263C662.243 62.38 650.631 68.469 636.606 75.793C597.817 96.051 592.436 98.884 588.106 101.328C585.906 102.569 574.206 108.874 562.106 115.338C509.35 143.521 442.709 180.708 395.673 208.21C379.397 217.726 379.216 217.802 376.673 216.133C375.261 215.207 371.529 212.912 368.379 211.035C356.923 204.206 352.878 197.525 347.046 175.799C345.057 168.389 342.608 159.499 341.605 156.043L339.78 149.76L348.943 145.171C367.038 136.109 470.743 83.238 501.606 67.341C518.931 58.418 549.756 42.6509 570.106 32.3039C590.456 21.9579 608.674 12.6679 610.591 11.6599C615.494 9.08195 624.882 9.23496 632.14 12.013ZM668.505 73.4249C669.629 74.8539 683.499 83.437 699.327 92.499C715.156 101.56 728.497 109.354 728.975 109.819C729.457 110.289 727.9 111.655 725.475 112.89C718.939 116.219 642.97 157.909 612.106 175.105C560.052 204.107 475.886 252.894 467.837 258.731C462.977 262.257 458.64 262.703 452.824 260.276C448.212 258.351 388.663 223.543 388.63 222.753C388.617 222.437 401.544 214.733 417.356 205.632C481.971 168.444 550.571 130.829 628.606 89.797C641.531 83.001 654.806 75.957 658.106 74.145C661.406 72.333 664.636 70.8449 665.283 70.8379C665.931 70.8319 667.381 71.9959 668.505 73.4249ZM796.876 100.639C804.26 104.275 811.269 110.955 815.118 118.026C816.641 120.825 819.803 129.595 822.145 137.515L826.402 151.914L824.254 153.238C823.073 153.966 815.131 158.294 806.606 162.857C753.888 191.072 587.966 287.651 547.892 313.448L539.677 318.736L537.79 316.032C535.635 312.943 533.979 308.49 529.702 294.289C524.05 275.52 513.148 263.392 496.514 257.369L490.374 255.146L514.24 241.095C558.839 214.837 622.925 179.03 707.606 133.053C734.754 118.314 773.297 98.0529 775.3 97.4679C776.293 97.1779 780.148 97.081 783.865 97.251C788.96 97.485 792.163 98.319 796.876 100.639ZM303.005 126.18C311.479 130.368 321.616 139.241 326.31 146.578C329.837 152.092 333.225 161.935 338.614 182.327C345.485 208.325 348.279 211.307 387.106 234.059C451.17 271.601 449.664 270.807 456.831 270.821C459.725 270.827 459.749 271 458.021 279.577C456.902 285.135 445.177 281.152 420.585 266.856C366.222 235.255 331.512 214.461 329.096 212.044C325.099 208.047 323.305 203.919 318.139 186.827C315.562 178.302 312.025 168.645 310.28 165.367C304.157 153.869 290.031 142.468 274.3 136.327C270.073 134.677 266.755 132.901 266.926 132.38C267.395 130.953 277.631 124.133 281.08 122.95C286.566 121.068 295.251 122.348 303.005 126.18ZM273.352 146.87C288.534 153.909 297.76 162.043 303.364 173.327C304.457 175.527 306.988 183.247 308.99 190.482C313.371 206.322 314.801 209.91 319.167 216.019L322.519 220.711L299.313 237.431C286.549 246.627 265.306 261.952 252.106 271.485C238.906 281.019 213.931 299.023 196.606 311.495C157.551 339.608 102.516 379.423 92.9089 386.515C88.9509 389.436 85.4239 391.827 85.0719 391.827C84.7199 391.827 80.2909 389.24 75.2309 386.077C70.1699 382.914 53.3419 372.452 37.8349 362.827C18.7289 350.969 9.63393 344.772 9.62293 343.606C9.59993 341.234 215.665 186.704 247.606 165.14C257.312 158.588 258.257 157.408 259.071 150.827C260.115 142.378 260.45 141.648 262.937 142.395C264.13 142.754 268.817 144.767 273.352 146.87ZM831.896 164.688C834.01 167.883 838.652 170.933 858.778 182.347C872.159 189.936 886.404 198.059 890.434 200.398L897.763 204.651L893.434 207.118C891.054 208.475 879.881 214.657 868.606 220.856C815.283 250.171 737.432 294.479 695.568 319.339C683.764 326.348 668.977 335.063 662.708 338.705C651.674 345.116 643.631 351.76 638.556 358.656C636.209 361.845 635.765 362.009 627.99 362.54C612.9 363.571 615.195 364.564 565.365 335.448C556.158 330.067 548.387 325.282 548.097 324.812C547.406 323.695 598.422 292.266 647.106 263.816C651.506 261.245 663.206 254.409 673.106 248.625C704.992 229.996 772.483 191.513 794.606 179.346C806.431 172.843 818.806 166.022 822.106 164.19C825.406 162.357 828.384 160.851 828.723 160.842C829.063 160.834 830.49 162.565 831.896 164.688ZM966.799 194.601C974.255 198.272 982.063 206.009 985.522 213.153C987.997 218.266 1001.85 277.01 1000.81 277.96C1000.42 278.312 993.806 282.092 986.106 286.36C917.37 324.465 799.789 393.2 751.158 423.705C744.037 428.172 737.655 431.827 736.976 431.827C735.543 431.827 732.765 428.101 729.739 422.122C728.569 419.809 725.39 409.459 722.676 399.122C714.746 368.927 712.9 364.856 702.537 354.692C696.923 349.188 684.333 341.827 680.531 341.827C679.537 341.827 678.496 341.459 678.218 341.009C676.765 338.657 845.063 243.133 917.606 205.134L945.106 190.73L952.628 191.028C958.727 191.271 961.407 191.946 966.799 194.601ZM367.106 247.1C383.056 256.465 401.844 267.478 408.856 271.574C415.868 275.671 421.606 279.377 421.606 279.81C421.606 280.243 420.47 281.341 419.081 282.251C417.693 283.161 403.405 293.692 387.331 305.653C371.257 317.614 354.119 330.309 349.246 333.863C338.32 341.835 292.168 376.033 234.606 418.812C210.681 436.592 190.363 451.335 189.455 451.574C186.788 452.276 179.123 448.344 174.037 443.666C171.443 441.28 165.614 434.377 161.084 428.327C143.979 405.48 132.418 398.399 112.606 398.634C102.427 398.754 94.6059 397.956 94.6059 396.796C94.6059 395.884 92.9649 397.078 245.606 286.943C257.431 278.411 281.454 261.16 298.99 248.609L330.874 225.788L334.49 227.931C336.479 229.11 351.156 237.736 367.106 247.1ZM493.818 266.815C507.277 271.875 516.397 283.091 521.56 300.935C523.374 307.2 525.906 314.577 527.189 317.327C531.275 326.089 537.021 330.445 569.106 349.107C585.606 358.703 600.917 367.474 603.131 368.596C609.171 371.66 618.648 373.201 627.067 372.49L634.41 371.869L633.891 376.098C633.605 378.424 632.663 380.89 631.798 381.577C629.606 383.318 611.218 383.216 605.285 381.431C602.733 380.663 593.999 376.316 585.876 371.77C559.602 357.068 519.194 333.624 515.878 331.159C511.493 327.899 507.791 321.263 504.999 311.661C500.173 295.062 494.197 286.103 482.443 277.849C478.51 275.087 474.8 272.82 474.199 272.812C473.598 272.803 472.439 272.375 471.624 271.859C470.386 271.076 470.623 270.419 473.061 267.874C475.707 265.112 476.567 264.827 482.256 264.827C486.078 264.827 490.597 265.604 493.818 266.815ZM483.106 291.332C489.369 297.72 492.884 304.162 495.669 314.357C498.345 324.151 501.553 330.656 506.297 335.907C508.349 338.178 509.526 340.264 509.012 340.72C508.514 341.163 497.081 349.833 483.606 359.987C409.024 416.189 336.037 471.659 293.157 504.727C284.787 511.183 283.277 511.997 281.334 511.103C275.716 508.52 265.653 499.605 256.332 488.957C242.768 473.46 237.063 467.939 229.463 462.952C222.441 458.344 212.502 454.827 206.501 454.827C199.876 454.827 192.312 460.9 278.606 396.932C304.181 377.974 338.381 352.651 354.606 340.66C370.831 328.668 394.456 311.182 407.106 301.802C420.399 291.945 430.739 284.943 431.606 285.211C432.431 285.467 435.88 286.837 439.271 288.257C446.76 291.392 458.835 292.615 462.576 290.617C464.902 289.375 466.85 286.505 468.003 282.621C468.457 281.092 469.01 281.191 473.308 283.573C475.947 285.036 480.356 288.527 483.106 291.332ZM1008.92 288.211C1010.67 289.522 1027.63 299.487 1046.61 310.355C1065.58 321.223 1081.92 330.672 1082.91 331.353C1084.5 332.442 1082.45 333.855 1065.91 343.074C990.701 385.001 963.401 400.471 921.606 424.843C875.262 451.868 849.631 467.15 830.833 478.963L821.561 484.79L795.833 469.181C749.739 441.215 745.606 438.647 745.619 437.983C745.661 435.84 841.688 378.56 923.106 332.112C992.423 292.567 1004.05 286.002 1004.92 285.911C1005.37 285.865 1007.17 286.9 1008.92 288.211ZM1122.97 336.137C1130.3 339.492 1136.65 345.531 1139.96 352.303C1142.39 357.263 1142.65 358.79 1142.39 366.542L1142.11 375.225L1119.11 387.84C1064.51 417.784 987.217 461.864 949.606 484.502C918.8 503.044 859.372 537.603 857.619 537.995C856.425 538.262 856.002 536.554 855.468 529.327C854.326 513.863 848.749 503.503 836.894 494.827C833.513 492.352 830.731 490.102 830.714 489.827C830.623 488.394 939.796 423.845 992.606 394.108C1015.54 381.192 1072.28 349.711 1088.33 340.994C1094.5 337.642 1101.02 334.447 1102.83 333.894C1107.89 332.341 1116.86 333.34 1122.97 336.137ZM556.877 366.686C577.903 378.709 596.818 389.102 598.911 389.782C601.156 390.511 602.591 391.564 602.411 392.35C602.243 393.082 580.045 411.376 553.082 433.004C490.209 483.435 477.11 494.008 432.865 530.04L396.379 559.752L392.243 557.668C386.504 554.776 376.415 547.52 368.106 540.307C355.803 529.628 350.643 525.941 342.28 521.854C331.896 516.779 324.941 515.713 307.427 516.509C299.368 516.876 293.626 516.761 293.653 516.233C293.679 515.734 299.836 510.602 307.336 504.827C342.168 478.006 374.484 453.413 441.106 403.029C480.706 373.08 513.994 347.733 515.078 346.702C516.163 345.671 517.41 344.827 517.85 344.827C518.289 344.827 535.852 354.664 556.877 366.686ZM684.338 353.938C692.708 357.932 701.263 366.255 704.878 373.921C706.329 376.997 709.549 387.379 712.033 396.991C718.231 420.972 719.915 426.076 723.448 431.575C728.574 439.556 733.158 443.026 759.106 458.567C815.62 492.415 831.309 502.192 835.258 506.023C843.207 513.735 846.618 523.432 846.595 538.261L846.585 545.327L839.128 549.577C835.026 551.914 831.489 553.827 831.267 553.827C831.045 553.827 830.544 549.741 830.154 544.747C828.952 529.39 824.953 520.357 814.471 509.322C805.761 500.152 805.711 500.119 753.106 468.7C710.007 442.957 702.803 438.042 699.871 432.374C699.004 430.698 696.369 421.791 694.015 412.58C691.66 403.369 688.472 393.469 686.929 390.58C681.037 379.545 667.51 368.958 654.106 364.889C651.906 364.221 649.465 363.468 648.682 363.216C646.716 362.581 654.777 354.468 660.061 351.762C665.902 348.772 675.274 349.612 684.338 353.938ZM652.774 374.884C664.862 378.956 674.196 386.931 678.996 397.29C680.28 400.06 683.021 409.192 685.088 417.584C688.982 433.4 692.768 441.756 698.248 446.628C699.672 447.894 700.672 449.053 700.471 449.203C700.27 449.354 683.231 463.411 662.606 480.443C641.981 497.474 605.081 527.799 580.606 547.831C556.131 567.864 522.849 595.296 506.646 608.791C490.443 622.286 476.454 633.863 475.56 634.519C474.206 635.511 470.198 633.591 451.564 623.019C426.821 608.981 419.812 603.462 414.86 594.119C411.532 587.84 405.254 568.709 405.781 566.456C406.097 565.105 422.082 551.804 469.029 513.827C481.607 503.652 495.77 492.149 500.502 488.265C505.234 484.38 526.431 467.359 547.606 450.439C611.218 399.612 609.745 400.848 611.473 396.804L613.05 393.11L624.757 392.521C631.343 392.19 637.339 391.386 638.464 390.684C641.218 388.964 642.551 385.65 643.275 378.722C643.983 371.947 644.017 371.934 652.774 374.884ZM744.88 475.007C775.561 493.455 793.189 504.26 794.482 505.411C794.689 505.596 776.221 524.777 753.441 548.037C712.866 589.467 696.973 605.92 683.267 620.685C675.803 628.727 680.615 625.653 610.45 667.196C569.748 691.294 569.088 691.563 558.265 688.416C553.687 687.086 550.997 685.306 544.348 679.213C530.744 666.747 525.805 663.406 503.677 651.7C483.535 641.045 482.583 640.411 484.3 638.793C487.296 635.971 548.128 585.703 597.606 545.164C623.181 524.21 658.506 495.103 676.106 480.482C693.706 465.862 708.454 453.883 708.88 453.863C709.306 453.843 725.506 463.358 744.88 475.007Z" fill="black"/>
</g>
<defs>
<clipPath id="clip0_314_7">
<rect width="1151" height="699" fill="white"/>
</clipPath>
</defs>
</svg>
