<svg width="1037" height="952" viewBox="0 0 1037 952" fill="none" xmlns="http://www.w3.org/2000/svg">
<g clip-path="url(#clip0_273_762)">
<path d="M624.846 2.92715C627.794 3.25837 630.741 3.58534 633.689 3.91116C642.061 4.83692 650.433 5.76746 658.803 6.70705C663.954 7.28492 669.106 7.85567 674.258 8.42226C676.194 8.6365 678.129 8.85327 680.064 9.0729C693.702 10.6195 707.283 11.5404 721.001 12C721.001 12.66 721.001 13.32 721.001 14C724.961 14 728.921 14 733.001 14C733.001 14.66 733.001 15.32 733.001 16C733.661 16 734.321 16 735.001 16C735.001 16.66 735.001 17.32 735.001 18C735.661 18 736.321 18 737.001 18C737.001 18.66 737.001 19.32 737.001 20C737.661 20 738.321 20 739.001 20C739.001 21.32 739.001 22.64 739.001 24C739.661 24 740.321 24 741.001 24C741.001 39.84 741.001 55.68 741.001 72C740.341 72 739.681 72 739.001 72C739.001 73.98 739.001 75.96 739.001 78C738.341 78 737.681 78 737.001 78C737.001 78.66 737.001 79.32 737.001 80C735.681 80 734.361 80 733.001 80C733.001 107.06 733.001 134.12 733.001 162C734.321 162 735.641 162 737.001 162C737.001 160.68 737.001 159.36 737.001 158C737.661 158 738.321 158 739.001 158C739.001 157.34 739.001 156.68 739.001 156C739.661 156 740.321 156 741.001 156C741.001 155.34 741.001 154.68 741.001 154C741.661 154 742.321 154 743.001 154C743.001 153.34 743.001 152.68 743.001 152C743.661 152 744.321 152 745.001 152C745.001 151.34 745.001 150.68 745.001 150C746.321 150 747.641 150 749.001 150C749.001 149.34 749.001 148.68 749.001 148C749.661 148 750.321 148 751.001 148C751.001 147.34 751.001 146.68 751.001 146C752.321 146 753.641 146 755.001 146C755.001 145.34 755.001 144.68 755.001 144C755.661 144 756.321 144 757.001 144C757.001 143.34 757.001 142.68 757.001 142C757.661 142 758.321 142 759.001 142C759.001 141.34 759.001 140.68 759.001 140C759.661 140 760.321 140 761.001 140C761.001 139.34 761.001 138.68 761.001 138C762.321 138 763.641 138 765.001 138C765.001 137.34 765.001 136.68 765.001 136C765.661 136 766.321 136 767.001 136C767.001 134.68 767.001 133.36 767.001 132C768.321 132 769.641 132 771.001 132C771.001 131.34 771.001 130.68 771.001 130C771.661 130 772.321 130 773.001 130C773.001 129.34 773.001 128.68 773.001 128C773.661 128 774.321 128 775.001 128C775.001 127.34 775.001 126.68 775.001 126C776.321 126 777.641 126 779.001 126C779.001 125.34 779.001 124.68 779.001 124C779.661 124 780.321 124 781.001 124C781.001 123.34 781.001 122.68 781.001 122C781.661 122 782.321 122 783.001 122C783.001 121.34 783.001 120.68 783.001 120C783.661 120 784.321 120 785.001 120C785.001 119.34 785.001 118.68 785.001 118C785.661 118 786.321 118 787.001 118C787.001 117.34 787.001 116.68 787.001 116C787.661 116 788.321 116 789.001 116C789.001 115.34 789.001 114.68 789.001 114C790.321 114 791.641 114 793.001 114C793.001 113.34 793.001 112.68 793.001 112C793.661 112 794.321 112 795.001 112C795.001 111.34 795.001 110.68 795.001 110C795.661 110 796.321 110 797.001 110C797.001 109.34 797.001 108.68 797.001 108C797.661 108 798.321 108 799.001 108C799.001 107.34 799.001 106.68 799.001 106C799.661 106 800.321 106 801.001 106C801.001 105.34 801.001 104.68 801.001 104C802.321 104 803.641 104 805.001 104C805.001 103.34 805.001 102.68 805.001 102C805.661 102 806.321 102 807.001 102C807.001 101.34 807.001 100.68 807.001 100C807.661 100 808.321 100 809.001 100C809.001 99.34 809.001 98.68 809.001 98C810.321 98 811.641 98 813.001 98C813.001 97.34 813.001 96.68 813.001 96C813.661 96 814.321 96 815.001 96C815.001 95.34 815.001 94.68 815.001 94C815.661 94 816.321 94 817.001 94C817.001 93.34 817.001 92.68 817.001 92C817.661 92 818.321 92 819.001 92C819.001 91.34 819.001 90.68 819.001 90C819.661 90 820.321 90 821.001 90C821.001 89.34 821.001 88.68 821.001 88C822.321 88 823.641 88 825.001 88C825.001 87.34 825.001 86.68 825.001 86C825.661 86 826.321 86 827.001 86C827.001 85.34 827.001 84.68 827.001 84C827.661 84 828.321 84 829.001 84C829.001 83.34 829.001 82.68 829.001 82C829.661 82 830.321 82 831.001 82C831.001 81.34 831.001 80.68 831.001 80C831.661 80 832.321 80 833.001 80C833.001 79.34 833.001 78.68 833.001 78C834.321 78 835.641 78 837.001 78C837.001 77.34 837.001 76.68 837.001 76C837.661 76 838.321 76 839.001 76C839.001 75.34 839.001 74.68 839.001 74C839.661 74 840.321 74 841.001 74C841.001 73.34 841.001 72.68 841.001 72C842.321 72 843.641 72 845.001 72C845.001 71.34 845.001 70.68 845.001 70C845.661 70 846.321 70 847.001 70C847.001 69.34 847.001 68.68 847.001 68C847.661 68 848.321 68 849.001 68C849.001 67.34 849.001 66.68 849.001 66C849.661 66 850.321 66 851.001 66C851.001 65.34 851.001 64.68 851.001 64C851.661 64 852.321 64 853.001 64C853.001 63.34 853.001 62.68 853.001 62C854.321 62 855.641 62 857.001 62C857.001 61.34 857.001 60.68 857.001 60C857.661 60 858.321 60 859.001 60C859.001 59.34 859.001 58.68 859.001 58C859.661 58 860.321 58 861.001 58C861.001 57.34 861.001 56.68 861.001 56C861.661 56 862.321 56 863.001 56C863.001 55.34 863.001 54.68 863.001 54C863.661 54 864.321 54 865.001 54C865.001 53.34 865.001 52.68 865.001 52C866.321 52 867.641 52 869.001 52C869.001 51.34 869.001 50.68 869.001 50C869.661 50 870.321 50 871.001 50C871.001 49.34 871.001 48.68 871.001 48C871.661 48 872.321 48 873.001 48C873.001 47.34 873.001 46.68 873.001 46C874.321 46 875.641 46 877.001 46C877.001 45.34 877.001 44.68 877.001 44C877.661 44 878.321 44 879.001 44C879.001 43.34 879.001 42.68 879.001 42C879.661 42 880.321 42 881.001 42C881.001 41.34 881.001 40.68 881.001 40C881.661 40 882.321 40 883.001 40C883.001 39.34 883.001 38.68 883.001 38C883.661 38 884.321 38 885.001 38C885.001 37.34 885.001 36.68 885.001 36C886.321 36 887.641 36 889.001 36C889.001 35.34 889.001 34.68 889.001 34C895.601 34 902.201 34 909.001 34C909.001 34.66 909.001 35.32 909.001 36C916.261 36 923.521 36 931.001 36C931.001 36.66 931.001 37.32 931.001 38C932.095 38.0545 933.189 38.109 934.316 38.1652C945.136 38.7236 955.912 39.5267 966.7 40.5235C967.887 40.6323 967.887 40.6323 969.097 40.7434C973.262 41.1256 977.426 41.5118 981.59 41.9014C985.864 42.3004 990.138 42.6854 994.413 43.0674C997.735 43.3668 1001.06 43.6765 1004.38 43.9891C1005.95 44.1356 1007.53 44.2784 1009.11 44.417C1011.3 44.6113 1013.5 44.8203 1015.7 45.0327C1016.94 45.1474 1018.19 45.2621 1019.47 45.3802C1025.9 46.5097 1030.84 48.775 1035 54C1036.8 59.0941 1037.32 63.8484 1037.34 69.2071C1037.34 69.9725 1037.35 70.7379 1037.36 71.5266C1037.37 73.1376 1037.37 74.7486 1037.37 76.3596C1037.38 78.7958 1037.41 81.2302 1037.45 83.666C1037.52 93.7961 1037.18 102.743 1029.94 110.563C1026.15 114.011 1022.14 117.205 1018.16 120.414C1014.53 123.357 1011.02 126.429 1007.5 129.5C1003.22 133.234 998.917 136.925 994.501 140.5C989.51 144.541 984.658 148.726 979.829 152.957C979.247 153.465 978.666 153.973 978.067 154.496C977.487 155.024 976.907 155.552 976.309 156.096C974.001 158 974.001 158 971.026 159.825C964.946 163.866 964.946 163.866 961.313 170.007C960.216 175.967 960.497 182.014 960.638 188.045C960.642 190.076 960.64 192.107 960.633 194.138C960.63 199.631 960.7 205.12 960.784 210.611C960.859 216.358 960.866 222.105 960.88 227.852C960.917 238.725 961.016 249.597 961.136 260.469C961.271 272.851 961.336 285.233 961.397 297.615C961.522 323.078 961.733 348.539 962.001 374C963.439 374.324 964.877 374.648 966.315 374.97C967.116 375.15 967.917 375.33 968.742 375.516C971.344 376.074 973.937 376.476 976.577 376.806C977.572 376.933 978.566 377.06 979.591 377.191C980.635 377.322 981.679 377.452 982.754 377.586C985.013 377.88 987.272 378.174 989.53 378.469C993.053 378.925 996.577 379.377 1000.1 379.817C1003.53 380.248 1006.95 380.697 1010.38 381.148C1011.95 381.338 1011.95 381.338 1013.55 381.531C1020.85 382.514 1027.06 383.978 1032.38 389.438C1035.66 394.612 1036.32 399.022 1036.34 405.082C1036.34 405.855 1036.35 406.628 1036.36 407.425C1036.37 409.056 1036.37 410.687 1036.37 412.319C1036.38 414.795 1036.41 417.269 1036.45 419.744C1036.46 421.336 1036.46 422.928 1036.46 424.52C1036.48 425.25 1036.49 425.981 1036.51 426.733C1036.44 434.22 1033.36 440.035 1028.25 445.438C1027.47 446.278 1026.68 447.118 1025.87 447.984C1025.42 448.454 1024.98 448.924 1024.52 449.408C1022.78 451.227 1021.07 453.059 1019.35 454.891C1016.61 457.804 1013.88 460.712 1011.13 463.617C1002.3 472.981 993.53 482.404 984.844 491.906C980.991 496.11 977.088 500.269 973.192 504.434C969.607 508.27 966.043 512.124 962.501 516C957.789 521.154 953.032 526.263 948.262 531.363C944.494 535.395 940.74 539.44 937.001 543.5C932.666 548.206 928.308 552.889 923.938 557.562C918.873 562.98 913.848 568.432 908.844 573.906C904.991 578.11 901.088 582.269 897.192 586.434C893.607 590.27 890.043 594.124 886.501 598C881.767 603.179 876.985 608.31 872.192 613.434C868.607 617.27 865.043 621.124 861.501 625C856.767 630.18 851.983 635.311 847.19 640.436C843.625 644.25 840.083 648.082 836.563 651.938C832.246 656.661 827.882 661.337 823.501 666C818.185 671.657 812.908 677.347 807.672 683.078C803.302 687.858 798.903 692.611 794.508 697.368C793.026 698.972 791.546 700.578 790.067 702.184C784.117 708.641 778.138 715.07 772.142 721.484C767.678 726.263 763.256 731.079 758.844 735.906C754.99 740.111 751.086 744.27 747.19 748.436C743.625 752.25 740.083 756.082 736.563 759.938C731.606 765.362 726.582 770.721 721.55 776.076C716.93 780.996 712.36 785.958 707.809 790.941C703.968 795.136 700.075 799.282 696.19 803.436C692.625 807.25 689.083 811.083 685.563 814.938C680.627 820.338 675.628 825.676 670.618 831.008C666.725 835.153 662.851 839.315 659.001 843.5C654.509 848.382 649.981 853.228 645.438 858.062C640.183 863.656 634.974 869.287 629.797 874.953C624.248 881.014 618.614 886.998 613.001 893C606.316 900.15 599.634 907.302 593.001 914.5C591.52 916.104 590.04 917.709 588.559 919.312C587.482 920.479 586.405 921.646 585.329 922.812C581.247 927.234 577.138 931.629 573.001 936C572.415 936.621 571.83 937.241 571.227 937.881C569.518 939.683 567.794 941.469 566.063 943.25C565.556 943.787 565.049 944.324 564.526 944.877C560.66 948.804 556.675 951.701 550.961 952.166C545.708 952.172 540.904 951.602 535.788 950.443C535.021 950.277 534.253 950.111 533.462 949.94C530.944 949.393 528.43 948.834 525.915 948.273C524.131 947.883 522.348 947.494 520.565 947.106C515.868 946.081 511.174 945.044 506.481 944.006C501.801 942.972 497.12 941.949 492.438 940.926C484.382 939.163 476.329 937.386 468.277 935.603C463.712 934.593 459.144 933.596 454.571 932.619C452.649 932.208 450.728 931.793 448.808 931.379C446.573 930.897 444.338 930.421 442.101 929.953C428.183 926.93 416.62 919.999 408.438 908.125C406.001 904.333 406.001 904.333 406.001 902C405.011 902 404.021 902 403.001 902C403.001 900.02 403.001 898.04 403.001 896C402.341 896 401.681 896 401.001 896C401.001 871.58 401.001 847.16 401.001 822C400.341 822 399.681 822 399.001 822C399.001 821.34 399.001 820.68 399.001 820C398.341 820 397.681 820 397.001 820C397.001 819.34 397.001 818.68 397.001 818C393.701 818 390.401 818 387.001 818C387.001 817.34 387.001 816.68 387.001 816C383.701 816 380.401 816 377.001 816C377.001 815.34 377.001 814.68 377.001 814C373.701 814 370.401 814 367.001 814C367.001 813.34 367.001 812.68 367.001 812C363.701 812 360.401 812 357.001 812C357.001 811.34 357.001 810.68 357.001 810C354.361 810 351.721 810 349.001 810C349.001 809.34 349.001 808.68 349.001 808C345.041 808 341.081 808 337.001 808C337.001 807.34 337.001 806.68 337.001 806C334.361 806 331.721 806 329.001 806C329.001 805.34 329.001 804.68 329.001 804C325.701 804 322.401 804 319.001 804C319.001 803.34 319.001 802.68 319.001 802C315.701 802 312.401 802 309.001 802C309.001 801.34 309.001 800.68 309.001 800C305.701 800 302.401 800 299.001 800C299.001 799.34 299.001 798.68 299.001 798C296.361 798 293.721 798 291.001 798C291.001 797.34 291.001 796.68 291.001 796C289.021 796 287.041 796 285.001 796C285.001 796.66 285.001 797.32 285.001 798C284.341 798 283.681 798 283.001 798C283.001 798.66 283.001 799.32 283.001 800C282.341 800 281.681 800 281.001 800C281.001 800.66 281.001 801.32 281.001 802C279.681 802 278.361 802 277.001 802C277.001 802.66 277.001 803.32 277.001 804C276.341 804 275.681 804 275.001 804C275.001 804.66 275.001 805.32 275.001 806C274.341 806 273.681 806 273.001 806C273.001 806.66 273.001 807.32 273.001 808C272.341 808 271.681 808 271.001 808C271.001 808.66 271.001 809.32 271.001 810C270.341 810 269.681 810 269.001 810C269.001 810.66 269.001 811.32 269.001 812C267.681 812 266.361 812 265.001 812C265.001 812.66 265.001 813.32 265.001 814C264.341 814 263.681 814 263.001 814C263.001 814.66 263.001 815.32 263.001 816C262.341 816 261.681 816 261.001 816C261.001 816.66 261.001 817.32 261.001 818C260.341 818 259.681 818 259.001 818C259.001 818.66 259.001 819.32 259.001 820C258.341 820 257.681 820 257.001 820C257.001 820.66 257.001 821.32 257.001 822C255.681 822 254.361 822 253.001 822C253.001 822.66 253.001 823.32 253.001 824C252.341 824 251.681 824 251.001 824C251.001 824.66 251.001 825.32 251.001 826C250.341 826 249.681 826 249.001 826C249.001 826.66 249.001 827.32 249.001 828C248.341 828 247.681 828 247.001 828C247.001 828.66 247.001 829.32 247.001 830C246.341 830 245.681 830 245.001 830C245.001 830.66 245.001 831.32 245.001 832C244.341 832 243.681 832 243.001 832C243.001 832.66 243.001 833.32 243.001 834C242.341 834 241.681 834 241.001 834C241.001 834.66 241.001 835.32 241.001 836C240.341 836 239.681 836 239.001 836C239.001 836.66 239.001 837.32 239.001 838C238.341 838 237.681 838 237.001 838C237.001 838.66 237.001 839.32 237.001 840C235.681 840 234.361 840 233.001 840C233.001 840.66 233.001 841.32 233.001 842C232.341 842 231.681 842 231.001 842C231.001 842.66 231.001 843.32 231.001 844C230.341 844 229.681 844 229.001 844C229.001 844.66 229.001 845.32 229.001 846C228.341 846 227.681 846 227.001 846C227.001 846.66 227.001 847.32 227.001 848C226.341 848 225.681 848 225.001 848C225.001 848.66 225.001 849.32 225.001 850C224.341 850 223.681 850 223.001 850C223.001 850.66 223.001 851.32 223.001 852C222.341 852 221.681 852 221.001 852C221.001 852.66 221.001 853.32 221.001 854C219.681 854 218.361 854 217.001 854C217.001 854.66 217.001 855.32 217.001 856C216.341 856 215.681 856 215.001 856C215.001 856.66 215.001 857.32 215.001 858C214.341 858 213.681 858 213.001 858C213.001 858.66 213.001 859.32 213.001 860C211.681 860 210.361 860 209.001 860C209.001 860.66 209.001 861.32 209.001 862C208.341 862 207.681 862 207.001 862C207.001 862.66 207.001 863.32 207.001 864C206.341 864 205.681 864 205.001 864C205.001 864.66 205.001 865.32 205.001 866C204.341 866 203.681 866 203.001 866C203.001 866.66 203.001 867.32 203.001 868C202.341 868 201.681 868 201.001 868C201.001 868.66 201.001 869.32 201.001 870C200.341 870 199.681 870 199.001 870C199.001 870.66 199.001 871.32 199.001 872C198.341 872 197.681 872 197.001 872C197.001 872.66 197.001 873.32 197.001 874C196.341 874 195.681 874 195.001 874C195.001 874.66 195.001 875.32 195.001 876C193.681 876 192.361 876 191.001 876C191.001 876.66 191.001 877.32 191.001 878C189.681 878 188.361 878 187.001 878C187.001 878.66 187.001 879.32 187.001 880C170.921 881.672 157.117 879.806 141.438 876.188C139.043 875.655 136.647 875.125 134.251 874.598C130.313 873.73 126.375 872.86 122.441 871.978C111.564 869.542 100.665 867.223 89.7557 864.936C84.0075 863.73 78.2608 862.518 72.5139 861.306C67.7613 860.304 63.0081 859.305 58.2537 858.312C53.7332 857.367 49.2151 856.411 44.6986 855.447C43.0224 855.091 41.3453 854.739 39.6674 854.391C18.8967 850.08 18.8967 850.08 13.688 843.75C13.0132 842.969 13.0132 842.969 12.3248 842.172C7.70408 834.593 7.5002 827.366 7.5545 818.701C7.56301 816.636 7.5342 814.573 7.5025 812.508C7.45054 803.365 8.06827 794.799 14.6646 787.898C16.1303 786.649 16.1303 786.649 17.6255 785.375C18.1548 784.916 18.684 784.457 19.2293 783.984C20.8017 782.633 22.3944 781.311 24.0005 780C24.8423 779.312 25.6841 778.623 26.5513 777.914C28.1522 776.63 29.7604 775.356 31.3755 774.09C34.4505 771.642 37.4458 769.11 40.438 766.562C45.2241 762.492 50.0504 758.479 54.9224 754.512C58.7924 751.354 62.6464 748.177 66.5005 745C75.4583 737.62 84.42 730.25 93.4927 723.012C96.9807 720.214 100.436 717.377 103.895 714.543C113.299 706.839 122.716 699.158 132.308 691.69C133.878 690.466 135.439 689.233 137.001 688C138.036 687.29 139.072 686.58 140.139 685.848C142.832 683.58 142.996 683.02 143.802 679.309C143.855 677.871 143.876 676.432 143.87 674.993C143.89 674.205 143.909 673.417 143.93 672.606C143.984 670.07 143.995 667.536 144.001 665C144.021 663.36 144.042 661.72 144.065 660.081C144.122 654.758 144.105 649.436 144.086 644.113C144.082 642.087 144.079 640.062 144.076 638.036C144.067 632.592 144.051 627.149 144.032 621.705C144.02 618.297 144.009 614.888 143.999 611.48C143.966 600.793 143.928 590.105 143.884 579.418C143.833 567.12 143.799 554.822 143.778 542.524C143.762 532.982 143.73 523.441 143.687 513.899C143.661 508.213 143.642 502.528 143.639 496.843C143.636 491.504 143.614 486.166 143.578 480.827C143.568 478.873 143.564 476.92 143.568 474.967C143.749 460.978 143.749 460.978 139.001 448C138.634 447.333 138.267 446.666 137.888 445.979C134.064 439.45 127.556 436.014 120.46 433.99C119.127 433.675 117.792 433.37 116.456 433.072C115.72 432.904 114.984 432.736 114.225 432.562C105.796 430.672 97.3069 429.103 88.8106 427.551C85.8906 427.017 82.9719 426.476 80.0534 425.934C71.77 424.395 63.4852 422.863 55.1978 421.345C50.093 420.41 44.9904 419.464 39.8889 418.511C37.9601 418.153 36.0305 417.799 34.1002 417.449C31.4028 416.96 28.7084 416.457 26.0142 415.951C25.2317 415.813 24.4492 415.675 23.643 415.532C15.398 413.952 8.52774 411.47 3.19196 404.781C0.925208 401.392 -0.248393 398.807 -0.274109 394.694C-0.283641 393.853 -0.293158 393.011 -0.302979 392.145C-0.302067 391.244 -0.301171 390.343 -0.300232 389.414C-0.304517 388.48 -0.308817 387.545 -0.313232 386.582C-0.31897 384.607 -0.319465 382.632 -0.315125 380.656C-0.311969 377.643 -0.335414 374.63 -0.360779 371.617C-0.363052 369.695 -0.363755 367.773 -0.362732 365.852C-0.371942 364.955 -0.381136 364.057 -0.390625 363.133C-0.347259 357.233 0.43821 352.951 4.44684 348.335C9.55298 344.12 15.0598 340.743 20.7505 337.375C22.8256 336.13 24.8998 334.884 26.9732 333.637C27.9982 333.021 29.0231 332.405 30.0792 331.771C34.1531 329.301 38.1729 326.751 42.188 324.188C53.4665 317.013 64.9179 310.122 76.3555 303.206C81.6611 299.996 86.9602 296.777 92.2596 293.557C95.173 291.788 98.0868 290.019 101.001 288.25C102.167 287.542 103.334 286.833 104.501 286.125C111.501 281.875 111.501 281.875 113.251 280.812C114.417 280.104 115.584 279.396 116.75 278.688C119.67 276.915 122.589 275.143 125.509 273.371C130.725 270.206 135.939 267.039 141.148 263.864C154.727 255.587 168.352 247.394 182.037 239.295C191.46 233.717 200.842 228.079 210.188 222.375C221.666 215.371 233.242 208.544 244.853 201.765C250.234 198.623 255.604 195.469 260.938 192.25C267.621 188.218 274.339 184.246 281.061 180.279C287.279 176.61 293.491 172.931 299.7 169.246C311.616 162.175 323.557 155.146 335.514 148.146C342.686 143.946 349.849 139.733 357.001 135.5C374.303 125.262 391.637 115.076 409.048 105.022C415.231 101.451 421.398 97.8521 427.563 94.25C436.172 89.2213 444.799 84.2256 453.438 79.25C460.477 75.1963 467.508 71.1326 474.501 67C490.252 57.6948 506.139 48.6191 522.031 39.5569C528.994 35.5837 535.935 31.5747 542.876 27.5625C551.376 22.6514 559.893 17.7701 568.438 12.9375C569.342 12.4258 570.246 11.9142 571.178 11.387C575.764 8.79948 580.362 6.23415 584.973 3.69143C586.309 2.95388 586.309 2.95388 587.673 2.20144C597.655 -2.95018 613.922 1.69763 624.846 2.92715Z" fill="#101111"/>
<path d="M949.999 178C953.888 208.794 952.565 238.369 954 269.375C954.054 270.516 953.944 279.622 954 280.798C954 378.5 967.848 358.111 927.5 402.5C917.855 412.905 908.626 422.611 898 432C897.255 432.661 881.268 449.819 880.5 450.5C863.181 465.828 848 484 831.339 499.567C823.384 507 814.862 512.989 807.228 520.689C806.391 521.529 805.555 522.369 804.693 523.234C802.89 525.044 801.088 526.855 799.288 528.667C796.441 531.531 793.591 534.391 790.74 537.25C782.639 545.375 774.544 553.506 766.454 561.641C761.973 566.147 757.488 570.649 752.999 575.148C750.627 577.525 748.258 579.904 745.893 582.287C743.264 584.935 740.63 587.576 737.994 590.217C737.209 591.01 736.425 591.803 735.617 592.62C734.902 593.334 734.187 594.047 733.451 594.782C732.829 595.407 732.207 596.032 731.566 596.676C729.999 598 729.999 598 727.999 598C727.999 598.66 727.999 599.32 727.999 600C726.569 601.411 726.569 601.411 724.567 603.064C719.775 607.143 715.347 611.519 710.909 615.977C709.602 617.283 709.602 617.283 708.269 618.616C705.904 620.982 703.541 623.35 701.179 625.719C698.696 628.209 696.209 630.696 693.723 633.183C689.02 637.888 684.32 642.597 679.621 647.306C674.288 652.651 668.951 657.993 663.615 663.334C654.489 672.469 645.365 681.605 636.244 690.744C635.491 691.498 634.739 692.252 633.963 693.029C633.315 693.679 632.666 694.329 631.998 694.999C631.338 695.659 630.679 696.32 629.999 697C629.214 697.796 628.429 698.591 627.62 699.411C624.849 702.148 621.991 704.776 619.111 707.395C611.603 714.281 604.405 721.46 597.213 728.673C595.783 730.103 594.352 731.534 592.921 732.964C589.079 736.806 585.24 740.651 581.401 744.496C577.374 748.53 573.344 752.561 569.314 756.592C561.701 764.208 554.091 771.826 546.483 779.445C537.812 788.126 529.139 796.805 520.465 805.484C502.64 823.319 484.818 841.158 466.999 859C463.999 858 463.999 858 462.336 854.798C460.285 848.745 460.579 842.552 460.605 836.229C460.6 834.83 460.594 833.431 460.586 832.032C460.57 828.203 460.572 824.373 460.578 820.543C460.58 816.408 460.566 812.272 460.554 808.136C460.533 800.04 460.528 791.943 460.53 783.846C460.531 777.265 460.527 770.683 460.52 764.102C460.518 762.205 460.516 760.308 460.514 758.411C460.513 757.467 460.512 756.523 460.51 755.55C460.492 737.701 460.493 719.852 460.499 702.003C460.505 685.678 460.484 669.354 460.451 653.029C460.417 636.261 460.402 619.492 460.407 602.724C460.409 593.312 460.404 583.9 460.379 574.488C460.358 566.477 460.354 558.465 460.373 550.454C460.382 546.368 460.383 542.282 460.363 538.195C460.344 534.452 460.349 530.709 460.371 526.965C460.378 524.976 460.359 522.986 460.34 520.997C460.426 512.26 462.124 506.4 467.929 499.809C477.314 493.194 489.752 495.694 500.466 497.498C502.687 497.887 504.906 498.287 507.124 498.688C508.696 498.962 510.268 499.235 511.841 499.507C515.023 500.059 518.203 500.618 521.383 501.183C525.719 501.953 530.06 502.701 534.402 503.441C539.217 504.264 544.033 505.088 548.847 505.922C549.878 506.1 550.909 506.279 551.972 506.462C554.009 506.824 556.043 507.2 558.076 507.588C559.527 507.866 559.527 507.866 561.007 508.148C561.855 508.315 562.704 508.482 563.578 508.654C570.726 509.676 575.213 508.274 580.999 504C583.359 501.966 585.62 499.838 587.874 497.688C589.118 496.516 590.363 495.346 591.609 494.176C592.198 493.621 592.788 493.066 593.396 492.495C595.86 490.198 598.403 487.998 600.952 485.797C603.63 483.446 606.252 481.037 608.874 478.625C615.499 472.533 622.147 466.471 628.937 460.562C633.135 456.907 637.239 453.15 641.351 449.398C643.505 447.448 645.676 445.526 647.874 443.625C650.853 441.042 653.748 438.383 656.63 435.694C661.246 431.388 665.885 427.205 670.812 423.25C674.846 420.011 678.509 416.601 682.113 412.895C684.587 410.41 687.21 408.134 689.866 405.848C692.273 403.763 694.637 401.635 696.999 399.5C699.958 396.83 702.929 394.177 705.937 391.562C709.165 388.752 712.337 385.884 715.499 383C719.286 379.547 723.104 376.139 726.972 372.777C729.334 370.706 731.667 368.605 733.999 366.5C737.619 363.233 741.269 360.005 744.948 356.805C747.26 354.77 749.535 352.698 751.812 350.625C755.351 347.423 758.97 344.369 762.687 341.375C766.467 338.317 769.957 335.162 773.335 331.672C775.721 329.275 778.272 327.091 780.831 324.883C783.248 322.784 785.625 320.646 787.999 318.5C791.619 315.233 795.269 312.005 798.948 308.805C801.26 306.77 803.535 304.698 805.812 302.625C809.21 299.553 812.675 296.616 816.249 293.75C821.323 289.65 826.062 285.266 830.807 280.798C835.1 276.777 839.562 273.05 844.155 269.375C847.556 266.535 850.775 263.536 853.999 260.5C858.912 255.874 863.95 251.527 869.222 247.309C872.424 244.647 875.462 241.845 878.499 239C883.238 234.562 888.12 230.409 893.187 226.344C896.398 223.668 899.45 220.856 902.499 218C907.26 213.541 912.164 209.362 917.253 205.277C920.262 202.782 923.139 200.162 925.999 197.5C931.469 192.413 937.18 187.684 942.999 183C944.21 181.982 945.419 180.962 946.624 179.938C948.999 178 948.999 178 949.999 178Z" fill="#FDFDFD"/>
<path d="M723 88C723.232 98.9267 723.41 109.853 723.518 120.782C723.57 125.857 723.641 130.931 723.754 136.005C723.863 140.907 723.923 145.808 723.949 150.711C723.967 152.576 724.003 154.442 724.057 156.307C724.464 170.904 724.464 170.904 720.832 176.104C718.329 178.385 715.865 180.207 713 182C711.806 182.94 710.62 183.891 709.453 184.863C708.388 185.683 707.32 186.499 706.25 187.312C700.703 191.6 695.348 196.066 690.047 200.653C684.781 205.206 679.407 209.615 674 214C672.166 215.499 670.333 216.999 668.5 218.5C657.5 227.5 646.5 236.5 635.5 245.5C634.585 246.249 633.669 246.998 632.727 247.77C630.972 249.205 629.217 250.64 627.461 252.074C621.797 256.703 616.146 261.348 610.5 266C604.011 271.347 597.511 276.681 591 282C589.166 283.5 587.333 285 585.5 286.5C574.5 295.5 563.5 304.5 552.5 313.5C551.585 314.249 550.669 314.998 549.727 315.77C547.972 317.205 546.217 318.64 544.461 320.074C538.05 325.313 531.657 330.574 525.268 335.84C521.271 339.134 517.266 342.417 513.25 345.688C508.732 349.377 504.28 353.138 499.835 356.915C496.419 359.813 492.975 362.672 489.5 365.5C483.823 370.124 478.237 374.852 472.657 379.593C469.402 382.357 466.14 385.113 462.88 387.87C460.144 390.184 457.41 392.5 454.68 394.82C449.697 399.051 444.703 403.259 439.625 407.375C423.925 420.225 409.638 432.087 403 452C402.918 453.794 402.897 455.591 402.909 457.387C402.914 458.506 402.918 459.625 402.923 460.777C402.933 462.005 402.943 463.233 402.953 464.499C402.963 466.483 402.972 468.468 402.981 470.453C402.991 472.588 403.003 474.723 403.015 476.858C403.037 481.314 403.043 485.769 403.044 490.224C403.044 490.977 403.044 491.729 403.045 492.504C403.045 495.609 403.045 498.713 403.045 501.817C403.045 510.623 403.062 519.429 403.127 528.235C403.178 535.232 403.194 542.228 403.169 549.225C403.157 552.925 403.163 556.624 403.212 560.324C403.266 564.459 403.242 568.59 403.211 572.725C403.253 574.549 403.253 574.549 403.297 576.41C403.204 581.465 403.037 584.713 399.798 588.732C397.294 591.008 394.749 593.031 392 595C391.011 595.824 390.023 596.647 389.004 597.496C388.198 598.137 387.393 598.777 386.562 599.438C382.759 602.513 379.099 605.688 375.5 609C371.132 613.016 366.631 616.794 362.016 620.52C358.453 623.45 354.975 626.468 351.5 629.5C347.118 633.323 342.709 637.092 338.187 640.75C333.831 644.277 329.673 647.975 325.531 651.75C322.022 654.869 318.368 657.797 314.719 660.75C311.221 663.645 307.882 666.696 304.527 669.754C301.93 672.062 299.266 674.256 296.562 676.438C291.789 680.298 287.266 684.374 282.75 688.531C279.188 691.729 275.474 694.714 271.75 697.719C267.959 700.863 264.364 704.204 260.742 707.539C258.1 709.91 255.393 712.153 252.625 714.375C247.829 718.242 243.33 722.35 238.836 726.558C234.652 730.455 230.291 734.065 225.828 737.641C221.969 740.86 218.311 744.281 214.678 747.752C212.008 750.272 209.309 752.56 206.304 754.675C205.682 755.114 205.061 755.552 204.421 756.005C203.952 756.333 203.483 756.662 203 757C202.679 717.678 202.433 678.357 202.285 639.034C202.268 634.39 202.249 629.747 202.231 625.103C202.227 624.179 202.224 623.254 202.22 622.302C202.159 607.338 202.049 592.375 201.92 577.412C201.789 562.055 201.711 546.699 201.683 531.341C201.663 521.866 201.603 512.394 201.489 502.92C201.415 496.42 201.393 489.922 201.411 483.422C201.42 479.673 201.406 475.927 201.331 472.178C200.879 448.504 200.879 448.504 206.067 443.072C209.443 440.331 213.01 438.686 217 437C218.514 435.995 220.008 434.957 221.453 433.855C222.719 432.966 223.984 432.077 225.25 431.188C231.161 427.028 237.028 422.812 242.875 418.562C249.891 413.468 257.007 408.537 264.177 403.662C269.365 400.131 274.499 396.538 279.592 392.872C284.611 389.262 289.679 385.724 294.75 382.188C301.208 377.681 307.627 373.127 314 368.5C322.791 362.119 331.688 355.896 340.597 349.68C344.302 347.09 347.995 344.484 351.687 341.875C352.379 341.386 353.071 340.897 353.784 340.394C355.856 338.93 357.928 337.465 360 336C369.835 329.046 379.686 322.114 389.558 315.211C394.881 311.488 400.195 307.75 405.5 304C421.625 292.604 437.832 281.324 454.046 270.054C457.034 267.976 460.021 265.897 463.008 263.816C475.436 255.161 487.885 246.538 500.394 238C509.063 232.082 517.704 226.129 526.312 220.125C534.749 214.242 543.226 208.422 551.734 202.643C558.316 198.166 564.851 193.625 571.375 189.062C580.332 182.804 589.385 176.702 598.491 170.662C604.215 166.864 609.912 163.032 615.562 159.125C622.304 154.464 629.106 149.902 635.936 145.371C639.753 142.836 643.563 140.292 647.375 137.75C649.176 136.549 650.976 135.349 652.777 134.148C653.758 133.495 654.739 132.841 655.749 132.167C662.684 127.544 662.684 127.544 664.63 126.246C665.975 125.35 667.319 124.454 668.664 123.558C672.159 121.227 675.655 118.897 679.152 116.567C685.635 112.247 692.116 107.925 698.589 103.59C701.39 101.715 704.193 99.8406 706.995 97.9666C708.327 97.0752 709.659 96.1829 710.99 95.2897C712.825 94.0583 714.662 92.8296 716.5 91.6016C717.542 90.9037 718.583 90.2058 719.656 89.4868C722 88 722 88 723 88Z" fill="#FDFDFD"/>
<path d="M614.723 13.5001C617.953 13.9929 621.114 14.2497 624.375 14.4376C630.65 14.8276 636.833 15.5917 643.062 16.4376C651.49 17.5811 659.909 18.544 668.383 19.2655C673.301 19.6961 678.176 20.2822 683.066 20.9571C691.338 22.0831 699.625 22.8757 707.938 23.6251C709.411 23.7603 710.884 23.8957 712.357 24.0314C715.905 24.3575 719.452 24.6799 723 25.0001C721.058 29.5061 717.915 31.2127 713.812 33.6251C712.344 34.5151 710.876 35.4071 709.41 36.3009C708.297 36.9769 708.297 36.9769 707.161 37.6666C703.97 39.6361 700.858 41.7149 697.75 43.8126C692.344 47.4463 686.905 51.0231 681.438 54.5626C664.898 65.283 648.459 76.1567 632 87.0001C631.124 87.5775 630.247 88.155 629.344 88.7499C618.407 95.9561 607.47 103.165 596.535 110.374C589.677 114.895 582.817 119.415 575.957 123.934C572.989 125.889 570.022 127.844 567.054 129.799C565.176 131.037 563.297 132.274 561.418 133.511C550.007 141.027 538.615 148.57 527.257 156.166C519.384 161.43 511.491 166.66 503.578 171.863C502.659 172.468 501.739 173.073 500.792 173.696C496.998 176.191 493.204 178.686 489.408 181.179C478.107 188.601 466.869 196.101 455.726 203.76C448.228 208.91 440.675 213.981 433.13 219.062C428.454 222.211 423.78 225.361 419.105 228.512C418.169 229.143 417.232 229.775 416.267 230.425C410.233 234.493 404.202 238.566 398.176 242.645C397.41 243.163 396.645 243.681 395.856 244.215C392.311 246.614 388.768 249.015 385.224 251.416C378.359 256.066 371.476 260.689 364.573 265.282C357.856 269.755 351.177 274.282 344.5 278.813C343.16 279.721 341.82 280.63 340.48 281.538C338.403 282.946 336.326 284.355 334.249 285.763C329.492 288.989 324.735 292.212 319.977 295.434C304.983 305.586 289.998 315.752 275.028 325.94C269.853 329.461 264.676 332.98 259.5 336.5C252.257 341.425 245.014 346.35 237.772 351.277C235.726 352.669 233.678 354.06 231.63 355.449C226.516 358.92 221.411 362.402 216.326 365.914C213.761 367.684 211.193 369.448 208.624 371.21C207.385 372.063 206.148 372.919 204.913 373.778C203.192 374.974 201.464 376.16 199.734 377.344C198.747 378.026 197.759 378.709 196.741 379.412C194.009 380.995 192.134 381.755 189 382C187.053 381.286 185.108 380.566 183.195 379.766C180.121 378.694 177.115 378.448 173.883 378.211C172 378 172 378 170 377C168.638 376.739 167.267 376.516 165.895 376.317C164.666 376.132 164.666 376.132 163.412 375.943C161.699 375.692 159.985 375.442 158.271 375.193C154.641 374.647 151.188 374.055 147.656 373.031C142.405 371.55 137.072 370.785 131.688 369.938C129.524 369.596 127.361 369.251 125.199 368.902C123.774 368.678 123.774 368.678 122.319 368.449C120 368 120 368 118 367C115.044 366.512 112.089 366.058 109.125 365.625C103.677 364.802 98.3254 363.941 93 362.5C87.0771 360.905 81.1045 360.031 75.0476 359.123C70.579 358.441 66.2047 357.649 61.8125 356.563C54.4209 354.743 46.9163 353.615 39.3997 352.446C34.4231 351.654 29.7268 350.824 25 349C28.6598 344.785 33.1738 342.336 37.9375 339.563C39.7599 338.486 41.5815 337.408 43.4023 336.328C44.802 335.5 44.802 335.5 46.23 334.654C50.5193 332.093 54.7599 329.455 59 326.813C67.2602 321.677 75.5578 316.605 83.875 311.563C84.7709 311.019 84.7709 311.019 85.6848 310.465C88.0792 309.014 90.4738 307.562 92.8685 306.111C98.4171 302.749 103.959 299.375 109.5 296C111.37 294.862 113.24 293.724 115.109 292.586C118.733 290.381 122.356 288.174 125.978 285.966C139.217 277.897 152.495 269.904 165.848 262.025C174.001 257.206 182.102 252.307 190.188 247.375C199.704 241.571 209.283 235.89 218.929 230.304C227.211 225.493 235.399 220.536 243.576 215.55C255.716 208.147 267.945 200.898 280.188 193.666C283.738 191.563 287.278 189.442 290.812 187.313C297.535 183.265 304.29 179.274 311.049 175.286C316.226 172.231 321.401 169.171 326.57 166.102C339.275 158.56 352.004 151.062 364.773 143.629C371.07 139.963 377.355 136.279 383.639 132.592C402.65 121.439 421.682 110.324 440.782 99.3238C446.705 95.9101 452.615 92.4781 458.5 89.0001C474.25 79.6957 490.136 70.622 506.026 61.5592C513.03 57.5616 520.017 53.5336 527 49.5001C539.504 42.2793 552.036 35.1093 564.58 27.9596C567.792 26.1287 571.004 24.2968 574.215 22.4644C575.48 21.7431 576.745 21.0222 578.01 20.3017C579.781 19.2933 581.55 18.2834 583.32 17.2736C584.344 16.6901 585.368 16.1066 586.422 15.5055C595.616 10.1364 604.376 11.7285 614.723 13.5001Z" fill="#FCFCFC"/>
<path d="M903.406 46.1916C904.104 46.2527 904.802 46.3139 905.521 46.3769C906.973 46.5057 908.424 46.6431 909.874 46.7889C913.11 47.1104 916.352 47.3545 919.594 47.6134C922.229 47.8438 924.865 48.0766 927.5 48.3127C928.563 48.4068 928.563 48.4068 929.648 48.5028C942.819 49.6702 955.973 50.9838 969.127 52.3239C980.616 53.4931 992.101 54.5698 1003.62 55.4047C1008.13 55.7367 1012.55 56.1493 1017 57.0002C1012 63.4282 1005.98 68.4112 999.733 73.5651C996.992 75.8348 994.277 78.1362 991.562 80.4377C991.028 80.89 990.493 81.3423 989.943 81.8083C980.44 89.8527 971.011 97.9816 961.608 106.142C955.671 111.292 949.706 116.407 943.734 121.516C940.821 124.009 937.911 126.505 935 129C933.833 130 932.667 131 931.5 132C930.923 132.495 930.345 132.99 929.75 133.5C910.5 150 910.5 150 908.749 151.501C907.585 152.498 906.422 153.496 905.259 154.494C902.296 157.035 899.33 159.573 896.359 162.106C891.122 166.576 885.906 171.053 880.812 175.688C877.499 178.698 874.111 181.566 870.625 184.375C866.071 188.057 861.764 191.928 857.481 195.914C853.394 199.695 849.12 203.197 844.781 206.688C841.76 209.2 838.876 211.824 836 214.5C831.412 218.769 826.666 222.758 821.781 226.688C818.76 229.2 815.876 231.824 813 234.5C808.412 238.769 803.666 242.758 798.781 246.688C795.76 249.2 792.876 251.824 790 254.5C785.412 258.769 780.666 262.758 775.781 266.688C772.76 269.2 769.876 271.824 767 274.5C763.267 277.974 759.476 281.301 755.5 284.5C750.388 288.617 745.574 292.992 740.762 297.449C736.188 301.673 731.483 305.734 726.75 309.777C725.542 310.81 724.333 311.843 723.125 312.875C722.516 313.395 721.908 313.915 721.281 314.45C717.743 317.479 714.256 320.552 710.812 323.688C707.521 326.679 704.154 329.525 700.688 332.313C695.872 336.205 691.348 340.333 686.832 344.562C683.529 347.64 680.156 350.557 676.625 353.375C672.042 357.05 667.764 360.967 663.5 365C658.412 369.813 653.219 374.355 647.742 378.727C644.55 381.374 641.526 384.166 638.5 387C634.625 390.63 630.711 394.118 626.562 397.438C620.849 402.023 615.548 406.998 610.207 412.004C605.536 416.381 600.703 420.552 595.828 424.699C595.248 425.195 594.668 425.69 594.071 426.201C592.855 427.235 591.634 428.264 590.407 429.286C586.907 432.234 583.745 435.233 580.808 438.749C574.693 444.885 574.693 444.885 569.844 445.214C568.637 445.026 567.431 444.838 566.188 444.645C565.477 444.54 564.766 444.435 564.033 444.327C561.349 443.918 558.676 443.46 556 443C553.588 442.602 551.177 442.203 548.765 441.805C540.872 440.488 532.991 439.107 525.111 437.717C522.019 437.173 518.926 436.632 515.832 436.091C461.218 426.533 461.218 426.533 439 422C441.657 418.481 444.351 415.723 447.812 413C452.471 409.269 457.006 405.427 461.5 401.5C466.655 397.004 471.875 392.614 477.191 388.309C480.503 385.587 483.753 382.799 487 380C492.013 375.681 497.085 371.449 502.223 367.277C505.344 364.718 508.424 362.114 511.5 359.5C516.266 355.452 521.073 351.461 525.922 347.512C529.792 344.354 533.646 341.177 537.5 338C543.989 332.653 550.489 327.32 557 322C558.263 320.966 558.263 320.966 559.551 319.91C565.023 315.427 570.508 310.96 576 306.5C585.194 299.033 594.359 291.531 603.5 284C611.192 277.663 618.889 271.334 626.629 265.055C634.325 258.811 641.998 252.54 649.643 246.232C654.412 242.3 659.199 238.392 664 234.5C671.647 228.3 679.248 222.045 686.841 215.779C689.024 213.981 691.209 212.185 693.395 210.391C699.865 205.076 706.319 199.75 712.688 194.313C717.584 190.134 722.607 186.148 727.691 182.201C732.597 178.37 737.319 174.35 742.024 170.277C746.133 166.725 750.318 163.291 754.578 159.922C759.097 156.336 763.541 152.659 768 149C769.833 147.5 771.666 146 773.5 144.5C774.408 143.758 775.315 143.015 776.25 142.25C784.5 135.5 784.5 135.5 787.27 133.235C789.038 131.787 790.806 130.339 792.574 128.891C795.381 126.592 798.19 124.295 801 122C801.6 121.51 802.199 121.02 802.817 120.515C810.511 114.23 818.24 107.998 826.066 101.879C830.432 98.4603 834.737 94.9727 839.02 91.4494C847.735 84.2874 856.496 77.1795 865.32 70.1525C868.155 67.8756 870.969 65.5751 873.781 63.2702C875.863 61.5727 877.958 59.8935 880.055 58.215C882.492 56.2573 884.842 54.2551 887.133 52.1291C892.625 47.3326 896.028 45.4799 903.406 46.1916Z" fill="#FCFCFC"/>
<path d="M968 387C969.47 387.2 970.942 387.389 972.417 387.557C973.77 387.753 975.124 387.953 976.477 388.156C977.213 388.263 977.949 388.371 978.707 388.481C981.014 388.817 983.319 389.158 985.625 389.5C999.279 391.519 999.279 391.519 1013 393C1011.49 396.555 1009.42 398.796 1006.68 401.484C1005.81 402.338 1004.95 403.191 1004.06 404.07C1003.15 404.955 1002.25 405.839 1001.31 406.75C995.869 412.086 990.53 417.412 985.571 423.204C983.179 425.939 980.6 428.465 978 431C974.713 434.242 971.492 437.48 968.5 441C965.025 445.088 961.22 448.807 957.407 452.574C954.029 455.926 950.858 459.382 947.773 463.008C945.609 465.439 943.316 467.712 941 470C938.131 472.835 935.355 475.671 932.75 478.75C928.839 483.331 924.539 487.515 920.237 491.726C917.218 494.701 914.329 497.725 911.562 500.938C907.288 505.89 902.629 510.422 897.961 515C893.999 518.916 890.256 522.936 886.621 527.156C883.546 530.654 880.175 533.841 876.844 537.094C874.693 539.238 872.698 541.478 870.719 543.781C865.993 549.239 860.817 554.23 855.672 559.289C851.473 563.445 847.468 567.68 843.617 572.16C841.204 574.905 838.616 577.45 836 580C832.099 583.849 828.392 587.765 824.84 591.941C822.043 595.071 819.035 597.985 816.049 600.932C812.8 604.154 809.775 607.494 806.809 610.973C804.63 613.414 802.328 615.701 800 618C797.151 620.815 794.395 623.627 791.812 626.688C787.65 631.565 783.033 635.991 778.481 640.5C774.71 644.248 771.098 648.048 767.668 652.113C764.746 655.418 761.551 658.456 758.414 661.555C755.712 664.291 753.209 667.15 750.711 670.07C748.882 672.133 746.964 674.066 745 676C742.482 678.479 740.099 680.994 737.812 683.688C734.556 687.483 731.054 690.986 727.5 694.5C723.38 698.573 719.423 702.69 715.672 707.109C713.061 710.062 710.234 712.788 707.406 715.531C705.424 717.565 703.57 719.631 701.719 721.781C697.383 726.779 692.681 731.37 687.961 736C684.01 739.906 680.278 743.916 676.652 748.125C674.225 750.879 671.628 753.439 669 756C665.734 759.222 662.531 762.435 659.562 765.938C655.875 770.278 651.809 774.217 647.762 778.218C644.276 781.68 640.984 785.228 637.805 788.977C635.474 791.59 632.992 794.042 630.5 796.5C627.468 799.492 624.498 802.492 621.75 805.75C618.224 809.893 614.362 813.675 610.5 817.5C606.113 821.845 601.848 826.19 597.867 830.914C594.655 834.502 591.183 837.836 587.76 841.221C584.296 844.661 581.029 848.186 577.871 851.91C574.861 855.273 571.619 858.401 568.409 861.572C565.017 864.938 561.825 868.407 558.73 872.051C555.913 875.224 552.861 878.159 549.82 881.117C547.936 882.878 547.936 882.878 547 885C541.837 884.401 536.792 883.628 531.695 882.582C531.022 882.444 530.348 882.307 529.654 882.165C527.477 881.718 525.301 881.266 523.125 880.813C522.007 880.58 522.007 880.58 520.867 880.343C516.3 879.392 511.735 878.431 507.172 877.461C505.763 877.162 504.354 876.864 502.945 876.566C498.708 875.67 494.478 874.749 490.25 873.813C489.193 873.587 488.136 873.362 487.047 873.13C481.531 871.88 477.45 870.534 473 867C477.108 862.106 481.369 857.488 485.894 852.979C486.563 852.309 487.232 851.638 487.922 850.947C490.148 848.716 492.379 846.489 494.609 844.262C496.213 842.657 497.816 841.051 499.42 839.445C503.765 835.096 508.113 830.75 512.461 826.404C517.018 821.85 521.572 817.293 526.127 812.737C534.267 804.596 542.408 796.457 550.551 788.319C557.922 780.953 565.291 773.583 572.658 766.212C581.226 757.638 589.797 749.065 598.37 740.495C602.903 735.964 607.435 731.432 611.965 726.898C616.226 722.634 620.49 718.373 624.755 714.114C626.317 712.553 627.878 710.992 629.438 709.43C631.573 707.291 633.712 705.156 635.852 703.021C636.463 702.408 637.074 701.795 637.703 701.163C641.394 697.489 645.217 694.026 649.155 690.619C651.557 688.511 653.828 686.292 656.084 684.029C657.009 683.104 657.934 682.179 658.887 681.226C659.885 680.224 660.882 679.221 661.879 678.219C662.951 677.145 664.023 676.072 665.095 674.999C667.389 672.701 669.681 670.402 671.973 668.102C675.602 664.459 679.236 660.82 682.869 657.182C690.583 649.457 698.292 641.729 706 634C714.324 625.654 722.649 617.308 730.979 608.968C734.585 605.357 738.189 601.743 741.791 598.128C744.038 595.873 746.287 593.62 748.537 591.368C749.573 590.33 750.609 589.291 751.643 588.252C756.67 583.199 761.729 578.275 767.139 573.635C770.396 570.773 773.43 567.692 776.482 564.615C777.533 563.563 777.533 563.563 778.605 562.489C780.111 560.978 781.616 559.467 783.121 557.955C785.507 555.555 787.897 553.159 790.287 550.764C795.361 545.679 800.431 540.59 805.5 535.5C811.379 529.598 817.259 523.697 823.143 517.801C825.487 515.451 827.828 513.097 830.169 510.744C831.618 509.291 833.068 507.838 834.518 506.385C835.159 505.738 835.8 505.092 836.461 504.426C839.49 501.397 842.56 498.483 845.815 495.697C850.976 491.235 855.688 486.34 860.448 481.459C861.474 480.412 862.5 479.365 863.526 478.318C865.159 476.653 866.791 474.988 868.422 473.322C872.457 469.201 876.503 465.091 880.556 460.987C881.147 460.389 881.737 459.791 882.346 459.175C884.777 456.712 887.209 454.251 889.642 451.789C896.528 444.82 903.403 437.84 910.246 430.828C915.699 425.241 921.175 419.677 926.679 414.139C929.585 411.213 932.479 408.276 935.345 405.311C938.039 402.525 940.762 399.77 943.51 397.037C944.51 396.032 945.499 395.016 946.475 393.988C953.546 386.562 957.957 384.716 968 387Z" fill="#FCFCFC"/>
<path d="M18.4456 358.105C19.9674 358.385 21.4854 358.685 23.0003 359C25.0184 359.351 27.0366 359.701 29.055 360.051C31.3291 360.468 33.6025 360.889 35.8753 361.312C37.6778 361.647 37.6778 361.647 39.5167 361.988C46.1442 363.232 52.7412 364.551 59.3128 366.062C71.8485 368.942 84.5163 371.204 97.2376 373.091C105.737 374.356 114.014 376.103 122.358 378.157C135.421 381.362 148.638 383.502 161.946 385.426C167.632 386.297 173.272 387.384 178.875 388.687C180.697 389.095 180.697 389.095 182.555 389.512C187.222 391.528 189.749 393.356 192 398C192.918 404.009 192.806 409.982 192.755 416.048C192.762 417.924 192.771 419.799 192.782 421.675C192.805 426.828 192.79 431.98 192.77 437.133C192.754 442.69 192.773 448.248 192.788 453.806C192.811 464.694 192.801 475.581 192.78 486.469C192.764 495.319 192.76 504.168 192.764 513.017C192.765 514.276 192.766 515.535 192.766 516.832C192.768 519.39 192.769 521.947 192.77 524.505C192.782 547.812 192.76 571.119 192.724 594.427C192.692 615.695 192.687 636.964 192.707 658.233C192.712 663.678 192.717 669.123 192.722 674.567C192.722 675.238 192.723 675.908 192.724 676.599C192.738 694.377 192.73 712.155 192.715 729.934C192.713 732.483 192.71 735.032 192.708 737.581C192.707 738.835 192.706 740.089 192.705 741.381C192.699 750.218 192.703 759.055 192.712 767.892C192.723 778.665 192.715 789.437 192.685 800.209C192.67 805.705 192.663 811.2 192.677 816.696C192.69 821.729 192.68 826.762 192.652 831.794C192.645 833.613 192.647 835.432 192.659 837.251C192.721 847.997 192.488 857.216 184.688 865.437C171.486 873.113 157.707 868.524 143.688 865.25C141.295 864.702 138.902 864.158 136.508 863.614C134.921 863.253 133.333 862.891 131.746 862.528C124.018 860.763 116.263 859.139 108.497 857.548C93.8747 854.549 93.8747 854.549 88.4417 852.957C84.637 851.899 80.835 851.271 76.9378 850.687C62.9442 848.473 49.1164 845.175 35.4105 841.605C33.8449 841.212 32.2687 840.858 30.6839 840.551C25.723 839.555 23.1729 837.941 20.0003 834C18.3045 828.912 18.775 823.501 18.7601 818.176C18.7504 816.073 18.7193 813.971 18.6878 811.869C18.6813 810.528 18.676 809.188 18.6722 807.847C18.6628 806.631 18.6535 805.414 18.6439 804.16C19.0309 800.728 19.4441 799.305 22.0003 797C30.5561 795.013 40.3383 798.229 48.7503 800.062C50.2456 800.38 51.7411 800.697 53.2366 801.013C63.3414 803.16 73.424 805.411 83.5003 807.687C85.4315 808.124 85.4315 808.124 87.4017 808.569C92.7468 809.783 98.086 811.01 103.407 812.328C116.239 815.47 128.363 817.769 140.407 810.824C148.057 805.444 151.669 798.976 154 790C154.535 785.348 154.541 780.749 154.508 776.071C154.513 774.692 154.519 773.312 154.527 771.933C154.544 768.171 154.536 764.409 154.523 760.647C154.514 756.579 154.528 752.511 154.539 748.442C154.557 740.484 154.553 732.525 154.541 724.567C154.532 718.096 154.531 711.626 154.536 705.156C154.537 703.772 154.537 703.772 154.537 702.361C154.539 700.487 154.54 698.613 154.541 696.739C154.553 679.184 154.54 661.63 154.518 644.075C154.5 629.025 154.503 613.975 154.522 598.926C154.543 581.432 154.552 563.938 154.539 546.444C154.538 544.578 154.537 542.711 154.536 540.844C154.535 539.925 154.534 539.007 154.534 538.061C154.53 531.601 154.536 525.142 154.546 518.682C154.557 510.806 154.554 502.929 154.532 495.053C154.522 491.037 154.518 487.022 154.531 483.006C154.543 479.325 154.536 475.644 154.515 471.963C154.509 470.012 154.521 468.061 154.535 466.11C154.415 452.563 149.879 441.761 140.16 432.187C138.187 430.585 136.193 429.287 134 428C133.159 427.488 132.317 426.976 131.45 426.449C122.369 421.602 112.95 420.392 102.868 418.957C99.0819 418.396 95.4969 417.639 91.8245 416.566C85.074 414.631 78.1909 413.592 71.2676 412.495C67.2828 411.862 63.3018 411.206 59.3206 410.551C58.5274 410.42 57.7342 410.29 56.917 410.155C49.6985 408.963 42.501 407.677 35.3128 406.312C34.2886 406.122 33.2643 405.932 32.2091 405.737C15.7697 402.565 15.7697 402.565 12.0003 398C10.8306 394.491 10.8009 391.283 10.762 387.629C10.754 386.91 10.7459 386.191 10.7376 385.451C10.7238 383.932 10.713 382.413 10.7052 380.894C10.6879 378.574 10.644 376.255 10.5999 373.935C10.5898 372.458 10.5813 370.981 10.5745 369.504C10.557 368.812 10.5395 368.12 10.5215 367.407C10.5366 364.048 10.8059 362.266 12.8116 359.524C15.0003 358 15.0003 358 18.4456 358.105Z" fill="#FBFBFB"/>
<path d="M464.635 436.483C475.02 438.754 485.495 440.409 496 442C507.217 443.7 518.366 445.541 529.453 447.969C531.031 448.312 532.609 448.656 534.188 449C534.968 449.172 535.749 449.344 536.553 449.522C540.923 450.455 545.264 451.199 549.699 451.746C550.646 451.864 551.592 451.982 552.568 452.103C554.396 452.321 556.227 452.52 558.059 452.697C558.893 452.796 559.727 452.894 560.586 452.996C561.319 453.07 562.051 453.144 562.806 453.22C566.226 454.435 567.797 456.138 570 459C570.476 461.875 570.658 464.142 570.594 467.004C570.594 467.764 570.594 468.524 570.594 469.308C570.589 470.909 570.571 472.51 570.542 474.111C570.5 476.558 570.501 479.003 570.508 481.451C570.497 483.01 570.485 484.57 570.469 486.129C570.469 486.858 570.468 487.587 570.468 488.339C570.399 491.302 570.106 493.743 568.971 496.492C565.277 499.318 560.845 498.229 556.488 497.687C553.651 497.274 550.827 496.805 548 496.32C546.965 496.147 545.93 495.975 544.863 495.796C542.684 495.431 540.506 495.063 538.328 494.692C535.012 494.127 531.694 493.572 528.375 493.019C526.25 492.662 524.125 492.304 522 491.945C521.017 491.78 520.033 491.616 519.02 491.446C513.602 490.519 508.318 489.386 503 488C490.548 485.649 477.364 483.281 466 490C464.969 490.515 463.938 491.031 462.875 491.562C456.797 496.715 452.411 504.126 451 512C450.703 516.541 450.717 521.074 450.726 525.624C450.722 527.019 450.716 528.414 450.71 529.809C450.696 533.633 450.694 537.458 450.695 541.282C450.693 545.41 450.68 549.538 450.669 553.667C450.646 562.69 450.638 571.713 450.633 580.735C450.629 586.373 450.623 592.01 450.616 597.647C450.596 613.265 450.58 628.883 450.577 644.502C450.577 645.501 450.576 646.5 450.576 647.529C450.576 649.554 450.576 651.579 450.575 653.604C450.575 654.609 450.575 655.615 450.575 656.65C450.574 657.657 450.574 658.663 450.574 659.7C450.571 676.003 450.543 692.305 450.506 708.608C450.468 725.358 450.449 742.109 450.448 758.859C450.448 768.259 450.439 777.658 450.41 787.058C450.386 795.063 450.379 803.068 450.394 811.072C450.401 815.153 450.4 819.233 450.377 823.314C450.356 827.058 450.359 830.8 450.38 834.544C450.385 836.523 450.366 838.502 450.345 840.482C450.446 851.242 453.179 861.753 460.145 870.223C469.482 879.167 480.821 881.95 493.125 884.25C502.635 886.095 512.112 888.057 521.567 890.167C522.927 890.47 524.288 890.77 525.65 891.067C544.376 895.167 544.376 895.167 548 900C549.17 903.509 549.199 906.716 549.238 910.371C549.246 911.09 549.255 911.808 549.263 912.549C549.277 914.068 549.287 915.587 549.295 917.106C549.313 919.426 549.356 921.745 549.401 924.064C549.411 925.542 549.419 927.019 549.426 928.496C549.443 929.188 549.461 929.879 549.479 930.592C549.464 933.957 549.197 935.732 547.18 938.473C545 940 545 940 541.703 939.941C540.131 939.652 538.564 939.334 537 939C535.39 938.69 535.39 938.69 533.748 938.374C529.742 937.593 525.746 936.77 521.75 935.937C520.646 935.709 520.646 935.709 519.519 935.476C506.35 932.75 493.216 929.878 480.099 926.916C473.056 925.328 466.011 923.779 458.93 922.371C457.041 921.989 457.041 921.989 455.115 921.6C452.806 921.137 450.494 920.687 448.178 920.254C436.799 917.952 426.179 913.455 419 904C415.018 897.3 412.849 891.639 412.866 883.834C412.864 883.096 412.861 882.357 412.859 881.597C412.852 879.103 412.853 876.61 412.853 874.116C412.85 872.318 412.846 870.52 412.842 868.722C412.832 863.766 412.828 858.809 412.825 853.853C412.822 848.513 412.812 843.174 412.803 837.834C412.783 824.93 412.773 812.027 412.764 799.123C412.76 793.049 412.755 786.975 412.749 780.901C412.732 760.714 412.718 740.526 412.711 720.338C412.709 715.098 412.707 709.857 412.705 704.616C412.704 702.662 412.704 702.662 412.703 700.669C412.695 679.566 412.67 658.463 412.637 637.36C412.604 615.702 412.586 594.044 412.583 572.386C412.581 560.223 412.572 548.059 412.547 535.896C412.525 525.537 412.517 515.179 412.527 504.82C412.531 499.535 412.529 494.25 412.51 488.965C412.492 484.124 412.493 479.284 412.509 474.443C412.511 472.694 412.507 470.945 412.495 469.196C412.426 458.304 412.592 448.628 420.25 440.125C433.272 428.553 449.078 433.046 464.635 436.483Z" fill="#FCFCFC"/>
<path d="M729 36C729.075 40.305 729.129 44.6096 729.165 48.915C729.18 50.3777 729.2 51.8403 729.226 53.3027C729.263 55.4129 729.28 57.5224 729.293 59.6328C729.309 60.9001 729.324 62.1674 729.341 63.4731C728.828 68.7799 727.383 71.7948 723.354 75.3054C722.272 76.0438 721.189 76.7822 720.074 77.543C719.465 77.9627 718.856 78.3823 718.228 78.8147C716.163 80.2273 714.084 81.6157 712 83C710.887 83.743 710.887 83.743 709.753 84.501C704.717 87.8583 699.659 91.1804 694.594 94.493C673.558 108.255 652.694 122.264 631.877 136.356C626.405 140.057 620.915 143.731 615.414 147.39C608.437 152.033 601.499 156.734 594.562 161.438C593.885 161.896 593.208 162.355 592.511 162.828C583.868 168.685 575.237 174.557 566.645 180.488C563.21 182.859 559.763 185.212 556.316 187.564C548.411 192.96 540.538 198.4 532.688 203.875C525.155 209.128 517.595 214.338 510 219.5C499.588 226.578 489.248 233.758 478.922 240.962C473.971 244.415 469.017 247.864 464.062 251.312C463.098 251.984 462.133 252.655 461.14 253.347C455.709 257.124 450.269 260.885 444.812 264.625C431.938 273.453 419.18 282.449 406.434 291.461C400.967 295.323 395.486 299.164 390 303C381.676 308.821 373.371 314.669 365.077 320.532C361.552 323.023 358.026 325.511 354.5 328C353.083 329 351.667 330 350.25 331C330.417 345 310.583 359 290.75 373C290.049 373.495 289.348 373.99 288.626 374.5C287.207 375.501 285.788 376.503 284.368 377.504C280.863 379.978 277.359 382.453 273.855 384.93C266.25 390.305 258.632 395.662 251 401C244.787 405.347 238.574 409.695 232.375 414.062C231.698 414.539 231.021 415.016 230.324 415.507C226.544 418.177 222.787 420.876 219.047 423.602C218.225 424.2 217.404 424.798 216.557 425.414C214.968 426.573 213.382 427.735 211.798 428.901C211.084 429.422 210.369 429.943 209.633 430.48C209.003 430.943 208.372 431.406 207.723 431.884C206 433 206 433 203 434C202.98 432.87 202.96 431.74 202.94 430.575C202.864 426.378 202.775 422.181 202.683 417.984C202.644 416.169 202.609 414.353 202.578 412.537C202.532 409.926 202.474 407.314 202.414 404.703C202.403 403.893 202.391 403.082 202.379 402.247C202.275 398.254 201.87 395.499 200 392C200.089 389.965 200.089 389.965 201 388C202.964 386.287 202.964 386.287 205.582 384.559C206.563 383.902 207.544 383.246 208.554 382.569C209.629 381.866 210.705 381.162 211.812 380.438C212.936 379.69 214.058 378.942 215.18 378.192C217.557 376.606 219.937 375.025 222.32 373.447C227.773 369.829 233.18 366.144 238.591 362.463C240.38 361.247 242.17 360.032 243.961 358.817C252.126 353.279 260.275 347.717 268.414 342.141C286.878 329.492 305.406 316.937 323.941 304.393C325.982 303.012 328.023 301.63 330.064 300.249C350.817 286.201 371.586 272.174 392.36 258.156C398.213 254.206 404.066 250.256 409.918 246.305C419.945 239.536 429.972 232.767 440 226C440.935 225.369 441.87 224.738 442.833 224.088C448.692 220.134 454.551 216.181 460.411 212.228C462.276 210.969 464.142 209.711 466.007 208.452C475.655 201.942 485.307 195.442 495 189C496.309 188.128 497.617 187.255 498.926 186.383C505.676 181.883 505.676 181.883 507.617 180.589C509.482 179.345 511.347 178.1 513.211 176.854C522.125 170.9 531.068 164.993 540.026 159.106C542.461 157.506 544.896 155.905 547.331 154.303C554.295 149.723 561.261 145.143 568.226 140.564C573.422 137.148 578.618 133.731 583.812 130.312C584.669 129.749 585.525 129.186 586.407 128.606C598.823 120.435 611.198 112.205 623.551 103.94C633.324 97.4051 643.17 91.003 653.094 84.6992C661.25 79.5103 669.298 74.1727 677.328 68.792C684.376 64.0712 691.468 59.4226 698.594 54.8208C703.036 51.9465 707.451 49.0363 711.84 46.082C713.289 45.1077 713.289 45.1077 714.767 44.1138C716.639 42.8519 718.509 41.5861 720.376 40.3159C721.213 39.7515 722.051 39.187 722.914 38.6055C723.656 38.1017 724.398 37.5979 725.163 37.0789C727 36 727 36 729 36Z" fill="#FAFAFA"/>
<path d="M402 599C402 667.64 402 736.28 402 807C396.961 807 393.31 806.835 388.527 805.863C386.699 805.495 386.699 805.495 384.833 805.12C382.905 804.72 382.905 804.72 380.938 804.312C379.596 804.039 378.255 803.766 376.913 803.493C367.154 801.497 357.434 799.345 347.734 797.078C344.628 796.359 341.517 795.69 338.388 795.073C329.77 793.36 321.166 791.578 312.562 789.796C310.405 789.351 308.248 788.907 306.09 788.464C295.107 786.212 284.217 783.888 273.41 780.894C267.376 779.312 261.255 778.201 255.125 777.062C253.783 776.808 252.441 776.553 251.1 776.298C248.386 775.781 245.673 775.266 242.958 774.752C236.946 773.612 230.941 772.437 224.938 771.25C223.916 771.052 222.895 770.853 221.842 770.649C217.099 769.708 212.548 768.687 208 767C208 766.34 208 765.68 208 765C209.552 763.607 211.17 762.286 212.812 761C216.839 757.783 220.711 754.5 224.5 751C228.036 747.745 231.628 744.634 235.375 741.625C239.578 738.236 243.562 734.688 247.5 731C252.283 726.521 257.208 722.315 262.32 718.211C265.133 715.891 267.818 713.469 270.5 711C274.947 706.906 279.547 703.076 284.25 699.281C287.081 696.933 289.794 694.491 292.5 692C296.947 687.906 301.547 684.076 306.25 680.281C309.081 677.933 311.794 675.491 314.5 673C318.872 668.98 323.378 665.2 327.996 661.469C331.487 658.6 334.904 655.654 338.312 652.688C338.946 652.136 339.58 651.585 340.232 651.017C341.518 649.898 342.804 648.779 344.09 647.66C351.234 641.451 358.396 635.272 365.75 629.312C370.124 625.764 374.303 622.047 378.465 618.254C381.985 615.124 385.645 612.179 389.309 609.219C392.739 606.391 396.037 603.431 399.32 600.434C401 599 401 599 402 599Z" fill="#FCFCFC"/>
<path d="M1022 399C1022.99 399.33 1023.98 399.66 1025 400C1025.1 404.305 1025.17 408.609 1025.22 412.915C1025.24 414.378 1025.27 415.84 1025.3 417.303C1025.35 419.413 1025.37 421.522 1025.39 423.633C1025.41 424.9 1025.43 426.167 1025.45 427.473C1024.67 433.549 1020.98 437.272 1016.69 441.375C1013.16 444.815 1009.89 448.364 1006.68 452.102C1005.02 453.98 1003.29 455.743 1001.5 457.5C998.524 460.43 995.784 463.501 993.055 466.66C983.389 477.667 973.198 488.235 963.193 498.932C957.29 505.244 951.391 511.557 945.562 517.938C941.246 522.661 936.882 527.337 932.5 532C926.28 538.62 920.121 545.289 914 552C907.354 559.278 900.663 566.507 893.924 573.699C890.39 577.481 886.945 581.32 883.57 585.246C881.225 587.865 878.716 590.309 876.188 592.75C874.29 594.702 872.503 596.695 870.719 598.75C866.482 603.629 862.048 608.31 857.605 613C853.845 616.986 850.182 621.034 846.609 625.189C844.424 627.648 842.081 629.928 839.737 632.234C837.984 634.017 836.346 635.86 834.715 637.754C831.252 641.735 827.684 645.6 824.062 649.438C823.421 650.12 822.779 650.802 822.117 651.506C820.08 653.672 818.04 655.836 816 658C804.206 670.519 804.206 670.519 792.438 683.062C791.89 683.645 791.343 684.228 790.779 684.828C787.99 687.812 785.259 690.834 782.582 693.918C778.913 698.134 775.097 702.197 771.25 706.25C765.66 712.164 760.115 718.111 754.629 724.121C746.88 732.606 739.056 741.021 731.209 749.416C727.479 753.409 723.764 757.417 720.062 761.438C715.549 766.339 711 771.206 706.438 776.062C698.765 784.233 691.162 792.46 683.688 800.812C678.16 806.969 672.495 812.997 666.839 819.036C657.035 829.506 647.271 840.013 637.557 850.568C630.345 858.405 623.082 866.192 615.793 873.957C612.168 877.819 608.551 881.689 604.938 885.562C604.363 886.179 603.788 886.795 603.195 887.43C600.321 890.511 597.447 893.593 594.574 896.676C593.425 897.909 592.275 899.142 591.125 900.375C590.557 900.984 589.989 901.594 589.404 902.221C586.227 905.626 583.04 909.021 579.844 912.406C578.796 913.516 578.796 913.516 577.726 914.649C576.342 916.116 574.957 917.582 573.573 919.048C569.381 923.497 565.271 927.994 561.285 932.629C560.861 933.081 560.437 933.534 560 934C559.67 934 559.34 934 559 934C558.98 933.073 558.96 932.145 558.94 931.189C558.861 927.715 558.775 924.241 558.683 920.768C558.645 919.27 558.61 917.773 558.578 916.275C558.532 914.11 558.474 911.946 558.414 909.781C558.367 907.833 558.367 907.833 558.319 905.846C557.866 900.388 557.089 895.633 554 891C554.496 890.515 554.993 890.031 555.504 889.531C558.858 886.222 562.138 882.907 565.188 879.312C568.444 875.517 571.946 872.014 575.5 868.5C579.555 864.491 583.44 860.441 587.129 856.09C589.644 853.281 592.318 850.649 595 848C598.243 844.797 601.429 841.609 604.375 838.125C607.707 834.202 611.344 830.618 615 827C619.21 822.834 623.272 818.647 627.098 814.121C630.324 810.524 633.803 807.178 637.238 803.781C640.724 800.319 644.017 796.772 647.195 793.023C649.98 789.901 652.981 786.998 655.958 784.062C658.542 781.499 661.021 778.9 663.375 776.125C666.561 772.385 670.009 768.952 673.5 765.5C678.596 760.462 678.596 760.462 683.375 755.125C687.461 750.299 692.031 745.945 696.52 741.5C700.29 737.752 703.902 733.951 707.332 729.887C710.26 726.575 713.462 723.531 716.605 720.426C718.603 718.403 720.475 716.353 722.312 714.188C726.049 709.812 730.147 705.827 734.235 701.785C737.744 698.3 741.061 694.729 744.262 690.957C747.218 687.628 750.435 684.558 753.602 681.43C755.62 679.385 757.515 677.312 759.375 675.125C762.414 671.567 765.674 668.286 769 665C772.264 661.776 775.468 658.565 778.438 655.062C782.126 650.721 786.192 646.782 790.24 642.78C793.704 639.34 796.971 635.815 800.129 632.09C803.14 628.727 806.383 625.597 809.594 622.426C812.971 619.074 816.143 615.618 819.227 611.992C822.197 608.655 825.421 605.572 828.598 602.434C830.637 600.368 832.555 598.27 834.438 596.062C837.302 592.711 840.363 589.594 843.5 586.5C846.595 583.447 849.619 580.377 852.438 577.062C855.937 572.956 859.76 569.213 863.595 565.424C866.95 562.094 870.097 558.661 873.16 555.059C875.505 552.435 877.996 549.97 880.5 547.5C883.553 544.488 886.541 541.465 889.312 538.188C892.669 534.246 896.323 530.639 900 527C905.385 521.688 905.385 521.688 910.438 516.062C913.89 511.974 917.701 508.263 921.5 504.5C927.175 498.915 927.175 498.915 932.5 493C936.535 488.208 941.075 483.901 945.522 479.497C949.27 475.772 952.857 471.994 956.266 467.953C959.023 464.848 962.009 461.972 964.963 459.057C967.504 456.536 969.943 453.986 972.25 451.25C975.776 447.107 979.638 443.325 983.5 439.5C989.175 433.915 989.175 433.915 994.5 428C998.529 423.215 1003.06 418.914 1007.5 414.517C1011.43 410.612 1015.23 406.66 1018.8 402.418C1020 401 1020 401 1022 399Z" fill="#FAFAFB"/>
<path d="M1024 65C1024.66 65 1025.32 65 1026 65C1026.12 69.429 1026.22 73.8571 1026.27 78.2874C1026.3 79.7918 1026.33 81.2961 1026.38 82.8C1026.77 96.9077 1026.77 96.9077 1023.79 101.266C1021.28 103.725 1018.84 106.042 1016.06 108.188C1015.1 108.947 1014.14 109.706 1013.15 110.488C1012.39 111.093 1012.39 111.093 1011.61 111.709C1008.72 114.029 1005.93 116.456 1003.13 118.875C998.601 122.77 994.063 126.649 989.5 130.5C982.636 136.297 975.817 142.146 969 148C962.206 153.835 955.409 159.664 948.563 165.438C941.965 171.006 935.445 176.661 928.93 182.325C926.978 184.019 925.023 185.71 923.067 187.398C917.583 192.135 912.11 196.873 906.75 201.75C903.457 204.739 900.087 207.584 896.625 210.375C892.071 214.057 887.763 217.929 883.479 221.916C880.268 224.887 876.974 227.699 873.563 230.438C868.141 234.801 863.072 239.484 857.985 244.227C853.379 248.52 848.619 252.623 843.825 256.703C836.982 262.532 830.259 268.455 823.657 274.555C819.149 278.704 814.525 282.707 809.856 286.672C803.273 292.27 796.805 297.955 790.481 303.844C787.027 307.06 783.526 310.205 779.957 313.293C777.615 315.336 775.308 317.417 773 319.5C769.384 322.764 765.736 325.988 762.063 329.188C759.691 331.272 757.345 333.384 755 335.5C751.384 338.764 747.736 341.988 744.063 345.188C740.825 348.033 737.633 350.929 734.434 353.816C732.325 355.708 730.201 357.579 728.063 359.438C724.888 362.198 721.785 365.028 718.688 367.875C715.129 371.126 711.515 374.24 707.75 377.25C701.7 382.128 696.097 387.443 690.446 392.77C687.317 395.715 684.126 398.573 680.871 401.379C674.764 406.671 668.824 412.155 662.875 417.625C658.96 421.224 655.01 424.774 650.993 428.258C648.64 430.315 646.32 432.406 644 434.5C641.064 437.151 638.114 439.783 635.125 442.375C631.158 445.829 627.292 449.39 623.423 452.953C620.036 456.066 616.601 459.112 613.125 462.125C610.382 464.546 607.692 467.022 605 469.5C601.054 473.133 597.076 476.721 593.02 480.23C589.636 483.196 586.324 486.241 583.004 489.277C581 491 581 491 580 491C579.608 485.613 579.285 480.227 579.024 474.832C578.926 473.001 578.809 471.17 578.673 469.342C577.563 454.145 577.563 454.145 581.108 448.854C583.629 446.583 586.125 444.79 589 443C590.272 441.921 591.527 440.821 592.75 439.688C595.215 437.536 597.696 435.405 600.188 433.285C605.943 428.384 611.649 423.458 617.188 418.312C620.813 414.944 624.513 411.721 628.375 408.625C633.414 404.574 638.103 400.228 642.806 395.8C647.119 391.761 651.599 388.011 656.211 384.316C660.638 380.64 664.808 376.696 669.016 372.773C673.634 368.469 678.408 364.357 683.211 360.262C684.412 359.237 685.612 358.212 686.813 357.188C687.419 356.67 688.025 356.153 688.65 355.62C692.391 352.415 696.061 349.148 699.688 345.812C703.183 342.604 706.743 339.539 710.438 336.562C715.568 332.422 720.405 328.027 725.239 323.551C729.812 319.327 734.517 315.266 739.25 311.223C740.459 310.19 741.667 309.158 742.875 308.125C743.484 307.605 744.093 307.085 744.72 306.55C748.257 303.521 751.744 300.448 755.188 297.312C758.501 294.302 761.89 291.434 765.375 288.625C769.929 284.944 774.236 281.072 778.519 277.086C782.607 273.305 786.881 269.803 791.219 266.312C794.241 263.8 797.125 261.176 800 258.5C804.588 254.231 809.335 250.242 814.219 246.312C817.241 243.8 820.125 241.176 823 238.5C827.588 234.231 832.335 230.242 837.219 226.312C840.241 223.8 843.125 221.176 846 218.5C850.588 214.231 855.335 210.242 860.219 206.312C863.241 203.8 866.125 201.176 869 198.5C873.588 194.231 878.335 190.242 883.219 186.312C886.241 183.8 889.125 181.176 892 178.5C896.633 174.19 901.422 170.149 906.352 166.18C908.973 164.022 911.492 161.787 914 159.5C917.396 156.404 920.862 153.448 924.438 150.562C928.241 147.487 931.901 144.312 935.5 141C939.97 136.886 944.591 133.029 949.317 129.215C951.947 127.044 954.48 124.798 957 122.5C961.3 118.581 965.76 114.908 970.282 111.25C972.922 109.065 975.468 106.808 978 104.5C981.32 101.477 984.698 98.5749 988.188 95.75C992.663 92.1274 997.034 88.4048 1001.38 84.625C1003.92 82.4163 1006.46 80.2079 1009 78C1009.94 77.1804 1009.94 77.1804 1010.91 76.3442C1012.7 74.7866 1014.51 73.2361 1016.31 71.6875C1017.13 70.9762 1017.13 70.9762 1017.96 70.2505C1021.77 67 1021.77 67 1024 67C1024 66.34 1024 65.68 1024 65Z" fill="#F9F9FA"/>
<path d="M145 697C145.093 708.709 145.164 720.419 145.207 732.128C145.228 737.566 145.256 743.004 145.302 748.442C145.345 753.694 145.369 758.945 145.38 764.198C145.387 766.197 145.401 768.196 145.423 770.196C145.452 773.006 145.456 775.815 145.454 778.625C145.468 779.443 145.483 780.262 145.498 781.105C145.451 787.741 143.853 793.917 139.25 798.891C133.606 804.063 128.523 805.343 120.976 805.191C116.08 804.877 111.362 803.988 106.562 803C105.47 802.783 104.377 802.566 103.252 802.342C90.997 799.868 78.7996 797.12 66.6044 794.37C58.4581 792.534 50.3037 790.756 42.0999 789.191C37.2161 788.216 37.2161 788.216 35 786C41.2187 780.238 47.5153 774.679 54.1133 769.352C57.3001 766.756 60.4334 764.102 63.5625 761.438C68.053 757.621 72.5935 753.885 77.2109 750.223C80.8049 747.359 84.3718 744.462 87.9375 741.562C88.6334 740.997 89.3292 740.431 90.0461 739.848C93.8691 736.738 97.6873 733.623 101.5 730.5C122.114 713.625 122.114 713.625 132.308 705.69C135.016 703.578 137.672 701.429 140.273 699.188C143 697 143 697 145 697Z" fill="#FAFAFA"/>
<path d="M203 777C207.97 777.621 212.571 778.25 217.414 779.305C218.588 779.559 219.763 779.813 220.973 780.074C222.178 780.338 223.383 780.603 224.625 780.875C225.807 781.132 226.989 781.388 228.207 781.652C233.068 782.707 237.928 783.766 242.788 784.827C244.009 785.092 245.23 785.356 246.488 785.629C247.582 785.867 248.675 786.105 249.802 786.35C253.975 787.198 258.166 787.859 262.379 788.473C265.099 789.02 267.461 789.894 270 791C266.166 795.709 262.17 799.814 257.5 803.688C256.26 804.733 255.021 805.779 253.781 806.824C253.153 807.351 252.526 807.877 251.879 808.419C248.901 810.925 245.951 813.463 243 816C241.832 817.001 240.664 818.003 239.496 819.004C238.63 819.747 238.63 819.747 237.746 820.504C236.009 821.992 234.272 823.479 232.535 824.965C231.962 825.456 231.389 825.946 230.798 826.452C229.648 827.436 228.498 828.42 227.347 829.403C224.163 832.128 221 834.874 217.855 837.645C217.17 838.246 216.485 838.847 215.779 839.467C214.448 840.637 213.121 841.81 211.797 842.988C207.223 847 207.223 847 205 847C205 847.66 205 848.32 205 849C204.34 849 203.68 849 203 849C203 825.24 203 801.48 203 777Z" fill="#F8F8F8"/>
</g>
<defs>
<clipPath id="clip0_273_762">
<rect width="1037" height="952" fill="white"/>
</clipPath>
</defs>
</svg>
